<?xml version="1.0" standalone="no"?>
<!DOCTYPE svg PUBLIC "-//W3C//DTD SVG 1.1//EN" "http://www.w3.org/Graphics/SVG/1.1/DTD/svg11.dtd" >
<svg xmlns="http://www.w3.org/2000/svg" xmlns:xlink="http://www.w3.org/1999/xlink" version="1.1">
<metadata>
Created by FontForge 20201107 at Wed Mar  6 16:29:35 2024
 By 
Copyright 2024 The Platypi Project Authors (https://github.com/d-sargent/platypi)
</metadata>
<defs>
<font id="Platypi-Light" horiz-adv-x="0" >
  <font-face 
    font-family="Platypi Light"
    font-weight="300"
    font-stretch="normal"
    units-per-em="1000"
    panose-1="0 0 0 0 0 0 0 0 0 0"
    ascent="800"
    descent="-200"
    x-height="480"
    cap-height="690"
    bbox="-295 -292 1192 1025"
    underline-thickness="50"
    underline-position="-125"
    unicode-range="U+0020-FB03"
  />
<missing-glyph horiz-adv-x="603" 
d="M45 0v690h513v-690h-513zM110 59h383v572h-383v-572z" />
    <glyph glyph-name="fi" unicode="fi" horiz-adv-x="658" 
d="M43 0v14l90 68l-16 -28v395l43 -35h-126v15l83 77v31q0 67 29.5 121.5t80 86.5t112.5 32q83 0 135.5 -31.5t52.5 -81.5q0 -34 -22 -55t-57 -21h-8l-106 165h88l8 -83q-39 56 -91 56q-61 0 -96.5 -43.5t-35.5 -117.5v-513l-15 29l89 -67v-14h-238zM398 0v14l90 68l-16 -28
v404l43 -61l-331 23v48l355 19h23v-435l-15 29l89 -67v-14h-238z" />
    <glyph glyph-name="fl" unicode="fl" horiz-adv-x="658" 
d="M43 0v14l90 68l-16 -28v395l43 -35h-126v15l83 77v31q0 67 29.5 121.5t80 86.5t112.5 32q61 0 105.5 -21t68.5 -59t24 -91v-39h-49l-134 186h68l8 -83q-22 32 -42 44t-49 12q-61 0 -96.5 -43.5t-35.5 -117.5v-513l-15 29l89 -67v-14h-238zM355 405l-171 26v43l168 18h12
v-81zM398 0v14l90 68l-16 -28v648l67 63h23v-713l-15 29l89 -67v-14h-238z" />
    <glyph glyph-name="f_f_i" unicode="ffi" horiz-adv-x="1013" 
d="M43 0v14l90 68l-16 -28v395l43 -35h-126v15l83 77v13q0 71 31 125t85.5 84.5t125.5 30.5q55 0 97.5 -19.5t66.5 -54t24 -79.5q0 -2 -4 -18t-15 -31t-32 -15h-8l-124 193h86v-83q-21 30 -41.5 43t-49.5 13q-70 0 -111 -43.5t-41 -117.5v-495l-15 29l89 -67v-14h-238z
M492 405l-308 15v48l308 16v-79zM753 0v14l90 68l-16 -28v404l43 -61l-331 23v48l355 19h23v-435l-15 29l89 -67v-14h-238zM398 0v14l90 68l-16 -28v483q0 67 29.5 121.5t80 86.5t112.5 32q83 0 135.5 -31.5t52.5 -81.5q0 -34 -22 -55t-57 -21h-8l-106 165h88l8 -83
q-39 56 -91 56q-61 0 -96.5 -43.5t-35.5 -117.5v-513l-15 29l89 -67v-14h-238z" />
    <glyph glyph-name="f_f" unicode="ff" horiz-adv-x="739" 
d="M43 0v14l90 68l-16 -28v395l43 -35h-126v15l83 77v33q0 68 21 117t59.5 76t91.5 27q73 0 130 -40l-48 -103h-16l-96 119h82v-63q-13 20 -28 28t-37 8q-34 0 -51.5 -35t-17.5 -106v-515l-15 29l89 -67v-14h-238zM492 413l-308 13v48l308 14v-75zM388 0v14l90 68l-16 -28
v503q0 68 21 117t59.5 76t91.5 27q35 0 68.5 -10t61.5 -30l-48 -103h-16l-96 119h82v-63q-13 20 -28 28t-37 8q-34 0 -51.5 -35t-17.5 -106v-533l-15 26l119 -64v-14h-268zM710 405l-181 25v45l178 17h12v-81z" />
    <glyph glyph-name="f_f_l" unicode="ffl" horiz-adv-x="1013" 
d="M398 0v14l90 68l-16 -28v483q0 67 29.5 121.5t80 86.5t112.5 32q61 0 105.5 -21t68.5 -59t24 -91v-39h-49l-134 186h68l8 -83q-22 32 -42 44t-49 12q-61 0 -96.5 -43.5t-35.5 -117.5v-513l-15 29l89 -67v-14h-238zM43 0v14l90 68l-16 -28v395l43 -35h-126v15l83 77v13
q0 71 31 125t85.5 84.5t125.5 30.5q55 0 97.5 -19.5t66.5 -54t24 -79.5q0 -2 -4 -18t-15 -31t-32 -15h-8l-124 193h86v-83q-21 30 -41.5 43t-49.5 13q-70 0 -111 -43.5t-41 -117.5v-495l-15 29l89 -67v-14h-238zM492 405l-308 15v48l308 16v-79zM710 405l-171 26v43l168 18
h12v-81zM753 0v14l90 68l-16 -28v648l67 63h23v-713l-15 29l89 -67v-14h-238z" />
    <glyph glyph-name=".notdef" horiz-adv-x="603" 
d="M45 0v690h513v-690h-513zM110 59h383v572h-383v-572z" />
    <glyph glyph-name=".null" 
 />
    <glyph glyph-name="nonmarkingreturn" horiz-adv-x="333" 
 />
    <glyph glyph-name="space" unicode=" " horiz-adv-x="265" 
 />
    <glyph glyph-name="exclam" unicode="!" horiz-adv-x="240" 
d="M95 193l-40 472l119 41l14 -13l-43 -500h-50zM120 -12q-34 0 -55 20.5t-21 51.5q0 32 21 52t55 20t55 -20t21 -52q0 -31 -21 -51.5t-55 -20.5z" />
    <glyph glyph-name="quotedbl" unicode="&#x22;" horiz-adv-x="341" 
d="M227 444l-42 253l5 4h102l5 -4l-42 -253h-28zM86 444l-42 253l5 4h102l5 -4l-42 -253h-28z" />
    <glyph glyph-name="numbersign" unicode="#" horiz-adv-x="582" 
d="M295 0l136 592h48l-136 -592h-48zM44 161l16 71h432l-16 -71h-432zM103 0l136 592h48l-136 -592h-48zM90 360l16 71h432l-16 -71h-432z" />
    <glyph glyph-name="dollar" unicode="$" horiz-adv-x="571" 
d="M285 -16q-63 0 -127.5 20t-112.5 54l58 114h16l99 -152h-74v95q23 -35 61.5 -54.5t87.5 -19.5q69 0 106.5 34t37.5 98q0 36 -20.5 59t-54 38.5t-74 28t-80.5 26.5t-73.5 35t-54 54t-20.5 83q0 58 29.5 100.5t83.5 65.5t128 23q37 0 77 -9t77.5 -24.5t64.5 -36.5l-70 -109
h-16l-98 145h92l-7 -95q-23 36 -55 54t-73 18q-72 0 -108 -27.5t-36 -83.5q0 -36 20.5 -59t54 -38.5t74 -28t80.5 -26.5t73.5 -35t54 -54t20.5 -83q0 -64 -29.5 -111.5t-83.5 -73t-128 -25.5zM266 -107v884h46v-884h-46z" />
    <glyph glyph-name="percent" unicode="%" horiz-adv-x="849" 
d="M112 0l566 690h59l-566 -690h-59zM216 317q-50 0 -89 23t-61 63.5t-22 93.5q0 60 22 106t61 72.5t89 26.5q51 0 89.5 -23t60.5 -63.5t22 -93.5q0 -60 -22 -106.5t-60.5 -72.5t-89.5 -26zM216 354q47 0 72.5 39.5t25.5 112.5q0 74 -26.5 116.5t-71.5 42.5
q-47 0 -72.5 -39.5t-25.5 -112.5t26.5 -116t71.5 -43zM633 -12q-50 0 -89 23t-61 63.5t-22 93.5q0 60 22 106.5t61 72.5t89 26q51 0 89.5 -23t60.5 -63.5t22 -93.5q0 -60 -22 -106t-60.5 -72.5t-89.5 -26.5zM633 25q47 0 72.5 39.5t25.5 112.5q0 74 -26.5 116.5t-71.5 42.5
q-47 0 -72.5 -39.5t-25.5 -112.5t26.5 -116t71.5 -43z" />
    <glyph glyph-name="ampersand" unicode="&#x26;" horiz-adv-x="795" 
d="M671 -16q-28 0 -53.5 8.5t-48.5 26t-46 44.5l-298 353q-36 42 -51.5 76t-15.5 72q0 42 22 74t60.5 50t88.5 18q47 0 105.5 -15.5t102.5 -40.5l-73 -120h-16l-99 142h86l13 -83q-13 21 -33.5 35.5t-46 22.5t-53.5 8q-36 0 -58.5 -19.5t-22.5 -50.5q0 -22 9 -40.5t31 -45.5
l335 -396q26 -30 53 -45t55 -15q32 0 61 16l15 -18q-13 -26 -46 -41.5t-76 -15.5zM297 -16q-74 0 -131 28t-89 78t-32 115q0 52 23 95.5t66 75t101 46.5l19 -29q-58 -30 -84.5 -70t-26.5 -98q0 -52 22 -92.5t61 -63t89 -22.5q103 0 170 94l37 -42q-48 -60 -102 -87.5
t-123 -27.5zM548 140l-37 35q20 38 29.5 82t11.5 112l-103 57v16h267v-16l-86 -59q-11 -67 -32 -124t-50 -103z" />
    <glyph glyph-name="quotesingle" unicode="'" horiz-adv-x="200" 
d="M86 444l-42 253l5 4h102l5 -4l-42 -253h-28z" />
    <glyph glyph-name="parenleft" unicode="(" horiz-adv-x="344" 
d="M308 -235q-81 50 -140 127.5t-91.5 173t-32.5 199.5t32.5 199.5t91.5 173.5t140 127l14 -18q-92 -85 -142 -210t-50 -272t50 -272t142 -210z" />
    <glyph glyph-name="parenright" unicode=")" horiz-adv-x="344" 
d="M36 -235l-14 18q92 85 142 210t50 272t-50 272t-142 210l14 18q81 -49 140.5 -127t91.5 -173.5t32 -199.5t-32 -199.5t-91.5 -173t-140.5 -127.5z" />
    <glyph glyph-name="asterisk" unicode="*" horiz-adv-x="380" 
d="M260 417l-10 2l-60 147l-60 -147l-10 -2l-75 54v10l121 104l-159 11l-5 9l28 87l10 4l136 -85l-39 156l7 8h92l7 -8l-39 -156l136 85l10 -4l28 -87l-5 -9l-159 -11l121 -104v-10z" />
    <glyph glyph-name="plus" unicode="+" horiz-adv-x="518" 
d="M233 128v428h52v-428h-52zM44 317v50h430v-50h-430z" />
    <glyph glyph-name="comma" unicode="," horiz-adv-x="285" 
d="M65 -136l-8 27q38 14 59.5 43.5t21.5 65.5l-71 48v12q0 32 21 52t55 20t55 -23.5t21 -60.5q0 -45 -19.5 -83.5t-54.5 -65t-80 -35.5z" />
    <glyph glyph-name="hyphen" unicode="-" horiz-adv-x="340" 
d="M25 211l10 74h275l-10 -74h-275z" />
    <glyph glyph-name="period" unicode="." horiz-adv-x="284" 
d="M142 -12q-34 0 -55 20.5t-21 51.5q0 32 21 52t55 20t55 -20t21 -52q0 -31 -21 -51.5t-55 -20.5z" />
    <glyph glyph-name="slash" unicode="/" horiz-adv-x="400" 
d="M6 -95l328 900h60l-328 -900h-60z" />
    <glyph glyph-name="zero" unicode="0" horiz-adv-x="652" 
d="M326 -16q-87 0 -150 42t-97.5 118.5t-34.5 181.5q0 117 34.5 202t97.5 131.5t150 46.5t150 -41.5t97.5 -118.5t34.5 -182q0 -117 -34.5 -202t-97.5 -131.5t-150 -46.5zM326 39q55 0 95 36.5t62 104t22 160.5q0 149 -46.5 230t-132.5 81q-55 0 -95 -36.5t-62 -104
t-22 -160.5q0 -149 46.5 -230t132.5 -81z" />
    <glyph glyph-name="one" unicode="1" horiz-adv-x="411" 
d="M45 0v16l118 55v507h-125l-4 13l210 115h13v-635l118 -55v-16h-330z" />
    <glyph glyph-name="two" unicode="2" horiz-adv-x="627" 
d="M75 0l-15 28l131 139q87 92 138 156.5t72.5 112.5t21.5 90q0 56 -40 92t-104 36q-43 0 -80.5 -21t-59.5 -56l22 95h90l-105 -148h-16l-68 112q28 21 66.5 36.5t80 24.5t80.5 9q117 0 180 -44.5t63 -127.5q0 -29 -10.5 -60t-35 -67t-65 -81t-99.5 -104l-164 -163v25h285
l103 85h16l-20 -169h-467z" />
    <glyph glyph-name="three" unicode="3" horiz-adv-x="608" 
d="M290 -16q-73 0 -131 18t-114 58l65 116h16l110 -158l-90 10l-22 95q23 -45 62.5 -65.5t103.5 -20.5q48 0 86.5 20.5t61 55.5t22.5 78q0 45 -24.5 79t-67.5 53.5t-99 19.5v47q142 0 218 -47.5t76 -135.5q0 -68 -33 -118.5t-94.5 -77.5t-145.5 -27zM342 366v28h46v-28h-46z
M269 367v28q48 0 86 18t60.5 49t22.5 69q0 54 -41.5 88.5t-106.5 34.5q-46 0 -84 -13t-74 -42l24 83h100l-110 -148h-16l-63 112q44 29 104.5 44.5t128.5 15.5q71 0 125.5 -21t85 -58t30.5 -86q0 -80 -73.5 -127t-198.5 -47z" />
    <glyph glyph-name="four" unicode="4" horiz-adv-x="644" 
d="M30 178l-15 28l307 484h121v-13l-377 -466l-7 -33h-29zM30 178l27 56h557v-56h-584zM247 0v16l97 59v322l7 8h87v-330l97 -59v-16h-288z" />
    <glyph glyph-name="five" unicode="5" horiz-adv-x="626" 
d="M299 -16q-78 0 -138.5 18t-116.5 58l65 116h16l110 -158l-90 10l-22 95q23 -46 63.5 -66t112.5 -20q53 0 93.5 21.5t63.5 59t23 85.5q0 75 -50 119t-136 44q-51 0 -93.5 -12.5t-77.5 -37.5l-22 21l25 353h336l78 54h16l-15 -138h-392l56 31l-18 -269l-28 11q35 24 84 38
t98 14q71 0 125.5 -27t85.5 -75t31 -110q0 -69 -36 -122t-100 -83t-147 -30z" />
    <glyph glyph-name="six" unicode="6" horiz-adv-x="623" 
d="M319 -16q-132 0 -203.5 92.5t-71.5 264.5q0 107 39.5 189.5t108.5 129t159 46.5q56 0 112.5 -16t105.5 -46l-67 -116h-16l-91 134l75 10l25 -82q-66 61 -148 61q-59 0 -104.5 -39t-71 -108t-25.5 -159q0 -94 22 -163.5t62 -107t95 -37.5q69 0 109.5 43.5t40.5 118.5
q0 81 -42 124.5t-119 43.5q-58 0 -104.5 -33.5t-74.5 -95.5l-12 49q18 43 51.5 75.5t77.5 51t90 18.5q73 0 126 -26.5t82 -75.5t29 -117q0 -64 -34.5 -116t-93.5 -82.5t-132 -30.5z" />
    <glyph glyph-name="seven" unicode="7" horiz-adv-x="580" 
d="M293 0h-125v13l343 644l7 33h24l15 -28zM75 521l-30 169h497l-35 -84h-333l-83 -85h-16z" />
    <glyph glyph-name="eight" unicode="8" horiz-adv-x="630" 
d="M315 -16q-83 0 -143.5 23t-93.5 64.5t-33 99.5q0 70 59.5 121.5t168.5 78.5l8 -23q-58 -20 -95.5 -66t-37.5 -98q0 -67 46 -107t125 -40q73 0 119 38.5t46 98.5q0 40 -22.5 65t-59.5 42t-81 30t-88.5 28t-81.5 37t-59.5 55.5t-22.5 85.5q0 53 33 96t88.5 68t124.5 25
q72 0 127 -21.5t86 -59.5t31 -88q0 -65 -57.5 -113t-164.5 -71l-8 20q59 22 94 62.5t35 88.5q0 60 -40.5 95.5t-110.5 35.5q-38 0 -69.5 -15.5t-49.5 -42t-18 -59.5q0 -40 22.5 -65t59.5 -42t81.5 -30t88.5 -28t81 -37t59.5 -55.5t22.5 -85.5q0 -65 -33 -112.5t-93.5 -73
t-143.5 -25.5z" />
    <glyph glyph-name="nine" unicode="9" horiz-adv-x="623" 
d="M304 706q132 0 203.5 -92.5t71.5 -264.5q0 -107 -39 -189.5t-108.5 -129t-159.5 -46.5q-55 0 -111.5 16t-106.5 46l67 116h16l91 -134l-75 -10l-25 82q66 -61 148 -61q59 0 104.5 39t71 108t25.5 159q0 95 -22 164t-62 106.5t-95 37.5q-69 0 -109.5 -43.5t-40.5 -118.5
q0 -81 42 -124.5t119 -43.5q59 0 105 33.5t74 95.5l12 -49q-17 -42 -51 -75t-77.5 -51.5t-90.5 -18.5q-73 0 -126 26.5t-82 76t-29 116.5q0 64 34.5 116t93.5 82.5t132 30.5z" />
    <glyph glyph-name="colon" unicode=":" horiz-adv-x="284" 
d="M142 288q-34 0 -55 20.5t-21 51.5q0 32 21 52t55 20t55 -20t21 -52q0 -31 -21 -51.5t-55 -20.5zM142 -12q-34 0 -55 20.5t-21 51.5q0 32 21 52t55 20t55 -20t21 -52q0 -31 -21 -51.5t-55 -20.5z" />
    <glyph glyph-name="semicolon" unicode=";" horiz-adv-x="285" 
d="M65 -136l-8 27q38 14 59.5 43.5t21.5 65.5l-71 48v12q0 32 21 52t55 20t55 -23.5t21 -60.5q0 -45 -19.5 -83.5t-54.5 -65t-80 -35.5zM142 288q-34 0 -55 20.5t-21 51.5q0 32 21 52t55 20t55 -20t21 -52q0 -31 -21 -51.5t-55 -20.5z" />
    <glyph glyph-name="less" unicode="&#x3c;" horiz-adv-x="518" 
d="M474 88l-430 228v52l430 228v-54l-398 -211v22l398 -211v-54z" />
    <glyph glyph-name="equal" unicode="=" horiz-adv-x="518" 
d="M44 398v50h430v-50h-430zM44 236v50h430v-50h-430z" />
    <glyph glyph-name="greater" unicode="&#x3e;" horiz-adv-x="518" 
d="M44 88v54l398 211v-22l-398 211v54l430 -228v-52z" />
    <glyph glyph-name="question" unicode="?" horiz-adv-x="545" 
d="M207 193l-7 54q-7 57 4.5 93t34.5 58.5t50.5 37t53 28t42 32t16.5 48.5q0 47 -39 76t-101 29q-83 0 -128 -72v95h90l-105 -148h-16l-68 112q28 21 67.5 36.5t84 24.5t86.5 9q71 0 122 -20.5t79 -57.5t28 -89q0 -42 -16 -69t-41.5 -45t-55 -34t-57 -35.5t-46.5 -48.5
t-24 -75l-4 -39h-50zM236 -12q-34 0 -55 20.5t-21 51.5q0 32 21 52t55 20t55 -20t21 -52q0 -31 -21 -51.5t-55 -20.5z" />
    <glyph glyph-name="at" unicode="@" horiz-adv-x="1226" 
d="M606 -251q-114 0 -208.5 35.5t-163.5 100t-106.5 153.5t-37.5 196q0 91 29 173t81.5 149.5t124.5 117t159.5 76.5t184.5 27q103 0 188.5 -31t148 -87.5t96.5 -134.5t34 -171q0 -81 -22.5 -146t-64.5 -111.5t-101 -71t-133 -24.5q-79 0 -116 41.5t-21 112.5l73 319h12
l70 48h17l-83 -362q-13 -60 8 -92t73 -32q60 0 105.5 39t71 108t25.5 159q0 120 -46.5 208t-132 135.5t-203.5 47.5q-103 0 -192.5 -37.5t-157 -104t-105 -155t-37.5 -190.5q0 -99 32 -181.5t91.5 -142.5t140.5 -93t178 -33q75 0 147 18t142 55l15 -25q-42 -29 -94.5 -50
t-109.5 -32.5t-112 -11.5zM477 20q-46 0 -73.5 40t-27.5 108q0 75 23.5 139.5t65 113t97 76t119.5 27.5q35 0 66.5 -12t58.5 -36l-33 -148q0 73 -26.5 112.5t-76.5 39.5q-34 0 -64 -15.5t-55 -44t-43 -67.5t-28 -85.5t-10 -99.5q0 -77 48 -77q31 0 64.5 29.5t65.5 81.5
t58.5 121.5t44.5 149.5h46l-51 -231h-50q-53 -120 -103.5 -171t-115.5 -51z" />
    <glyph glyph-name="A" unicode="A" horiz-adv-x="709" 
d="M2 0v16l86 77l-46 -80l284 677h58l284 -677l-47 81l86 -78v-16h-261v16l130 80l-8 -83l-262 626h42l-219 -626l-13 84l130 -81v-16h-244zM172 214v50h346v-50h-346zM307 609l-69 65v16h105z" />
    <glyph glyph-name="B" unicode="B" horiz-adv-x="647" 
d="M187 0v50h145q76 0 120.5 39t44.5 105q0 71 -40.5 108.5t-114.5 37.5h-155v50h165q116 0 183 -46t67 -124q0 -67 -33 -116.5t-93.5 -76.5t-143.5 -27h-145zM30 0v16l79 59v540l-79 59v16h175v-690h-175zM412 367v28h46v-28h-46zM220 364v26h117q60 0 92.5 31t32.5 89
q0 130 -155 130h-155v50h165q119 0 183.5 -40t64.5 -114q0 -82 -59 -127t-169 -45h-117z" />
    <glyph glyph-name="C" unicode="C" horiz-adv-x="694" 
d="M394 -16q-107 0 -185.5 42.5t-121 121t-42.5 185.5q0 78 27 146t75 119t111.5 79.5t137.5 28.5q44 0 89.5 -9t86 -24.5t67.5 -36.5l-70 -112h-16l-105 148h92v-95q-45 72 -152 72q-70 0 -123.5 -37.5t-84 -104t-30.5 -153.5q0 -91 31.5 -161.5t87.5 -110t129 -39.5
q68 0 119.5 29t96.5 91l35 -20q-42 -76 -108 -117.5t-147 -41.5z" />
    <glyph glyph-name="D" unicode="D" horiz-adv-x="735" 
d="M177 0v50h145q85 0 143.5 33t89 95.5t30.5 152.5q0 95 -31 164.5t-87.5 107t-134.5 37.5h-155v50h165q102 0 180.5 -42.5t123 -117.5t44.5 -173q0 -79 -27 -144.5t-76 -113t-116.5 -73.5t-148.5 -26h-145zM30 0v16l79 59v540l-79 59v16h175v-690h-175z" />
    <glyph glyph-name="E" unicode="E" horiz-adv-x="619" 
d="M30 0v16l79 59v540l-79 59v16h175v-690h-175zM187 0v43l341 16v-59h-341zM433 0v41l125 126h16l-6 -167h-135zM443 324l-265 10v43l265 11v-64zM459 261l-80 76v38l80 76h16v-190h-16zM528 631l-341 16v43h341v-59zM546 546l-114 100v44l113 8h11l6 -152h-16z" />
    <glyph glyph-name="F" unicode="F" horiz-adv-x="592" 
d="M30 0v16l79 59v540l-79 59v16h175v-615l109 -59v-16h-284zM447 312l-265 10v43l265 11v-64zM453 249l-80 76v38l80 76h16v-190h-16zM518 631l-331 16v43h331v-59zM531 546l-114 100v44l113 8h11l6 -152h-16z" />
    <glyph glyph-name="G" unicode="G" horiz-adv-x="756" 
d="M394 -16q-107 0 -185.5 42.5t-121 121t-42.5 185.5q0 78 27 146t75 119t111.5 79.5t137.5 28.5q48 0 97 -8.5t91.5 -23.5t69.5 -35l-71 -113h-16l-112 149h95l5 -87q-31 32 -71 46.5t-96 14.5q-70 0 -123.5 -37.5t-84 -104t-30.5 -153.5q0 -91 31.5 -161.5t87.5 -110
t129 -39.5q92 0 141 37.5t49 106.5l35 -20q-14 -91 -71 -137t-158 -46zM647 -16l-86 75v193l-89 64v16h254v-16l-69 -59v-273h-10z" />
    <glyph glyph-name="H" unicode="H" horiz-adv-x="756" 
d="M472 0v16l79 59v540l-79 59v16h254v-16l-79 -59v-540l79 -59v-16h-254zM30 0v16l79 59v540l-79 59v16h254v-16l-79 -59v-540l79 -59v-16h-254zM174 331v55h408v-55h-408z" />
    <glyph glyph-name="I" unicode="I" horiz-adv-x="314" 
d="M30 0v16l79 59v540l-79 59v16h254v-16l-79 -59v-540l79 -59v-16h-254z" />
    <glyph glyph-name="J" unicode="J" horiz-adv-x="597" 
d="M246 -16q-39 0 -80 12t-78 33.5t-64 49.5l68 118h16l75 -156h-81v102q38 -59 72.5 -82t83.5 -23q62 0 98 42t36 113v422l-79 59v16h254v-16l-79 -59v-418q0 -98 -65 -155.5t-177 -57.5z" />
    <glyph glyph-name="K" unicode="K" horiz-adv-x="704" 
d="M167 241v51l343 385l-22 -88l-81 85v16h265v-16l-138 -80l67 50zM30 0v16l79 59v540l-79 59v16h254v-16l-79 -59v-540l79 -59v-16h-254zM455 0v16l82 75l18 -75l-255 366l68 63l301 -432l-87 99l120 -96v-16h-247z" />
    <glyph glyph-name="L" unicode="L" horiz-adv-x="598" 
d="M30 0v16l79 59v540l-79 59v16h264v-16l-89 -59v-615h-175zM187 0v43l351 16v-59h-351zM413 0v41l124 143h16l-5 -184h-135z" />
    <glyph glyph-name="M" unicode="M" horiz-adv-x="929" 
d="M428 0l-292 690h100l257 -608h-38l218 608h81l-291 -690h-35zM2 0v16l79 59l52 552l8 -19l-85 66v16h128l-33 -615l79 -59v-16h-228zM677 0v16l79 59l-53 615h178v-16l-79 -59l46 -540l79 -59v-16h-250z" />
    <glyph glyph-name="N" unicode="N" horiz-adv-x="734" 
d="M593 -6l-459 591v105h32l437 -561h-22l-38 486l-79 59v16h240v-16l-79 -59v-621h-32zM30 0v16l79 59l12 522l-69 77v16h106l33 -615l79 -59v-16h-240z" />
    <glyph glyph-name="O" unicode="O" horiz-adv-x="773" 
d="M380 -16q-98 0 -174 44.5t-118.5 124.5t-42.5 185q0 108 44.5 191t123 130t180.5 47q99 0 174.5 -44.5t118 -124t42.5 -185.5q0 -108 -44.5 -191t-123 -130t-180.5 -47zM398 41q69 0 119.5 35.5t78 100.5t27.5 154q0 98 -30.5 169t-86 110t-131.5 39q-69 0 -119.5 -35.5
t-78 -100.5t-27.5 -154q0 -97 30.5 -168.5t86 -110.5t131.5 -39z" />
    <glyph glyph-name="P" unicode="P" horiz-adv-x="601" 
d="M30 0v16l79 59v540l-79 59v16h175v-615l94 -59v-16h-269zM287 284h-117v50h127q68 0 111.5 43t43.5 110q0 71 -42 112t-113 41h-155v50h165q77 0 132.5 -23.5t86 -66.5t30.5 -102q0 -63 -34.5 -111t-95 -75.5t-139.5 -27.5z" />
    <glyph glyph-name="Q" unicode="Q" horiz-adv-x="773" 
d="M724 -188l-143 40q-86 24 -142.5 62.5t-67.5 79.5l80 23v-30l315 -90v-15l-32 -65zM380 -16q-98 0 -174 44.5t-118.5 124.5t-42.5 185q0 108 44.5 191t123 130t180.5 47q99 0 174.5 -44.5t118 -124t42.5 -185.5q0 -108 -44.5 -191t-123 -130t-180.5 -47zM398 41
q69 0 119.5 35.5t78 100.5t27.5 154q0 98 -30.5 169t-86 110t-131.5 39q-69 0 -119.5 -35.5t-78 -100.5t-27.5 -154q0 -97 30.5 -168.5t86 -110.5t131.5 -39z" />
    <glyph glyph-name="R" unicode="R" horiz-adv-x="649" 
d="M30 0v16l79 59v540l-79 59v16h175v-615l79 -59v-16h-254zM491 0l-224 329l107 6l219 -322l-84 94l128 -91v-16h-146zM170 300v50h127q71 0 113 39.5t42 106.5q0 66 -42 105t-113 39h-155v50h165q115 0 182 -49.5t67 -134.5q0 -89 -63 -141.5t-171 -52.5h-6v-12h-146z" />
    <glyph glyph-name="S" unicode="S" horiz-adv-x="611" 
d="M305 -16q-46 0 -95 9.5t-92 26.5t-73 38l58 119h16l113 -157h-88v95q23 -37 65.5 -55.5t103.5 -18.5q75 0 118.5 38.5t43.5 103.5q0 49 -46 80t-139 52q-75 17 -126.5 44t-77.5 64t-26 84q0 92 70.5 145.5t190.5 53.5q43 0 87.5 -9t84.5 -24.5t67 -36.5l-70 -114h-16
l-102 150h96l-7 -95q-24 38 -59.5 55t-88.5 17q-71 0 -116.5 -34t-45.5 -87q0 -49 46 -80t139 -52q76 -17 127 -44t77 -63.5t26 -84.5q0 -67 -32 -116.5t-90.5 -76.5t-138.5 -27z" />
    <glyph glyph-name="T" unicode="T" horiz-adv-x="686" 
d="M206 0v16l89 59v610l40 -37l-259 -19v61h534v-61l-259 19l40 37v-610l89 -59v-16h-274zM45 533l3 165h11l120 -8v-44l-118 -113h-16zM625 533l-118 113v44l120 8h11l3 -165h-16z" />
    <glyph glyph-name="U" unicode="U" horiz-adv-x="699" 
d="M545 611l-89 63v16h241v-16l-79 -63v-322q0 -98 -30 -166t-88 -103.5t-141 -35.5q-139 0 -208.5 69.5t-69.5 208.5v353l-79 59v16h254v-16l-79 -59v-326q0 -127 44 -185t140 -58t140 58t44 185v322z" />
    <glyph glyph-name="V" unicode="V" horiz-adv-x="692" 
d="M332 -12l-291 689l46 -81l-85 78v16h254v-16l-129 -83l15 83l250 -592h-36l199 595l20 -87l-129 84v16h244v-16l-85 -76l45 79l-291 -689h-27z" />
    <glyph glyph-name="W" unicode="W" horiz-adv-x="1073" 
d="M735 -12l-222 566v48l-119 72v16h287v-16l-129 -78l13 78l232 -592h-39l178 595l20 -83l-129 80v16h244v-16l-85 -81l45 84l-269 -689h-27zM306 -12l-268 684l40 -76l-76 78v16h245v-16l-129 -83l18 83l232 -592h-39l178 595h95l-269 -689h-27z" />
    <glyph glyph-name="X" unicode="X" horiz-adv-x="723" 
d="M443 0v16l133 85v-88l-523 664l72 -80l-102 77v16h278v-16l-133 -85v88l523 -664l-72 80l102 -77v-16h-278zM2 0v16l96 77l-70 -80l290 371l35 -16l-213 -355v82l124 -79v-16h-262zM341 322l213 355v-82l-124 79v16h261v-16l-96 -77l71 80l-280 -355h-45z" />
    <glyph glyph-name="Y" unicode="Y" horiz-adv-x="676" 
d="M317 208l-286 469l56 -78l-85 75v16h253v-16l-138 -94l20 97l231 -377h-6l180 377l20 -92l-128 89v16h240v-16l-81 -72l54 75l-296 -469h-34zM212 0v16l79 59v210h96v-210l79 -59v-16h-254z" />
    <glyph glyph-name="Z" unicode="Z" horiz-adv-x="630" 
d="M45 0v16l430 669l21 -36l-351 -16v57h427v-16l-429 -668l-21 36l358 17v-59h-435zM443 0v47l126 133h16l-10 -180h-132zM74 527l-18 171h16l140 -8l-12 -30l-110 -133h-16z" />
    <glyph glyph-name="bracketleft" unicode="[" horiz-adv-x="271" 
d="M44 -204v938h205v-20l-161 -27l31 28v-900l-31 28l161 -27v-20h-205z" />
    <glyph glyph-name="backslash" unicode="\" horiz-adv-x="399" 
d="M334 -95l-328 900h59l328 -900h-59z" />
    <glyph glyph-name="bracketright" unicode="]" horiz-adv-x="271" 
d="M227 -204h-205v20l161 27l-31 -28v900l31 -28l-161 27v20h205v-938z" />
    <glyph glyph-name="asciicircum" unicode="^" horiz-adv-x="518" 
d="M44 345l188 345h54l188 -345h-55l-170 313h20l-170 -313h-55z" />
    <glyph glyph-name="underscore" unicode="_" horiz-adv-x="520" 
d="M20 -104v60h480v-60h-480z" />
    <glyph glyph-name="grave" unicode="`" horiz-adv-x="270" 
d="M209 550l-165 154v2l90 59h2l90 -205z" />
    <glyph glyph-name="a" unicode="a" horiz-adv-x="557" 
d="M412 -12l-23 79h-10v230q0 70 -30.5 104.5t-92.5 34.5q-32 0 -61.5 -12.5t-48.5 -34.5l6 80h79l-101 -133h-16l-51 106q27 16 58.5 27t66 17t69.5 6q107 0 159.5 -42t52.5 -128v-241l-41 57l107 -75v-15l-106 -60h-17zM197 -12q-65 0 -106.5 36t-41.5 93q0 135 207 168
l160 25v-40l-116 -28q-89 -22 -124 -46t-35 -67q0 -33 23 -52t63 -19q102 0 167 71v-62h-15q-40 -41 -83.5 -60t-98.5 -19z" />
    <glyph glyph-name="b" unicode="b" horiz-adv-x="595" 
d="M288 -12q-87 0 -143 41v94q22 -39 61.5 -60t91.5 -21q47 0 82.5 25t56 68.5t20.5 100.5q0 89 -35.5 137.5t-101.5 48.5q-46 0 -83 -19.5t-72 -62.5v66h15q30 40 74.5 63t90.5 23q64 0 110 -29t71 -82.5t25 -126.5q0 -78 -33.5 -138t-93 -94t-136.5 -34zM90 -12v687
l43 -63l-116 82v15l140 56h23v-713l-76 -64h-14z" />
    <glyph glyph-name="c" unicode="c" horiz-adv-x="503" 
d="M280 -12q-69 0 -122.5 30t-83.5 83t-30 121q0 80 33.5 140.5t92.5 95t136 34.5q47 0 89 -12.5t81 -37.5l-46 -107h-16l-104 133h79v-75q-37 45 -100 45q-46 0 -80 -23t-52.5 -65t-18.5 -100q0 -94 45.5 -145.5t129.5 -51.5q86 0 142 53l22 -24q-32 -45 -83.5 -69.5
t-113.5 -24.5z" />
    <glyph glyph-name="d" unicode="d" horiz-adv-x="593" 
d="M447 -12l-23 86h-9v601l43 -63l-116 82v15l140 56h23v-684l-41 57l107 -75v-15l-107 -60h-17zM250 -12q-63 0 -109.5 29t-71.5 82.5t-25 126.5q0 78 33.5 138t93 94t136.5 34q87 0 143 -41v-94q-22 39 -61.5 60t-91.5 21q-46 0 -82 -24.5t-56.5 -68.5t-20.5 -101
q0 -89 35.5 -137.5t101.5 -48.5q47 0 84 19.5t71 62.5v-66h-15q-30 -40 -74 -63t-91 -23z" />
    <glyph glyph-name="e" unicode="e" horiz-adv-x="531" 
d="M280 -12q-69 0 -122.5 30t-83.5 83t-30 121q0 80 32 140.5t88 95t129 34.5q60 0 103.5 -29t67 -82.5t23.5 -126.5h-383v40l277 21q0 57 -29.5 90t-79.5 33q-39 0 -69.5 -24t-47.5 -66.5t-17 -97.5q0 -94 45 -145.5t128 -51.5q88 0 144 53l22 -24q-32 -45 -83.5 -69.5
t-113.5 -24.5z" />
    <glyph glyph-name="f" unicode="f" horiz-adv-x="394" 
d="M43 0v14l90 68l-16 -28v395l43 -35h-126v15l83 77v51q0 68 21 117t59.5 76t91.5 27q35 0 68.5 -10t61.5 -30l-48 -103h-16l-96 119h82v-63q-13 20 -28 28t-37 8q-34 0 -51.5 -35t-17.5 -106v-533l-15 26l119 -64v-14h-268zM365 405l-181 25v45l178 17h12v-81z" />
    <glyph glyph-name="g" unicode="g" horiz-adv-x="568" 
d="M271 -251q-69 0 -122.5 18.5t-83.5 51t-30 74.5q0 34 23 62t59 38v28h64v-33q-53 -29 -53 -89q0 -48 45.5 -76t123.5 -28q76 0 120 28.5t44 77.5q0 40 -26.5 63.5t-71.5 23.5h-197q-49 0 -78 26t-29 71q0 30 12 52.5t33.5 35.5t49.5 13l29 -29q-25 0 -39 -11.5t-14 -32.5
q0 -22 16 -31.5t51 -9.5h179q75 0 122.5 -40.5t47.5 -104.5q0 -52 -35 -92.5t-97 -63t-143 -22.5zM265 139q-59 0 -104.5 22t-71 60.5t-25.5 88.5q0 54 28 95t77 64t113 23q59 0 104.5 -22t71 -60.5t25.5 -88.5q0 -53 -28 -94.5t-77 -64.5t-113 -23zM277 188q52 0 82.5 31
t30.5 84q0 65 -32 102.5t-88 37.5q-52 0 -82.5 -31t-30.5 -84q0 -64 32.5 -102t87.5 -38zM310 454l221 116h15v-104l-6 -5h-133v-7h-97z" />
    <glyph glyph-name="h" unicode="h" horiz-adv-x="638" 
d="M379 0v14l90 68l-16 -28v233q0 71 -25 101t-84 30q-46 0 -84.5 -19.5t-76.5 -63.5v66h15q92 91 181 91q83 0 123.5 -45t40.5 -136v-259l-16 29l89 -67v-14h-237zM34 0v14l90 68l-16 -28v621l43 -63l-116 82v15l140 56h23v-713l-15 29l89 -67v-14h-238z" />
    <glyph glyph-name="i" unicode="i" horiz-adv-x="294" 
d="M34 0v14l90 68l-16 -28v340l43 -63l-116 82v15l140 56h23v-432l-15 29l89 -67v-14h-238zM154 558q-31 0 -50 18.5t-19 47.5t19 47.5t50 18.5t50 -18.5t19 -47.5t-19 -47.5t-50 -18.5z" />
    <glyph glyph-name="j" unicode="j" horiz-adv-x="293" 
d="M34 -235l-44 111l8 16l130 -24l-20 -24v550l43 -63l-116 82v15l140 56h23v-484q0 -79 -36.5 -135t-116.5 -100h-11zM154 558q-31 0 -50 18.5t-19 47.5t19 47.5t50 18.5t50 -18.5t19 -47.5t-19 -47.5t-50 -18.5z" />
    <glyph glyph-name="k" unicode="k" horiz-adv-x="625" 
d="M34 0v14l90 68l-16 -28v621l43 -63l-116 82v15l140 56h23v-713l-15 29l89 -67v-14h-238zM470 0l-219 300l75 50l219 -300h-58v58l116 -94v-14h-133zM179 200v47l245 198l6 -40h-9l-66 61v14h240v-14z" />
    <glyph glyph-name="l" unicode="l" horiz-adv-x="294" 
d="M34 0v14l90 68l-16 -28v621l43 -63l-116 82v15l140 56h23v-713l-15 29l89 -67v-14h-238z" />
    <glyph glyph-name="m" unicode="m" horiz-adv-x="963" 
d="M704 0v14l90 64l-16 -28v237q0 68 -25 99.5t-79 31.5q-47 0 -90.5 -21.5t-77.5 -61.5v66h17q48 50 90.5 70.5t95.5 20.5q77 0 118 -46t41 -132v-266l-16 29l89 -63v-14h-237zM34 0v14l90 64l-16 -28v346l43 -77l-116 88v15l140 62h23l-5 -83h5v-353l-15 29l89 -63v-14
h-238zM369 0v14l90 64l-16 -28v237q0 68 -23.5 99.5t-75.5 31.5q-92 0 -161 -83v66h15q49 51 88.5 71t92.5 20q74 0 114 -46t40 -132v-266l-16 29l89 -63v-14h-237zM480 290v86h53v-86h-53z" />
    <glyph glyph-name="n" unicode="n" horiz-adv-x="638" 
d="M379 0v14l90 68l-16 -28v233q0 71 -25 101t-84 30q-46 0 -84.5 -19.5t-76.5 -63.5v66h15q92 91 181 91q83 0 123.5 -45t40.5 -136v-259l-16 29l89 -67v-14h-237zM34 0v14l90 68l-16 -30v342l43 -63l-116 82v15l140 56h23l-5 -83h5v-349l-15 29l89 -67v-14h-238z" />
    <glyph glyph-name="o" unicode="o" horiz-adv-x="592" 
d="M291 -12q-72 0 -128 31.5t-87.5 87.5t-31.5 128q0 76 33 133.5t91 90.5t133 33q73 0 128.5 -31.5t87 -87t31.5 -128.5q0 -75 -33 -133t-90.5 -91t-133.5 -33zM301 42q45 0 79 24t53.5 67t19.5 99q0 61 -20.5 107t-57 72.5t-84.5 26.5q-45 0 -79 -24t-53.5 -67t-19.5 -99
q0 -60 20.5 -106.5t57 -73t84.5 -26.5z" />
    <glyph glyph-name="p" unicode="p" horiz-adv-x="613" 
d="M306 -12q-87 0 -143 41v94q22 -39 61.5 -60t91.5 -21q47 0 82.5 25t56 68.5t20.5 100.5q0 89 -35.5 137.5t-101.5 48.5q-46 0 -83 -19.5t-72 -62.5v66h15q30 40 74.5 63t90.5 23q64 0 110 -29t71 -82.5t25 -126.5q0 -78 -33.5 -138t-93 -94t-136.5 -34zM34 -235v14l90 68
l-16 -28v576l43 -64l-116 82v15l140 56h23l-5 -78h5v-589l-15 27l113 -65v-14h-262z" />
    <glyph glyph-name="q" unicode="q" horiz-adv-x="583" 
d="M250 -12q-63 0 -109.5 29t-71.5 82.5t-25 126.5q0 78 33.5 138t93 94t136.5 34q87 0 143 -41v-94q-22 39 -61.5 60t-91.5 21q-46 0 -82 -24.5t-56.5 -68.5t-20.5 -101q0 -89 35.5 -137.5t101.5 -48.5q47 0 84 19.5t71 62.5v-66h-15q-30 -40 -74 -63t-91 -23zM317 -235v14
l113 65l-15 -27v604l76 76h14v-678l-16 28l90 -68v-14h-262z" />
    <glyph glyph-name="r" unicode="r" horiz-adv-x="435" 
d="M34 0v14l90 68l-16 -28v340l43 -63l-116 82v15l140 56h23l-5 -102h5v-330l-15 26l119 -64v-14h-268zM192 318l-9 64h15q28 51 72 80.5t91 29.5q34 0 65 -10l-53 -139h-16l-85 89l81 -26q-51 0 -94.5 -23.5t-66.5 -64.5z" />
    <glyph glyph-name="s" unicode="s" horiz-adv-x="501" 
d="M245 -12q-37 0 -75.5 7.5t-73 20.5t-61.5 32l51 101h16l89 -128h-67l-6 73q26 -30 57.5 -43.5t73.5 -13.5q54 0 88 24t34 61q0 30 -22.5 47t-57.5 27.5t-74.5 20t-74.5 25t-57.5 41.5t-22.5 70q0 64 54 101.5t145 37.5q34 0 67.5 -6t65 -17t57.5 -27l-51 -101h-16
l-98 128h76l6 -73q-19 22 -49 34.5t-62 12.5q-50 0 -79.5 -19t-29.5 -51q0 -30 22.5 -46.5t57.5 -26.5t74.5 -19.5t74.5 -25t57.5 -42t22.5 -71.5q0 -74 -55 -114t-157 -40z" />
    <glyph glyph-name="t" unicode="t" horiz-adv-x="450" 
d="M270 -12q-53 0 -92 22t-60 61.5t-21 94.5v303l43 -55h-126v15l150 175h23v-412q0 -67 25 -101t76 -34q72 0 122 58l26 -19q-25 -49 -69.5 -78.5t-96.5 -29.5zM387 405l-213 23v47l210 17h12v-81z" />
    <glyph glyph-name="u" unicode="u" horiz-adv-x="591" 
d="M242 -12q-77 0 -115.5 44.5t-38.5 133.5v235l43 -63l-109 80v15l133 51h23v-291q0 -71 22.5 -101t76.5 -30q44 0 80.5 19.5t72.5 61.5v-66h-17q-49 -50 -86 -69.5t-85 -19.5zM447 -12l-25 89h-9v324l43 -63l-114 80v15l138 51h23v-403l-41 57l107 -75v-15l-105 -60h-17z
" />
    <glyph glyph-name="v" unicode="v" horiz-adv-x="547" 
d="M264 -12l-224 464h33v-57l-71 71v14h222v-14l-73 -63h-10v40l172 -356h-25l133 365v-49h-11l-72 63v14h207v-14l-71 -71v57h33l-225 -464h-18z" />
    <glyph glyph-name="w" unicode="w" horiz-adv-x="854" 
d="M264 -12l-224 464h33v-58l-71 72v14h222v-14l-73 -64h-10v41l172 -356h-28l122 393h30l21 -90l-176 -402h-18zM571 -12l-157 378l14 114h33l163 -392h-27l130 364l1 -49h-11l-72 63v14h207v-14l-71 -71v57h33l-225 -464h-18z" />
    <glyph glyph-name="x" unicode="x" horiz-adv-x="600" 
d="M347 0v14l67 63h10v-40l-340 406h45v-48l-90 71v14h237v-14l-68 -63h-10v40l340 -406h-45v48l90 -71v-14h-236zM17 0v14l102 79v-65h-70l215 234l27 -25l-146 -209v49h11l72 -63v-14h-211zM312 218l-21 25l140 209v-49h-11l-72 63v14h211v-14l-102 -79v65h70z" />
    <glyph glyph-name="y" unicode="y" horiz-adv-x="556" 
d="M258 -56l-223 508h33v-59l-66 73v14h213v-14l-71 -58h-10v35l176 -402h-34l159 411v-44h-11l-73 58v14h203v-14l-66 -70v56h33l-352 -703h-16l-81 81v13l187 157z" />
    <glyph glyph-name="z" unicode="z" horiz-adv-x="510" 
d="M61 0v17l305 463h87v-17l-306 -463h-86zM129 0v40l288 24l-84 -28l102 116h16v-152h-322zM108 339l-51 141h346v-36l-281 -24l78 24l-76 -105h-16z" />
    <glyph glyph-name="braceleft" unicode="{" horiz-adv-x="310" 
d="M288 -212q-89 0 -137.5 36.5t-48.5 103.5q0 42 8 74t16 62.5t8 66.5q0 42 -15.5 67t-55.5 47q-19 11 -19 20t19 20q40 22 55.5 47t15.5 67q0 37 -8 67t-16 62t-8 74q0 68 48.5 104t137.5 36v-20q-59 0 -86.5 -29t-27.5 -91q0 -42 9.5 -74t18.5 -62t9 -67q0 -49 -26 -80.5
t-84 -51.5v-4q58 -19 84 -50.5t26 -81.5q0 -36 -9 -66.5t-18.5 -62.5t-9.5 -74q0 -62 27.5 -91t86.5 -29v-20z" />
    <glyph glyph-name="bar" unicode="|" horiz-adv-x="208" 
d="M80 -275v1080h48v-1080h-48z" />
    <glyph glyph-name="braceright" unicode="}" horiz-adv-x="310" 
d="M22 -212v20q59 0 86.5 29t27.5 91q0 42 -9 74t-18.5 62.5t-9.5 66.5q0 50 26 81.5t84 50.5v4q-58 20 -84 51.5t-26 80.5q0 37 9.5 67t18.5 62t9 74q0 62 -27.5 91t-86.5 29v20q89 0 137.5 -36t48.5 -104q0 -42 -8 -74t-16 -62t-8 -67q0 -42 15.5 -67t55.5 -47
q19 -11 19 -20t-19 -20q-40 -22 -55.5 -47t-15.5 -67q0 -36 8 -66.5t16 -62.5t8 -74q0 -67 -48.5 -103.5t-137.5 -36.5z" />
    <glyph glyph-name="asciitilde" unicode="~" horiz-adv-x="518" 
d="M358 288q-37 0 -71 14.5t-66.5 28.5t-65.5 14q-30 0 -48.5 -12.5t-32.5 -41.5l-30 15q11 41 42 64.5t74 23.5q37 0 71 -14t66.5 -28.5t65.5 -14.5q30 0 49 12.5t32 41.5l30 -15q-10 -40 -41.5 -64t-74.5 -24z" />
    <glyph glyph-name="uni00A0" unicode="&#xa0;" horiz-adv-x="265" 
 />
    <glyph glyph-name="exclamdown" unicode="&#xa1;" horiz-adv-x="240" 
d="M145 287l40 -472l-119 -41l-14 13l43 500h50zM120 492q34 0 55 -20t21 -52q0 -31 -21 -51.5t-55 -20.5t-55 20.5t-21 51.5q0 32 21 52t55 20z" />
    <glyph glyph-name="cent" unicode="&#xa2;" horiz-adv-x="503" 
d="M280 94q-69 0 -122.5 30t-83.5 83t-30 121q0 80 33.5 140.5t92.5 95t136 34.5q47 0 89 -12.5t81 -37.5l-46 -107h-16l-104 133h79v-75q-37 45 -100 45q-46 0 -80 -23t-52.5 -65t-18.5 -100q0 -94 45.5 -145.5t129.5 -51.5q86 0 142 53l22 -24q-32 -45 -83.5 -69.5
t-113.5 -24.5zM257 552v138h46v-138h-46zM257 0v118h46v-118h-46z" />
    <glyph glyph-name="sterling" unicode="&#xa3;" horiz-adv-x="572" 
d="M184 524q0 -47 10.5 -83t24 -66t23 -59t8 -60t-20.5 -70t-63 -90l-32 -37l5 19h277l86 91h16v-169h-458l-15 28l75 85q34 38 40.5 72.5t-2.5 68.5t-25 71.5t-29.5 81t-13.5 97.5t26.5 95t74 64t108.5 23q58 0 119.5 -15t108.5 -41l-73 -120h-16l-82 142h69v-71
q-40 51 -134 51q-45 0 -76 -31.5t-31 -76.5zM59 322v44h347v-44h-347z" />
    <glyph glyph-name="currency" unicode="&#xa4;" horiz-adv-x="442" 
d="M221 215q-41 0 -72.5 16.5t-49 45.5t-17.5 67t17.5 67t49 45.5t72.5 16.5t72.5 -16.5t49 -45.5t17.5 -67t-17.5 -67t-49 -45.5t-72.5 -16.5zM75 168l-30 30l84 84l30 -30zM129 406l-84 84l30 30l84 -84zM221 259q40 0 63 23t23 62t-23 62t-63 23t-63 -23t-23 -62t23 -62
t63 -23zM367 168l-84 84l30 30l84 -84zM313 406l-30 30l84 84l30 -30z" />
    <glyph glyph-name="yen" unicode="&#xa5;" horiz-adv-x="598" 
d="M280 278l-246 379l67 -90l-99 87v16h253v-16l-101 -95l-11 98l185 -287h-3l133 287l10 -108l-104 105v16h232v-16l-109 -94l77 97l-253 -379h-31zM172 0v16l79 59v280h96v-280l79 -59v-16h-254zM120 291v44h357v-44h-357zM120 187v44h357v-44h-357z" />
    <glyph glyph-name="brokenbar" unicode="&#xa6;" horiz-adv-x="208" 
d="M80 315v490h48v-490h-48zM80 -275v490h48v-490h-48z" />
    <glyph glyph-name="section" unicode="&#xa7;" horiz-adv-x="597" 
d="M339 80l-8 23q65 23 97 60t32 88q0 44 -46 76.5t-139 54.5q-120 29 -175 74.5t-55 116.5q0 63 32 108.5t90.5 70.5t138.5 25q43 0 87.5 -9t84.5 -24.5t67 -36.5l-70 -114h-16l-102 150h96l-7 -95q-24 38 -59.5 55t-88.5 17q-75 0 -118.5 -34t-43.5 -92q0 -43 46 -75.5
t139 -55.5q120 -29 175 -74.5t55 -116.5q0 -146 -212 -192zM291 -251q-42 0 -87 9t-84.5 25t-67.5 36l70 114h16l102 -150h-96l7 95q24 -37 59.5 -54.5t88.5 -17.5q75 0 118.5 34t43.5 92q0 44 -46 76.5t-139 54.5q-120 29 -175 75t-55 116q0 146 212 192l8 -23
q-64 -23 -96.5 -60t-32.5 -88q0 -43 46 -75.5t139 -55.5q120 -28 175 -74t55 -117q0 -62 -32 -108t-90.5 -71t-138.5 -25z" />
    <glyph glyph-name="dieresis" unicode="&#xa8;" horiz-adv-x="404" 
d="M106 564q-27 0 -44.5 16.5t-17.5 42.5t17.5 42.5t44.5 16.5t44.5 -16.5t17.5 -42.5t-17.5 -42.5t-44.5 -16.5zM307 564q-27 0 -44.5 16.5t-17.5 42.5t17.5 42.5t44.5 16.5q28 0 45.5 -16.5t17.5 -42.5t-17.5 -42.5t-45.5 -16.5z" />
    <glyph glyph-name="copyright" unicode="&#xa9;" horiz-adv-x="854" 
d="M427 -16q-80 0 -149.5 27.5t-121.5 76.5t-81.5 114.5t-29.5 141.5t29.5 142t81.5 115.5t121.5 77t149.5 27.5t149.5 -27.5t121.5 -76.5t81.5 -114.5t29.5 -141.5t-29.5 -142t-81.5 -115.5t-121.5 -77t-149.5 -27.5zM427 34q70 0 130 24t105.5 66.5t71 99t25.5 122.5
q0 65 -25.5 121.5t-71 99t-105.5 66t-130 23.5t-130 -24t-105.5 -66.5t-71 -99t-25.5 -122.5q0 -65 25.5 -121.5t71 -99t105.5 -66t130 -23.5zM426 125q-61 0 -107 26t-72.5 72t-26.5 105q0 69 29 122t80.5 83t118.5 30q41 0 77.5 -11t70.5 -32l-40 -93h-14l-90 115h69v-65
q-33 39 -87 39q-61 0 -96.5 -44t-35.5 -119q0 -83 39.5 -127.5t112.5 -44.5q75 0 124 46l19 -21q-28 -39 -72.5 -60t-98.5 -21z" />
    <glyph glyph-name="ordfeminine" unicode="&#xaa;" horiz-adv-x="452" 
d="M316 328l-17 59h-11v171q0 53 -21 78.5t-68 25.5q-24 0 -46 -9t-36 -26l4 62h59l-75 -100h-12l-39 80q20 12 44 20.5t50 12.5t52 4q77 0 118 -33t41 -94v-181l-31 43l80 -57v-11l-79 -45h-13zM155 328q-49 0 -80 27t-31 70q0 102 155 126l120 19v-31l-84 -21
q-67 -16 -93 -34t-26 -50q0 -25 17.5 -39t46.5 -14q38 0 68 14.5t55 40.5v-49h-12q-58 -59 -136 -59zM70 235v48h303v-48h-303z" />
    <glyph glyph-name="guillemotleft" unicode="&#xab;" horiz-adv-x="449" 
d="M211 139l-189 212v8l189 212l20 -13l-100 -203l100 -203zM385 139l-189 212v8l189 212l20 -13l-100 -203l100 -203z" />
    <glyph glyph-name="logicalnot" unicode="&#xac;" horiz-adv-x="518" 
d="M422 128v189h-378v50h430v-239h-52z" />
    <glyph glyph-name="registered" unicode="&#xae;" horiz-adv-x="562" 
d="M281 341q-66 0 -120 30t-85.5 81t-31.5 113q0 63 31.5 113.5t85.5 80.5t120 30q67 0 120.5 -30t85 -80.5t31.5 -113.5q0 -62 -31.5 -113t-85 -81t-120.5 -30zM281 379q56 0 101 25t71.5 67t26.5 94t-26.5 94t-71.5 67t-101 25q-55 0 -100.5 -25t-72 -67t-26.5 -94
t26.5 -94t72 -67t100.5 -25zM173 446v7l27 24v182l-27 24v7h115q44 0 68.5 -17t24.5 -49q0 -49 -55 -63l51 -82l29 -26v-7h-67l-66 106h-22v-75l26 -24v-7h-104zM251 570h20q23 0 38 14t15 37t-14 36t-39 13h-20v-100z" />
    <glyph glyph-name="macron" unicode="&#xaf;" horiz-adv-x="396" 
d="M44 584v66h308v-66h-308z" />
    <glyph glyph-name="degree" unicode="&#xb0;" horiz-adv-x="410" 
d="M205 402q-47 0 -83.5 19.5t-57 54t-20.5 78.5q0 45 20.5 79t57 53.5t83.5 19.5q48 0 84 -19.5t56.5 -53.5t20.5 -79q0 -44 -20.5 -78.5t-56.5 -54t-84 -19.5zM205 443q47 0 80 32.5t33 78.5q0 47 -33 79t-80 32t-80 -32t-33 -79q0 -46 33 -78.5t80 -32.5z" />
    <glyph glyph-name="plusminus" unicode="&#xb1;" horiz-adv-x="518" 
d="M44 0v50h430v-50h-430zM233 128v428h52v-428h-52zM44 317v50h430v-50h-430z" />
    <glyph glyph-name="uni00B2" unicode="&#xb2;" horiz-adv-x="360" 
d="M55 404l-10 18l71 70q43 42 69 74.5t38 58.5t12 50q0 30 -19 49t-48 19q-25 0 -47 -8.5t-37 -25.5l12 50h47l-56 -86h-9l-34 67q21 17 57.5 27t71.5 10q59 0 96 -25.5t37 -65.5q0 -22 -10.5 -44.5t-35 -51.5t-66.5 -69l-91 -86v24h150l55 52h8l-10 -107h-251z" />
    <glyph glyph-name="uni00B3" unicode="&#xb3;" horiz-adv-x="375" 
d="M175 392q-34 0 -69.5 11t-61.5 30l35 65h8l59 -88l-48 6l-12 55q22 -45 89 -45q35 0 59 22.5t24 54.5q0 35 -26.5 57t-67.5 22v27q80 0 123.5 -25.5t43.5 -72.5q0 -52 -43.5 -85.5t-112.5 -33.5zM164 597v17q36 0 59 20t23 51q0 27 -19 42.5t-52 15.5q-45 0 -79 -29l7 52
h54l-59 -84h-8l-34 64q45 31 125 31q59 0 96.5 -24.5t37.5 -62.5q0 -43 -40.5 -68t-110.5 -25z" />
    <glyph glyph-name="acute" unicode="&#xb4;" horiz-adv-x="270" 
d="M61 550l-17 10l90 205h2l90 -59v-2z" />
    <glyph glyph-name="uni00B5" unicode="&#xb5;" horiz-adv-x="591" 
d="M88 196h25v-113l89 -279v-15l-109 -30h-5v437zM242 -12q-77 0 -115.5 44.5t-38.5 133.5v235l43 -63l-109 80v15l133 51h23v-291q0 -71 22.5 -101t76.5 -30q44 0 80.5 19.5t72.5 61.5v-66h-17q-49 -50 -86 -69.5t-85 -19.5zM447 -12l-25 89h-9v324l43 -63l-114 80v15
l138 51h23v-403l-41 57l107 -75v-15l-105 -60h-17z" />
    <glyph glyph-name="paragraph" unicode="&#xb6;" horiz-adv-x="580" 
d="M288 324q-71 0 -126 24.5t-86 68t-31 100.5q0 80 61 126.5t164 46.5h53v-366h-35zM288 -107v797h48v-797h-48zM429 -107v797h121v-16l-94 -70l21 45v-756h-48zM322 640v50h124v-50h-124z" />
    <glyph glyph-name="periodcentered" unicode="&#xb7;" horiz-adv-x="284" 
d="M142 273q-34 0 -55 20.5t-21 51.5q0 32 21 52t55 20t55 -20t21 -52q0 -31 -21 -51.5t-55 -20.5z" />
    <glyph glyph-name="cedilla" unicode="&#xb8;" horiz-adv-x="288" 
d="M44 -244l13 32q52 -7 88 6.5t36 41.5q0 21 -22 36.5t-60 19.5l50 123h38l-25 -61q49 -7 77.5 -33.5t28.5 -64.5q0 -41 -28.5 -67.5t-79 -35t-116.5 2.5z" />
    <glyph glyph-name="uni00B9" unicode="&#xb9;" horiz-adv-x="262" 
d="M36 404v8l65 34v249h-69l-2 7l130 75h6v-331l66 -34v-8h-196z" />
    <glyph glyph-name="ordmasculine" unicode="&#xba;" horiz-adv-x="466" 
d="M229 328q-54 0 -95.5 24t-65.5 65.5t-24 95.5q0 57 24.5 100.5t68.5 68t100 24.5q55 0 96.5 -23.5t65 -65t23.5 -96.5q0 -56 -24.5 -100t-68 -68.5t-100.5 -24.5zM237 371q49 0 80 39.5t31 100.5q0 71 -32 112t-87 41q-49 0 -80 -39.5t-31 -101.5q0 -70 32 -111t87 -41z
M74 235v48h318v-48h-318z" />
    <glyph glyph-name="guillemotright" unicode="&#xbb;" horiz-adv-x="449" 
d="M238 139l-20 13l100 203l-100 203l20 13l189 -212v-8zM64 139l-20 13l100 203l-100 203l20 13l189 -212v-8z" />
    <glyph glyph-name="onequarter" unicode="&#xbc;" horiz-adv-x="714" 
d="M73 329v8l65 34v249h-69l-2 7l130 75h6v-331l66 -34v-8h-196zM44 0l566 690h59l-566 -690h-59zM359 97l-10 15l149 249h82v-7l-199 -240l-4 -17h-18zM359 97l17 34h294v-34h-311zM461 0v8l56 34v177h65v-177l57 -34v-8h-178z" />
    <glyph glyph-name="onehalf" unicode="&#xbd;" horiz-adv-x="744" 
d="M73 329v8l65 34v249h-69l-2 7l130 75h6v-331l66 -34v-8h-196zM44 0l566 690h59l-566 -690h-59zM439 0l-10 18l71 70q43 42 69 74.5t38 58.5t12 50q0 30 -19 49t-48 19q-25 0 -47 -8.5t-37 -25.5l12 50h47l-56 -86h-9l-34 67q21 17 57.5 27t71.5 10q59 0 96 -25.5
t37 -65.5q0 -22 -10.5 -44.5t-35 -51.5t-66.5 -69l-91 -86v24h150l55 52h8l-10 -107h-251z" />
    <glyph glyph-name="threequarters" unicode="&#xbe;" horiz-adv-x="763" 
d="M175 317q-34 0 -69.5 11t-61.5 30l35 65h8l59 -88l-48 6l-12 55q22 -45 89 -45q35 0 59 22.5t24 54.5q0 35 -26.5 57t-67.5 22v27q80 0 123.5 -25.5t43.5 -72.5q0 -52 -43.5 -85.5t-112.5 -33.5zM164 522v17q36 0 59 20t23 51q0 27 -19 42.5t-52 15.5q-45 0 -79 -29l7 52
h54l-59 -84h-8l-34 64q45 31 125 31q59 0 96.5 -24.5t37.5 -62.5q0 -43 -40.5 -68t-110.5 -25zM94 0l566 690h59l-566 -690h-59zM395 97l-10 15l149 249h82v-7l-199 -240l-4 -17h-18zM395 97l17 34h294v-34h-311zM497 0v8l56 34v177h65v-177l57 -34v-8h-178z" />
    <glyph glyph-name="questiondown" unicode="&#xbf;" horiz-adv-x="533" 
d="M338 287l7 -54q8 -57 -4 -93t-35 -58.5t-50.5 -37t-53 -28t-42 -31.5t-16.5 -49q0 -46 39.5 -75.5t100.5 -29.5q83 0 128 72v-95h-90l105 148h16l68 -112q-28 -20 -67.5 -36t-84 -25t-86.5 -9q-70 0 -121.5 20.5t-79.5 58t-28 88.5q0 42 16 69t41.5 45t55 34t57 35.5
t46.5 48.5t24 75l4 39h50zM309 492q34 0 55 -20t21 -52q0 -31 -21 -51.5t-55 -20.5t-55 20.5t-21 51.5q0 32 21 52t55 20z" />
    <glyph glyph-name="Agrave" unicode="&#xc0;" horiz-adv-x="709" 
d="M2 0v16l86 77l-46 -80l284 677h58l284 -677l-47 81l86 -78v-16h-261v16l130 80l-8 -83l-262 626h42l-219 -626l-13 84l130 -81v-16h-244zM172 214v50h346v-50h-346zM307 609l-69 65v16h105zM410 739l-215 106v2l69 83h2l157 -177z" />
    <glyph glyph-name="Aacute" unicode="&#xc1;" horiz-adv-x="709" 
d="M2 0v16l86 77l-46 -80l284 677h58l284 -677l-47 81l86 -78v-16h-261v16l130 80l-8 -83l-262 626h42l-219 -626l-13 84l130 -81v-16h-244zM172 214v50h346v-50h-346zM307 609l-69 65v16h105zM278 739l-13 14l157 177h2l69 -83v-2z" />
    <glyph glyph-name="Acircumflex" unicode="&#xc2;" horiz-adv-x="709" 
d="M2 0v16l86 77l-46 -80l284 677h58l284 -677l-47 81l86 -78v-16h-261v16l130 80l-8 -83l-262 626h42l-219 -626l-13 84l130 -81v-16h-244zM172 214v50h346v-50h-346zM307 609l-69 65v16h105zM192 740l-12 12l140 161h48l140 -161l-12 -12l-158 89h12z" />
    <glyph glyph-name="Atilde" unicode="&#xc3;" horiz-adv-x="709" 
d="M2 0v16l86 77l-46 -80l284 677h58l284 -677l-47 81l86 -78v-16h-261v16l130 80l-8 -83l-262 626h42l-219 -626l-13 84l130 -81v-16h-244zM172 214v50h346v-50h-346zM307 609l-69 65v16h105zM419 752q-34 0 -60.5 9t-51 18t-52.5 9q-51 0 -74 -34l-21 6q13 50 41 76.5
t66 26.5q35 0 61 -9t50.5 -18t52.5 -9q51 0 74 34l21 -6q-13 -49 -41 -76t-66 -27z" />
    <glyph glyph-name="Adieresis" unicode="&#xc4;" horiz-adv-x="709" 
d="M2 0v16l86 77l-46 -80l284 677h58l284 -677l-47 81l86 -78v-16h-261v16l130 80l-8 -83l-262 626h42l-219 -626l-13 84l130 -81v-16h-244zM172 214v50h346v-50h-346zM307 609l-69 65v16h105zM242 748q-27 0 -44.5 16.5t-17.5 41.5q0 26 17.5 42t44.5 16t44.5 -16t17.5 -42
q0 -25 -17.5 -41.5t-44.5 -16.5zM445 748q-27 0 -44.5 16.5t-17.5 41.5q0 26 17.5 42t44.5 16q28 0 45.5 -16t17.5 -42q0 -25 -17.5 -41.5t-45.5 -16.5z" />
    <glyph glyph-name="Aring" unicode="&#xc5;" horiz-adv-x="709" 
d="M2 0v16l86 77l-46 -80l284 677h58l284 -677l-47 81l86 -78v-16h-261v16l130 80l-8 -83l-262 626h42l-219 -626l-13 84l130 -81v-16h-244zM172 214v50h346v-50h-346zM307 609l-69 65v16h105zM344 729q-48 0 -78.5 29t-30.5 74t30.5 74t78.5 29t78.5 -29t30.5 -74
t-30.5 -74t-78.5 -29zM344 770q27 0 44.5 17.5t17.5 44.5t-17.5 44.5t-44.5 17.5t-44.5 -17.5t-17.5 -44.5t17.5 -44.5t44.5 -17.5z" />
    <glyph glyph-name="AE" unicode="&#xc6;" horiz-adv-x="923" 
d="M2 0v16l72 74l-48 -77l364 677h75l134 -690h-204v16l130 80l-23 -83l-122 626h28l-291 -626l-13 89l127 -85v-17h-229zM192 217v50h314v-50h-314zM550 0v41l282 18v-59h-282zM737 0v41l125 126h16l-6 -167h-135zM750 326l-261 10v43l261 11v-64zM371 609l-92 65v16h128z
M766 263l-80 76v38l80 76h16v-190h-16zM817 631l-410 14v45h410v-59zM835 546l-114 100v44l113 8h11l6 -152h-16z" />
    <glyph glyph-name="Ccedilla" unicode="&#xc7;" horiz-adv-x="694" 
d="M394 -16q-107 0 -185.5 42.5t-121 121t-42.5 185.5q0 78 27 146t75 119t111.5 79.5t137.5 28.5q44 0 89.5 -9t86 -24.5t67.5 -36.5l-70 -112h-16l-105 148h92v-95q-45 72 -152 72q-70 0 -123.5 -37.5t-84 -104t-30.5 -153.5q0 -91 31.5 -161.5t87.5 -110t129 -39.5
q68 0 119.5 29t96.5 91l35 -20q-42 -76 -108 -117.5t-147 -41.5zM283 -244l13 32q52 -7 88 6.5t36 41.5q0 21 -22 36.5t-60 19.5l50 123h38l-25 -61q49 -7 77.5 -33.5t28.5 -64.5q0 -41 -28.5 -67.5t-79 -35t-116.5 2.5z" />
    <glyph glyph-name="Egrave" unicode="&#xc8;" horiz-adv-x="619" 
d="M30 0v16l79 59v540l-79 59v16h175v-690h-175zM187 0v43l341 16v-59h-341zM433 0v41l125 126h16l-6 -167h-135zM443 324l-265 10v43l265 11v-64zM459 261l-80 76v38l80 76h16v-190h-16zM528 631l-341 16v43h341v-59zM546 546l-114 100v44l113 8h11l6 -152h-16zM376 739
l-215 106v2l69 83h2l157 -177z" />
    <glyph glyph-name="Eacute" unicode="&#xc9;" horiz-adv-x="619" 
d="M30 0v16l79 59v540l-79 59v16h175v-690h-175zM187 0v43l341 16v-59h-341zM433 0v41l125 126h16l-6 -167h-135zM443 324l-265 10v43l265 11v-64zM459 261l-80 76v38l80 76h16v-190h-16zM528 631l-341 16v43h341v-59zM546 546l-114 100v44l113 8h11l6 -152h-16zM244 739
l-13 14l157 177h2l69 -83v-2z" />
    <glyph glyph-name="Ecircumflex" unicode="&#xca;" horiz-adv-x="619" 
d="M30 0v16l79 59v540l-79 59v16h175v-690h-175zM187 0v43l341 16v-59h-341zM433 0v41l125 126h16l-6 -167h-135zM443 324l-265 10v43l265 11v-64zM459 261l-80 76v38l80 76h16v-190h-16zM528 631l-341 16v43h341v-59zM546 546l-114 100v44l113 8h11l6 -152h-16zM158 740
l-12 12l140 161h48l140 -161l-12 -12l-158 89h12z" />
    <glyph glyph-name="Edieresis" unicode="&#xcb;" horiz-adv-x="619" 
d="M30 0v16l79 59v540l-79 59v16h175v-690h-175zM187 0v43l341 16v-59h-341zM433 0v41l125 126h16l-6 -167h-135zM443 324l-265 10v43l265 11v-64zM459 261l-80 76v38l80 76h16v-190h-16zM528 631l-341 16v43h341v-59zM546 546l-114 100v44l113 8h11l6 -152h-16zM208 748
q-27 0 -44.5 16.5t-17.5 41.5q0 26 17.5 42t44.5 16t44.5 -16t17.5 -42q0 -25 -17.5 -41.5t-44.5 -16.5zM411 748q-27 0 -44.5 16.5t-17.5 41.5q0 26 17.5 42t44.5 16q28 0 45.5 -16t17.5 -42q0 -25 -17.5 -41.5t-45.5 -16.5z" />
    <glyph glyph-name="Igrave" unicode="&#xcc;" horiz-adv-x="314" 
d="M30 0v16l79 59v540l-79 59v16h254v-16l-79 -59v-540l79 -59v-16h-254zM223 739l-215 106v2l69 83h2l157 -177z" />
    <glyph glyph-name="Iacute" unicode="&#xcd;" horiz-adv-x="314" 
d="M30 0v16l79 59v540l-79 59v16h254v-16l-79 -59v-540l79 -59v-16h-254zM91 739l-13 14l157 177h2l69 -83v-2z" />
    <glyph glyph-name="Icircumflex" unicode="&#xce;" horiz-adv-x="314" 
d="M30 0v16l79 59v540l-79 59v16h254v-16l-79 -59v-540l79 -59v-16h-254zM5 740l-12 12l140 161h48l140 -161l-12 -12l-158 89h12z" />
    <glyph glyph-name="Idieresis" unicode="&#xcf;" horiz-adv-x="314" 
d="M30 0v16l79 59v540l-79 59v16h254v-16l-79 -59v-540l79 -59v-16h-254zM55 748q-27 0 -44.5 16.5t-17.5 41.5q0 26 17.5 42t44.5 16t44.5 -16t17.5 -42q0 -25 -17.5 -41.5t-44.5 -16.5zM258 748q-27 0 -44.5 16.5t-17.5 41.5q0 26 17.5 42t44.5 16q28 0 45.5 -16t17.5 -42
q0 -25 -17.5 -41.5t-45.5 -16.5z" />
    <glyph glyph-name="Eth" unicode="&#xd0;" horiz-adv-x="735" 
d="M177 0v50h145q85 0 143.5 33t89 95.5t30.5 152.5q0 95 -31 164.5t-87.5 107t-134.5 37.5h-155v50h165q102 0 180.5 -42.5t123 -117.5t44.5 -173q0 -79 -27 -144.5t-76 -113t-116.5 -73.5t-148.5 -26h-145zM30 0v16l79 59v540l-79 59v16h175v-690h-175zM30 325v55h336v-55
h-336z" />
    <glyph glyph-name="Ntilde" unicode="&#xd1;" horiz-adv-x="734" 
d="M593 -6l-459 591v105h32l437 -561h-22l-38 486l-79 59v16h240v-16l-79 -59v-621h-32zM30 0v16l79 59l12 522l-69 77v16h106l33 -615l79 -59v-16h-240zM441 752q-34 0 -60.5 9t-51 18t-52.5 9q-51 0 -74 -34l-21 6q13 50 41 76.5t66 26.5q35 0 61 -9t50.5 -18t52.5 -9
q51 0 74 34l21 -6q-13 -49 -41 -76t-66 -27z" />
    <glyph glyph-name="Ograve" unicode="&#xd2;" horiz-adv-x="773" 
d="M380 -16q-98 0 -174 44.5t-118.5 124.5t-42.5 185q0 108 44.5 191t123 130t180.5 47q99 0 174.5 -44.5t118 -124t42.5 -185.5q0 -108 -44.5 -191t-123 -130t-180.5 -47zM398 41q69 0 119.5 35.5t78 100.5t27.5 154q0 98 -30.5 169t-86 110t-131.5 39q-69 0 -119.5 -35.5
t-78 -100.5t-27.5 -154q0 -97 30.5 -168.5t86 -110.5t131.5 -39zM453 739l-215 106v2l69 83h2l157 -177z" />
    <glyph glyph-name="Oacute" unicode="&#xd3;" horiz-adv-x="773" 
d="M380 -16q-98 0 -174 44.5t-118.5 124.5t-42.5 185q0 108 44.5 191t123 130t180.5 47q99 0 174.5 -44.5t118 -124t42.5 -185.5q0 -108 -44.5 -191t-123 -130t-180.5 -47zM398 41q69 0 119.5 35.5t78 100.5t27.5 154q0 98 -30.5 169t-86 110t-131.5 39q-69 0 -119.5 -35.5
t-78 -100.5t-27.5 -154q0 -97 30.5 -168.5t86 -110.5t131.5 -39zM321 739l-13 14l157 177h2l69 -83v-2z" />
    <glyph glyph-name="Ocircumflex" unicode="&#xd4;" horiz-adv-x="773" 
d="M380 -16q-98 0 -174 44.5t-118.5 124.5t-42.5 185q0 108 44.5 191t123 130t180.5 47q99 0 174.5 -44.5t118 -124t42.5 -185.5q0 -108 -44.5 -191t-123 -130t-180.5 -47zM398 41q69 0 119.5 35.5t78 100.5t27.5 154q0 98 -30.5 169t-86 110t-131.5 39q-69 0 -119.5 -35.5
t-78 -100.5t-27.5 -154q0 -97 30.5 -168.5t86 -110.5t131.5 -39zM235 740l-12 12l140 161h48l140 -161l-12 -12l-158 89h12z" />
    <glyph glyph-name="Otilde" unicode="&#xd5;" horiz-adv-x="773" 
d="M380 -16q-98 0 -174 44.5t-118.5 124.5t-42.5 185q0 108 44.5 191t123 130t180.5 47q99 0 174.5 -44.5t118 -124t42.5 -185.5q0 -108 -44.5 -191t-123 -130t-180.5 -47zM398 41q69 0 119.5 35.5t78 100.5t27.5 154q0 98 -30.5 169t-86 110t-131.5 39q-69 0 -119.5 -35.5
t-78 -100.5t-27.5 -154q0 -97 30.5 -168.5t86 -110.5t131.5 -39zM462 752q-34 0 -60.5 9t-51 18t-52.5 9q-51 0 -74 -34l-21 6q13 50 41 76.5t66 26.5q35 0 61 -9t50.5 -18t52.5 -9q51 0 74 34l21 -6q-13 -49 -41 -76t-66 -27z" />
    <glyph glyph-name="Odieresis" unicode="&#xd6;" horiz-adv-x="773" 
d="M380 -16q-98 0 -174 44.5t-118.5 124.5t-42.5 185q0 108 44.5 191t123 130t180.5 47q99 0 174.5 -44.5t118 -124t42.5 -185.5q0 -108 -44.5 -191t-123 -130t-180.5 -47zM398 41q69 0 119.5 35.5t78 100.5t27.5 154q0 98 -30.5 169t-86 110t-131.5 39q-69 0 -119.5 -35.5
t-78 -100.5t-27.5 -154q0 -97 30.5 -168.5t86 -110.5t131.5 -39zM285 748q-27 0 -44.5 16.5t-17.5 41.5q0 26 17.5 42t44.5 16t44.5 -16t17.5 -42q0 -25 -17.5 -41.5t-44.5 -16.5zM488 748q-27 0 -44.5 16.5t-17.5 41.5q0 26 17.5 42t44.5 16q28 0 45.5 -16t17.5 -42
q0 -25 -17.5 -41.5t-45.5 -16.5z" />
    <glyph glyph-name="multiply" unicode="&#xd7;" horiz-adv-x="518" 
d="M440 126l34 34l-396 396l-34 -34zM78 126l396 396l-34 34l-396 -396z" />
    <glyph glyph-name="Oslash" unicode="&#xd8;" horiz-adv-x="773" 
d="M380 -16q-98 0 -174 44.5t-118.5 124.5t-42.5 185q0 108 44.5 191t123 130t180.5 47q99 0 174.5 -44.5t118 -124t42.5 -185.5q0 -108 -44.5 -191t-123 -130t-180.5 -47zM398 41q69 0 119.5 35.5t78 100.5t27.5 154q0 98 -30.5 169t-86 110t-131.5 39q-69 0 -119.5 -35.5
t-78 -100.5t-27.5 -154q0 -97 30.5 -168.5t86 -110.5t131.5 -39zM105 -14l523 746l41 -29l-523 -746z" />
    <glyph glyph-name="Ugrave" unicode="&#xd9;" horiz-adv-x="699" 
d="M545 611l-89 63v16h241v-16l-79 -63v-322q0 -98 -30 -166t-88 -103.5t-141 -35.5q-139 0 -208.5 69.5t-69.5 208.5v353l-79 59v16h254v-16l-79 -59v-326q0 -127 44 -185t140 -58t140 58t44 185v322zM424 739l-215 106v2l69 83h2l157 -177z" />
    <glyph glyph-name="Uacute" unicode="&#xda;" horiz-adv-x="699" 
d="M545 611l-89 63v16h241v-16l-79 -63v-322q0 -98 -30 -166t-88 -103.5t-141 -35.5q-139 0 -208.5 69.5t-69.5 208.5v353l-79 59v16h254v-16l-79 -59v-326q0 -127 44 -185t140 -58t140 58t44 185v322zM292 739l-13 14l157 177h2l69 -83v-2z" />
    <glyph glyph-name="Ucircumflex" unicode="&#xdb;" horiz-adv-x="699" 
d="M545 611l-89 63v16h241v-16l-79 -63v-322q0 -98 -30 -166t-88 -103.5t-141 -35.5q-139 0 -208.5 69.5t-69.5 208.5v353l-79 59v16h254v-16l-79 -59v-326q0 -127 44 -185t140 -58t140 58t44 185v322zM206 740l-12 12l140 161h48l140 -161l-12 -12l-158 89h12z" />
    <glyph glyph-name="Udieresis" unicode="&#xdc;" horiz-adv-x="699" 
d="M545 611l-89 63v16h241v-16l-79 -63v-322q0 -98 -30 -166t-88 -103.5t-141 -35.5q-139 0 -208.5 69.5t-69.5 208.5v353l-79 59v16h254v-16l-79 -59v-326q0 -127 44 -185t140 -58t140 58t44 185v322zM256 748q-27 0 -44.5 16.5t-17.5 41.5q0 26 17.5 42t44.5 16t44.5 -16
t17.5 -42q0 -25 -17.5 -41.5t-44.5 -16.5zM459 748q-27 0 -44.5 16.5t-17.5 41.5q0 26 17.5 42t44.5 16q28 0 45.5 -16t17.5 -42q0 -25 -17.5 -41.5t-45.5 -16.5z" />
    <glyph glyph-name="Yacute" unicode="&#xdd;" horiz-adv-x="676" 
d="M317 208l-286 469l56 -78l-85 75v16h253v-16l-138 -94l20 97l231 -377h-6l180 377l20 -92l-128 89v16h240v-16l-81 -72l54 75l-296 -469h-34zM212 0v16l79 59v210h96v-210l79 -59v-16h-254zM277 739l-13 14l157 177h2l69 -83v-2z" />
    <glyph glyph-name="Thorn" unicode="&#xde;" horiz-adv-x="601" 
d="M30 0v16l79 59v540l-79 59v16h254v-16l-79 -59v-540l79 -59v-16h-254zM170 147v50h127q68 0 111.5 43t43.5 110q0 71 -42 112t-113 41h-155v50h165q77 0 132.5 -23.5t86 -66.5t30.5 -102q0 -63 -34.5 -111t-95 -75.5t-139.5 -27.5h-117z" />
    <glyph glyph-name="germandbls" unicode="&#xdf;" horiz-adv-x="640" 
d="M34 0v14l90 68l-16 -28v340l43 -63l-116 82v15l101 40l-28 -38v107q0 71 27 125t75 84.5t110 30.5q61 0 107 -23.5t72.5 -65t26.5 -95.5q0 -53 -29 -94.5t-80 -64.5t-118 -23v33q68 0 101.5 37.5t33.5 113.5q0 60 -30.5 95.5t-83.5 35.5q-58 0 -90 -42t-32 -119v-565
h-164zM381 -12q-41 0 -81.5 10.5t-68.5 29.5l48 103h16l106 -119h-92v63q13 -19 29.5 -29t35.5 -10q59 0 94 43t35 116q0 59 -25 101.5t-70.5 66t-108.5 23.5v54q91 0 157.5 -28t103 -78.5t36.5 -120.5q0 -66 -27.5 -116.5t-76 -79.5t-111.5 -29zM362 413v28h46v-28h-46z
" />
    <glyph glyph-name="agrave" unicode="&#xe0;" horiz-adv-x="557" 
d="M412 -12l-23 79h-10v230q0 70 -30.5 104.5t-92.5 34.5q-32 0 -61.5 -12.5t-48.5 -34.5l6 80h79l-101 -133h-16l-51 106q27 16 58.5 27t66 17t69.5 6q107 0 159.5 -42t52.5 -128v-241l-41 57l107 -75v-15l-106 -60h-17zM197 -12q-65 0 -106.5 36t-41.5 93q0 135 207 168
l160 25v-40l-116 -28q-89 -22 -124 -46t-35 -67q0 -33 23 -52t63 -19q102 0 167 71v-62h-15q-40 -41 -83.5 -60t-98.5 -19zM308 550l-165 154v2l90 59h2l90 -205z" />
    <glyph glyph-name="aacute" unicode="&#xe1;" horiz-adv-x="557" 
d="M412 -12l-23 79h-10v230q0 70 -30.5 104.5t-92.5 34.5q-32 0 -61.5 -12.5t-48.5 -34.5l6 80h79l-101 -133h-16l-51 106q27 16 58.5 27t66 17t69.5 6q107 0 159.5 -42t52.5 -128v-241l-41 57l107 -75v-15l-106 -60h-17zM197 -12q-65 0 -106.5 36t-41.5 93q0 135 207 168
l160 25v-40l-116 -28q-89 -22 -124 -46t-35 -67q0 -33 23 -52t63 -19q102 0 167 71v-62h-15q-40 -41 -83.5 -60t-98.5 -19zM247 550l-17 10l90 205h2l90 -59v-2z" />
    <glyph glyph-name="acircumflex" unicode="&#xe2;" horiz-adv-x="557" 
d="M412 -12l-23 79h-10v230q0 70 -30.5 104.5t-92.5 34.5q-32 0 -61.5 -12.5t-48.5 -34.5l6 80h79l-101 -133h-16l-51 106q27 16 58.5 27t66 17t69.5 6q107 0 159.5 -42t52.5 -128v-241l-41 57l107 -75v-15l-106 -60h-17zM197 -12q-65 0 -106.5 36t-41.5 93q0 135 207 168
l160 25v-40l-116 -28q-89 -22 -124 -46t-35 -67q0 -33 23 -52t63 -19q102 0 167 71v-62h-15q-40 -41 -83.5 -60t-98.5 -19zM156 551l-17 10l120 204h36l120 -204l-17 -10l-127 110h12z" />
    <glyph glyph-name="atilde" unicode="&#xe3;" horiz-adv-x="557" 
d="M412 -12l-23 79h-10v230q0 70 -30.5 104.5t-92.5 34.5q-32 0 -61.5 -12.5t-48.5 -34.5l6 80h79l-101 -133h-16l-51 106q27 16 58.5 27t66 17t69.5 6q107 0 159.5 -42t52.5 -128v-241l-41 57l107 -75v-15l-106 -60h-17zM197 -12q-65 0 -106.5 36t-41.5 93q0 135 207 168
l160 25v-40l-116 -28q-89 -22 -124 -46t-35 -67q0 -33 23 -52t63 -19q102 0 167 71v-62h-15q-40 -41 -83.5 -60t-98.5 -19zM357 557q-34 0 -60.5 12.5t-51 25t-52.5 12.5q-27 0 -45 -12t-29 -36l-21 6q14 54 42 83.5t65 29.5q35 0 61 -12.5t50.5 -25t52.5 -12.5
q27 0 45.5 12t28.5 36l21 -6q-14 -54 -42 -83.5t-65 -29.5z" />
    <glyph glyph-name="adieresis" unicode="&#xe4;" horiz-adv-x="557" 
d="M412 -12l-23 79h-10v230q0 70 -30.5 104.5t-92.5 34.5q-32 0 -61.5 -12.5t-48.5 -34.5l6 80h79l-101 -133h-16l-51 106q27 16 58.5 27t66 17t69.5 6q107 0 159.5 -42t52.5 -128v-241l-41 57l107 -75v-15l-106 -60h-17zM197 -12q-65 0 -106.5 36t-41.5 93q0 135 207 168
l160 25v-40l-116 -28q-89 -22 -124 -46t-35 -67q0 -33 23 -52t63 -19q102 0 167 71v-62h-15q-40 -41 -83.5 -60t-98.5 -19zM176 564q-27 0 -44.5 16.5t-17.5 42.5t17.5 42.5t44.5 16.5t44.5 -16.5t17.5 -42.5t-17.5 -42.5t-44.5 -16.5zM377 564q-27 0 -44.5 16.5t-17.5 42.5
t17.5 42.5t44.5 16.5q28 0 45.5 -16.5t17.5 -42.5t-17.5 -42.5t-45.5 -16.5z" />
    <glyph glyph-name="aring" unicode="&#xe5;" horiz-adv-x="557" 
d="M412 -12l-23 79h-10v230q0 70 -30.5 104.5t-92.5 34.5q-32 0 -61.5 -12.5t-48.5 -34.5l6 80h79l-101 -133h-16l-51 106q27 16 58.5 27t66 17t69.5 6q107 0 159.5 -42t52.5 -128v-241l-41 57l107 -75v-15l-106 -60h-17zM197 -12q-65 0 -106.5 36t-41.5 93q0 135 207 168
l160 25v-40l-116 -28q-89 -22 -124 -46t-35 -67q0 -33 23 -52t63 -19q102 0 167 71v-62h-15q-40 -41 -83.5 -60t-98.5 -19zM277 553q-52 0 -85.5 31.5t-33.5 80.5q0 50 33.5 81t85.5 31q53 0 86 -31t33 -81q0 -49 -33 -80.5t-86 -31.5zM277 594q32 0 51.5 20t19.5 51
q0 32 -19.5 51.5t-51.5 19.5q-31 0 -51 -19.5t-20 -51.5q0 -31 20 -51t51 -20z" />
    <glyph glyph-name="ae" unicode="&#xe6;" horiz-adv-x="865" 
d="M379 265v32q0 70 -30.5 104.5t-92.5 34.5q-32 0 -61.5 -12.5t-48.5 -34.5l6 80h79l-101 -133h-16l-51 106q27 16 58.5 27t66 17t69.5 6q65 0 112.5 -21t73.5 -59t26 -90v-57h-90zM197 -12q-65 0 -106.5 36t-41.5 93q0 61 53.5 100t153.5 51l160 19v-45l-116 -17
q-86 -13 -122.5 -34.5t-36.5 -61.5q0 -33 23 -52t63 -19q56 0 110 24t91 64l3 -64h-15q-44 -45 -101 -69.5t-118 -24.5zM614 -12q-69 0 -122 30t-83 83t-30 121q0 60 18 109.5t51 85.5t78.5 55.5t100.5 19.5q60 0 103.5 -26.5t67 -75.5t23.5 -116l-383 -30v43l277 37
q0 53 -29.5 83.5t-79.5 30.5q-39 0 -69.5 -24t-47.5 -66.5t-17 -97.5q0 -94 45 -145.5t128 -51.5q88 0 144 53l22 -24q-32 -45 -83.5 -69.5t-113.5 -24.5z" />
    <glyph glyph-name="ccedilla" unicode="&#xe7;" horiz-adv-x="503" 
d="M280 -12q-69 0 -122.5 30t-83.5 83t-30 121q0 80 33.5 140.5t92.5 95t136 34.5q47 0 89 -12.5t81 -37.5l-46 -107h-16l-104 133h79v-75q-37 45 -100 45q-46 0 -80 -23t-52.5 -65t-18.5 -100q0 -94 45.5 -145.5t129.5 -51.5q86 0 142 53l22 -24q-32 -45 -83.5 -69.5
t-113.5 -24.5zM169 -244l13 32q52 -7 88 6.5t36 41.5q0 21 -22 36.5t-60 19.5l50 123h38l-25 -61q49 -7 77.5 -33.5t28.5 -64.5q0 -41 -28.5 -67.5t-79 -35t-116.5 2.5z" />
    <glyph glyph-name="egrave" unicode="&#xe8;" horiz-adv-x="531" 
d="M280 -12q-69 0 -122.5 30t-83.5 83t-30 121q0 80 32 140.5t88 95t129 34.5q60 0 103.5 -29t67 -82.5t23.5 -126.5h-383v40l277 21q0 57 -29.5 90t-79.5 33q-39 0 -69.5 -24t-47.5 -66.5t-17 -97.5q0 -94 45 -145.5t128 -51.5q88 0 144 53l22 -24q-32 -45 -83.5 -69.5
t-113.5 -24.5zM314 550l-165 154v2l90 59h2l90 -205z" />
    <glyph glyph-name="eacute" unicode="&#xe9;" horiz-adv-x="531" 
d="M280 -12q-69 0 -122.5 30t-83.5 83t-30 121q0 80 32 140.5t88 95t129 34.5q60 0 103.5 -29t67 -82.5t23.5 -126.5h-383v40l277 21q0 57 -29.5 90t-79.5 33q-39 0 -69.5 -24t-47.5 -66.5t-17 -97.5q0 -94 45 -145.5t128 -51.5q88 0 144 53l22 -24q-32 -45 -83.5 -69.5
t-113.5 -24.5zM253 550l-17 10l90 205h2l90 -59v-2z" />
    <glyph glyph-name="ecircumflex" unicode="&#xea;" horiz-adv-x="531" 
d="M280 -12q-69 0 -122.5 30t-83.5 83t-30 121q0 80 32 140.5t88 95t129 34.5q60 0 103.5 -29t67 -82.5t23.5 -126.5h-383v40l277 21q0 57 -29.5 90t-79.5 33q-39 0 -69.5 -24t-47.5 -66.5t-17 -97.5q0 -94 45 -145.5t128 -51.5q88 0 144 53l22 -24q-32 -45 -83.5 -69.5
t-113.5 -24.5zM162 551l-17 10l120 204h36l120 -204l-17 -10l-127 110h12z" />
    <glyph glyph-name="edieresis" unicode="&#xeb;" horiz-adv-x="531" 
d="M280 -12q-69 0 -122.5 30t-83.5 83t-30 121q0 80 32 140.5t88 95t129 34.5q60 0 103.5 -29t67 -82.5t23.5 -126.5h-383v40l277 21q0 57 -29.5 90t-79.5 33q-39 0 -69.5 -24t-47.5 -66.5t-17 -97.5q0 -94 45 -145.5t128 -51.5q88 0 144 53l22 -24q-32 -45 -83.5 -69.5
t-113.5 -24.5zM182 564q-27 0 -44.5 16.5t-17.5 42.5t17.5 42.5t44.5 16.5t44.5 -16.5t17.5 -42.5t-17.5 -42.5t-44.5 -16.5zM383 564q-27 0 -44.5 16.5t-17.5 42.5t17.5 42.5t44.5 16.5q28 0 45.5 -16.5t17.5 -42.5t-17.5 -42.5t-45.5 -16.5z" />
    <glyph glyph-name="igrave" unicode="&#xec;" horiz-adv-x="294" 
d="M34 0v14l90 68l-16 -28v340l43 -63l-116 82v15l140 56h23v-432l-15 29l89 -67v-14h-238zM185 550l-165 154v2l90 59h2l90 -205z" />
    <glyph glyph-name="iacute" unicode="&#xed;" horiz-adv-x="294" 
d="M34 0v14l90 68l-16 -28v340l43 -63l-116 82v15l140 56h23v-432l-15 29l89 -67v-14h-238zM124 550l-17 10l90 205h2l90 -59v-2z" />
    <glyph glyph-name="icircumflex" unicode="&#xee;" horiz-adv-x="294" 
d="M34 0v14l90 68l-16 -28v340l43 -63l-116 82v15l140 56h23v-432l-15 29l89 -67v-14h-238zM53 551l-17 10l100 204h36l100 -204l-17 -10l-107 105h12z" />
    <glyph glyph-name="idieresis" unicode="&#xef;" horiz-adv-x="294" 
d="M34 0v14l90 68l-16 -28v340l43 -63l-116 82v15l140 56h23v-432l-15 29l89 -67v-14h-238zM220 564q-25 0 -41.5 16.5t-16.5 42.5t16.5 42.5t41.5 16.5q26 0 42.5 -16.5t16.5 -42.5t-16.5 -42.5t-42.5 -16.5zM71 564q-25 0 -41.5 16.5t-16.5 42.5t16.5 42.5t41.5 16.5
q26 0 42 -16.5t16 -42.5t-16 -42.5t-42 -16.5z" />
    <glyph glyph-name="eth" unicode="&#xf0;" horiz-adv-x="592" 
d="M291 -12q-72 0 -128 31.5t-87.5 87.5t-31.5 128q0 76 33 133.5t91 90.5t133 33q45 0 79 -12.5t64 -41.5h47v-176h-38q0 85 -42 130.5t-120 45.5q-45 0 -79 -24t-53.5 -67t-19.5 -99q0 -60 20.5 -106.5t57 -73t84.5 -26.5q73 0 112.5 57t39.5 163v91q0 119 -79.5 215
t-228.5 154v8l15 38h4q185 -63 284.5 -191t99.5 -302q0 -88 -31.5 -152.5t-89 -99.5t-136.5 -35zM169 536v49l290 154v-49z" />
    <glyph glyph-name="ntilde" unicode="&#xf1;" horiz-adv-x="638" 
d="M379 0v14l90 68l-16 -28v233q0 71 -25 101t-84 30q-46 0 -84.5 -19.5t-76.5 -63.5v66h15q92 91 181 91q83 0 123.5 -45t40.5 -136v-259l-16 29l89 -67v-14h-237zM34 0v14l90 68l-16 -30v342l43 -63l-116 82v15l140 56h23l-5 -83h5v-349l-15 29l89 -67v-14h-238zM409 557
q-34 0 -60.5 12.5t-51 25t-52.5 12.5q-27 0 -45 -12t-29 -36l-21 6q14 54 42 83.5t65 29.5q35 0 61 -12.5t50.5 -25t52.5 -12.5q27 0 45.5 12t28.5 36l21 -6q-14 -54 -42 -83.5t-65 -29.5z" />
    <glyph glyph-name="ograve" unicode="&#xf2;" horiz-adv-x="592" 
d="M291 -12q-72 0 -128 31.5t-87.5 87.5t-31.5 128q0 76 33 133.5t91 90.5t133 33q73 0 128.5 -31.5t87 -87t31.5 -128.5q0 -75 -33 -133t-90.5 -91t-133.5 -33zM301 42q45 0 79 24t53.5 67t19.5 99q0 61 -20.5 107t-57 72.5t-84.5 26.5q-45 0 -79 -24t-53.5 -67t-19.5 -99
q0 -60 20.5 -106.5t57 -73t84.5 -26.5zM327 550l-165 154v2l90 59h2l90 -205z" />
    <glyph glyph-name="oacute" unicode="&#xf3;" horiz-adv-x="592" 
d="M291 -12q-72 0 -128 31.5t-87.5 87.5t-31.5 128q0 76 33 133.5t91 90.5t133 33q73 0 128.5 -31.5t87 -87t31.5 -128.5q0 -75 -33 -133t-90.5 -91t-133.5 -33zM301 42q45 0 79 24t53.5 67t19.5 99q0 61 -20.5 107t-57 72.5t-84.5 26.5q-45 0 -79 -24t-53.5 -67t-19.5 -99
q0 -60 20.5 -106.5t57 -73t84.5 -26.5zM266 550l-17 10l90 205h2l90 -59v-2z" />
    <glyph glyph-name="ocircumflex" unicode="&#xf4;" horiz-adv-x="592" 
d="M291 -12q-72 0 -128 31.5t-87.5 87.5t-31.5 128q0 76 33 133.5t91 90.5t133 33q73 0 128.5 -31.5t87 -87t31.5 -128.5q0 -75 -33 -133t-90.5 -91t-133.5 -33zM301 42q45 0 79 24t53.5 67t19.5 99q0 61 -20.5 107t-57 72.5t-84.5 26.5q-45 0 -79 -24t-53.5 -67t-19.5 -99
q0 -60 20.5 -106.5t57 -73t84.5 -26.5zM175 551l-17 10l120 204h36l120 -204l-17 -10l-127 110h12z" />
    <glyph glyph-name="otilde" unicode="&#xf5;" horiz-adv-x="592" 
d="M291 -12q-72 0 -128 31.5t-87.5 87.5t-31.5 128q0 76 33 133.5t91 90.5t133 33q73 0 128.5 -31.5t87 -87t31.5 -128.5q0 -75 -33 -133t-90.5 -91t-133.5 -33zM301 42q45 0 79 24t53.5 67t19.5 99q0 61 -20.5 107t-57 72.5t-84.5 26.5q-45 0 -79 -24t-53.5 -67t-19.5 -99
q0 -60 20.5 -106.5t57 -73t84.5 -26.5zM376 557q-34 0 -60.5 12.5t-51 25t-52.5 12.5q-27 0 -45 -12t-29 -36l-21 6q14 54 42 83.5t65 29.5q35 0 61 -12.5t50.5 -25t52.5 -12.5q27 0 45.5 12t28.5 36l21 -6q-14 -54 -42 -83.5t-65 -29.5z" />
    <glyph glyph-name="odieresis" unicode="&#xf6;" horiz-adv-x="592" 
d="M291 -12q-72 0 -128 31.5t-87.5 87.5t-31.5 128q0 76 33 133.5t91 90.5t133 33q73 0 128.5 -31.5t87 -87t31.5 -128.5q0 -75 -33 -133t-90.5 -91t-133.5 -33zM301 42q45 0 79 24t53.5 67t19.5 99q0 61 -20.5 107t-57 72.5t-84.5 26.5q-45 0 -79 -24t-53.5 -67t-19.5 -99
q0 -60 20.5 -106.5t57 -73t84.5 -26.5zM195 564q-27 0 -44.5 16.5t-17.5 42.5t17.5 42.5t44.5 16.5t44.5 -16.5t17.5 -42.5t-17.5 -42.5t-44.5 -16.5zM396 564q-27 0 -44.5 16.5t-17.5 42.5t17.5 42.5t44.5 16.5q28 0 45.5 -16.5t17.5 -42.5t-17.5 -42.5t-45.5 -16.5z" />
    <glyph glyph-name="divide" unicode="&#xf7;" horiz-adv-x="518" 
d="M44 317v50h430v-50h-430zM259 138q-21 0 -34 12.5t-13 31.5q0 20 13 32.5t34 12.5t34 -12.5t13 -32.5q0 -19 -13 -31.5t-34 -12.5zM259 457q-21 0 -34 12.5t-13 31.5q0 20 13 32.5t34 12.5t34 -12.5t13 -32.5q0 -19 -13 -31.5t-34 -12.5z" />
    <glyph glyph-name="oslash" unicode="&#xf8;" horiz-adv-x="592" 
d="M291 -12q-72 0 -128 31.5t-87.5 87.5t-31.5 128q0 76 33 133.5t91 90.5t133 33q73 0 128.5 -31.5t87 -87t31.5 -128.5q0 -75 -33 -133t-90.5 -91t-133.5 -33zM301 42q45 0 79 24t53.5 67t19.5 99q0 61 -20.5 107t-57 72.5t-84.5 26.5q-45 0 -79 -24t-53.5 -67t-19.5 -99
q0 -60 20.5 -106.5t57 -73t84.5 -26.5zM126 -39l-33 23l373 534l33 -23z" />
    <glyph glyph-name="ugrave" unicode="&#xf9;" horiz-adv-x="591" 
d="M242 -12q-77 0 -115.5 44.5t-38.5 133.5v235l43 -63l-109 80v15l133 51h23v-291q0 -71 22.5 -101t76.5 -30q44 0 80.5 19.5t72.5 61.5v-66h-17q-49 -50 -86 -69.5t-85 -19.5zM447 -12l-25 89h-9v324l43 -63l-114 80v15l138 51h23v-403l-41 57l107 -75v-15l-105 -60h-17z
M327 550l-165 154v2l90 59h2l90 -205z" />
    <glyph glyph-name="uacute" unicode="&#xfa;" horiz-adv-x="591" 
d="M242 -12q-77 0 -115.5 44.5t-38.5 133.5v235l43 -63l-109 80v15l133 51h23v-291q0 -71 22.5 -101t76.5 -30q44 0 80.5 19.5t72.5 61.5v-66h-17q-49 -50 -86 -69.5t-85 -19.5zM447 -12l-25 89h-9v324l43 -63l-114 80v15l138 51h23v-403l-41 57l107 -75v-15l-105 -60h-17z
M266 550l-17 10l90 205h2l90 -59v-2z" />
    <glyph glyph-name="ucircumflex" unicode="&#xfb;" horiz-adv-x="591" 
d="M242 -12q-77 0 -115.5 44.5t-38.5 133.5v235l43 -63l-109 80v15l133 51h23v-291q0 -71 22.5 -101t76.5 -30q44 0 80.5 19.5t72.5 61.5v-66h-17q-49 -50 -86 -69.5t-85 -19.5zM447 -12l-25 89h-9v324l43 -63l-114 80v15l138 51h23v-403l-41 57l107 -75v-15l-105 -60h-17z
M175 551l-17 10l120 204h36l120 -204l-17 -10l-127 110h12z" />
    <glyph glyph-name="udieresis" unicode="&#xfc;" horiz-adv-x="591" 
d="M242 -12q-77 0 -115.5 44.5t-38.5 133.5v235l43 -63l-109 80v15l133 51h23v-291q0 -71 22.5 -101t76.5 -30q44 0 80.5 19.5t72.5 61.5v-66h-17q-49 -50 -86 -69.5t-85 -19.5zM447 -12l-25 89h-9v324l43 -63l-114 80v15l138 51h23v-403l-41 57l107 -75v-15l-105 -60h-17z
M195 564q-27 0 -44.5 16.5t-17.5 42.5t17.5 42.5t44.5 16.5t44.5 -16.5t17.5 -42.5t-17.5 -42.5t-44.5 -16.5zM396 564q-27 0 -44.5 16.5t-17.5 42.5t17.5 42.5t44.5 16.5q28 0 45.5 -16.5t17.5 -42.5t-17.5 -42.5t-45.5 -16.5z" />
    <glyph glyph-name="yacute" unicode="&#xfd;" horiz-adv-x="556" 
d="M258 -56l-223 508h33v-59l-66 73v14h213v-14l-71 -58h-10v35l176 -402h-34l159 411v-44h-11l-73 58v14h203v-14l-66 -70v56h33l-352 -703h-16l-81 81v13l187 157zM257 550l-17 10l90 205h2l90 -59v-2z" />
    <glyph glyph-name="thorn" unicode="&#xfe;" horiz-adv-x="613" 
d="M34 -235v14l90 68l-16 -28v856l43 -63l-116 82v15l140 56h23v-948l-15 27l113 -65v-14h-262zM306 -12q-87 0 -143 41v94q22 -39 61.5 -60t91.5 -21q47 0 82.5 25t56 68.5t20.5 100.5q0 89 -35.5 137.5t-101.5 48.5q-46 0 -83 -19.5t-72 -62.5v66h15q30 40 74.5 63
t90.5 23q64 0 110 -29t71 -82.5t25 -126.5q0 -78 -33.5 -138t-93 -94t-136.5 -34z" />
    <glyph glyph-name="ydieresis" unicode="&#xff;" horiz-adv-x="556" 
d="M258 -56l-223 508h33v-59l-66 73v14h213v-14l-71 -58h-10v35l176 -402h-34l159 411v-44h-11l-73 58v14h203v-14l-66 -70v56h33l-352 -703h-16l-81 81v13l187 157zM186 564q-27 0 -44.5 16.5t-17.5 42.5t17.5 42.5t44.5 16.5t44.5 -16.5t17.5 -42.5t-17.5 -42.5
t-44.5 -16.5zM387 564q-27 0 -44.5 16.5t-17.5 42.5t17.5 42.5t44.5 16.5q28 0 45.5 -16.5t17.5 -42.5t-17.5 -42.5t-45.5 -16.5z" />
    <glyph glyph-name="Amacron" unicode="&#x100;" horiz-adv-x="709" 
d="M2 0v16l86 77l-46 -80l284 677h58l284 -677l-47 81l86 -78v-16h-261v16l130 80l-8 -83l-262 626h42l-219 -626l-13 84l130 -81v-16h-244zM172 214v50h346v-50h-346zM307 609l-69 65v16h105zM178 769v66h332v-66h-332z" />
    <glyph glyph-name="amacron" unicode="&#x101;" horiz-adv-x="557" 
d="M412 -12l-23 79h-10v230q0 70 -30.5 104.5t-92.5 34.5q-32 0 -61.5 -12.5t-48.5 -34.5l6 80h79l-101 -133h-16l-51 106q27 16 58.5 27t66 17t69.5 6q107 0 159.5 -42t52.5 -128v-241l-41 57l107 -75v-15l-106 -60h-17zM197 -12q-65 0 -106.5 36t-41.5 93q0 135 207 168
l160 25v-40l-116 -28q-89 -22 -124 -46t-35 -67q0 -33 23 -52t63 -19q102 0 167 71v-62h-15q-40 -41 -83.5 -60t-98.5 -19zM123 584v66h308v-66h-308z" />
    <glyph glyph-name="Abreve" unicode="&#x102;" horiz-adv-x="709" 
d="M2 0v16l86 77l-46 -80l284 677h58l284 -677l-47 81l86 -78v-16h-261v16l130 80l-8 -83l-262 626h42l-219 -626l-13 84l130 -81v-16h-244zM172 214v50h346v-50h-346zM307 609l-69 65v16h105zM344 748q-64 0 -106 40t-44 102l15 4q15 -34 51.5 -53.5t83.5 -19.5t83.5 19.5
t51.5 53.5l15 -4q-2 -62 -44 -102t-106 -40z" />
    <glyph glyph-name="abreve" unicode="&#x103;" horiz-adv-x="557" 
d="M412 -12l-23 79h-10v230q0 70 -30.5 104.5t-92.5 34.5q-32 0 -61.5 -12.5t-48.5 -34.5l6 80h79l-101 -133h-16l-51 106q27 16 58.5 27t66 17t69.5 6q107 0 159.5 -42t52.5 -128v-241l-41 57l107 -75v-15l-106 -60h-17zM197 -12q-65 0 -106.5 36t-41.5 93q0 135 207 168
l160 25v-40l-116 -28q-89 -22 -124 -46t-35 -67q0 -33 23 -52t63 -19q102 0 167 71v-62h-15q-40 -41 -83.5 -60t-98.5 -19zM277 558q-68 0 -108 47t-40 127l16 2q17 -50 51.5 -77t80.5 -27q47 0 81 27t51 77l16 -2q0 -80 -40 -127t-108 -47z" />
    <glyph glyph-name="Aogonek" unicode="&#x104;" horiz-adv-x="709" 
d="M2 0v16l86 77l-46 -80l284 677h58l284 -677l-47 81l86 -78v-16h-261v16l130 80l-8 -83l-262 626h42l-219 -626l-13 84l130 -81v-16h-244zM172 214v50h346v-50h-346zM307 609l-69 65v16h105zM579 -251q-47 0 -77 30t-30 77q0 46 21.5 83t61.5 59v22h49v-20
q-23 -18 -36.5 -48.5t-13.5 -65.5q0 -68 64 -68q21 0 42 9t35 25l14 -10q-13 -43 -48 -68t-82 -25z" />
    <glyph glyph-name="aogonek" unicode="&#x105;" horiz-adv-x="557" 
d="M412 -12l-23 79h-10v230q0 70 -30.5 104.5t-92.5 34.5q-32 0 -61.5 -12.5t-48.5 -34.5l6 80h79l-101 -133h-16l-51 106q27 16 58.5 27t66 17t69.5 6q107 0 159.5 -42t52.5 -128v-241l-41 57l107 -75v-15l-106 -60h-17zM197 -12q-65 0 -106.5 36t-41.5 93q0 135 207 168
l160 25v-40l-116 -28q-89 -22 -124 -46t-35 -67q0 -33 23 -52t63 -19q102 0 167 71v-62h-15q-40 -41 -83.5 -60t-98.5 -19zM404 -251q-48 0 -76 27.5t-28 73.5q0 56 36 102t93 62v-26q-23 -17 -35 -43t-12 -61q0 -66 61 -66q21 0 42 9t35 25l14 -10q-13 -43 -48 -68t-82 -25
z" />
    <glyph glyph-name="Cacute" unicode="&#x106;" horiz-adv-x="694" 
d="M394 -16q-107 0 -185.5 42.5t-121 121t-42.5 185.5q0 78 27 146t75 119t111.5 79.5t137.5 28.5q44 0 89.5 -9t86 -24.5t67.5 -36.5l-70 -112h-16l-105 148h92v-95q-45 72 -152 72q-70 0 -123.5 -37.5t-84 -104t-30.5 -153.5q0 -91 31.5 -161.5t87.5 -110t129 -39.5
q68 0 119.5 29t96.5 91l35 -20q-42 -76 -108 -117.5t-147 -41.5zM332 739l-13 14l157 177h2l69 -83v-2z" />
    <glyph glyph-name="cacute" unicode="&#x107;" horiz-adv-x="503" 
d="M280 -12q-69 0 -122.5 30t-83.5 83t-30 121q0 80 33.5 140.5t92.5 95t136 34.5q47 0 89 -12.5t81 -37.5l-46 -107h-16l-104 133h79v-75q-37 45 -100 45q-46 0 -80 -23t-52.5 -65t-18.5 -100q0 -94 45.5 -145.5t129.5 -51.5q86 0 142 53l22 -24q-32 -45 -83.5 -69.5
t-113.5 -24.5zM259 550l-17 10l90 205h2l90 -59v-2z" />
    <glyph glyph-name="Ccircumflex" unicode="&#x108;" horiz-adv-x="694" 
d="M394 -16q-107 0 -185.5 42.5t-121 121t-42.5 185.5q0 78 27 146t75 119t111.5 79.5t137.5 28.5q44 0 89.5 -9t86 -24.5t67.5 -36.5l-70 -112h-16l-105 148h92v-95q-45 72 -152 72q-70 0 -123.5 -37.5t-84 -104t-30.5 -153.5q0 -91 31.5 -161.5t87.5 -110t129 -39.5
q68 0 119.5 29t96.5 91l35 -20q-42 -76 -108 -117.5t-147 -41.5zM246 740l-12 12l140 161h48l140 -161l-12 -12l-158 89h12z" />
    <glyph glyph-name="ccircumflex" unicode="&#x109;" horiz-adv-x="503" 
d="M280 -12q-69 0 -122.5 30t-83.5 83t-30 121q0 80 33.5 140.5t92.5 95t136 34.5q47 0 89 -12.5t81 -37.5l-46 -107h-16l-104 133h79v-75q-37 45 -100 45q-46 0 -80 -23t-52.5 -65t-18.5 -100q0 -94 45.5 -145.5t129.5 -51.5q86 0 142 53l22 -24q-32 -45 -83.5 -69.5
t-113.5 -24.5zM168 551l-17 10l120 204h36l120 -204l-17 -10l-127 110h12z" />
    <glyph glyph-name="Cdotaccent" unicode="&#x10a;" horiz-adv-x="694" 
d="M394 -16q-107 0 -185.5 42.5t-121 121t-42.5 185.5q0 78 27 146t75 119t111.5 79.5t137.5 28.5q44 0 89.5 -9t86 -24.5t67.5 -36.5l-70 -112h-16l-105 148h92v-95q-45 72 -152 72q-70 0 -123.5 -37.5t-84 -104t-30.5 -153.5q0 -91 31.5 -161.5t87.5 -110t129 -39.5
q68 0 119.5 29t96.5 91l35 -20q-42 -76 -108 -117.5t-147 -41.5zM397 748q-31 0 -50 18.5t-19 47.5t19 47.5t50 18.5t50 -18.5t19 -47.5t-19 -47.5t-50 -18.5z" />
    <glyph glyph-name="cdotaccent" unicode="&#x10b;" horiz-adv-x="503" 
d="M280 -12q-69 0 -122.5 30t-83.5 83t-30 121q0 80 33.5 140.5t92.5 95t136 34.5q47 0 89 -12.5t81 -37.5l-46 -107h-16l-104 133h79v-75q-37 45 -100 45q-46 0 -80 -23t-52.5 -65t-18.5 -100q0 -94 45.5 -145.5t129.5 -51.5q86 0 142 53l22 -24q-32 -45 -83.5 -69.5
t-113.5 -24.5zM289 558q-31 0 -50 18.5t-19 47.5t19 47.5t50 18.5t50 -18.5t19 -47.5t-19 -47.5t-50 -18.5z" />
    <glyph glyph-name="Ccaron" unicode="&#x10c;" horiz-adv-x="694" 
d="M394 -16q-107 0 -185.5 42.5t-121 121t-42.5 185.5q0 78 27 146t75 119t111.5 79.5t137.5 28.5q44 0 89.5 -9t86 -24.5t67.5 -36.5l-70 -112h-16l-105 148h92v-95q-45 72 -152 72q-70 0 -123.5 -37.5t-84 -104t-30.5 -153.5q0 -91 31.5 -161.5t87.5 -110t129 -39.5
q68 0 119.5 29t96.5 91l35 -20q-42 -76 -108 -117.5t-147 -41.5zM251 921l158 -89h-12l158 89l12 -12l-140 -161h-48l-140 161z" />
    <glyph glyph-name="ccaron" unicode="&#x10d;" horiz-adv-x="503" 
d="M280 -12q-69 0 -122.5 30t-83.5 83t-30 121q0 80 33.5 140.5t92.5 95t136 34.5q47 0 89 -12.5t81 -37.5l-46 -107h-16l-104 133h79v-75q-37 45 -100 45q-46 0 -80 -23t-52.5 -65t-18.5 -100q0 -94 45.5 -145.5t129.5 -51.5q86 0 142 53l22 -24q-32 -45 -83.5 -69.5
t-113.5 -24.5zM168 772l127 -110h-12l127 110l17 -10l-120 -204h-36l-120 204z" />
    <glyph glyph-name="Dcaron" unicode="&#x10e;" horiz-adv-x="735" 
d="M177 0v50h145q85 0 143.5 33t89 95.5t30.5 152.5q0 95 -31 164.5t-87.5 107t-134.5 37.5h-155v50h165q102 0 180.5 -42.5t123 -117.5t44.5 -173q0 -79 -27 -144.5t-76 -113t-116.5 -73.5t-148.5 -26h-145zM30 0v16l79 59v540l-79 59v16h175v-690h-175zM195 921l158 -89
h-12l158 89l12 -12l-140 -161h-48l-140 161z" />
    <glyph glyph-name="dcaron" unicode="&#x10f;" horiz-adv-x="593" 
d="M447 -12l-23 86h-9v601l43 -63l-116 82v15l140 56h23v-684l-41 57l107 -75v-15l-107 -60h-17zM250 -12q-63 0 -109.5 29t-71.5 82.5t-25 126.5q0 78 33.5 138t93 94t136.5 34q87 0 143 -41v-94q-22 39 -61.5 60t-91.5 21q-46 0 -82 -24.5t-56.5 -68.5t-20.5 -101
q0 -89 35.5 -137.5t101.5 -48.5q47 0 84 19.5t71 62.5v-66h-15q-30 -40 -74 -63t-91 -23zM567 555l-19 4l19 205l2 2l100 -26l1 -2z" />
    <glyph glyph-name="Dcroat" unicode="&#x110;" horiz-adv-x="735" 
d="M177 0v50h145q85 0 143.5 33t89 95.5t30.5 152.5q0 95 -31 164.5t-87.5 107t-134.5 37.5h-155v50h165q102 0 180.5 -42.5t123 -117.5t44.5 -173q0 -79 -27 -144.5t-76 -113t-116.5 -73.5t-148.5 -26h-145zM30 0v16l79 59v540l-79 59v16h175v-690h-175zM30 325v55h336v-55
h-336z" />
    <glyph glyph-name="dcroat" unicode="&#x111;" horiz-adv-x="593" 
d="M447 -12l-23 86h-9v601l43 -63l-116 82v15l140 56h23v-684l-41 57l107 -75v-15l-107 -60h-17zM250 -12q-63 0 -109.5 29t-71.5 82.5t-25 126.5q0 78 33.5 138t93 94t136.5 34q87 0 143 -41v-94q-22 39 -61.5 60t-91.5 21q-46 0 -82 -24.5t-56.5 -68.5t-20.5 -101
q0 -89 35.5 -137.5t101.5 -48.5q47 0 84 19.5t71 62.5v-66h-15q-30 -40 -74 -63t-91 -23zM263 537v46h308v-46h-308z" />
    <glyph glyph-name="Emacron" unicode="&#x112;" horiz-adv-x="619" 
d="M30 0v16l79 59v540l-79 59v16h175v-690h-175zM187 0v43l341 16v-59h-341zM433 0v41l125 126h16l-6 -167h-135zM443 324l-265 10v43l265 11v-64zM459 261l-80 76v38l80 76h16v-190h-16zM528 631l-341 16v43h341v-59zM546 546l-114 100v44l113 8h11l6 -152h-16zM144 769v66
h332v-66h-332z" />
    <glyph glyph-name="emacron" unicode="&#x113;" horiz-adv-x="531" 
d="M280 -12q-69 0 -122.5 30t-83.5 83t-30 121q0 80 32 140.5t88 95t129 34.5q60 0 103.5 -29t67 -82.5t23.5 -126.5h-383v40l277 21q0 57 -29.5 90t-79.5 33q-39 0 -69.5 -24t-47.5 -66.5t-17 -97.5q0 -94 45 -145.5t128 -51.5q88 0 144 53l22 -24q-32 -45 -83.5 -69.5
t-113.5 -24.5zM129 584v66h308v-66h-308z" />
    <glyph glyph-name="Ebreve" unicode="&#x114;" horiz-adv-x="619" 
d="M30 0v16l79 59v540l-79 59v16h175v-690h-175zM187 0v43l341 16v-59h-341zM433 0v41l125 126h16l-6 -167h-135zM443 324l-265 10v43l265 11v-64zM459 261l-80 76v38l80 76h16v-190h-16zM528 631l-341 16v43h341v-59zM546 546l-114 100v44l113 8h11l6 -152h-16zM310 748
q-64 0 -106 40t-44 102l15 4q15 -34 51.5 -53.5t83.5 -19.5t83.5 19.5t51.5 53.5l15 -4q-2 -62 -44 -102t-106 -40z" />
    <glyph glyph-name="ebreve" unicode="&#x115;" horiz-adv-x="531" 
d="M280 -12q-69 0 -122.5 30t-83.5 83t-30 121q0 80 32 140.5t88 95t129 34.5q60 0 103.5 -29t67 -82.5t23.5 -126.5h-383v40l277 21q0 57 -29.5 90t-79.5 33q-39 0 -69.5 -24t-47.5 -66.5t-17 -97.5q0 -94 45 -145.5t128 -51.5q88 0 144 53l22 -24q-32 -45 -83.5 -69.5
t-113.5 -24.5zM283 558q-68 0 -108 47t-40 127l16 2q17 -50 51.5 -77t80.5 -27q47 0 81 27t51 77l16 -2q0 -80 -40 -127t-108 -47z" />
    <glyph glyph-name="Edotaccent" unicode="&#x116;" horiz-adv-x="619" 
d="M30 0v16l79 59v540l-79 59v16h175v-690h-175zM187 0v43l341 16v-59h-341zM433 0v41l125 126h16l-6 -167h-135zM443 324l-265 10v43l265 11v-64zM459 261l-80 76v38l80 76h16v-190h-16zM528 631l-341 16v43h341v-59zM546 546l-114 100v44l113 8h11l6 -152h-16zM309 748
q-31 0 -50 18.5t-19 47.5t19 47.5t50 18.5t50 -18.5t19 -47.5t-19 -47.5t-50 -18.5z" />
    <glyph glyph-name="edotaccent" unicode="&#x117;" horiz-adv-x="531" 
d="M280 -12q-69 0 -122.5 30t-83.5 83t-30 121q0 80 32 140.5t88 95t129 34.5q60 0 103.5 -29t67 -82.5t23.5 -126.5h-383v40l277 21q0 57 -29.5 90t-79.5 33q-39 0 -69.5 -24t-47.5 -66.5t-17 -97.5q0 -94 45 -145.5t128 -51.5q88 0 144 53l22 -24q-32 -45 -83.5 -69.5
t-113.5 -24.5zM283 558q-31 0 -50 18.5t-19 47.5t19 47.5t50 18.5t50 -18.5t19 -47.5t-19 -47.5t-50 -18.5z" />
    <glyph glyph-name="Eogonek" unicode="&#x118;" horiz-adv-x="619" 
d="M30 0v16l79 59v540l-79 59v16h175v-690h-175zM187 0v43l341 16v-59h-341zM433 0v41l125 126h16l-6 -167h-135zM443 324l-265 10v43l265 11v-64zM459 261l-80 76v38l80 76h16v-190h-16zM528 631l-341 16v43h341v-59zM546 546l-114 100v44l113 8h11l6 -152h-16zM430 -251
q-47 0 -77 30t-30 77q0 46 21.5 83t61.5 59v22h49v-20q-23 -18 -36.5 -48.5t-13.5 -65.5q0 -68 64 -68q21 0 42 9t35 25l14 -10q-13 -43 -48 -68t-82 -25z" />
    <glyph glyph-name="eogonek" unicode="&#x119;" horiz-adv-x="531" 
d="M280 -12q-69 0 -122.5 30t-83.5 83t-30 121q0 80 32 140.5t88 95t129 34.5q60 0 103.5 -29t67 -82.5t23.5 -126.5h-383v40l277 21q0 57 -29.5 90t-79.5 33q-39 0 -69.5 -24t-47.5 -66.5t-17 -97.5q0 -94 45 -145.5t128 -51.5q88 0 144 53l22 -24q-32 -45 -83.5 -69.5
t-113.5 -24.5zM337 -251q-48 0 -76 27.5t-28 73.5q0 35 22.5 72.5t61.5 65.5v43h78v-18q-37 -21 -58.5 -56t-21.5 -73q0 -66 61 -66q21 0 42 9t35 25l14 -10q-13 -43 -48 -68t-82 -25z" />
    <glyph glyph-name="Ecaron" unicode="&#x11a;" horiz-adv-x="619" 
d="M30 0v16l79 59v540l-79 59v16h175v-690h-175zM187 0v43l341 16v-59h-341zM433 0v41l125 126h16l-6 -167h-135zM443 324l-265 10v43l265 11v-64zM459 261l-80 76v38l80 76h16v-190h-16zM528 631l-341 16v43h341v-59zM546 546l-114 100v44l113 8h11l6 -152h-16zM163 921
l158 -89h-12l158 89l12 -12l-140 -161h-48l-140 161z" />
    <glyph glyph-name="ecaron" unicode="&#x11b;" horiz-adv-x="531" 
d="M280 -12q-69 0 -122.5 30t-83.5 83t-30 121q0 80 32 140.5t88 95t129 34.5q60 0 103.5 -29t67 -82.5t23.5 -126.5h-383v40l277 21q0 57 -29.5 90t-79.5 33q-39 0 -69.5 -24t-47.5 -66.5t-17 -97.5q0 -94 45 -145.5t128 -51.5q88 0 144 53l22 -24q-32 -45 -83.5 -69.5
t-113.5 -24.5zM162 772l127 -110h-12l127 110l17 -10l-120 -204h-36l-120 204z" />
    <glyph glyph-name="Gcircumflex" unicode="&#x11c;" horiz-adv-x="756" 
d="M394 -16q-107 0 -185.5 42.5t-121 121t-42.5 185.5q0 78 27 146t75 119t111.5 79.5t137.5 28.5q48 0 97 -8.5t91.5 -23.5t69.5 -35l-71 -113h-16l-112 149h95l5 -87q-31 32 -71 46.5t-96 14.5q-70 0 -123.5 -37.5t-84 -104t-30.5 -153.5q0 -91 31.5 -161.5t87.5 -110
t129 -39.5q92 0 141 37.5t49 106.5l35 -20q-14 -91 -71 -137t-158 -46zM647 -16l-86 75v193l-89 64v16h254v-16l-69 -59v-273h-10zM242 740l-12 12l140 161h48l140 -161l-12 -12l-158 89h12z" />
    <glyph glyph-name="gcircumflex" unicode="&#x11d;" horiz-adv-x="568" 
d="M271 -251q-69 0 -122.5 18.5t-83.5 51t-30 74.5q0 34 23 62t59 38v28h64v-33q-53 -29 -53 -89q0 -48 45.5 -76t123.5 -28q76 0 120 28.5t44 77.5q0 40 -26.5 63.5t-71.5 23.5h-197q-49 0 -78 26t-29 71q0 30 12 52.5t33.5 35.5t49.5 13l29 -29q-25 0 -39 -11.5t-14 -32.5
q0 -22 16 -31.5t51 -9.5h179q75 0 122.5 -40.5t47.5 -104.5q0 -52 -35 -92.5t-97 -63t-143 -22.5zM265 139q-59 0 -104.5 22t-71 60.5t-25.5 88.5q0 54 28 95t77 64t113 23q25 0 48 -4t43 -12v-8q60 -34 85 -68t25 -79q0 -53 -28 -94.5t-77 -64.5t-113 -23zM277 188
q52 0 82.5 31t30.5 84q0 65 -32 102.5t-88 37.5q-52 0 -82.5 -31t-30.5 -84q0 -64 32.5 -102t87.5 -38zM531 435l-144 28l-7 -14l-65 32l226 56l5 -5v-97h-15zM149 551l-17 10l120 204h36l120 -204l-17 -10l-127 110h12z" />
    <glyph glyph-name="Gbreve" unicode="&#x11e;" horiz-adv-x="756" 
d="M394 -16q-107 0 -185.5 42.5t-121 121t-42.5 185.5q0 78 27 146t75 119t111.5 79.5t137.5 28.5q48 0 97 -8.5t91.5 -23.5t69.5 -35l-71 -113h-16l-112 149h95l5 -87q-31 32 -71 46.5t-96 14.5q-70 0 -123.5 -37.5t-84 -104t-30.5 -153.5q0 -91 31.5 -161.5t87.5 -110
t129 -39.5q92 0 141 37.5t49 106.5l35 -20q-14 -91 -71 -137t-158 -46zM647 -16l-86 75v193l-89 64v16h254v-16l-69 -59v-273h-10zM394 748q-64 0 -106 40t-44 102l15 4q15 -34 51.5 -53.5t83.5 -19.5t83.5 19.5t51.5 53.5l15 -4q-2 -62 -44 -102t-106 -40z" />
    <glyph glyph-name="gbreve" unicode="&#x11f;" horiz-adv-x="568" 
d="M271 -251q-69 0 -122.5 18.5t-83.5 51t-30 74.5q0 34 23 62t59 38v28h64v-33q-53 -29 -53 -89q0 -48 45.5 -76t123.5 -28q76 0 120 28.5t44 77.5q0 40 -26.5 63.5t-71.5 23.5h-197q-49 0 -78 26t-29 71q0 30 12 52.5t33.5 35.5t49.5 13l29 -29q-25 0 -39 -11.5t-14 -32.5
q0 -22 16 -31.5t51 -9.5h179q75 0 122.5 -40.5t47.5 -104.5q0 -52 -35 -92.5t-97 -63t-143 -22.5zM265 139q-59 0 -104.5 22t-71 60.5t-25.5 88.5q0 54 28 95t77 64t113 23q25 0 48 -4t43 -12v-8q60 -34 85 -68t25 -79q0 -53 -28 -94.5t-77 -64.5t-113 -23zM277 188
q52 0 82.5 31t30.5 84q0 65 -32 102.5t-88 37.5q-52 0 -82.5 -31t-30.5 -84q0 -64 32.5 -102t87.5 -38zM531 435l-144 28l-7 -14l-65 32l226 56l5 -5v-97h-15zM270 558q-68 0 -108 47t-40 127l16 2q17 -50 51.5 -77t80.5 -27q47 0 81 27t51 77l16 -2q0 -80 -40 -127
t-108 -47z" />
    <glyph glyph-name="Gdotaccent" unicode="&#x120;" horiz-adv-x="756" 
d="M394 -16q-107 0 -185.5 42.5t-121 121t-42.5 185.5q0 78 27 146t75 119t111.5 79.5t137.5 28.5q48 0 97 -8.5t91.5 -23.5t69.5 -35l-71 -113h-16l-112 149h95l5 -87q-31 32 -71 46.5t-96 14.5q-70 0 -123.5 -37.5t-84 -104t-30.5 -153.5q0 -91 31.5 -161.5t87.5 -110
t129 -39.5q92 0 141 37.5t49 106.5l35 -20q-14 -91 -71 -137t-158 -46zM647 -16l-86 75v193l-89 64v16h254v-16l-69 -59v-273h-10zM393 748q-31 0 -50 18.5t-19 47.5t19 47.5t50 18.5t50 -18.5t19 -47.5t-19 -47.5t-50 -18.5z" />
    <glyph glyph-name="gdotaccent" unicode="&#x121;" horiz-adv-x="568" 
d="M271 -251q-69 0 -122.5 18.5t-83.5 51t-30 74.5q0 34 23 62t59 38v28h64v-33q-53 -29 -53 -89q0 -48 45.5 -76t123.5 -28q76 0 120 28.5t44 77.5q0 40 -26.5 63.5t-71.5 23.5h-197q-49 0 -78 26t-29 71q0 30 12 52.5t33.5 35.5t49.5 13l29 -29q-25 0 -39 -11.5t-14 -32.5
q0 -22 16 -31.5t51 -9.5h179q75 0 122.5 -40.5t47.5 -104.5q0 -52 -35 -92.5t-97 -63t-143 -22.5zM265 139q-59 0 -104.5 22t-71 60.5t-25.5 88.5q0 54 28 95t77 64t113 23q25 0 48 -4t43 -12v-8q60 -34 85 -68t25 -79q0 -53 -28 -94.5t-77 -64.5t-113 -23zM277 188
q52 0 82.5 31t30.5 84q0 65 -32 102.5t-88 37.5q-52 0 -82.5 -31t-30.5 -84q0 -64 32.5 -102t87.5 -38zM531 435l-144 28l-7 -14l-65 32l226 56l5 -5v-97h-15zM270 558q-31 0 -50 18.5t-19 47.5t19 47.5t50 18.5t50 -18.5t19 -47.5t-19 -47.5t-50 -18.5z" />
    <glyph glyph-name="uni0122" unicode="&#x122;" horiz-adv-x="756" 
d="M394 -16q-107 0 -185.5 42.5t-121 121t-42.5 185.5q0 78 27 146t75 119t111.5 79.5t137.5 28.5q48 0 97 -8.5t91.5 -23.5t69.5 -35l-71 -113h-16l-112 149h95l5 -87q-31 32 -71 46.5t-96 14.5q-70 0 -123.5 -37.5t-84 -104t-30.5 -153.5q0 -91 31.5 -161.5t87.5 -110
t129 -39.5q92 0 141 37.5t49 106.5l35 -20q-14 -91 -71 -137t-158 -46zM647 -16l-86 75v193l-89 64v16h254v-16l-69 -59v-273h-10zM303 -292l-5 27q33 5 52.5 23t19.5 45l-62 41v5q0 29 20.5 49.5t49.5 20.5q35 0 55.5 -21.5t20.5 -59.5q0 -37 -18.5 -65t-52 -45t-80.5 -20z
" />
    <glyph glyph-name="uni0123" unicode="&#x123;" horiz-adv-x="568" 
d="M271 -251q-69 0 -122.5 18.5t-83.5 51t-30 74.5q0 34 23 62t59 38v28h64v-33q-53 -29 -53 -89q0 -48 45.5 -76t123.5 -28q76 0 120 28.5t44 77.5q0 40 -26.5 63.5t-71.5 23.5h-197q-49 0 -78 26t-29 71q0 30 12 52.5t33.5 35.5t49.5 13l29 -29q-25 0 -39 -11.5t-14 -32.5
q0 -22 16 -31.5t51 -9.5h179q75 0 122.5 -40.5t47.5 -104.5q0 -52 -35 -92.5t-97 -63t-143 -22.5zM265 139q-59 0 -104.5 22t-71 60.5t-25.5 88.5q0 54 28 95t77 64t113 23q25 0 48 -4t43 -12v-8q60 -34 85 -68t25 -79q0 -53 -28 -94.5t-77 -64.5t-113 -23zM277 188
q52 0 82.5 31t30.5 84q0 65 -32 102.5t-88 37.5q-52 0 -82.5 -31t-30.5 -84q0 -64 32.5 -102t87.5 -38zM531 435l-144 28l-7 -14l-65 32l226 56l5 -5v-97h-15zM348 768l5 -27q-33 -4 -52.5 -22.5t-19.5 -45.5l62 -41v-5q0 -29 -20.5 -49.5t-49.5 -20.5q-35 0 -55.5 22
t-20.5 59t18.5 65t52.5 45t80 20z" />
    <glyph glyph-name="Hcircumflex" unicode="&#x124;" horiz-adv-x="756" 
d="M472 0v16l79 59v540l-79 59v16h254v-16l-79 -59v-540l79 -59v-16h-254zM30 0v16l79 59v540l-79 59v16h254v-16l-79 -59v-540l79 -59v-16h-254zM174 331v55h408v-55h-408zM226 740l-12 12l140 161h48l140 -161l-12 -12l-158 89h12z" />
    <glyph glyph-name="hcircumflex" unicode="&#x125;" horiz-adv-x="638" 
d="M379 0v14l90 68l-16 -28v233q0 71 -25 101t-84 30q-46 0 -84.5 -19.5t-76.5 -63.5v66h15q92 91 181 91q83 0 123.5 -45t40.5 -136v-259l-16 29l89 -67v-14h-237zM34 0v14l90 68l-16 -28v621l43 -63l-116 82v15l140 56h23v-713l-15 29l89 -67v-14h-238zM4 795l-12 12
l140 161h48l140 -161l-12 -12l-158 89h12z" />
    <glyph glyph-name="Hbar" unicode="&#x126;" horiz-adv-x="756" 
d="M472 0v16l79 59v540l-79 59v16h254v-16l-79 -59v-540l79 -59v-16h-254zM30 0v16l79 59v540l-79 59v16h254v-16l-79 -59v-540l79 -59v-16h-254zM174 331v55h408v-55h-408zM31 486v53h694v-53h-694z" />
    <glyph glyph-name="hbar" unicode="&#x127;" horiz-adv-x="638" 
d="M379 0v14l90 68l-16 -28v233q0 71 -25 101t-84 30q-46 0 -84.5 -19.5t-76.5 -63.5v66h15q92 91 181 91q83 0 123.5 -45t40.5 -136v-259l-16 29l89 -67v-14h-237zM34 0v14l90 68l-16 -28v621l43 -63l-116 82v15l140 56h23v-713l-15 29l89 -67v-14h-238zM34 537v46h308v-46
h-308z" />
    <glyph glyph-name="Itilde" unicode="&#x128;" horiz-adv-x="314" 
d="M30 0v16l79 59v540l-79 59v16h254v-16l-79 -59v-540l79 -59v-16h-254zM232 752q-34 0 -60.5 9t-51 18t-52.5 9q-51 0 -74 -34l-21 6q13 50 41 76.5t66 26.5q35 0 61 -9t50.5 -18t52.5 -9q51 0 74 34l21 -6q-13 -49 -41 -76t-66 -27z" />
    <glyph glyph-name="itilde" unicode="&#x129;" horiz-adv-x="294" 
d="M34 0v14l90 68l-16 -28v340l43 -63l-116 82v15l140 56h23v-432l-15 29l89 -67v-14h-238zM224 555q-24 0 -50.5 13.5t-51.5 27t-47 13.5q-39 0 -56 -41l-19 4q15 112 82 112q25 0 51 -13.5t51 -27t47 -13.5q39 0 56 41l19 -4q-15 -112 -82 -112z" />
    <glyph glyph-name="Imacron" unicode="&#x12a;" horiz-adv-x="314" 
d="M30 0v16l79 59v540l-79 59v16h254v-16l-79 -59v-540l79 -59v-16h-254zM-9 769v66h332v-66h-332z" />
    <glyph glyph-name="imacron" unicode="&#x12b;" horiz-adv-x="294" 
d="M34 0v14l90 68l-16 -28v340l43 -63l-116 82v15l140 56h23v-432l-15 29l89 -67v-14h-238zM25 584v66h258v-66h-258z" />
    <glyph glyph-name="Ibreve" unicode="&#x12c;" horiz-adv-x="314" 
d="M30 0v16l79 59v540l-79 59v16h254v-16l-79 -59v-540l79 -59v-16h-254zM157 748q-64 0 -106 40t-44 102l15 4q15 -34 51.5 -53.5t83.5 -19.5t83.5 19.5t51.5 53.5l15 -4q-2 -62 -44 -102t-106 -40z" />
    <glyph glyph-name="ibreve" unicode="&#x12d;" horiz-adv-x="294" 
d="M34 0v14l90 68l-16 -28v340l43 -63l-116 82v15l140 56h23v-432l-15 29l89 -67v-14h-238zM154 558q-64 0 -96 43.5t-32 130.5l16 2q36 -104 112 -104t112 104l16 -2q0 -87 -31.5 -130.5t-96.5 -43.5z" />
    <glyph glyph-name="Iogonek" unicode="&#x12e;" horiz-adv-x="314" 
d="M30 0v16l79 59v540l-79 59v16h254v-16l-79 -59v-540l79 -59v-16h-254zM154 -251q-47 0 -77 30t-30 77q0 46 21.5 83t61.5 59v22h49v-20q-23 -18 -36.5 -48.5t-13.5 -65.5q0 -68 64 -68q21 0 42 9t35 25l14 -10q-13 -43 -48 -68t-82 -25z" />
    <glyph glyph-name="iogonek" unicode="&#x12f;" horiz-adv-x="294" 
d="M141 -251q-48 0 -76 27.5t-28 73.5q0 48 23.5 87t66.5 61v28h44v-26q-25 -16 -38.5 -46t-13.5 -70q0 -66 61 -66q21 0 42 9t35 25l14 -10q-13 -43 -48 -68t-82 -25zM34 0v14l90 68l-16 -28v340l43 -63l-116 82v15l140 56h23v-432l-15 29l89 -67v-14h-238zM154 558
q-31 0 -50 18.5t-19 47.5t19 47.5t50 18.5t50 -18.5t19 -47.5t-19 -47.5t-50 -18.5z" />
    <glyph glyph-name="Idotaccent" unicode="&#x130;" horiz-adv-x="314" 
d="M30 0v16l79 59v540l-79 59v16h254v-16l-79 -59v-540l79 -59v-16h-254zM156 748q-31 0 -50 18.5t-19 47.5t19 47.5t50 18.5t50 -18.5t19 -47.5t-19 -47.5t-50 -18.5z" />
    <glyph glyph-name="dotlessi" unicode="&#x131;" horiz-adv-x="294" 
d="M34 0v14l90 68l-16 -28v340l43 -63l-116 82v15l140 56h23v-432l-15 29l89 -67v-14h-238z" />
    <glyph glyph-name="IJ" unicode="&#x132;" horiz-adv-x="896" 
d="M30 0v16l79 59v540l-79 59v16h254v-16l-79 -59v-540l79 -59v-16h-254zM545 -16q-39 0 -80 12t-78 33.5t-64 49.5l68 118h16l75 -156h-81v102q38 -59 72.5 -82t83.5 -23q62 0 98 42t36 113v422l-79 59v16h254v-16l-79 -59v-418q0 -98 -65 -155.5t-177 -57.5z" />
    <glyph glyph-name="ij" unicode="&#x133;" horiz-adv-x="587" 
d="M34 0v14l90 68l-16 -28v340l43 -63l-116 82v15l140 56h23v-432l-15 29l89 -67v-14h-238zM154 558q-31 0 -50 18.5t-19 47.5t19 47.5t50 18.5t50 -18.5t19 -47.5t-19 -47.5t-50 -18.5zM306 -235l-44 111l8 16l130 -24l-20 -24v550l43 -63l-116 82v15l140 56h23v-484
q0 -79 -36.5 -135t-116.5 -100h-11zM426 558q-31 0 -50 18.5t-19 47.5t19 47.5t50 18.5t50 -18.5t19 -47.5t-19 -47.5t-50 -18.5z" />
    <glyph glyph-name="Jcircumflex" unicode="&#x134;" horiz-adv-x="597" 
d="M246 -16q-39 0 -80 12t-78 33.5t-64 49.5l68 118h16l75 -156h-81v102q38 -59 72.5 -82t83.5 -23q62 0 98 42t36 113v422l-79 59v16h254v-16l-79 -59v-418q0 -98 -65 -155.5t-177 -57.5zM290 740l-12 12l140 161h48l140 -161l-12 -12l-158 89h12z" />
    <glyph glyph-name="jcircumflex" unicode="&#x135;" horiz-adv-x="293" 
d="M34 -235l-44 111l8 16l130 -24l-20 -24v550l43 -63l-116 82v15l140 56h23v-484q0 -79 -36.5 -135t-116.5 -100h-11zM33 551l-17 10l120 204h36l120 -204l-17 -10l-127 110h12z" />
    <glyph glyph-name="uni0136" unicode="&#x136;" horiz-adv-x="704" 
d="M167 241v51l343 385l-22 -88l-81 85v16h265v-16l-138 -80l67 50zM30 0v16l79 59v540l-79 59v16h254v-16l-79 -59v-540l79 -59v-16h-254zM455 0v16l82 75l18 -75l-255 366l68 63l301 -432l-87 99l120 -96v-16h-247zM277 -292l-5 27q33 5 52.5 23t19.5 45l-62 41v5
q0 29 20.5 49.5t49.5 20.5q35 0 55.5 -21.5t20.5 -59.5q0 -37 -18.5 -65t-52 -45t-80.5 -20z" />
    <glyph glyph-name="uni0137" unicode="&#x137;" horiz-adv-x="625" 
d="M34 0v14l90 68l-16 -28v621l43 -63l-116 82v15l140 56h23v-713l-15 29l89 -67v-14h-238zM470 0l-219 300l75 50l219 -300h-58v58l116 -94v-14h-133zM179 200v47l245 198l6 -40h-9l-66 61v14h240v-14zM258 -292l-5 27q33 5 52.5 23t19.5 45l-62 41v5q0 29 20.5 49.5
t49.5 20.5q35 0 55.5 -21.5t20.5 -59.5q0 -37 -18.5 -65t-52 -45t-80.5 -20z" />
    <glyph glyph-name="kgreenlandic" unicode="&#x138;" horiz-adv-x="625" 
d="M470 0l-219 300l75 50l219 -300h-58v58l116 -94v-14h-133zM34 0v14l90 68l-16 -28v372l16 -28l-90 68v14h164v-428l-15 29l89 -67v-14h-238zM179 200v47l245 198l6 -40h-9l-66 61v14h240v-14z" />
    <glyph glyph-name="Lacute" unicode="&#x139;" horiz-adv-x="598" 
d="M30 0v16l79 59v540l-79 59v16h264v-16l-89 -59v-615h-175zM187 0v43l351 16v-59h-351zM413 0v41l124 143h16l-5 -184h-135zM93 739l-13 14l157 177h2l69 -83v-2z" />
    <glyph glyph-name="lacute" unicode="&#x13a;" horiz-adv-x="294" 
d="M34 0v14l90 68l-16 -28v621l43 -63l-116 82v15l140 56h23v-713l-15 29l89 -67v-14h-238zM88 784l-13 14l157 177h2l69 -83v-2z" />
    <glyph glyph-name="uni013B" unicode="&#x13b;" horiz-adv-x="598" 
d="M30 0v16l79 59v540l-79 59v16h264v-16l-89 -59v-615h-175zM187 0v43l351 16v-59h-351zM413 0v41l124 143h16l-5 -184h-135zM224 -292l-5 27q33 5 52.5 23t19.5 45l-62 41v5q0 29 20.5 49.5t49.5 20.5q35 0 55.5 -21.5t20.5 -59.5q0 -37 -18.5 -65t-52 -45t-80.5 -20z" />
    <glyph glyph-name="uni013C" unicode="&#x13c;" horiz-adv-x="294" 
d="M34 0v14l90 68l-16 -28v621l43 -63l-116 82v15l140 56h23v-713l-15 29l89 -67v-14h-238zM72 -292l-5 27q33 5 52.5 23t19.5 45l-62 41v5q0 29 20.5 49.5t49.5 20.5q35 0 55.5 -21.5t20.5 -59.5q0 -37 -18.5 -65t-52 -45t-80.5 -20z" />
    <glyph glyph-name="Lcaron" unicode="&#x13d;" horiz-adv-x="598" 
d="M30 0v16l79 59v540l-79 59v16h264v-16l-89 -59v-615h-175zM187 0v43l351 16v-59h-351zM413 0v41l124 143h16l-5 -184h-135zM366 484l-19 4l19 205l2 2l100 -26l1 -2z" />
    <glyph glyph-name="lcaron" unicode="&#x13e;" horiz-adv-x="294" 
d="M34 0v14l90 68l-16 -28v621l43 -63l-116 82v15l140 56h23v-713l-15 29l89 -67v-14h-238zM260 555l-19 4l19 205l2 2l100 -26l1 -2z" />
    <glyph glyph-name="Ldot" unicode="&#x13f;" horiz-adv-x="598" 
d="M455 273q-34 0 -55 20.5t-21 51.5q0 32 21 52t55 20t55 -20t21 -52q0 -31 -21 -51.5t-55 -20.5zM30 0v16l79 59v540l-79 59v16h264v-16l-89 -59v-615h-175zM187 0v43l351 16v-59h-351zM413 0v41l124 143h16l-5 -184h-135z" />
    <glyph glyph-name="ldot" unicode="&#x140;" horiz-adv-x="314" 
d="M34 0v14l90 68l-16 -28v621l43 -63l-116 82v15l140 56h23v-713l-15 29l89 -67v-14h-238zM310 284q-34 0 -55 20.5t-21 51.5q0 32 21 52t55 20t55 -20t21 -52q0 -31 -21 -51.5t-55 -20.5z" />
    <glyph glyph-name="Lslash" unicode="&#x141;" horiz-adv-x="598" 
d="M30 0v16l79 59v540l-79 59v16h264v-16l-89 -59v-615h-175zM187 0v43l351 16v-59h-351zM413 0v41l124 143h16l-5 -184h-135zM30 242v56l349 151v-56z" />
    <glyph glyph-name="lslash" unicode="&#x142;" horiz-adv-x="294" 
d="M34 0v14l90 68l-16 -28v621l43 -63l-116 82v15l140 56h23v-713l-15 29l89 -67v-14h-238zM34 296v51l238 115v-51z" />
    <glyph glyph-name="Nacute" unicode="&#x143;" horiz-adv-x="734" 
d="M593 -6l-459 591v105h32l437 -561h-22l-38 486l-79 59v16h240v-16l-79 -59v-621h-32zM30 0v16l79 59l12 522l-69 77v16h106l33 -615l79 -59v-16h-240zM300 739l-13 14l157 177h2l69 -83v-2z" />
    <glyph glyph-name="nacute" unicode="&#x144;" horiz-adv-x="638" 
d="M379 0v14l90 68l-16 -28v233q0 71 -25 101t-84 30q-46 0 -84.5 -19.5t-76.5 -63.5v66h15q92 91 181 91q83 0 123.5 -45t40.5 -136v-259l-16 29l89 -67v-14h-237zM34 0v14l90 68l-16 -30v342l43 -63l-116 82v15l140 56h23l-5 -83h5v-349l-15 29l89 -67v-14h-238zM299 550
l-17 10l90 205h2l90 -59v-2z" />
    <glyph glyph-name="uni0145" unicode="&#x145;" horiz-adv-x="734" 
d="M593 -6l-459 591v105h32l437 -561h-22l-38 486l-79 59v16h240v-16l-79 -59v-621h-32zM30 0v16l79 59l12 522l-69 77v16h106l33 -615l79 -59v-16h-240zM291 -292l-5 27q33 5 52.5 23t19.5 45l-62 41v5q0 29 20.5 49.5t49.5 20.5q35 0 55.5 -21.5t20.5 -59.5
q0 -37 -18.5 -65t-52 -45t-80.5 -20z" />
    <glyph glyph-name="uni0146" unicode="&#x146;" horiz-adv-x="638" 
d="M379 0v14l90 68l-16 -28v233q0 71 -25 101t-84 30q-46 0 -84.5 -19.5t-76.5 -63.5v66h15q92 91 181 91q83 0 123.5 -45t40.5 -136v-259l-16 29l89 -67v-14h-237zM34 0v14l90 68l-16 -30v342l43 -63l-116 82v15l140 56h23l-5 -83h5v-349l-15 29l89 -67v-14h-238zM244 -292
l-5 27q33 5 52.5 23t19.5 45l-62 41v5q0 29 20.5 49.5t49.5 20.5q35 0 55.5 -21.5t20.5 -59.5q0 -37 -18.5 -65t-52 -45t-80.5 -20z" />
    <glyph glyph-name="Ncaron" unicode="&#x147;" horiz-adv-x="734" 
d="M593 -6l-459 591v105h32l437 -561h-22l-38 486l-79 59v16h240v-16l-79 -59v-621h-32zM30 0v16l79 59l12 522l-69 77v16h106l33 -615l79 -59v-16h-240zM219 921l158 -89h-12l158 89l12 -12l-140 -161h-48l-140 161z" />
    <glyph glyph-name="ncaron" unicode="&#x148;" horiz-adv-x="638" 
d="M379 0v14l90 68l-16 -28v233q0 71 -25 101t-84 30q-46 0 -84.5 -19.5t-76.5 -63.5v66h15q92 91 181 91q83 0 123.5 -45t40.5 -136v-259l-16 29l89 -67v-14h-237zM34 0v14l90 68l-16 -30v342l43 -63l-116 82v15l140 56h23l-5 -83h5v-349l-15 29l89 -67v-14h-238zM208 772
l127 -110h-12l127 110l17 -10l-120 -204h-36l-120 204z" />
    <glyph glyph-name="napostrophe" unicode="&#x149;" horiz-adv-x="638" 
d="M379 0v14l90 68l-16 -28v233q0 71 -25 101t-84 30q-46 0 -84.5 -19.5t-76.5 -63.5v66h15q92 91 181 91q83 0 123.5 -45t40.5 -136v-259l-16 29l89 -67v-14h-237zM34 0v14l90 68l-16 -30v342l43 -63l-116 82v15l140 56h23l-5 -83h5v-349l-15 29l89 -67v-14h-238zM63 554
l-5 27q33 5 52.5 23t19.5 45l-62 41v5q0 29 20.5 49.5t49.5 20.5q35 0 55.5 -21.5t20.5 -59.5q0 -37 -18.5 -65t-52 -45t-80.5 -20z" />
    <glyph glyph-name="Eng" unicode="&#x14a;" horiz-adv-x="734" 
d="M413 -251q-51 0 -102.5 23t-89.5 62l68 118h16l75 -156h-81v82q34 -42 61.5 -58.5t64.5 -16.5q52 0 82.5 42t30.5 113v164h87v-160q0 -62 -27 -110.5t-75 -75.5t-110 -27zM593 -6l-459 591v105h32l437 -561h-22l-38 486l-79 59v16h240v-16l-79 -59v-621h-32zM30 0v16
l79 59l12 522l-69 77v16h106l33 -615l79 -59v-16h-240z" />
    <glyph glyph-name="eng" unicode="&#x14b;" horiz-adv-x="638" 
d="M379 -235l-44 111l8 16l130 -24l-20 -24v443q0 71 -25 101t-84 30q-46 0 -84.5 -19.5t-76.5 -63.5v66h15q92 91 181 91q83 0 123.5 -45t40.5 -136v-311q0 -79 -36.5 -135t-116.5 -100h-11zM34 0v14l90 68l-16 -30v342l43 -63l-116 82v15l140 56h23l-5 -83h5v-349l-15 29
l89 -67v-14h-238z" />
    <glyph glyph-name="Omacron" unicode="&#x14c;" horiz-adv-x="773" 
d="M380 -16q-98 0 -174 44.5t-118.5 124.5t-42.5 185q0 108 44.5 191t123 130t180.5 47q99 0 174.5 -44.5t118 -124t42.5 -185.5q0 -108 -44.5 -191t-123 -130t-180.5 -47zM398 41q69 0 119.5 35.5t78 100.5t27.5 154q0 98 -30.5 169t-86 110t-131.5 39q-69 0 -119.5 -35.5
t-78 -100.5t-27.5 -154q0 -97 30.5 -168.5t86 -110.5t131.5 -39zM221 769v66h332v-66h-332z" />
    <glyph glyph-name="omacron" unicode="&#x14d;" horiz-adv-x="592" 
d="M291 -12q-72 0 -128 31.5t-87.5 87.5t-31.5 128q0 76 33 133.5t91 90.5t133 33q73 0 128.5 -31.5t87 -87t31.5 -128.5q0 -75 -33 -133t-90.5 -91t-133.5 -33zM301 42q45 0 79 24t53.5 67t19.5 99q0 61 -20.5 107t-57 72.5t-84.5 26.5q-45 0 -79 -24t-53.5 -67t-19.5 -99
q0 -60 20.5 -106.5t57 -73t84.5 -26.5zM142 584v66h308v-66h-308z" />
    <glyph glyph-name="Obreve" unicode="&#x14e;" horiz-adv-x="773" 
d="M380 -16q-98 0 -174 44.5t-118.5 124.5t-42.5 185q0 108 44.5 191t123 130t180.5 47q99 0 174.5 -44.5t118 -124t42.5 -185.5q0 -108 -44.5 -191t-123 -130t-180.5 -47zM398 41q69 0 119.5 35.5t78 100.5t27.5 154q0 98 -30.5 169t-86 110t-131.5 39q-69 0 -119.5 -35.5
t-78 -100.5t-27.5 -154q0 -97 30.5 -168.5t86 -110.5t131.5 -39zM387 748q-64 0 -106 40t-44 102l15 4q15 -34 51.5 -53.5t83.5 -19.5t83.5 19.5t51.5 53.5l15 -4q-2 -62 -44 -102t-106 -40z" />
    <glyph glyph-name="obreve" unicode="&#x14f;" horiz-adv-x="592" 
d="M291 -12q-72 0 -128 31.5t-87.5 87.5t-31.5 128q0 76 33 133.5t91 90.5t133 33q73 0 128.5 -31.5t87 -87t31.5 -128.5q0 -75 -33 -133t-90.5 -91t-133.5 -33zM301 42q45 0 79 24t53.5 67t19.5 99q0 61 -20.5 107t-57 72.5t-84.5 26.5q-45 0 -79 -24t-53.5 -67t-19.5 -99
q0 -60 20.5 -106.5t57 -73t84.5 -26.5zM296 558q-68 0 -108 47t-40 127l16 2q17 -50 51.5 -77t80.5 -27q47 0 81 27t51 77l16 -2q0 -80 -40 -127t-108 -47z" />
    <glyph glyph-name="Ohungarumlaut" unicode="&#x150;" horiz-adv-x="773" 
d="M380 -16q-98 0 -174 44.5t-118.5 124.5t-42.5 185q0 108 44.5 191t123 130t180.5 47q99 0 174.5 -44.5t118 -124t42.5 -185.5q0 -108 -44.5 -191t-123 -130t-180.5 -47zM398 41q69 0 119.5 35.5t78 100.5t27.5 154q0 98 -30.5 169t-86 110t-131.5 39q-69 0 -119.5 -35.5
t-78 -100.5t-27.5 -154q0 -97 30.5 -168.5t86 -110.5t131.5 -39zM346 742l-18 8l39 185h2l89 -42v-2zM453 741l-18 8l57 177h2l84 -41v-2z" />
    <glyph glyph-name="ohungarumlaut" unicode="&#x151;" horiz-adv-x="592" 
d="M291 -12q-72 0 -128 31.5t-87.5 87.5t-31.5 128q0 76 33 133.5t91 90.5t133 33q73 0 128.5 -31.5t87 -87t31.5 -128.5q0 -75 -33 -133t-90.5 -91t-133.5 -33zM301 42q45 0 79 24t53.5 67t19.5 99q0 61 -20.5 107t-57 72.5t-84.5 26.5q-45 0 -79 -24t-53.5 -67t-19.5 -99
q0 -60 20.5 -106.5t57 -73t84.5 -26.5zM245 552l-19 5v208l2 2l95 -25v-2zM354 552l-19 5l25 208l2 2l96 -25v-2z" />
    <glyph glyph-name="OE" unicode="&#x152;" horiz-adv-x="986" 
d="M393 0q-102 0 -180.5 42.5t-123 117.5t-44.5 173q0 79 27 144.5t76 113t116.5 73.5t148.5 26h145v-50h-145q-84 0 -143 -32.5t-89.5 -95.5t-30.5 -153q0 -95 31 -164.5t88 -107t134 -37.5h155v-50h-165zM574 0v43l321 16v-59h-321zM496 0v690h96v-690h-96zM800 0v41
l125 126h16l-6 -167h-135zM810 324l-245 10v43l245 11v-64zM826 261l-80 76v38l80 76h16v-190h-16zM895 631l-321 16v43h321v-59zM913 546l-114 100v44l113 8h11l6 -152h-16z" />
    <glyph glyph-name="oe" unicode="&#x153;" horiz-adv-x="941" 
d="M291 -12q-72 0 -128 31.5t-87.5 87.5t-31.5 128q0 76 33 133.5t91 90.5t133 33q73 0 128.5 -31.5t87 -87t31.5 -128.5q0 -75 -33 -133t-90.5 -91t-133.5 -33zM301 42q45 0 79 24t53.5 67t19.5 99q0 61 -20.5 107t-57 72.5t-84.5 26.5q-45 0 -79 -24t-53.5 -67t-19.5 -99
q0 -60 20.5 -106.5t57 -73t84.5 -26.5zM690 -12q-69 0 -122 30t-83 83t-30 121q0 80 31.5 140.5t87.5 95t129 34.5q60 0 103.5 -29t67 -82.5t23.5 -126.5h-383v40l277 21q0 57 -29.5 90t-79.5 33q-39 0 -69.5 -24t-47.5 -66.5t-17 -97.5q0 -94 45 -145.5t128 -51.5
q88 0 144 53l22 -24q-32 -45 -83.5 -69.5t-113.5 -24.5z" />
    <glyph glyph-name="Racute" unicode="&#x154;" horiz-adv-x="649" 
d="M30 0v16l79 59v540l-79 59v16h175v-615l79 -59v-16h-254zM491 0l-224 329l107 6l219 -322l-84 94l128 -91v-16h-146zM170 300v50h127q71 0 113 39.5t42 106.5q0 66 -42 105t-113 39h-155v50h165q115 0 182 -49.5t67 -134.5q0 -89 -63 -141.5t-171 -52.5h-6v-12h-146z
M241 739l-13 14l157 177h2l69 -83v-2z" />
    <glyph glyph-name="racute" unicode="&#x155;" horiz-adv-x="435" 
d="M34 0v14l90 68l-16 -28v340l43 -63l-116 82v15l140 56h23l-5 -102h5v-330l-15 26l119 -64v-14h-268zM192 318l-9 64h15q28 51 72 80.5t91 29.5q34 0 65 -10l-53 -139h-16l-85 89l81 -26q-51 0 -94.5 -23.5t-66.5 -64.5zM188 550l-17 10l90 205h2l90 -59v-2z" />
    <glyph glyph-name="uni0156" unicode="&#x156;" horiz-adv-x="649" 
d="M30 0v16l79 59v540l-79 59v16h175v-615l79 -59v-16h-254zM491 0l-224 329l107 6l219 -322l-84 94l128 -91v-16h-146zM170 300v50h127q71 0 113 39.5t42 106.5q0 66 -42 105t-113 39h-155v50h165q115 0 182 -49.5t67 -134.5q0 -89 -63 -141.5t-171 -52.5h-6v-12h-146z
M250 -292l-5 27q33 5 52.5 23t19.5 45l-62 41v5q0 29 20.5 49.5t49.5 20.5q35 0 55.5 -21.5t20.5 -59.5q0 -37 -18.5 -65t-52 -45t-80.5 -20z" />
    <glyph glyph-name="uni0157" unicode="&#x157;" horiz-adv-x="435" 
d="M34 0v14l90 68l-16 -28v340l43 -63l-116 82v15l140 56h23l-5 -102h5v-330l-15 26l119 -64v-14h-268zM192 318l-9 64h15q28 51 72 80.5t91 29.5q34 0 65 -10l-53 -139h-16l-85 89l81 -26q-51 0 -94.5 -23.5t-66.5 -64.5zM97 -292l-5 27q33 5 52.5 23t19.5 45l-62 41v5
q0 29 20.5 49.5t49.5 20.5q35 0 55.5 -21.5t20.5 -59.5q0 -37 -18.5 -65t-52 -45t-80.5 -20z" />
    <glyph glyph-name="Rcaron" unicode="&#x158;" horiz-adv-x="649" 
d="M30 0v16l79 59v540l-79 59v16h175v-615l79 -59v-16h-254zM491 0l-224 329l107 6l219 -322l-84 94l128 -91v-16h-146zM170 300v50h127q71 0 113 39.5t42 106.5q0 66 -42 105t-113 39h-155v50h165q115 0 182 -49.5t67 -134.5q0 -89 -63 -141.5t-171 -52.5h-6v-12h-146z
M160 921l158 -89h-12l158 89l12 -12l-140 -161h-48l-140 161z" />
    <glyph glyph-name="rcaron" unicode="&#x159;" horiz-adv-x="435" 
d="M34 0v14l90 68l-16 -28v340l43 -63l-116 82v15l140 56h23l-5 -102h5v-330l-15 26l119 -64v-14h-268zM192 318l-9 64h15q28 51 72 80.5t91 29.5q34 0 65 -10l-53 -139h-16l-85 89l81 -26q-51 0 -94.5 -23.5t-66.5 -64.5zM97 772l127 -110h-12l127 110l17 -10l-120 -204
h-36l-120 204z" />
    <glyph glyph-name="Sacute" unicode="&#x15a;" horiz-adv-x="611" 
d="M305 -16q-46 0 -95 9.5t-92 26.5t-73 38l58 119h16l113 -157h-88v95q23 -37 65.5 -55.5t103.5 -18.5q75 0 118.5 38.5t43.5 103.5q0 49 -46 80t-139 52q-75 17 -126.5 44t-77.5 64t-26 84q0 92 70.5 145.5t190.5 53.5q43 0 87.5 -9t84.5 -24.5t67 -36.5l-70 -114h-16
l-102 150h96l-7 -95q-24 38 -59.5 55t-88.5 17q-71 0 -116.5 -34t-45.5 -87q0 -49 46 -80t139 -52q76 -17 127 -44t77 -63.5t26 -84.5q0 -67 -32 -116.5t-90.5 -76.5t-138.5 -27zM240 739l-13 14l157 177h2l69 -83v-2z" />
    <glyph glyph-name="sacute" unicode="&#x15b;" horiz-adv-x="501" 
d="M245 -12q-37 0 -75.5 7.5t-73 20.5t-61.5 32l51 101h16l89 -128h-67l-6 73q26 -30 57.5 -43.5t73.5 -13.5q54 0 88 24t34 61q0 30 -22.5 47t-57.5 27.5t-74.5 20t-74.5 25t-57.5 41.5t-22.5 70q0 64 54 101.5t145 37.5q34 0 67.5 -6t65 -17t57.5 -27l-51 -101h-16
l-98 128h76l6 -73q-19 22 -49 34.5t-62 12.5q-50 0 -79.5 -19t-29.5 -51q0 -30 22.5 -46.5t57.5 -26.5t74.5 -19.5t74.5 -25t57.5 -42t22.5 -71.5q0 -74 -55 -114t-157 -40zM221 550l-17 10l90 205h2l90 -59v-2z" />
    <glyph glyph-name="Scircumflex" unicode="&#x15c;" horiz-adv-x="611" 
d="M305 -16q-46 0 -95 9.5t-92 26.5t-73 38l58 119h16l113 -157h-88v95q23 -37 65.5 -55.5t103.5 -18.5q75 0 118.5 38.5t43.5 103.5q0 49 -46 80t-139 52q-75 17 -126.5 44t-77.5 64t-26 84q0 92 70.5 145.5t190.5 53.5q43 0 87.5 -9t84.5 -24.5t67 -36.5l-70 -114h-16
l-102 150h96l-7 -95q-24 38 -59.5 55t-88.5 17q-71 0 -116.5 -34t-45.5 -87q0 -49 46 -80t139 -52q76 -17 127 -44t77 -63.5t26 -84.5q0 -67 -32 -116.5t-90.5 -76.5t-138.5 -27zM154 740l-12 12l140 161h48l140 -161l-12 -12l-158 89h12z" />
    <glyph glyph-name="scircumflex" unicode="&#x15d;" horiz-adv-x="501" 
d="M245 -12q-37 0 -75.5 7.5t-73 20.5t-61.5 32l51 101h16l89 -128h-67l-6 73q26 -30 57.5 -43.5t73.5 -13.5q54 0 88 24t34 61q0 30 -22.5 47t-57.5 27.5t-74.5 20t-74.5 25t-57.5 41.5t-22.5 70q0 64 54 101.5t145 37.5q34 0 67.5 -6t65 -17t57.5 -27l-51 -101h-16
l-98 128h76l6 -73q-19 22 -49 34.5t-62 12.5q-50 0 -79.5 -19t-29.5 -51q0 -30 22.5 -46.5t57.5 -26.5t74.5 -19.5t74.5 -25t57.5 -42t22.5 -71.5q0 -74 -55 -114t-157 -40zM130 551l-17 10l120 204h36l120 -204l-17 -10l-127 110h12z" />
    <glyph glyph-name="Scedilla" unicode="&#x15e;" horiz-adv-x="611" 
d="M305 -16q-46 0 -95 9.5t-92 26.5t-73 38l58 119h16l113 -157h-88v95q23 -37 65.5 -55.5t103.5 -18.5q75 0 118.5 38.5t43.5 103.5q0 49 -46 80t-139 52q-75 17 -126.5 44t-77.5 64t-26 84q0 92 70.5 145.5t190.5 53.5q43 0 87.5 -9t84.5 -24.5t67 -36.5l-70 -114h-16
l-102 150h96l-7 -95q-24 38 -59.5 55t-88.5 17q-71 0 -116.5 -34t-45.5 -87q0 -49 46 -80t139 -52q76 -17 127 -44t77 -63.5t26 -84.5q0 -67 -32 -116.5t-90.5 -76.5t-138.5 -27zM195 -244l13 32q52 -7 88 6.5t36 41.5q0 21 -22 36.5t-60 19.5l50 123h38l-25 -61
q49 -7 77.5 -33.5t28.5 -64.5q0 -41 -28.5 -67.5t-79 -35t-116.5 2.5z" />
    <glyph glyph-name="scedilla" unicode="&#x15f;" horiz-adv-x="501" 
d="M245 -12q-37 0 -75.5 7.5t-73 20.5t-61.5 32l51 101h16l89 -128h-67l-6 73q26 -30 57.5 -43.5t73.5 -13.5q54 0 88 24t34 61q0 30 -22.5 47t-57.5 27.5t-74.5 20t-74.5 25t-57.5 41.5t-22.5 70q0 64 54 101.5t145 37.5q34 0 67.5 -6t65 -17t57.5 -27l-51 -101h-16
l-98 128h76l6 -73q-19 22 -49 34.5t-62 12.5q-50 0 -79.5 -19t-29.5 -51q0 -30 22.5 -46.5t57.5 -26.5t74.5 -19.5t74.5 -25t57.5 -42t22.5 -71.5q0 -74 -55 -114t-157 -40zM140 -244l13 32q52 -7 88 6.5t36 41.5q0 21 -22 36.5t-60 19.5l50 123h38l-25 -61
q49 -7 77.5 -33.5t28.5 -64.5q0 -41 -28.5 -67.5t-79 -35t-116.5 2.5z" />
    <glyph glyph-name="Scaron" unicode="&#x160;" horiz-adv-x="611" 
d="M305 -16q-46 0 -95 9.5t-92 26.5t-73 38l58 119h16l113 -157h-88v95q23 -37 65.5 -55.5t103.5 -18.5q75 0 118.5 38.5t43.5 103.5q0 49 -46 80t-139 52q-75 17 -126.5 44t-77.5 64t-26 84q0 92 70.5 145.5t190.5 53.5q43 0 87.5 -9t84.5 -24.5t67 -36.5l-70 -114h-16
l-102 150h96l-7 -95q-24 38 -59.5 55t-88.5 17q-71 0 -116.5 -34t-45.5 -87q0 -49 46 -80t139 -52q76 -17 127 -44t77 -63.5t26 -84.5q0 -67 -32 -116.5t-90.5 -76.5t-138.5 -27zM159 921l158 -89h-12l158 89l12 -12l-140 -161h-48l-140 161z" />
    <glyph glyph-name="scaron" unicode="&#x161;" horiz-adv-x="501" 
d="M245 -12q-37 0 -75.5 7.5t-73 20.5t-61.5 32l51 101h16l89 -128h-67l-6 73q26 -30 57.5 -43.5t73.5 -13.5q54 0 88 24t34 61q0 30 -22.5 47t-57.5 27.5t-74.5 20t-74.5 25t-57.5 41.5t-22.5 70q0 64 54 101.5t145 37.5q34 0 67.5 -6t65 -17t57.5 -27l-51 -101h-16
l-98 128h76l6 -73q-19 22 -49 34.5t-62 12.5q-50 0 -79.5 -19t-29.5 -51q0 -30 22.5 -46.5t57.5 -26.5t74.5 -19.5t74.5 -25t57.5 -42t22.5 -71.5q0 -74 -55 -114t-157 -40zM130 772l127 -110h-12l127 110l17 -10l-120 -204h-36l-120 204z" />
    <glyph glyph-name="uni0162" unicode="&#x162;" horiz-adv-x="686" 
d="M206 0v16l89 59v610l40 -37l-259 -19v61h534v-61l-259 19l40 37v-610l89 -59v-16h-274zM45 533l3 165h11l120 -8v-44l-118 -113h-16zM625 533l-118 113v44l120 8h11l3 -165h-16zM232 -244l13 32q52 -7 88 6.5t36 41.5q0 21 -22 36.5t-60 19.5l50 123h38l-25 -61
q49 -7 77.5 -33.5t28.5 -64.5q0 -41 -28.5 -67.5t-79 -35t-116.5 2.5z" />
    <glyph glyph-name="uni0163" unicode="&#x163;" horiz-adv-x="450" 
d="M270 -12q-53 0 -92 22t-60 61.5t-21 94.5v303l43 -55h-126v15l150 175h23v-412q0 -67 25 -101t76 -34q72 0 122 58l26 -19q-25 -49 -69.5 -78.5t-96.5 -29.5zM387 405l-213 23v47l210 17h12v-81zM149 -244l13 32q52 -7 88 6.5t36 41.5q0 21 -22 36.5t-60 19.5l50 123h38
l-25 -61q49 -7 77.5 -33.5t28.5 -64.5q0 -41 -28.5 -67.5t-79 -35t-116.5 2.5z" />
    <glyph glyph-name="Tcaron" unicode="&#x164;" horiz-adv-x="686" 
d="M206 0v16l89 59v610l40 -37l-259 -19v61h534v-61l-259 19l40 37v-610l89 -59v-16h-274zM45 533l3 165h11l120 -8v-44l-118 -113h-16zM625 533l-118 113v44l120 8h11l3 -165h-16zM196 921l158 -89h-12l158 89l12 -12l-140 -161h-48l-140 161z" />
    <glyph glyph-name="tcaron" unicode="&#x165;" horiz-adv-x="450" 
d="M270 -12q-53 0 -92 22t-60 61.5t-21 94.5v303l43 -55h-126v15l150 175h23v-412q0 -67 25 -101t76 -34q72 0 122 58l26 -19q-25 -49 -69.5 -78.5t-96.5 -29.5zM387 405l-213 23v47l210 17h12v-81zM282 559l-19 4l19 205l2 2l100 -26l1 -2z" />
    <glyph glyph-name="Tbar" unicode="&#x166;" horiz-adv-x="686" 
d="M206 0v16l89 59v610l40 -37l-259 -19v61h534v-61l-259 19l40 37v-610l89 -59v-16h-274zM45 533l3 165h11l120 -8v-44l-118 -113h-16zM625 533l-118 113v44l120 8h11l3 -165h-16zM175 329v55h336v-55h-336z" />
    <glyph glyph-name="tbar" unicode="&#x167;" horiz-adv-x="450" 
d="M270 -12q-53 0 -92 22t-60 61.5t-21 94.5v303l43 -55h-126v15l150 175h23v-412q0 -67 25 -101t76 -34q72 0 122 58l26 -19q-25 -49 -69.5 -78.5t-96.5 -29.5zM387 405l-213 23v47l210 17h12v-81zM14 230v46h308v-46h-308z" />
    <glyph glyph-name="Utilde" unicode="&#x168;" horiz-adv-x="699" 
d="M545 611l-89 63v16h241v-16l-79 -63v-322q0 -98 -30 -166t-88 -103.5t-141 -35.5q-139 0 -208.5 69.5t-69.5 208.5v353l-79 59v16h254v-16l-79 -59v-326q0 -127 44 -185t140 -58t140 58t44 185v322zM433 752q-34 0 -60.5 9t-51 18t-52.5 9q-51 0 -74 -34l-21 6
q13 50 41 76.5t66 26.5q35 0 61 -9t50.5 -18t52.5 -9q51 0 74 34l21 -6q-13 -49 -41 -76t-66 -27z" />
    <glyph glyph-name="utilde" unicode="&#x169;" horiz-adv-x="591" 
d="M242 -12q-77 0 -115.5 44.5t-38.5 133.5v235l43 -63l-109 80v15l133 51h23v-291q0 -71 22.5 -101t76.5 -30q44 0 80.5 19.5t72.5 61.5v-66h-17q-49 -50 -86 -69.5t-85 -19.5zM447 -12l-25 89h-9v324l43 -63l-114 80v15l138 51h23v-403l-41 57l107 -75v-15l-105 -60h-17z
M376 557q-34 0 -60.5 12.5t-51 25t-52.5 12.5q-27 0 -45 -12t-29 -36l-21 6q14 54 42 83.5t65 29.5q35 0 61 -12.5t50.5 -25t52.5 -12.5q27 0 45.5 12t28.5 36l21 -6q-14 -54 -42 -83.5t-65 -29.5z" />
    <glyph glyph-name="Umacron" unicode="&#x16a;" horiz-adv-x="699" 
d="M545 611l-89 63v16h241v-16l-79 -63v-322q0 -98 -30 -166t-88 -103.5t-141 -35.5q-139 0 -208.5 69.5t-69.5 208.5v353l-79 59v16h254v-16l-79 -59v-326q0 -127 44 -185t140 -58t140 58t44 185v322zM192 769v66h332v-66h-332z" />
    <glyph glyph-name="umacron" unicode="&#x16b;" horiz-adv-x="591" 
d="M242 -12q-77 0 -115.5 44.5t-38.5 133.5v235l43 -63l-109 80v15l133 51h23v-291q0 -71 22.5 -101t76.5 -30q44 0 80.5 19.5t72.5 61.5v-66h-17q-49 -50 -86 -69.5t-85 -19.5zM447 -12l-25 89h-9v324l43 -63l-114 80v15l138 51h23v-403l-41 57l107 -75v-15l-105 -60h-17z
M142 584v66h308v-66h-308z" />
    <glyph glyph-name="Ubreve" unicode="&#x16c;" horiz-adv-x="699" 
d="M545 611l-89 63v16h241v-16l-79 -63v-322q0 -98 -30 -166t-88 -103.5t-141 -35.5q-139 0 -208.5 69.5t-69.5 208.5v353l-79 59v16h254v-16l-79 -59v-326q0 -127 44 -185t140 -58t140 58t44 185v322zM358 748q-64 0 -106 40t-44 102l15 4q15 -34 51.5 -53.5t83.5 -19.5
t83.5 19.5t51.5 53.5l15 -4q-2 -62 -44 -102t-106 -40z" />
    <glyph glyph-name="ubreve" unicode="&#x16d;" horiz-adv-x="591" 
d="M242 -12q-77 0 -115.5 44.5t-38.5 133.5v235l43 -63l-109 80v15l133 51h23v-291q0 -71 22.5 -101t76.5 -30q44 0 80.5 19.5t72.5 61.5v-66h-17q-49 -50 -86 -69.5t-85 -19.5zM447 -12l-25 89h-9v324l43 -63l-114 80v15l138 51h23v-403l-41 57l107 -75v-15l-105 -60h-17z
M296 558q-68 0 -108 47t-40 127l16 2q17 -50 51.5 -77t80.5 -27q47 0 81 27t51 77l16 -2q0 -80 -40 -127t-108 -47z" />
    <glyph glyph-name="Uring" unicode="&#x16e;" horiz-adv-x="699" 
d="M545 611l-89 63v16h241v-16l-79 -63v-322q0 -98 -30 -166t-88 -103.5t-141 -35.5q-139 0 -208.5 69.5t-69.5 208.5v353l-79 59v16h254v-16l-79 -59v-326q0 -127 44 -185t140 -58t140 58t44 185v322zM358 729q-48 0 -78.5 29t-30.5 74t30.5 74t78.5 29t78.5 -29t30.5 -74
t-30.5 -74t-78.5 -29zM358 770q27 0 44.5 17.5t17.5 44.5t-17.5 44.5t-44.5 17.5t-44.5 -17.5t-17.5 -44.5t17.5 -44.5t44.5 -17.5z" />
    <glyph glyph-name="uring" unicode="&#x16f;" horiz-adv-x="591" 
d="M242 -12q-77 0 -115.5 44.5t-38.5 133.5v235l43 -63l-109 80v15l133 51h23v-291q0 -71 22.5 -101t76.5 -30q44 0 80.5 19.5t72.5 61.5v-66h-17q-49 -50 -86 -69.5t-85 -19.5zM447 -12l-25 89h-9v324l43 -63l-114 80v15l138 51h23v-403l-41 57l107 -75v-15l-105 -60h-17z
M296 553q-52 0 -85.5 31.5t-33.5 80.5q0 50 33.5 81t85.5 31q53 0 86 -31t33 -81q0 -49 -33 -80.5t-86 -31.5zM296 594q32 0 51.5 20t19.5 51q0 32 -19.5 51.5t-51.5 19.5q-31 0 -51 -19.5t-20 -51.5q0 -31 20 -51t51 -20z" />
    <glyph glyph-name="Uhungarumlaut" unicode="&#x170;" horiz-adv-x="699" 
d="M545 611l-89 63v16h241v-16l-79 -63v-322q0 -98 -30 -166t-88 -103.5t-141 -35.5q-139 0 -208.5 69.5t-69.5 208.5v353l-79 59v16h254v-16l-79 -59v-326q0 -127 44 -185t140 -58t140 58t44 185v322zM317 742l-18 8l39 185h2l89 -42v-2zM424 741l-18 8l57 177h2l84 -41v-2
z" />
    <glyph glyph-name="uhungarumlaut" unicode="&#x171;" horiz-adv-x="591" 
d="M242 -12q-77 0 -115.5 44.5t-38.5 133.5v235l43 -63l-109 80v15l133 51h23v-291q0 -71 22.5 -101t76.5 -30q44 0 80.5 19.5t72.5 61.5v-66h-17q-49 -50 -86 -69.5t-85 -19.5zM447 -12l-25 89h-9v324l43 -63l-114 80v15l138 51h23v-403l-41 57l107 -75v-15l-105 -60h-17z
M245 552l-19 5v208l2 2l95 -25v-2zM354 552l-19 5l25 208l2 2l96 -25v-2z" />
    <glyph glyph-name="Uogonek" unicode="&#x172;" horiz-adv-x="699" 
d="M359 -16q-139 0 -208.5 69.5t-69.5 208.5v353l-79 59v16h254v-16l-79 -59v-326q0 -127 44 -185t140 -58t140 58t44 185v322l-89 63v16h241v-16l-79 -63v-322q0 -98 -30 -166t-88 -103.5t-141 -35.5zM433 -251q-47 0 -77 29t-30 75q0 41 20 77.5t51 54.5v35h78v-14
q-31 -12 -49 -42.5t-18 -70.5q0 -75 64 -75q21 0 42 9t35 25l14 -10q-13 -43 -48 -68t-82 -25z" />
    <glyph glyph-name="uogonek" unicode="&#x173;" horiz-adv-x="591" 
d="M242 -12q-77 0 -115.5 44.5t-38.5 133.5v235l43 -63l-109 80v15l133 51h23v-291q0 -71 22.5 -101t76.5 -30q44 0 80.5 19.5t72.5 61.5v-66h-17q-49 -50 -86 -69.5t-85 -19.5zM447 -12l-25 89h-9v324l43 -63l-114 80v15l138 51h23v-403l-41 57l107 -75v-15l-105 -60h-17z
M439 -251q-48 0 -76 27.5t-28 73.5q0 56 36 102t93 62v-26q-23 -17 -35 -43t-12 -61q0 -66 61 -66q21 0 42 9t35 25l14 -10q-13 -43 -48 -68t-82 -25z" />
    <glyph glyph-name="Wcircumflex" unicode="&#x174;" horiz-adv-x="1073" 
d="M735 -12l-222 566v48l-119 72v16h287v-16l-129 -78l13 78l232 -592h-39l178 595l20 -83l-129 80v16h244v-16l-85 -81l45 84l-269 -689h-27zM306 -12l-268 684l40 -76l-76 78v16h245v-16l-129 -83l18 83l232 -592h-39l178 595h95l-269 -689h-27zM385 740l-12 12l140 161
h48l140 -161l-12 -12l-158 89h12z" />
    <glyph glyph-name="wcircumflex" unicode="&#x175;" horiz-adv-x="854" 
d="M264 -12l-224 464h33v-58l-71 72v14h222v-14l-73 -64h-10v41l172 -356h-28l122 393h30l21 -90l-176 -402h-18zM571 -12l-157 378l14 114h33l163 -392h-27l130 364l1 -49h-11l-72 63v14h207v-14l-71 -71v57h33l-225 -464h-18zM316 551l-17 10l120 204h36l120 -204l-17 -10
l-127 110h12z" />
    <glyph glyph-name="Ycircumflex" unicode="&#x176;" horiz-adv-x="676" 
d="M317 208l-286 469l56 -78l-85 75v16h253v-16l-138 -94l20 97l231 -377h-6l180 377l20 -92l-128 89v16h240v-16l-81 -72l54 75l-296 -469h-34zM212 0v16l79 59v210h96v-210l79 -59v-16h-254zM191 740l-12 12l140 161h48l140 -161l-12 -12l-158 89h12z" />
    <glyph glyph-name="ycircumflex" unicode="&#x177;" horiz-adv-x="556" 
d="M258 -56l-223 508h33v-59l-66 73v14h213v-14l-71 -58h-10v35l176 -402h-34l159 411v-44h-11l-73 58v14h203v-14l-66 -70v56h33l-352 -703h-16l-81 81v13l187 157zM166 551l-17 10l120 204h36l120 -204l-17 -10l-127 110h12z" />
    <glyph glyph-name="Ydieresis" unicode="&#x178;" horiz-adv-x="676" 
d="M317 208l-286 469l56 -78l-85 75v16h253v-16l-138 -94l20 97l231 -377h-6l180 377l20 -92l-128 89v16h240v-16l-81 -72l54 75l-296 -469h-34zM212 0v16l79 59v210h96v-210l79 -59v-16h-254zM241 748q-27 0 -44.5 16.5t-17.5 41.5q0 26 17.5 42t44.5 16t44.5 -16t17.5 -42
q0 -25 -17.5 -41.5t-44.5 -16.5zM444 748q-27 0 -44.5 16.5t-17.5 41.5q0 26 17.5 42t44.5 16q28 0 45.5 -16t17.5 -42q0 -25 -17.5 -41.5t-45.5 -16.5z" />
    <glyph glyph-name="Zacute" unicode="&#x179;" horiz-adv-x="630" 
d="M45 0v16l430 669l21 -36l-351 -16v57h427v-16l-429 -668l-21 36l358 17v-59h-435zM443 0v47l126 133h16l-10 -180h-132zM74 527l-18 171h16l140 -8l-12 -30l-110 -133h-16zM249 739l-13 14l157 177h2l69 -83v-2z" />
    <glyph glyph-name="zacute" unicode="&#x17a;" horiz-adv-x="510" 
d="M61 0v17l305 463h87v-17l-306 -463h-86zM129 0v40l288 24l-84 -28l102 116h16v-152h-322zM108 339l-51 141h346v-36l-281 -24l78 24l-76 -105h-16zM225 550l-17 10l90 205h2l90 -59v-2z" />
    <glyph glyph-name="Zdotaccent" unicode="&#x17b;" horiz-adv-x="630" 
d="M45 0v16l430 669l21 -36l-351 -16v57h427v-16l-429 -668l-21 36l358 17v-59h-435zM443 0v47l126 133h16l-10 -180h-132zM74 527l-18 171h16l140 -8l-12 -30l-110 -133h-16zM314 748q-31 0 -50 18.5t-19 47.5t19 47.5t50 18.5t50 -18.5t19 -47.5t-19 -47.5t-50 -18.5z" />
    <glyph glyph-name="zdotaccent" unicode="&#x17c;" horiz-adv-x="510" 
d="M61 0v17l305 463h87v-17l-306 -463h-86zM129 0v40l288 24l-84 -28l102 116h16v-152h-322zM108 339l-51 141h346v-36l-281 -24l78 24l-76 -105h-16zM255 558q-31 0 -50 18.5t-19 47.5t19 47.5t50 18.5t50 -18.5t19 -47.5t-19 -47.5t-50 -18.5z" />
    <glyph glyph-name="Zcaron" unicode="&#x17d;" horiz-adv-x="630" 
d="M45 0v16l430 669l21 -36l-351 -16v57h427v-16l-429 -668l-21 36l358 17v-59h-435zM443 0v47l126 133h16l-10 -180h-132zM74 527l-18 171h16l140 -8l-12 -30l-110 -133h-16zM168 921l158 -89h-12l158 89l12 -12l-140 -161h-48l-140 161z" />
    <glyph glyph-name="zcaron" unicode="&#x17e;" horiz-adv-x="510" 
d="M61 0v17l305 463h87v-17l-306 -463h-86zM129 0v40l288 24l-84 -28l102 116h16v-152h-322zM108 339l-51 141h346v-36l-281 -24l78 24l-76 -105h-16zM134 772l127 -110h-12l127 110l17 -10l-120 -204h-36l-120 204z" />
    <glyph glyph-name="uni018F" unicode="&#x18f;" horiz-adv-x="704" 
d="M328 -16q-87 0 -150.5 41.5t-98 118.5t-34.5 181h528v-43l-419 -13q0 -64 24 -115.5t65.5 -82t92.5 -30.5q65 0 114 37.5t77 104t28 153.5q0 96 -29 166.5t-82.5 108.5t-127.5 38q-51 0 -98.5 -15.5t-85.5 -44.5l24 83h90l-105 -148h-16l-68 112q28 21 71 36.5t93 24.5
t99 9q104 0 180 -42.5t117.5 -121t41.5 -185.5q0 -78 -25.5 -146t-70.5 -119t-105.5 -79.5t-129.5 -28.5z" />
    <glyph glyph-name="florin" unicode="&#x192;" horiz-adv-x="564" 
d="M80 -166q-25 0 -46.5 5t-43.5 15l50 113h14l67 -108h-28v23q29 0 54.5 44t44.5 126l87 376q29 124 85 191t131 67q26 0 50 -5t44 -15l-50 -113h-14l-67 108h80l-3 -60q-19 37 -59 37q-28 0 -54.5 -46t-44.5 -124l-87 -376q-18 -79 -50 -137t-72.5 -89.5t-87.5 -31.5z
M167 290l10 44h298l-10 -44h-298z" />
    <glyph glyph-name="uni019D" unicode="&#x19d;" horiz-adv-x="734" 
d="M593 -6l-459 591v105h32l437 -561h-22l-38 486l-79 59v16h240v-16l-79 -59v-621h-32zM54 -251q-62 0 -91 35t-29 111h78q0 -50 10 -73t32 -23q29 0 41 44t14 157l12 597l-69 77v16h108l26 -690q4 -90 -8.5 -145.5t-42.5 -80.5t-81 -25z" />
    <glyph glyph-name="Ohorn" unicode="&#x1a0;" horiz-adv-x="773" 
d="M380 -16q-98 0 -174 44.5t-118.5 124.5t-42.5 185q0 108 44.5 191t123 130t180.5 47q99 0 174.5 -44.5t118 -124t42.5 -185.5q0 -108 -44.5 -191t-123 -130t-180.5 -47zM398 41q69 0 119.5 35.5t78 100.5t27.5 154q0 98 -30.5 169t-86 110t-131.5 39q-69 0 -119.5 -35.5
t-78 -100.5t-27.5 -154q0 -97 30.5 -168.5t86 -110.5t131.5 -39zM573 820l94 24q16 -56 5.5 -97t-45 -63.5t-90.5 -22.5h-106v29h61q59 0 78.5 31.5t2.5 98.5z" />
    <glyph glyph-name="ohorn" unicode="&#x1a1;" horiz-adv-x="592" 
d="M291 -12q-72 0 -128 31.5t-87.5 87.5t-31.5 128q0 76 33 133.5t91 90.5t133 33q73 0 128.5 -31.5t87 -87t31.5 -128.5q0 -75 -33 -133t-90.5 -91t-133.5 -33zM301 42q45 0 79 24t53.5 67t19.5 99q0 61 -20.5 107t-57 72.5t-84.5 26.5q-45 0 -79 -24t-53.5 -67t-19.5 -99
q0 -60 20.5 -106.5t57 -73t84.5 -26.5zM522 570l88 38q56 -147 -121 -215l-52 -20v38l48 20q26 11 38.5 29t12 45.5t-13.5 64.5z" />
    <glyph glyph-name="Uhorn" unicode="&#x1af;" horiz-adv-x="699" 
d="M359 -16q-139 0 -208.5 69.5t-69.5 208.5v353l-79 59v16h254v-16l-79 -59v-326q0 -127 44 -185t140 -58t140 58t44 185v322l-89 63v16h162v-401q0 -98 -30 -166t-88 -103.5t-141 -35.5zM643 820l94 24q16 -56 5.5 -97t-45 -63.5t-90.5 -22.5h-106v29h61q59 0 78.5 31.5
t2.5 98.5z" />
    <glyph glyph-name="uhorn" unicode="&#x1b0;" horiz-adv-x="591" 
d="M242 -12q-77 0 -115.5 44.5t-38.5 133.5v235l43 -63l-109 80v15l133 51h23v-291q0 -71 22.5 -101t76.5 -30q44 0 80.5 19.5t72.5 61.5v-66h-17q-49 -50 -86 -69.5t-85 -19.5zM447 -12l-25 89h-9v324l43 -63l-114 80v15l138 51h23v-403l-41 57l107 -75v-15l-105 -60h-17z
M541 570l88 38q56 -147 -121 -215l-52 -20v38l48 20q26 11 38.5 29t12 45.5t-13.5 64.5z" />
    <glyph glyph-name="uni01CD" unicode="&#x1cd;" horiz-adv-x="709" 
d="M2 0v16l86 77l-46 -80l284 677h58l284 -677l-47 81l86 -78v-16h-261v16l130 80l-8 -83l-262 626h42l-219 -626l-13 84l130 -81v-16h-244zM172 214v50h346v-50h-346zM307 609l-69 65v16h105zM197 921l158 -89h-12l158 89l12 -12l-140 -161h-48l-140 161z" />
    <glyph glyph-name="uni01CE" unicode="&#x1ce;" horiz-adv-x="557" 
d="M412 -12l-23 79h-10v230q0 70 -30.5 104.5t-92.5 34.5q-32 0 -61.5 -12.5t-48.5 -34.5l6 80h79l-101 -133h-16l-51 106q27 16 58.5 27t66 17t69.5 6q107 0 159.5 -42t52.5 -128v-241l-41 57l107 -75v-15l-106 -60h-17zM197 -12q-65 0 -106.5 36t-41.5 93q0 135 207 168
l160 25v-40l-116 -28q-89 -22 -124 -46t-35 -67q0 -33 23 -52t63 -19q102 0 167 71v-62h-15q-40 -41 -83.5 -60t-98.5 -19zM156 772l127 -110h-12l127 110l17 -10l-120 -204h-36l-120 204z" />
    <glyph glyph-name="Gcaron" unicode="&#x1e6;" horiz-adv-x="756" 
d="M394 -16q-107 0 -185.5 42.5t-121 121t-42.5 185.5q0 78 27 146t75 119t111.5 79.5t137.5 28.5q48 0 97 -8.5t91.5 -23.5t69.5 -35l-71 -113h-16l-112 149h95l5 -87q-31 32 -71 46.5t-96 14.5q-70 0 -123.5 -37.5t-84 -104t-30.5 -153.5q0 -91 31.5 -161.5t87.5 -110
t129 -39.5q92 0 141 37.5t49 106.5l35 -20q-14 -91 -71 -137t-158 -46zM647 -16l-86 75v193l-89 64v16h254v-16l-69 -59v-273h-10zM247 921l158 -89h-12l158 89l12 -12l-140 -161h-48l-140 161z" />
    <glyph glyph-name="gcaron" unicode="&#x1e7;" horiz-adv-x="568" 
d="M271 -251q-69 0 -122.5 18.5t-83.5 51t-30 74.5q0 34 23 62t59 38v28h64v-33q-53 -29 -53 -89q0 -48 45.5 -76t123.5 -28q76 0 120 28.5t44 77.5q0 40 -26.5 63.5t-71.5 23.5h-197q-49 0 -78 26t-29 71q0 30 12 52.5t33.5 35.5t49.5 13l29 -29q-25 0 -39 -11.5t-14 -32.5
q0 -22 16 -31.5t51 -9.5h179q75 0 122.5 -40.5t47.5 -104.5q0 -52 -35 -92.5t-97 -63t-143 -22.5zM265 139q-59 0 -104.5 22t-71 60.5t-25.5 88.5q0 54 28 95t77 64t113 23q25 0 48 -4t43 -12v-8q60 -34 85 -68t25 -79q0 -53 -28 -94.5t-77 -64.5t-113 -23zM277 188
q52 0 82.5 31t30.5 84q0 65 -32 102.5t-88 37.5q-52 0 -82.5 -31t-30.5 -84q0 -64 32.5 -102t87.5 -38zM531 435l-144 28l-7 -14l-65 32l226 56l5 -5v-97h-15zM149 772l127 -110h-12l127 110l17 -10l-120 -204h-36l-120 204z" />
    <glyph glyph-name="uni01EA" unicode="&#x1ea;" horiz-adv-x="773" 
d="M380 -16q-98 0 -174 44.5t-118.5 124.5t-42.5 185q0 108 44.5 191t123 130t180.5 47q99 0 174.5 -44.5t118 -124t42.5 -185.5q0 -108 -44.5 -191t-123 -130t-180.5 -47zM463 -251q-47 0 -77 29t-30 75q0 41 20 77.5t51 54.5v35h78v-15q-29 -10 -48 -41.5t-19 -70.5
q0 -37 16 -56t48 -19q21 0 42 9t35 25l14 -10q-13 -43 -48 -68t-82 -25zM398 41q69 0 119.5 35.5t78 100.5t27.5 154q0 98 -30.5 169t-86 110t-131.5 39q-69 0 -119.5 -35.5t-78 -100.5t-27.5 -154q0 -97 30.5 -168.5t86 -110.5t131.5 -39z" />
    <glyph glyph-name="uni01EB" unicode="&#x1eb;" horiz-adv-x="592" 
d="M291 -12q-72 0 -128 31.5t-87.5 87.5t-31.5 128q0 76 33 133.5t91 90.5t133 33q73 0 128.5 -31.5t87 -87t31.5 -128.5q0 -75 -33 -133t-90.5 -91t-133.5 -33zM337 -251q-48 0 -76 27.5t-28 73.5q0 35 22.5 72t61.5 65v44h78v-24q-38 -19 -59 -51t-21 -72q0 -66 61 -66
q21 0 42 9t35 25l14 -10q-13 -43 -48 -68t-82 -25zM301 42q45 0 79 24t53.5 67t19.5 99q0 61 -20.5 107t-57 72.5t-84.5 26.5q-45 0 -79 -24t-53.5 -67t-19.5 -99q0 -60 20.5 -106.5t57 -73t84.5 -26.5z" />
    <glyph glyph-name="AEacute" unicode="&#x1fc;" horiz-adv-x="923" 
d="M2 0v16l72 74l-48 -77l364 677h75l134 -690h-204v16l130 80l-23 -83l-122 626h28l-291 -626l-13 89l127 -85v-17h-229zM192 217v50h314v-50h-314zM550 0v41l282 18v-59h-282zM737 0v41l125 126h16l-6 -167h-135zM750 326l-261 10v43l261 11v-64zM371 609l-92 65v16h128z
M766 263l-80 76v38l80 76h16v-190h-16zM817 631l-410 14v45h410v-59zM835 546l-114 100v44l113 8h11l6 -152h-16zM376 739l-13 14l157 177h2l69 -83v-2z" />
    <glyph glyph-name="aeacute" unicode="&#x1fd;" horiz-adv-x="865" 
d="M379 265v32q0 70 -30.5 104.5t-92.5 34.5q-32 0 -61.5 -12.5t-48.5 -34.5l6 80h79l-101 -133h-16l-51 106q27 16 58.5 27t66 17t69.5 6q65 0 112.5 -21t73.5 -59t26 -90v-57h-90zM197 -12q-65 0 -106.5 36t-41.5 93q0 61 53.5 100t153.5 51l160 19v-45l-116 -17
q-86 -13 -122.5 -34.5t-36.5 -61.5q0 -33 23 -52t63 -19q56 0 110 24t91 64l3 -64h-15q-44 -45 -101 -69.5t-118 -24.5zM614 -12q-69 0 -122 30t-83 83t-30 121q0 60 18 109.5t51 85.5t78.5 55.5t100.5 19.5q60 0 103.5 -26.5t67 -75.5t23.5 -116l-383 -30v43l277 37
q0 53 -29.5 83.5t-79.5 30.5q-39 0 -69.5 -24t-47.5 -66.5t-17 -97.5q0 -94 45 -145.5t128 -51.5q88 0 144 53l22 -24q-32 -45 -83.5 -69.5t-113.5 -24.5zM415 550l-17 10l90 205h2l90 -59v-2z" />
    <glyph glyph-name="Oslashacute" unicode="&#x1fe;" horiz-adv-x="773" 
d="M380 -16q-98 0 -174 44.5t-118.5 124.5t-42.5 185q0 108 44.5 191t123 130t180.5 47q99 0 174.5 -44.5t118 -124t42.5 -185.5q0 -108 -44.5 -191t-123 -130t-180.5 -47zM398 41q69 0 119.5 35.5t78 100.5t27.5 154q0 98 -30.5 169t-86 110t-131.5 39q-69 0 -119.5 -35.5
t-78 -100.5t-27.5 -154q0 -97 30.5 -168.5t86 -110.5t131.5 -39zM105 -14l523 746l41 -29l-523 -746zM321 739l-13 14l157 177h2l69 -83v-2z" />
    <glyph glyph-name="oslashacute" unicode="&#x1ff;" horiz-adv-x="592" 
d="M291 -12q-72 0 -128 31.5t-87.5 87.5t-31.5 128q0 76 33 133.5t91 90.5t133 33q73 0 128.5 -31.5t87 -87t31.5 -128.5q0 -75 -33 -133t-90.5 -91t-133.5 -33zM301 42q45 0 79 24t53.5 67t19.5 99q0 61 -20.5 107t-57 72.5t-84.5 26.5q-45 0 -79 -24t-53.5 -67t-19.5 -99
q0 -60 20.5 -106.5t57 -73t84.5 -26.5zM126 -39l-33 23l373 534l33 -23zM266 550l-17 10l90 205h2l90 -59v-2z" />
    <glyph glyph-name="uni0218" unicode="&#x218;" horiz-adv-x="611" 
d="M305 -16q-46 0 -95 9.5t-92 26.5t-73 38l58 119h16l113 -157h-88v95q23 -37 65.5 -55.5t103.5 -18.5q75 0 118.5 38.5t43.5 103.5q0 49 -46 80t-139 52q-75 17 -126.5 44t-77.5 64t-26 84q0 92 70.5 145.5t190.5 53.5q43 0 87.5 -9t84.5 -24.5t67 -36.5l-70 -114h-16
l-102 150h96l-7 -95q-24 38 -59.5 55t-88.5 17q-71 0 -116.5 -34t-45.5 -87q0 -49 46 -80t139 -52q76 -17 127 -44t77 -63.5t26 -84.5q0 -67 -32 -116.5t-90.5 -76.5t-138.5 -27zM231 -292l-5 27q33 5 52.5 23t19.5 45l-62 41v5q0 29 20.5 49.5t49.5 20.5q35 0 55.5 -21.5
t20.5 -59.5q0 -37 -18.5 -65t-52 -45t-80.5 -20z" />
    <glyph glyph-name="uni0219" unicode="&#x219;" horiz-adv-x="501" 
d="M245 -12q-37 0 -75.5 7.5t-73 20.5t-61.5 32l51 101h16l89 -128h-67l-6 73q26 -30 57.5 -43.5t73.5 -13.5q54 0 88 24t34 61q0 30 -22.5 47t-57.5 27.5t-74.5 20t-74.5 25t-57.5 41.5t-22.5 70q0 64 54 101.5t145 37.5q34 0 67.5 -6t65 -17t57.5 -27l-51 -101h-16
l-98 128h76l6 -73q-19 22 -49 34.5t-62 12.5q-50 0 -79.5 -19t-29.5 -51q0 -30 22.5 -46.5t57.5 -26.5t74.5 -19.5t74.5 -25t57.5 -42t22.5 -71.5q0 -74 -55 -114t-157 -40zM176 -292l-5 27q33 5 52.5 23t19.5 45l-62 41v5q0 29 20.5 49.5t49.5 20.5q35 0 55.5 -21.5
t20.5 -59.5q0 -37 -18.5 -65t-52 -45t-80.5 -20z" />
    <glyph glyph-name="uni021A" unicode="&#x21a;" horiz-adv-x="686" 
d="M206 0v16l89 59v610l40 -37l-259 -19v61h534v-61l-259 19l40 37v-610l89 -59v-16h-274zM45 533l3 165h11l120 -8v-44l-118 -113h-16zM625 533l-118 113v44l120 8h11l3 -165h-16zM268 -292l-5 27q33 5 52.5 23t19.5 45l-62 41v5q0 29 20.5 49.5t49.5 20.5q35 0 55.5 -21.5
t20.5 -59.5q0 -37 -18.5 -65t-52 -45t-80.5 -20z" />
    <glyph glyph-name="uni021B" unicode="&#x21b;" horiz-adv-x="450" 
d="M270 -12q-53 0 -92 22t-60 61.5t-21 94.5v303l43 -55h-126v15l150 175h23v-412q0 -67 25 -101t76 -34q72 0 122 58l26 -19q-25 -49 -69.5 -78.5t-96.5 -29.5zM387 405l-213 23v47l210 17h12v-81zM185 -292l-5 27q33 5 52.5 23t19.5 45l-62 41v5q0 29 20.5 49.5t49.5 20.5
q35 0 55.5 -21.5t20.5 -59.5q0 -37 -18.5 -65t-52 -45t-80.5 -20z" />
    <glyph glyph-name="uni0232" unicode="&#x232;" horiz-adv-x="676" 
d="M317 208l-286 469l56 -78l-85 75v16h253v-16l-138 -94l20 97l231 -377h-6l180 377l20 -92l-128 89v16h240v-16l-81 -72l54 75l-296 -469h-34zM212 0v16l79 59v210h96v-210l79 -59v-16h-254zM177 769v66h332v-66h-332z" />
    <glyph glyph-name="uni0233" unicode="&#x233;" horiz-adv-x="556" 
d="M258 -56l-223 508h33v-59l-66 73v14h213v-14l-71 -58h-10v35l176 -402h-34l159 411v-44h-11l-73 58v14h203v-14l-66 -70v56h33l-352 -703h-16l-81 81v13l187 157zM133 584v66h308v-66h-308z" />
    <glyph glyph-name="uni0237" unicode="&#x237;" horiz-adv-x="293" 
d="M34 -235l-44 111l8 16l130 -24l-20 -24v550l43 -63l-116 82v15l140 56h23v-484q0 -79 -36.5 -135t-116.5 -100h-11z" />
    <glyph glyph-name="uni0259" unicode="&#x259;" horiz-adv-x="531" 
d="M251 492q70 0 123 -30t83 -82.5t30 -121.5q0 -79 -32 -140t-88 -95.5t-129 -34.5q-59 0 -103 29t-67.5 82.5t-23.5 126.5h383v-40l-277 -21q0 -57 29.5 -90t79.5 -33q40 0 70 24t47 66.5t17 97.5q0 95 -45 146t-128 51q-88 0 -144 -53l-22 24q32 45 83.5 69.5t113.5 24.5
z" />
    <glyph glyph-name="uni0272" unicode="&#x272;" horiz-adv-x="638" 
d="M56 -251q-63 0 -94 36.5t-31 109.5h78q0 -52 11 -74t36 -22q29 0 40.5 30.5t11.5 108.5v456l43 -63l-116 82v15l140 56h23l-5 -83h5v-459q0 -100 -34 -146.5t-108 -46.5zM379 0v14l90 68l-16 -28v233q0 71 -25 101t-84 30q-46 0 -84.5 -19.5t-76.5 -63.5v66h15
q92 91 181 91q83 0 123.5 -45t40.5 -136v-259l-16 29l89 -67v-14h-237z" />
    <glyph glyph-name="uni02BB" unicode="&#x2bb;" horiz-adv-x="34" 
d="M91 769l5 -27q-33 -4 -52.5 -22.5t-19.5 -45.5l62 -41v-5q0 -29 -20.5 -49.5t-49.5 -20.5q-35 0 -55.5 22t-20.5 59t18.5 65t52.5 45t80 20z" />
    <glyph glyph-name="circumflex" unicode="&#x2c6;" horiz-adv-x="364" 
d="M61 551l-17 10l120 204h36l120 -204l-17 -10l-127 110h12z" />
    <glyph glyph-name="caron" unicode="&#x2c7;" horiz-adv-x="364" 
d="M61 772l127 -110h-12l127 110l17 -10l-120 -204h-36l-120 204z" />
    <glyph glyph-name="breve" unicode="&#x2d8;" horiz-adv-x="384" 
d="M192 558q-68 0 -108 47t-40 127l16 2q17 -50 51.5 -77t80.5 -27q47 0 81 27t51 77l16 -2q0 -80 -40 -127t-108 -47z" />
    <glyph glyph-name="dotaccent" unicode="&#x2d9;" horiz-adv-x="220" 
d="M110 558q-31 0 -50 18.5t-19 47.5t19 47.5t50 18.5t50 -18.5t19 -47.5t-19 -47.5t-50 -18.5z" />
    <glyph glyph-name="ring" unicode="&#x2da;" horiz-adv-x="326" 
d="M163 553q-52 0 -85.5 31.5t-33.5 80.5q0 50 33.5 81t85.5 31q53 0 86 -31t33 -81q0 -49 -33 -80.5t-86 -31.5zM163 594q32 0 51.5 20t19.5 51q0 32 -19.5 51.5t-51.5 19.5q-31 0 -51 -19.5t-20 -51.5q0 -31 20 -51t51 -20z" />
    <glyph glyph-name="ogonek" unicode="&#x2db;" horiz-adv-x="322" 
d="M148 -251q-48 0 -76 27.5t-28 73.5q0 56 36 102t93 62v-26q-23 -17 -35 -43t-12 -61q0 -66 61 -66q21 0 42 9t35 25l14 -10q-13 -43 -48 -68t-82 -25z" />
    <glyph glyph-name="tilde" unicode="&#x2dc;" horiz-adv-x="454" 
d="M303 557q-34 0 -60.5 12.5t-51 25t-52.5 12.5q-27 0 -45 -12t-29 -36l-21 6q14 54 42 83.5t65 29.5q35 0 61 -12.5t50.5 -25t52.5 -12.5q27 0 45.5 12t28.5 36l21 -6q-14 -54 -42 -83.5t-65 -29.5z" />
    <glyph glyph-name="hungarumlaut" unicode="&#x2dd;" horiz-adv-x="320" 
d="M63 552l-19 5v208l2 2l95 -25v-2zM172 552l-19 5l25 208l2 2l96 -25v-2z" />
    <glyph glyph-name="gravecomb" unicode="&#x300;" 
d="M209 550l-165 154v2l90 59h2l90 -205z" />
    <glyph glyph-name="acutecomb" unicode="&#x301;" 
d="M61 550l-17 10l90 205h2l90 -59v-2z" />
    <glyph glyph-name="uni0302" unicode="&#x302;" 
d="M61 551l-17 10l120 204h36l120 -204l-17 -10l-127 110h12z" />
    <glyph glyph-name="tildecomb" unicode="&#x303;" 
d="M303 557q-34 0 -60.5 12.5t-51 25t-52.5 12.5q-27 0 -45 -12t-29 -36l-21 6q14 54 42 83.5t65 29.5q35 0 61 -12.5t50.5 -25t52.5 -12.5q27 0 45.5 12t28.5 36l21 -6q-14 -54 -42 -83.5t-65 -29.5z" />
    <glyph glyph-name="uni0304" unicode="&#x304;" 
d="M44 584v66h308v-66h-308z" />
    <glyph glyph-name="uni0306" unicode="&#x306;" 
d="M192 558q-68 0 -108 47t-40 127l16 2q17 -50 51.5 -77t80.5 -27q47 0 81 27t51 77l16 -2q0 -80 -40 -127t-108 -47z" />
    <glyph glyph-name="uni0307" unicode="&#x307;" 
d="M110 558q-31 0 -50 18.5t-19 47.5t19 47.5t50 18.5t50 -18.5t19 -47.5t-19 -47.5t-50 -18.5z" />
    <glyph glyph-name="uni0308" unicode="&#x308;" 
d="M106 564q-27 0 -44.5 16.5t-17.5 42.5t17.5 42.5t44.5 16.5t44.5 -16.5t17.5 -42.5t-17.5 -42.5t-44.5 -16.5zM307 564q-27 0 -44.5 16.5t-17.5 42.5t17.5 42.5t44.5 16.5q28 0 45.5 -16.5t17.5 -42.5t-17.5 -42.5t-45.5 -16.5z" />
    <glyph glyph-name="hookabovecomb" unicode="&#x309;" 
d="M89 558l-6 19q31 4 48.5 17t17.5 31q0 23 -24 37t-62 14l-19 74q73 0 119 -28t46 -72q0 -39 -35 -65.5t-85 -26.5z" />
    <glyph glyph-name="uni030A" unicode="&#x30a;" 
d="M163 553q-52 0 -85.5 31.5t-33.5 80.5q0 50 33.5 81t85.5 31q53 0 86 -31t33 -81q0 -49 -33 -80.5t-86 -31.5zM163 594q32 0 51.5 20t19.5 51q0 32 -19.5 51.5t-51.5 19.5q-31 0 -51 -19.5t-20 -51.5q0 -31 20 -51t51 -20z" />
    <glyph glyph-name="uni030B" unicode="&#x30b;" 
d="M63 552l-19 5v208l2 2l95 -25v-2zM172 552l-19 5l25 208l2 2l96 -25v-2z" />
    <glyph glyph-name="uni030C" unicode="&#x30c;" 
d="M61 772l127 -110h-12l127 110l17 -10l-120 -204h-36l-120 204z" />
    <glyph glyph-name="uni0312" unicode="&#x312;" 
d="M195 769l5 -27q-33 -4 -52.5 -22.5t-19.5 -45.5l62 -41v-5q0 -29 -20.5 -49.5t-49.5 -20.5q-35 0 -55.5 22t-20.5 59t18.5 65t52.5 45t80 20z" />
    <glyph glyph-name="uni0313" unicode="&#x313;" 
d="M49 554l-5 27q33 5 52.5 23t19.5 45l-62 41v5q0 29 20.5 49.5t49.5 20.5q35 0 55.5 -21.5t20.5 -59.5q0 -37 -18.5 -65t-52 -45t-80.5 -20z" />
    <glyph glyph-name="uni031B" unicode="&#x31b;" 
d="M129 580l88 38q56 -147 -121 -215l-52 -20v38l48 20q26 11 38.5 29t12 45.5t-13.5 64.5z" />
    <glyph glyph-name="dotbelowcomb" unicode="&#x323;" 
d="M113 -214q-31 0 -50 18.5t-19 47.5t19 47.5t50 18.5t50 -18.5t19 -47.5t-19 -47.5t-50 -18.5z" />
    <glyph glyph-name="uni0326" unicode="&#x326;" 
d="M49 -292l-5 27q33 5 52.5 23t19.5 45l-62 41v5q0 29 20.5 49.5t49.5 20.5q35 0 55.5 -21.5t20.5 -59.5q0 -37 -18.5 -65t-52 -45t-80.5 -20z" />
    <glyph glyph-name="uni0327" unicode="&#x327;" 
d="M44 -244l13 32q52 -7 88 6.5t36 41.5q0 21 -22 36.5t-60 19.5l50 123h38l-25 -61q49 -7 77.5 -33.5t28.5 -64.5q0 -41 -28.5 -67.5t-79 -35t-116.5 2.5z" />
    <glyph glyph-name="uni0328" unicode="&#x328;" 
d="M148 -251q-48 0 -76 27.5t-28 73.5q0 56 36 102t93 62v-26q-23 -17 -35 -43t-12 -61q0 -66 61 -66q21 0 42 9t35 25l14 -10q-13 -43 -48 -68t-82 -25z" />
    <glyph glyph-name="uni0331" unicode="&#x331;" 
d="M44 -165v66h338v-66h-338z" />
    <glyph glyph-name="uni0335" unicode="&#x335;" 
d="M44 274v46h308v-46h-308z" />
    <glyph glyph-name="uni0336" unicode="&#x336;" 
d="M44 274v53h694v-53h-694z" />
    <glyph glyph-name="uni0337" unicode="&#x337;" 
d="M44 282v51l238 115v-51z" />
    <glyph glyph-name="uni0338" unicode="&#x338;" 
d="M132 -44l-33 23l373 534l33 -23z" />
    <glyph glyph-name="uni03A9" unicode="&#x3a9;" horiz-adv-x="826" 
d="M54 0l-10 169h16l77 -85h139l22 -14q-50 0 -93 21.5t-75.5 60t-51 90t-18.5 110.5q0 74 27 138.5t75 113t112.5 75.5t138.5 27t138.5 -27t112.5 -75.5t75 -113t27 -138.5q0 -59 -18.5 -110.5t-51 -90t-75.5 -60t-93 -21.5l22 14h139l77 85h16l-10 -169h-317l-12 35v11
q105 19 161.5 98.5t56.5 207.5q0 87 -31.5 154t-87.5 105t-129 38t-129 -38t-87.5 -105t-31.5 -154q0 -128 56.5 -207.5t161.5 -98.5v-11l-12 -35h-317z" />
    <glyph glyph-name="pi" unicode="&#x3c0;" horiz-adv-x="740" 
d="M574 -16q-64 0 -98.5 43t-34.5 122v276l90 24v-290q0 -63 20.5 -89.5t68.5 -26.5q32 0 61 16l15 -18q-13 -26 -46 -41.5t-76 -15.5zM146 0l88 444l48 7l-20 -451h-116zM65 365l-21 6q15 57 49 85t88 28h496v-6l-25 -75h-483q-43 0 -69 -9.5t-35 -28.5z" />
    <glyph glyph-name="uni0E3F" unicode="&#xe3f;" horiz-adv-x="622" 
d="M200 0v50h127q67 0 106 37t39 101q0 65 -36.5 103.5t-98.5 38.5h-137v50h147q106 0 168 -44.5t62 -121.5q0 -63 -32 -111t-88 -75.5t-130 -27.5h-127zM30 0v16l79 59v520l-79 59v16h175v-670h-175zM285 -107v884h46v-884h-46zM387 357v28h46v-28h-46zM233 354v26h99
q47 0 76 32t29 81q0 59 -36.5 93t-98.5 34h-137v50h147q67 0 118.5 -19t80.5 -53t29 -79q0 -79 -54 -122t-154 -43h-99z" />
    <glyph glyph-name="Dmacronbelow" unicode="&#x1e0e;" horiz-adv-x="735" 
d="M177 0v50h145q85 0 143.5 33t89 95.5t30.5 152.5q0 95 -31 164.5t-87.5 107t-134.5 37.5h-155v50h165q102 0 180.5 -42.5t123 -117.5t44.5 -173q0 -79 -27 -144.5t-76 -113t-116.5 -73.5t-148.5 -26h-145zM30 0v16l79 59v540l-79 59v16h175v-690h-175zM135 -165v66h398
v-66h-398z" />
    <glyph glyph-name="dmacronbelow" unicode="&#x1e0f;" horiz-adv-x="593" 
d="M447 -12l-23 86h-9v601l43 -63l-116 82v15l140 56h23v-684l-41 57l107 -75v-15l-107 -60h-17zM250 -12q-63 0 -109.5 29t-71.5 82.5t-25 126.5q0 78 33.5 138t93 94t136.5 34q87 0 143 -41v-94q-22 39 -61.5 60t-91.5 21q-46 0 -82 -24.5t-56.5 -68.5t-20.5 -101
q0 -89 35.5 -137.5t101.5 -48.5q47 0 84 19.5t71 62.5v-66h-15q-30 -40 -74 -63t-91 -23zM128 -165v66h338v-66h-338z" />
    <glyph glyph-name="uni1E20" unicode="&#x1e20;" horiz-adv-x="756" 
d="M394 -16q-107 0 -185.5 42.5t-121 121t-42.5 185.5q0 78 27 146t75 119t111.5 79.5t137.5 28.5q48 0 97 -8.5t91.5 -23.5t69.5 -35l-71 -113h-16l-112 149h95l5 -87q-31 32 -71 46.5t-96 14.5q-70 0 -123.5 -37.5t-84 -104t-30.5 -153.5q0 -91 31.5 -161.5t87.5 -110
t129 -39.5q92 0 141 37.5t49 106.5l35 -20q-14 -91 -71 -137t-158 -46zM647 -16l-86 75v193l-89 64v16h254v-16l-69 -59v-273h-10zM228 769v66h332v-66h-332z" />
    <glyph glyph-name="uni1E21" unicode="&#x1e21;" horiz-adv-x="568" 
d="M271 -251q-69 0 -122.5 18.5t-83.5 51t-30 74.5q0 34 23 62t59 38v28h64v-33q-53 -29 -53 -89q0 -48 45.5 -76t123.5 -28q76 0 120 28.5t44 77.5q0 40 -26.5 63.5t-71.5 23.5h-197q-49 0 -78 26t-29 71q0 30 12 52.5t33.5 35.5t49.5 13l29 -29q-25 0 -39 -11.5t-14 -32.5
q0 -22 16 -31.5t51 -9.5h179q75 0 122.5 -40.5t47.5 -104.5q0 -52 -35 -92.5t-97 -63t-143 -22.5zM265 139q-59 0 -104.5 22t-71 60.5t-25.5 88.5q0 54 28 95t77 64t113 23q25 0 48 -4t43 -12v-8q60 -34 85 -68t25 -79q0 -53 -28 -94.5t-77 -64.5t-113 -23zM277 188
q52 0 82.5 31t30.5 84q0 65 -32 102.5t-88 37.5q-52 0 -82.5 -31t-30.5 -84q0 -64 32.5 -102t87.5 -38zM531 435l-144 28l-7 -14l-65 32l226 56l5 -5v-97h-15zM116 584v66h308v-66h-308z" />
    <glyph glyph-name="Lmacronbelow" unicode="&#x1e3a;" horiz-adv-x="598" 
d="M30 0v16l79 59v540l-79 59v16h264v-16l-89 -59v-615h-175zM187 0v43l351 16v-59h-351zM413 0v41l124 143h16l-5 -184h-135zM100 -165v66h398v-66h-398z" />
    <glyph glyph-name="lmacronbelow" unicode="&#x1e3b;" horiz-adv-x="294" 
d="M34 0v14l90 68l-16 -28v621l43 -63l-116 82v15l140 56h23v-713l-15 29l89 -67v-14h-238zM-22 -165v66h338v-66h-338z" />
    <glyph glyph-name="Nmacronbelow" unicode="&#x1e48;" horiz-adv-x="734" 
d="M593 -6l-459 591v105h32l437 -561h-22l-38 486l-79 59v16h240v-16l-79 -59v-621h-32zM30 0v16l79 59l12 522l-69 77v16h106l33 -615l79 -59v-16h-240zM167 -165v66h398v-66h-398z" />
    <glyph glyph-name="nmacronbelow" unicode="&#x1e49;" horiz-adv-x="638" 
d="M379 0v14l90 68l-16 -28v233q0 71 -25 101t-84 30q-46 0 -84.5 -19.5t-76.5 -63.5v66h15q92 91 181 91q83 0 123.5 -45t40.5 -136v-259l-16 29l89 -67v-14h-237zM34 0v14l90 68l-16 -30v342l43 -63l-116 82v15l140 56h23l-5 -83h5v-349l-15 29l89 -67v-14h-238zM150 -165
v66h338v-66h-338z" />
    <glyph glyph-name="Rmacronbelow" unicode="&#x1e5e;" horiz-adv-x="649" 
d="M30 0v16l79 59v540l-79 59v16h175v-615l79 -59v-16h-254zM491 0l-224 329l107 6l219 -322l-84 94l128 -91v-16h-146zM170 300v50h127q71 0 113 39.5t42 106.5q0 66 -42 105t-113 39h-155v50h165q115 0 182 -49.5t67 -134.5q0 -89 -63 -141.5t-171 -52.5h-6v-12h-146z
M126 -165v66h398v-66h-398z" />
    <glyph glyph-name="rmacronbelow" unicode="&#x1e5f;" horiz-adv-x="435" 
d="M34 0v14l90 68l-16 -28v340l43 -63l-116 82v15l140 56h23l-5 -102h5v-330l-15 26l119 -64v-14h-268zM192 318l-9 64h15q28 51 72 80.5t91 29.5q34 0 65 -10l-53 -139h-16l-85 89l81 -26q-51 0 -94.5 -23.5t-66.5 -64.5zM3 -165v66h338v-66h-338z" />
    <glyph glyph-name="Tmacronbelow" unicode="&#x1e6e;" horiz-adv-x="686" 
d="M206 0v16l89 59v610l40 -37l-259 -19v61h534v-61l-259 19l40 37v-610l89 -59v-16h-274zM45 533l3 165h11l120 -8v-44l-118 -113h-16zM625 533l-118 113v44l120 8h11l3 -165h-16zM144 -165v66h398v-66h-398z" />
    <glyph glyph-name="tmacronbelow" unicode="&#x1e6f;" horiz-adv-x="450" 
d="M270 -12q-53 0 -92 22t-60 61.5t-21 94.5v303l43 -55h-126v15l150 175h23v-412q0 -67 25 -101t76 -34q72 0 122 58l26 -19q-25 -49 -69.5 -78.5t-96.5 -29.5zM387 405l-213 23v47l210 17h12v-81zM91 -165v66h338v-66h-338z" />
    <glyph glyph-name="Wgrave" unicode="&#x1e80;" horiz-adv-x="1073" 
d="M735 -12l-222 566v48l-119 72v16h287v-16l-129 -78l13 78l232 -592h-39l178 595l20 -83l-129 80v16h244v-16l-85 -81l45 84l-269 -689h-27zM306 -12l-268 684l40 -76l-76 78v16h245v-16l-129 -83l18 83l232 -592h-39l178 595h95l-269 -689h-27zM603 739l-215 106v2l69 83
h2l157 -177z" />
    <glyph glyph-name="wgrave" unicode="&#x1e81;" horiz-adv-x="854" 
d="M264 -12l-224 464h33v-58l-71 72v14h222v-14l-73 -64h-10v41l172 -356h-28l122 393h30l21 -90l-176 -402h-18zM571 -12l-157 378l14 114h33l163 -392h-27l130 364l1 -49h-11l-72 63v14h207v-14l-71 -71v57h33l-225 -464h-18zM468 550l-165 154v2l90 59h2l90 -205z" />
    <glyph glyph-name="Wacute" unicode="&#x1e82;" horiz-adv-x="1073" 
d="M735 -12l-222 566v48l-119 72v16h287v-16l-129 -78l13 78l232 -592h-39l178 595l20 -83l-129 80v16h244v-16l-85 -81l45 84l-269 -689h-27zM306 -12l-268 684l40 -76l-76 78v16h245v-16l-129 -83l18 83l232 -592h-39l178 595h95l-269 -689h-27zM471 739l-13 14l157 177h2
l69 -83v-2z" />
    <glyph glyph-name="wacute" unicode="&#x1e83;" horiz-adv-x="854" 
d="M264 -12l-224 464h33v-58l-71 72v14h222v-14l-73 -64h-10v41l172 -356h-28l122 393h30l21 -90l-176 -402h-18zM571 -12l-157 378l14 114h33l163 -392h-27l130 364l1 -49h-11l-72 63v14h207v-14l-71 -71v57h33l-225 -464h-18zM407 550l-17 10l90 205h2l90 -59v-2z" />
    <glyph glyph-name="Wdieresis" unicode="&#x1e84;" horiz-adv-x="1073" 
d="M735 -12l-222 566v48l-119 72v16h287v-16l-129 -78l13 78l232 -592h-39l178 595l20 -83l-129 80v16h244v-16l-85 -81l45 84l-269 -689h-27zM306 -12l-268 684l40 -76l-76 78v16h245v-16l-129 -83l18 83l232 -592h-39l178 595h95l-269 -689h-27zM435 748q-27 0 -44.5 16.5
t-17.5 41.5q0 26 17.5 42t44.5 16t44.5 -16t17.5 -42q0 -25 -17.5 -41.5t-44.5 -16.5zM638 748q-27 0 -44.5 16.5t-17.5 41.5q0 26 17.5 42t44.5 16q28 0 45.5 -16t17.5 -42q0 -25 -17.5 -41.5t-45.5 -16.5z" />
    <glyph glyph-name="wdieresis" unicode="&#x1e85;" horiz-adv-x="854" 
d="M264 -12l-224 464h33v-58l-71 72v14h222v-14l-73 -64h-10v41l172 -356h-28l122 393h30l21 -90l-176 -402h-18zM571 -12l-157 378l14 114h33l163 -392h-27l130 364l1 -49h-11l-72 63v14h207v-14l-71 -71v57h33l-225 -464h-18zM336 564q-27 0 -44.5 16.5t-17.5 42.5
t17.5 42.5t44.5 16.5t44.5 -16.5t17.5 -42.5t-17.5 -42.5t-44.5 -16.5zM537 564q-27 0 -44.5 16.5t-17.5 42.5t17.5 42.5t44.5 16.5q28 0 45.5 -16.5t17.5 -42.5t-17.5 -42.5t-45.5 -16.5z" />
    <glyph glyph-name="uni1E9E" unicode="&#x1e9e;" horiz-adv-x="768" 
d="M469 -16q-52 0 -100.5 13.5t-92.5 41.5l58 123h16l106 -142h-110v101q19 -46 47 -67t71 -21q68 0 111.5 44.5t43.5 114.5q0 59 -28 103.5t-77.5 70t-114.5 25.5l16 38q95 0 164 -26t106.5 -74t37.5 -114q0 -64 -34 -116.5t-91.5 -83.5t-128.5 -31zM30 0v16l79 59v540
l-79 59v16h175v-690h-175zM383 391l-6 16l193 283h96v-16l-193 -283h-90zM174 640v50h459v-50h-459z" />
    <glyph glyph-name="uni1EA0" unicode="&#x1ea0;" horiz-adv-x="709" 
d="M2 0v16l86 77l-46 -80l284 677h58l284 -677l-47 81l86 -78v-16h-261v16l130 80l-8 -83l-262 626h42l-219 -626l-13 84l130 -81v-16h-244zM172 214v50h346v-50h-346zM307 609l-69 65v16h105zM355 -214q-31 0 -50 18.5t-19 47.5t19 47.5t50 18.5t50 -18.5t19 -47.5
t-19 -47.5t-50 -18.5z" />
    <glyph glyph-name="uni1EA1" unicode="&#x1ea1;" horiz-adv-x="557" 
d="M412 -12l-23 79h-10v230q0 70 -30.5 104.5t-92.5 34.5q-32 0 -61.5 -12.5t-48.5 -34.5l6 80h79l-101 -133h-16l-51 106q27 16 58.5 27t66 17t69.5 6q107 0 159.5 -42t52.5 -128v-241l-41 57l107 -75v-15l-106 -60h-17zM197 -12q-65 0 -106.5 36t-41.5 93q0 135 207 168
l160 25v-40l-116 -28q-89 -22 -124 -46t-35 -67q0 -33 23 -52t63 -19q102 0 167 71v-62h-15q-40 -41 -83.5 -60t-98.5 -19zM277 -214q-31 0 -50 18.5t-19 47.5t19 47.5t50 18.5t50 -18.5t19 -47.5t-19 -47.5t-50 -18.5z" />
    <glyph glyph-name="uni1EA2" unicode="&#x1ea2;" horiz-adv-x="709" 
d="M2 0v16l86 77l-46 -80l284 677h58l284 -677l-47 81l86 -78v-16h-261v16l130 80l-8 -83l-262 626h42l-219 -626l-13 84l130 -81v-16h-244zM172 214v50h346v-50h-346zM307 609l-69 65v16h105zM304 744l-5 19q66 9 66 48q0 19 -23 30t-62 11l-20 78q52 0 89.5 -11.5
t58 -32.5t20.5 -50q0 -39 -36 -65.5t-88 -26.5z" />
    <glyph glyph-name="uni1EA3" unicode="&#x1ea3;" horiz-adv-x="557" 
d="M412 -12l-23 79h-10v230q0 70 -30.5 104.5t-92.5 34.5q-32 0 -61.5 -12.5t-48.5 -34.5l6 80h79l-101 -133h-16l-51 106q27 16 58.5 27t66 17t69.5 6q107 0 159.5 -42t52.5 -128v-241l-41 57l107 -75v-15l-106 -60h-17zM197 -12q-65 0 -106.5 36t-41.5 93q0 135 207 168
l160 25v-40l-116 -28q-89 -22 -124 -46t-35 -67q0 -33 23 -52t63 -19q102 0 167 71v-62h-15q-40 -41 -83.5 -60t-98.5 -19zM238 558l-6 19q31 4 48.5 17t17.5 31q0 23 -24 37t-62 14l-19 74q73 0 119 -28t46 -72q0 -39 -35 -65.5t-85 -26.5z" />
    <glyph glyph-name="uni1EA4" unicode="&#x1ea4;" horiz-adv-x="709" 
d="M2 0v16l86 77l-46 -80l284 677h58l284 -677l-47 81l86 -78v-16h-261v16l130 80l-8 -83l-262 626h42l-219 -626l-13 84l130 -81v-16h-244zM172 214v50h346v-50h-346zM307 609l-69 65v16h105zM192 720l-12 12l140 161h48l140 -161l-12 -12l-158 89h12zM462 834l-13 14
l157 177h2l69 -83v-2z" />
    <glyph glyph-name="uni1EA5" unicode="&#x1ea5;" horiz-adv-x="557" 
d="M412 -12l-23 79h-10v230q0 70 -30.5 104.5t-92.5 34.5q-32 0 -61.5 -12.5t-48.5 -34.5l6 80h79l-101 -133h-16l-51 106q27 16 58.5 27t66 17t69.5 6q107 0 159.5 -42t52.5 -128v-241l-41 57l107 -75v-15l-106 -60h-17zM197 -12q-65 0 -106.5 36t-41.5 93q0 135 207 168
l160 25v-40l-116 -28q-89 -22 -124 -46t-35 -67q0 -33 23 -52t63 -19q102 0 167 71v-62h-15q-40 -41 -83.5 -60t-98.5 -19zM156 551l-17 10l120 204h36l120 -204l-17 -10l-127 110h12zM414 670l-17 10l90 205h2l90 -59v-2z" />
    <glyph glyph-name="uni1EA6" unicode="&#x1ea6;" horiz-adv-x="709" 
d="M2 0v16l86 77l-46 -80l284 677h58l284 -677l-47 81l86 -78v-16h-261v16l130 80l-8 -83l-262 626h42l-219 -626l-13 84l130 -81v-16h-244zM172 214v50h346v-50h-346zM307 609l-69 65v16h105zM192 719l-12 12l140 161h48l140 -161l-12 -12l-158 89h12zM550 796l-168 170v2
l92 56h2l91 -219z" />
    <glyph glyph-name="uni1EA7" unicode="&#x1ea7;" horiz-adv-x="557" 
d="M412 -12l-23 79h-10v230q0 70 -30.5 104.5t-92.5 34.5q-32 0 -61.5 -12.5t-48.5 -34.5l6 80h79l-101 -133h-16l-51 106q27 16 58.5 27t66 17t69.5 6q107 0 159.5 -42t52.5 -128v-241l-41 57l107 -75v-15l-106 -60h-17zM197 -12q-65 0 -106.5 36t-41.5 93q0 135 207 168
l160 25v-40l-116 -28q-89 -22 -124 -46t-35 -67q0 -33 23 -52t63 -19q102 0 167 71v-62h-15q-40 -41 -83.5 -60t-98.5 -19zM156 551l-17 10l120 204h36l120 -204l-17 -10l-127 110h12zM433 662l-139 178v2l98 44h2l57 -217z" />
    <glyph glyph-name="uni1EA8" unicode="&#x1ea8;" horiz-adv-x="709" 
d="M2 0v16l86 77l-46 -80l284 677h58l284 -677l-47 81l86 -78v-16h-261v16l130 80l-8 -83l-262 626h42l-219 -626l-13 84l130 -81v-16h-244zM172 214v50h346v-50h-346zM307 609l-69 65v16h105zM192 719l-12 12l140 161h48l140 -161l-12 -12l-158 89h12zM478 824l-5 19
q66 9 66 48q0 19 -23 30t-62 11l-20 78q52 0 89.5 -11.5t58 -32.5t20.5 -50q0 -39 -36 -65.5t-88 -26.5z" />
    <glyph glyph-name="uni1EA9" unicode="&#x1ea9;" horiz-adv-x="557" 
d="M412 -12l-23 79h-10v230q0 70 -30.5 104.5t-92.5 34.5q-32 0 -61.5 -12.5t-48.5 -34.5l6 80h79l-101 -133h-16l-51 106q27 16 58.5 27t66 17t69.5 6q107 0 159.5 -42t52.5 -128v-241l-41 57l107 -75v-15l-106 -60h-17zM197 -12q-65 0 -106.5 36t-41.5 93q0 135 207 168
l160 25v-40l-116 -28q-89 -22 -124 -46t-35 -67q0 -33 23 -52t63 -19q102 0 167 71v-62h-15q-40 -41 -83.5 -60t-98.5 -19zM156 551l-17 10l120 204h36l120 -204l-17 -10l-127 110h12zM405 678l-6 19q31 4 48.5 17t17.5 31q0 23 -24 37t-62 14l-19 74q73 0 119 -28t46 -72
q0 -39 -35 -65.5t-85 -26.5z" />
    <glyph glyph-name="uni1EAA" unicode="&#x1eaa;" horiz-adv-x="709" 
d="M2 0v16l86 77l-46 -80l284 677h58l284 -677l-47 81l86 -78v-16h-261v16l130 80l-8 -83l-262 626h42l-219 -626l-13 84l130 -81v-16h-244zM172 214v50h346v-50h-346zM307 609l-69 65v16h105zM192 720l-12 12l140 161h48l140 -161l-12 -12l-158 89h12zM437 912
q-34 0 -58 8.5t-46 17t-50 8.5q-22 0 -39.5 -8t-27.5 -24l-18 6q14 56 34.5 79.5t52.5 23.5q35 0 58.5 -8.5t45.5 -17t50 -8.5q23 0 40 8t27 24l18 -6q-14 -55 -34.5 -79t-52.5 -24z" />
    <glyph glyph-name="uni1EAB" unicode="&#x1eab;" horiz-adv-x="557" 
d="M412 -12l-23 79h-10v230q0 70 -30.5 104.5t-92.5 34.5q-32 0 -61.5 -12.5t-48.5 -34.5l6 80h79l-101 -133h-16l-51 106q27 16 58.5 27t66 17t69.5 6q107 0 159.5 -42t52.5 -128v-241l-41 57l107 -75v-15l-106 -60h-17zM197 -12q-65 0 -106.5 36t-41.5 93q0 135 207 168
l160 25v-40l-116 -28q-89 -22 -124 -46t-35 -67q0 -33 23 -52t63 -19q102 0 167 71v-62h-15q-40 -41 -83.5 -60t-98.5 -19zM125 530l-12 12l140 161h48l140 -161l-12 -12l-158 89h12zM369 721q-24 0 -50.5 13.5t-51.5 27t-47 13.5q-39 0 -56 -41l-19 4q15 112 82 112
q25 0 51 -13.5t51 -27t47 -13.5q39 0 56 41l19 -4q-15 -112 -82 -112z" />
    <glyph glyph-name="uni1EAC" unicode="&#x1eac;" horiz-adv-x="709" 
d="M2 0v16l86 77l-46 -80l284 677h58l284 -677l-47 81l86 -78v-16h-261v16l130 80l-8 -83l-262 626h42l-219 -626l-13 84l130 -81v-16h-244zM172 214v50h346v-50h-346zM307 609l-69 65v16h105zM355 -214q-31 0 -50 18.5t-19 47.5t19 47.5t50 18.5t50 -18.5t19 -47.5
t-19 -47.5t-50 -18.5zM192 740l-12 12l140 161h48l140 -161l-12 -12l-158 89h12z" />
    <glyph glyph-name="uni1EAD" unicode="&#x1ead;" horiz-adv-x="557" 
d="M412 -12l-23 79h-10v230q0 70 -30.5 104.5t-92.5 34.5q-32 0 -61.5 -12.5t-48.5 -34.5l6 80h79l-101 -133h-16l-51 106q27 16 58.5 27t66 17t69.5 6q107 0 159.5 -42t52.5 -128v-241l-41 57l107 -75v-15l-106 -60h-17zM197 -12q-65 0 -106.5 36t-41.5 93q0 135 207 168
l160 25v-40l-116 -28q-89 -22 -124 -46t-35 -67q0 -33 23 -52t63 -19q102 0 167 71v-62h-15q-40 -41 -83.5 -60t-98.5 -19zM277 -214q-31 0 -50 18.5t-19 47.5t19 47.5t50 18.5t50 -18.5t19 -47.5t-19 -47.5t-50 -18.5zM156 551l-17 10l120 204h36l120 -204l-17 -10
l-127 110h12z" />
    <glyph glyph-name="uni1EAE" unicode="&#x1eae;" horiz-adv-x="709" 
d="M2 0v16l86 77l-46 -80l284 677h58l284 -677l-47 81l86 -78v-16h-261v16l130 80l-8 -83l-262 626h42l-219 -626l-13 84l130 -81v-16h-244zM172 214v50h346v-50h-346zM307 609l-69 65v16h105zM346 723q-64 0 -106 40t-44 102l15 4q15 -34 51.5 -53.5t83.5 -19.5t83.5 19.5
t51.5 53.5l15 -4q-2 -62 -44 -102t-106 -40zM300 834l-13 14l157 177h2l69 -83v-2z" />
    <glyph glyph-name="uni1EAF" unicode="&#x1eaf;" horiz-adv-x="557" 
d="M412 -12l-23 79h-10v230q0 70 -30.5 104.5t-92.5 34.5q-32 0 -61.5 -12.5t-48.5 -34.5l6 80h79l-101 -133h-16l-51 106q27 16 58.5 27t66 17t69.5 6q107 0 159.5 -42t52.5 -128v-241l-41 57l107 -75v-15l-106 -60h-17zM197 -12q-65 0 -106.5 36t-41.5 93q0 135 207 168
l160 25v-40l-116 -28q-89 -22 -124 -46t-35 -67q0 -33 23 -52t63 -19q102 0 167 71v-62h-15q-40 -41 -83.5 -60t-98.5 -19zM277 538q-68 0 -108 47t-40 127l16 2q17 -50 51.5 -77t80.5 -27q47 0 81 27t51 77l16 -2q0 -80 -40 -127t-108 -47zM247 670l-17 10l90 205h2l90 -59
v-2z" />
    <glyph glyph-name="uni1EB0" unicode="&#x1eb0;" horiz-adv-x="709" 
d="M2 0v16l86 77l-46 -80l284 677h58l284 -677l-47 81l86 -78v-16h-261v16l130 80l-8 -83l-262 626h42l-219 -626l-13 84l130 -81v-16h-244zM172 214v50h346v-50h-346zM307 609l-69 65v16h105zM344 723q-64 0 -106 40t-44 102l15 4q15 -34 51.5 -53.5t83.5 -19.5t83.5 19.5
t51.5 53.5l15 -4q-2 -62 -44 -102t-106 -40zM392 834l-215 106v2l69 83h2l157 -177z" />
    <glyph glyph-name="uni1EB1" unicode="&#x1eb1;" horiz-adv-x="557" 
d="M412 -12l-23 79h-10v230q0 70 -30.5 104.5t-92.5 34.5q-32 0 -61.5 -12.5t-48.5 -34.5l6 80h79l-101 -133h-16l-51 106q27 16 58.5 27t66 17t69.5 6q107 0 159.5 -42t52.5 -128v-241l-41 57l107 -75v-15l-106 -60h-17zM197 -12q-65 0 -106.5 36t-41.5 93q0 135 207 168
l160 25v-40l-116 -28q-89 -22 -124 -46t-35 -67q0 -33 23 -52t63 -19q102 0 167 71v-62h-15q-40 -41 -83.5 -60t-98.5 -19zM277 538q-68 0 -108 47t-40 127l16 2q17 -50 51.5 -77t80.5 -27q47 0 81 27t51 77l16 -2q0 -80 -40 -127t-108 -47zM308 670l-165 154v2l90 59h2
l90 -205z" />
    <glyph glyph-name="uni1EB2" unicode="&#x1eb2;" horiz-adv-x="709" 
d="M2 0v16l86 77l-46 -80l284 677h58l284 -677l-47 81l86 -78v-16h-261v16l130 80l-8 -83l-262 626h42l-219 -626l-13 84l130 -81v-16h-244zM172 214v50h346v-50h-346zM307 609l-69 65v16h105zM346 723q-64 0 -106 40t-44 102l15 4q15 -34 51.5 -53.5t83.5 -19.5t83.5 19.5
t51.5 53.5l15 -4q-2 -62 -44 -102t-106 -40zM329 831l-5 19q66 9 66 48q0 19 -23 30t-62 11l-20 78q52 0 89.5 -11.5t58 -32.5t20.5 -50q0 -39 -36 -65.5t-88 -26.5z" />
    <glyph glyph-name="uni1EB3" unicode="&#x1eb3;" horiz-adv-x="557" 
d="M412 -12l-23 79h-10v230q0 70 -30.5 104.5t-92.5 34.5q-32 0 -61.5 -12.5t-48.5 -34.5l6 80h79l-101 -133h-16l-51 106q27 16 58.5 27t66 17t69.5 6q107 0 159.5 -42t52.5 -128v-241l-41 57l107 -75v-15l-106 -60h-17zM197 -12q-65 0 -106.5 36t-41.5 93q0 135 207 168
l160 25v-40l-116 -28q-89 -22 -124 -46t-35 -67q0 -33 23 -52t63 -19q102 0 167 71v-62h-15q-40 -41 -83.5 -60t-98.5 -19zM277 538q-68 0 -108 47t-40 127l16 2q17 -50 51.5 -77t80.5 -27q47 0 81 27t51 77l16 -2q0 -80 -40 -127t-108 -47zM238 673l-6 19q31 4 48.5 17
t17.5 31q0 23 -24 37t-62 14l-19 74q73 0 119 -28t46 -72q0 -39 -35 -65.5t-85 -26.5z" />
    <glyph glyph-name="uni1EB4" unicode="&#x1eb4;" horiz-adv-x="709" 
d="M2 0v16l86 77l-46 -80l284 677h58l284 -677l-47 81l86 -78v-16h-261v16l130 80l-8 -83l-262 626h42l-219 -626l-13 84l130 -81v-16h-244zM172 214v50h346v-50h-346zM307 609l-69 65v16h105zM347 723q-64 0 -106 40t-44 102l15 4q15 -34 51.5 -53.5t83.5 -19.5t83.5 19.5
t51.5 53.5l15 -4q-2 -62 -44 -102t-106 -40zM423 888q-34 0 -58 8.5t-46 17t-50 8.5q-22 0 -39.5 -8t-27.5 -24l-18 6q14 56 34.5 79.5t52.5 23.5q35 0 58.5 -8.5t45.5 -17t50 -8.5q23 0 40 8t27 24l18 -6q-14 -55 -34.5 -79t-52.5 -24z" />
    <glyph glyph-name="uni1EB5" unicode="&#x1eb5;" horiz-adv-x="557" 
d="M412 -12l-23 79h-10v230q0 70 -30.5 104.5t-92.5 34.5q-32 0 -61.5 -12.5t-48.5 -34.5l6 80h79l-101 -133h-16l-51 106q27 16 58.5 27t66 17t69.5 6q107 0 159.5 -42t52.5 -128v-241l-41 57l107 -75v-15l-106 -60h-17zM197 -12q-65 0 -106.5 36t-41.5 93q0 135 207 168
l160 25v-40l-116 -28q-89 -22 -124 -46t-35 -67q0 -33 23 -52t63 -19q102 0 167 71v-62h-15q-40 -41 -83.5 -60t-98.5 -19zM278 538q-68 0 -108 47t-40 127l16 2q17 -50 51.5 -77t80.5 -27q47 0 81 27t51 77l16 -2q0 -80 -40 -127t-108 -47zM350 731q-24 0 -50.5 13.5
t-51.5 27t-47 13.5q-39 0 -56 -41l-19 4q15 112 82 112q25 0 51 -13.5t51 -27t47 -13.5q39 0 56 41l19 -4q-15 -112 -82 -112z" />
    <glyph glyph-name="uni1EB6" unicode="&#x1eb6;" horiz-adv-x="709" 
d="M2 0v16l86 77l-46 -80l284 677h58l284 -677l-47 81l86 -78v-16h-261v16l130 80l-8 -83l-262 626h42l-219 -626l-13 84l130 -81v-16h-244zM172 214v50h346v-50h-346zM307 609l-69 65v16h105zM355 -214q-31 0 -50 18.5t-19 47.5t19 47.5t50 18.5t50 -18.5t19 -47.5
t-19 -47.5t-50 -18.5zM344 748q-64 0 -106 40t-44 102l15 4q15 -34 51.5 -53.5t83.5 -19.5t83.5 19.5t51.5 53.5l15 -4q-2 -62 -44 -102t-106 -40z" />
    <glyph glyph-name="uni1EB7" unicode="&#x1eb7;" horiz-adv-x="557" 
d="M412 -12l-23 79h-10v230q0 70 -30.5 104.5t-92.5 34.5q-32 0 -61.5 -12.5t-48.5 -34.5l6 80h79l-101 -133h-16l-51 106q27 16 58.5 27t66 17t69.5 6q107 0 159.5 -42t52.5 -128v-241l-41 57l107 -75v-15l-106 -60h-17zM197 -12q-65 0 -106.5 36t-41.5 93q0 135 207 168
l160 25v-40l-116 -28q-89 -22 -124 -46t-35 -67q0 -33 23 -52t63 -19q102 0 167 71v-62h-15q-40 -41 -83.5 -60t-98.5 -19zM277 -214q-31 0 -50 18.5t-19 47.5t19 47.5t50 18.5t50 -18.5t19 -47.5t-19 -47.5t-50 -18.5zM277 558q-68 0 -108 47t-40 127l16 2q17 -50 51.5 -77
t80.5 -27q47 0 81 27t51 77l16 -2q0 -80 -40 -127t-108 -47z" />
    <glyph glyph-name="uni1EB8" unicode="&#x1eb8;" horiz-adv-x="619" 
d="M30 0v16l79 59v540l-79 59v16h175v-690h-175zM187 0v43l341 16v-59h-341zM433 0v41l125 126h16l-6 -167h-135zM443 324l-265 10v43l265 11v-64zM459 261l-80 76v38l80 76h16v-190h-16zM528 631l-341 16v43h341v-59zM546 546l-114 100v44l113 8h11l6 -152h-16zM310 -214
q-31 0 -50 18.5t-19 47.5t19 47.5t50 18.5t50 -18.5t19 -47.5t-19 -47.5t-50 -18.5z" />
    <glyph glyph-name="uni1EB9" unicode="&#x1eb9;" horiz-adv-x="531" 
d="M280 -12q-69 0 -122.5 30t-83.5 83t-30 121q0 80 32 140.5t88 95t129 34.5q60 0 103.5 -29t67 -82.5t23.5 -126.5h-383v40l277 21q0 57 -29.5 90t-79.5 33q-39 0 -69.5 -24t-47.5 -66.5t-17 -97.5q0 -94 45 -145.5t128 -51.5q88 0 144 53l22 -24q-32 -45 -83.5 -69.5
t-113.5 -24.5zM280 -214q-31 0 -50 18.5t-19 47.5t19 47.5t50 18.5t50 -18.5t19 -47.5t-19 -47.5t-50 -18.5z" />
    <glyph glyph-name="uni1EBA" unicode="&#x1eba;" horiz-adv-x="619" 
d="M30 0v16l79 59v540l-79 59v16h175v-690h-175zM187 0v43l341 16v-59h-341zM433 0v41l125 126h16l-6 -167h-135zM443 324l-265 10v43l265 11v-64zM459 261l-80 76v38l80 76h16v-190h-16zM528 631l-341 16v43h341v-59zM546 546l-114 100v44l113 8h11l6 -152h-16zM270 744
l-5 19q66 9 66 48q0 19 -23 30t-62 11l-20 78q52 0 89.5 -11.5t58 -32.5t20.5 -50q0 -39 -36 -65.5t-88 -26.5z" />
    <glyph glyph-name="uni1EBB" unicode="&#x1ebb;" horiz-adv-x="531" 
d="M280 -12q-69 0 -122.5 30t-83.5 83t-30 121q0 80 32 140.5t88 95t129 34.5q60 0 103.5 -29t67 -82.5t23.5 -126.5h-383v40l277 21q0 57 -29.5 90t-79.5 33q-39 0 -69.5 -24t-47.5 -66.5t-17 -97.5q0 -94 45 -145.5t128 -51.5q88 0 144 53l22 -24q-32 -45 -83.5 -69.5
t-113.5 -24.5zM244 558l-6 19q31 4 48.5 17t17.5 31q0 23 -24 37t-62 14l-19 74q73 0 119 -28t46 -72q0 -39 -35 -65.5t-85 -26.5z" />
    <glyph glyph-name="uni1EBC" unicode="&#x1ebc;" horiz-adv-x="619" 
d="M30 0v16l79 59v540l-79 59v16h175v-690h-175zM187 0v43l341 16v-59h-341zM433 0v41l125 126h16l-6 -167h-135zM443 324l-265 10v43l265 11v-64zM459 261l-80 76v38l80 76h16v-190h-16zM528 631l-341 16v43h341v-59zM546 546l-114 100v44l113 8h11l6 -152h-16zM385 752
q-34 0 -60.5 9t-51 18t-52.5 9q-51 0 -74 -34l-21 6q13 50 41 76.5t66 26.5q35 0 61 -9t50.5 -18t52.5 -9q51 0 74 34l21 -6q-13 -49 -41 -76t-66 -27z" />
    <glyph glyph-name="uni1EBD" unicode="&#x1ebd;" horiz-adv-x="531" 
d="M280 -12q-69 0 -122.5 30t-83.5 83t-30 121q0 80 32 140.5t88 95t129 34.5q60 0 103.5 -29t67 -82.5t23.5 -126.5h-383v40l277 21q0 57 -29.5 90t-79.5 33q-39 0 -69.5 -24t-47.5 -66.5t-17 -97.5q0 -94 45 -145.5t128 -51.5q88 0 144 53l22 -24q-32 -45 -83.5 -69.5
t-113.5 -24.5zM363 557q-34 0 -60.5 12.5t-51 25t-52.5 12.5q-27 0 -45 -12t-29 -36l-21 6q14 54 42 83.5t65 29.5q35 0 61 -12.5t50.5 -25t52.5 -12.5q27 0 45.5 12t28.5 36l21 -6q-14 -54 -42 -83.5t-65 -29.5z" />
    <glyph glyph-name="uni1EBE" unicode="&#x1ebe;" horiz-adv-x="619" 
d="M30 0v16l79 59v540l-79 59v16h175v-690h-175zM187 0v43l341 16v-59h-341zM433 0v41l125 126h16l-6 -167h-135zM443 324l-265 10v43l265 11v-64zM459 261l-80 76v38l80 76h16v-190h-16zM528 631l-341 16v43h341v-59zM546 546l-114 100v44l113 8h11l6 -152h-16zM158 720
l-12 12l140 161h48l140 -161l-12 -12l-158 89h12zM428 834l-13 14l157 177h2l69 -83v-2z" />
    <glyph glyph-name="uni1EBF" unicode="&#x1ebf;" horiz-adv-x="531" 
d="M280 -12q-69 0 -122.5 30t-83.5 83t-30 121q0 80 32 140.5t88 95t129 34.5q60 0 103.5 -29t67 -82.5t23.5 -126.5h-383v40l277 21q0 57 -29.5 90t-79.5 33q-39 0 -69.5 -24t-47.5 -66.5t-17 -97.5q0 -94 45 -145.5t128 -51.5q88 0 144 53l22 -24q-32 -45 -83.5 -69.5
t-113.5 -24.5zM162 551l-17 10l120 204h36l120 -204l-17 -10l-127 110h12zM420 670l-17 10l90 205h2l90 -59v-2z" />
    <glyph glyph-name="uni1EC0" unicode="&#x1ec0;" horiz-adv-x="619" 
d="M30 0v16l79 59v540l-79 59v16h175v-690h-175zM187 0v43l341 16v-59h-341zM433 0v41l125 126h16l-6 -167h-135zM443 324l-265 10v43l265 11v-64zM459 261l-80 76v38l80 76h16v-190h-16zM528 631l-341 16v43h341v-59zM546 546l-114 100v44l113 8h11l6 -152h-16zM158 719
l-12 12l140 161h48l140 -161l-12 -12l-158 89h12zM516 796l-168 170v2l92 56h2l91 -219z" />
    <glyph glyph-name="uni1EC1" unicode="&#x1ec1;" horiz-adv-x="531" 
d="M280 -12q-69 0 -122.5 30t-83.5 83t-30 121q0 80 32 140.5t88 95t129 34.5q60 0 103.5 -29t67 -82.5t23.5 -126.5h-383v40l277 21q0 57 -29.5 90t-79.5 33q-39 0 -69.5 -24t-47.5 -66.5t-17 -97.5q0 -94 45 -145.5t128 -51.5q88 0 144 53l22 -24q-32 -45 -83.5 -69.5
t-113.5 -24.5zM162 551l-17 10l120 204h36l120 -204l-17 -10l-127 110h12zM439 662l-139 178v2l98 44h2l57 -217z" />
    <glyph glyph-name="uni1EC2" unicode="&#x1ec2;" horiz-adv-x="619" 
d="M30 0v16l79 59v540l-79 59v16h175v-690h-175zM187 0v43l341 16v-59h-341zM433 0v41l125 126h16l-6 -167h-135zM443 324l-265 10v43l265 11v-64zM459 261l-80 76v38l80 76h16v-190h-16zM528 631l-341 16v43h341v-59zM546 546l-114 100v44l113 8h11l6 -152h-16zM158 719
l-12 12l140 161h48l140 -161l-12 -12l-158 89h12zM444 824l-5 19q66 9 66 48q0 19 -23 30t-62 11l-20 78q52 0 89.5 -11.5t58 -32.5t20.5 -50q0 -39 -36 -65.5t-88 -26.5z" />
    <glyph glyph-name="uni1EC3" unicode="&#x1ec3;" horiz-adv-x="531" 
d="M280 -12q-69 0 -122.5 30t-83.5 83t-30 121q0 80 32 140.5t88 95t129 34.5q60 0 103.5 -29t67 -82.5t23.5 -126.5h-383v40l277 21q0 57 -29.5 90t-79.5 33q-39 0 -69.5 -24t-47.5 -66.5t-17 -97.5q0 -94 45 -145.5t128 -51.5q88 0 144 53l22 -24q-32 -45 -83.5 -69.5
t-113.5 -24.5zM162 551l-17 10l120 204h36l120 -204l-17 -10l-127 110h12zM411 678l-6 19q31 4 48.5 17t17.5 31q0 23 -24 37t-62 14l-19 74q73 0 119 -28t46 -72q0 -39 -35 -65.5t-85 -26.5z" />
    <glyph glyph-name="uni1EC4" unicode="&#x1ec4;" horiz-adv-x="619" 
d="M30 0v16l79 59v540l-79 59v16h175v-690h-175zM187 0v43l341 16v-59h-341zM433 0v41l125 126h16l-6 -167h-135zM443 324l-265 10v43l265 11v-64zM459 261l-80 76v38l80 76h16v-190h-16zM528 631l-341 16v43h341v-59zM546 546l-114 100v44l113 8h11l6 -152h-16zM158 720
l-12 12l140 161h48l140 -161l-12 -12l-158 89h12zM403 912q-34 0 -58 8.5t-46 17t-50 8.5q-22 0 -39.5 -8t-27.5 -24l-18 6q14 56 34.5 79.5t52.5 23.5q35 0 58.5 -8.5t45.5 -17t50 -8.5q23 0 40 8t27 24l18 -6q-14 -55 -34.5 -79t-52.5 -24z" />
    <glyph glyph-name="uni1EC5" unicode="&#x1ec5;" horiz-adv-x="531" 
d="M280 -12q-69 0 -122.5 30t-83.5 83t-30 121q0 80 32 140.5t88 95t129 34.5q60 0 103.5 -29t67 -82.5t23.5 -126.5h-383v40l277 21q0 57 -29.5 90t-79.5 33q-39 0 -69.5 -24t-47.5 -66.5t-17 -97.5q0 -94 45 -145.5t128 -51.5q88 0 144 53l22 -24q-32 -45 -83.5 -69.5
t-113.5 -24.5zM131 530l-12 12l140 161h48l140 -161l-12 -12l-158 89h12zM375 721q-24 0 -50.5 13.5t-51.5 27t-47 13.5q-39 0 -56 -41l-19 4q15 112 82 112q25 0 51 -13.5t51 -27t47 -13.5q39 0 56 41l19 -4q-15 -112 -82 -112z" />
    <glyph glyph-name="uni1EC6" unicode="&#x1ec6;" horiz-adv-x="619" 
d="M30 0v16l79 59v540l-79 59v16h175v-690h-175zM187 0v43l341 16v-59h-341zM433 0v41l125 126h16l-6 -167h-135zM443 324l-265 10v43l265 11v-64zM459 261l-80 76v38l80 76h16v-190h-16zM528 631l-341 16v43h341v-59zM546 546l-114 100v44l113 8h11l6 -152h-16zM310 -214
q-31 0 -50 18.5t-19 47.5t19 47.5t50 18.5t50 -18.5t19 -47.5t-19 -47.5t-50 -18.5zM158 740l-12 12l140 161h48l140 -161l-12 -12l-158 89h12z" />
    <glyph glyph-name="uni1EC7" unicode="&#x1ec7;" horiz-adv-x="531" 
d="M280 -12q-69 0 -122.5 30t-83.5 83t-30 121q0 80 32 140.5t88 95t129 34.5q60 0 103.5 -29t67 -82.5t23.5 -126.5h-383v40l277 21q0 57 -29.5 90t-79.5 33q-39 0 -69.5 -24t-47.5 -66.5t-17 -97.5q0 -94 45 -145.5t128 -51.5q88 0 144 53l22 -24q-32 -45 -83.5 -69.5
t-113.5 -24.5zM280 -214q-31 0 -50 18.5t-19 47.5t19 47.5t50 18.5t50 -18.5t19 -47.5t-19 -47.5t-50 -18.5zM162 551l-17 10l120 204h36l120 -204l-17 -10l-127 110h12z" />
    <glyph glyph-name="uni1EC8" unicode="&#x1ec8;" horiz-adv-x="314" 
d="M30 0v16l79 59v540l-79 59v16h254v-16l-79 -59v-540l79 -59v-16h-254zM117 744l-5 19q66 9 66 48q0 19 -23 30t-62 11l-20 78q52 0 89.5 -11.5t58 -32.5t20.5 -50q0 -39 -36 -65.5t-88 -26.5z" />
    <glyph glyph-name="uni1EC9" unicode="&#x1ec9;" horiz-adv-x="294" 
d="M34 0v14l90 68l-16 -28v340l43 -63l-116 82v15l140 56h23v-432l-15 29l89 -67v-14h-238zM115 558l-6 19q31 4 48.5 17t17.5 31q0 23 -24 37t-62 14l-19 74q73 0 119 -28t46 -72q0 -39 -35 -65.5t-85 -26.5z" />
    <glyph glyph-name="uni1ECA" unicode="&#x1eca;" horiz-adv-x="314" 
d="M30 0v16l79 59v540l-79 59v16h254v-16l-79 -59v-540l79 -59v-16h-254zM157 -214q-31 0 -50 18.5t-19 47.5t19 47.5t50 18.5t50 -18.5t19 -47.5t-19 -47.5t-50 -18.5z" />
    <glyph glyph-name="uni1ECB" unicode="&#x1ecb;" horiz-adv-x="294" 
d="M147 -214q-31 0 -50 18.5t-19 47.5t19 47.5t50 18.5t50 -18.5t19 -47.5t-19 -47.5t-50 -18.5zM34 0v14l90 68l-16 -28v340l43 -63l-116 82v15l140 56h23v-432l-15 29l89 -67v-14h-238zM154 558q-31 0 -50 18.5t-19 47.5t19 47.5t50 18.5t50 -18.5t19 -47.5t-19 -47.5
t-50 -18.5z" />
    <glyph glyph-name="uni1ECC" unicode="&#x1ecc;" horiz-adv-x="773" 
d="M380 -16q-98 0 -174 44.5t-118.5 124.5t-42.5 185q0 108 44.5 191t123 130t180.5 47q99 0 174.5 -44.5t118 -124t42.5 -185.5q0 -108 -44.5 -191t-123 -130t-180.5 -47zM398 41q69 0 119.5 35.5t78 100.5t27.5 154q0 98 -30.5 169t-86 110t-131.5 39q-69 0 -119.5 -35.5
t-78 -100.5t-27.5 -154q0 -97 30.5 -168.5t86 -110.5t131.5 -39zM380 -214q-31 0 -50 18.5t-19 47.5t19 47.5t50 18.5t50 -18.5t19 -47.5t-19 -47.5t-50 -18.5z" />
    <glyph glyph-name="uni1ECD" unicode="&#x1ecd;" horiz-adv-x="592" 
d="M291 -12q-72 0 -128 31.5t-87.5 87.5t-31.5 128q0 76 33 133.5t91 90.5t133 33q73 0 128.5 -31.5t87 -87t31.5 -128.5q0 -75 -33 -133t-90.5 -91t-133.5 -33zM301 42q45 0 79 24t53.5 67t19.5 99q0 61 -20.5 107t-57 72.5t-84.5 26.5q-45 0 -79 -24t-53.5 -67t-19.5 -99
q0 -60 20.5 -106.5t57 -73t84.5 -26.5zM296 -214q-31 0 -50 18.5t-19 47.5t19 47.5t50 18.5t50 -18.5t19 -47.5t-19 -47.5t-50 -18.5z" />
    <glyph glyph-name="uni1ECE" unicode="&#x1ece;" horiz-adv-x="773" 
d="M380 -16q-98 0 -174 44.5t-118.5 124.5t-42.5 185q0 108 44.5 191t123 130t180.5 47q99 0 174.5 -44.5t118 -124t42.5 -185.5q0 -108 -44.5 -191t-123 -130t-180.5 -47zM398 41q69 0 119.5 35.5t78 100.5t27.5 154q0 98 -30.5 169t-86 110t-131.5 39q-69 0 -119.5 -35.5
t-78 -100.5t-27.5 -154q0 -97 30.5 -168.5t86 -110.5t131.5 -39zM347 744l-5 19q66 9 66 48q0 19 -23 30t-62 11l-20 78q52 0 89.5 -11.5t58 -32.5t20.5 -50q0 -39 -36 -65.5t-88 -26.5z" />
    <glyph glyph-name="uni1ECF" unicode="&#x1ecf;" horiz-adv-x="592" 
d="M291 -12q-72 0 -128 31.5t-87.5 87.5t-31.5 128q0 76 33 133.5t91 90.5t133 33q73 0 128.5 -31.5t87 -87t31.5 -128.5q0 -75 -33 -133t-90.5 -91t-133.5 -33zM301 42q45 0 79 24t53.5 67t19.5 99q0 61 -20.5 107t-57 72.5t-84.5 26.5q-45 0 -79 -24t-53.5 -67t-19.5 -99
q0 -60 20.5 -106.5t57 -73t84.5 -26.5zM257 558l-6 19q31 4 48.5 17t17.5 31q0 23 -24 37t-62 14l-19 74q73 0 119 -28t46 -72q0 -39 -35 -65.5t-85 -26.5z" />
    <glyph glyph-name="uni1ED0" unicode="&#x1ed0;" horiz-adv-x="773" 
d="M380 -16q-98 0 -174 44.5t-118.5 124.5t-42.5 185q0 108 44.5 191t123 130t180.5 47q99 0 174.5 -44.5t118 -124t42.5 -185.5q0 -108 -44.5 -191t-123 -130t-180.5 -47zM398 41q69 0 119.5 35.5t78 100.5t27.5 154q0 98 -30.5 169t-86 110t-131.5 39q-69 0 -119.5 -35.5
t-78 -100.5t-27.5 -154q0 -97 30.5 -168.5t86 -110.5t131.5 -39zM235 720l-12 12l140 161h48l140 -161l-12 -12l-158 89h12zM505 834l-13 14l157 177h2l69 -83v-2z" />
    <glyph glyph-name="uni1ED1" unicode="&#x1ed1;" horiz-adv-x="592" 
d="M291 -12q-72 0 -128 31.5t-87.5 87.5t-31.5 128q0 76 33 133.5t91 90.5t133 33q73 0 128.5 -31.5t87 -87t31.5 -128.5q0 -75 -33 -133t-90.5 -91t-133.5 -33zM301 42q45 0 79 24t53.5 67t19.5 99q0 61 -20.5 107t-57 72.5t-84.5 26.5q-45 0 -79 -24t-53.5 -67t-19.5 -99
q0 -60 20.5 -106.5t57 -73t84.5 -26.5zM175 551l-17 10l120 204h36l120 -204l-17 -10l-127 110h12zM433 670l-17 10l90 205h2l90 -59v-2z" />
    <glyph glyph-name="uni1ED2" unicode="&#x1ed2;" horiz-adv-x="773" 
d="M380 -16q-98 0 -174 44.5t-118.5 124.5t-42.5 185q0 108 44.5 191t123 130t180.5 47q99 0 174.5 -44.5t118 -124t42.5 -185.5q0 -108 -44.5 -191t-123 -130t-180.5 -47zM398 41q69 0 119.5 35.5t78 100.5t27.5 154q0 98 -30.5 169t-86 110t-131.5 39q-69 0 -119.5 -35.5
t-78 -100.5t-27.5 -154q0 -97 30.5 -168.5t86 -110.5t131.5 -39zM235 719l-12 12l140 161h48l140 -161l-12 -12l-158 89h12zM593 796l-168 170v2l92 56h2l91 -219z" />
    <glyph glyph-name="uni1ED3" unicode="&#x1ed3;" horiz-adv-x="592" 
d="M291 -12q-72 0 -128 31.5t-87.5 87.5t-31.5 128q0 76 33 133.5t91 90.5t133 33q73 0 128.5 -31.5t87 -87t31.5 -128.5q0 -75 -33 -133t-90.5 -91t-133.5 -33zM301 42q45 0 79 24t53.5 67t19.5 99q0 61 -20.5 107t-57 72.5t-84.5 26.5q-45 0 -79 -24t-53.5 -67t-19.5 -99
q0 -60 20.5 -106.5t57 -73t84.5 -26.5zM175 551l-17 10l120 204h36l120 -204l-17 -10l-127 110h12zM452 662l-139 178v2l98 44h2l57 -217z" />
    <glyph glyph-name="uni1ED4" unicode="&#x1ed4;" horiz-adv-x="773" 
d="M380 -16q-98 0 -174 44.5t-118.5 124.5t-42.5 185q0 108 44.5 191t123 130t180.5 47q99 0 174.5 -44.5t118 -124t42.5 -185.5q0 -108 -44.5 -191t-123 -130t-180.5 -47zM398 41q69 0 119.5 35.5t78 100.5t27.5 154q0 98 -30.5 169t-86 110t-131.5 39q-69 0 -119.5 -35.5
t-78 -100.5t-27.5 -154q0 -97 30.5 -168.5t86 -110.5t131.5 -39zM235 719l-12 12l140 161h48l140 -161l-12 -12l-158 89h12zM521 824l-5 19q66 9 66 48q0 19 -23 30t-62 11l-20 78q52 0 89.5 -11.5t58 -32.5t20.5 -50q0 -39 -36 -65.5t-88 -26.5z" />
    <glyph glyph-name="uni1ED5" unicode="&#x1ed5;" horiz-adv-x="592" 
d="M291 -12q-72 0 -128 31.5t-87.5 87.5t-31.5 128q0 76 33 133.5t91 90.5t133 33q73 0 128.5 -31.5t87 -87t31.5 -128.5q0 -75 -33 -133t-90.5 -91t-133.5 -33zM301 42q45 0 79 24t53.5 67t19.5 99q0 61 -20.5 107t-57 72.5t-84.5 26.5q-45 0 -79 -24t-53.5 -67t-19.5 -99
q0 -60 20.5 -106.5t57 -73t84.5 -26.5zM175 551l-17 10l120 204h36l120 -204l-17 -10l-127 110h12zM424 678l-6 19q31 4 48.5 17t17.5 31q0 23 -24 37t-62 14l-19 74q73 0 119 -28t46 -72q0 -39 -35 -65.5t-85 -26.5z" />
    <glyph glyph-name="uni1ED6" unicode="&#x1ed6;" horiz-adv-x="773" 
d="M380 -16q-98 0 -174 44.5t-118.5 124.5t-42.5 185q0 108 44.5 191t123 130t180.5 47q99 0 174.5 -44.5t118 -124t42.5 -185.5q0 -108 -44.5 -191t-123 -130t-180.5 -47zM398 41q69 0 119.5 35.5t78 100.5t27.5 154q0 98 -30.5 169t-86 110t-131.5 39q-69 0 -119.5 -35.5
t-78 -100.5t-27.5 -154q0 -97 30.5 -168.5t86 -110.5t131.5 -39zM235 720l-12 12l140 161h48l140 -161l-12 -12l-158 89h12zM480 912q-34 0 -58 8.5t-46 17t-50 8.5q-22 0 -39.5 -8t-27.5 -24l-18 6q14 56 34.5 79.5t52.5 23.5q35 0 58.5 -8.5t45.5 -17t50 -8.5q23 0 40 8
t27 24l18 -6q-14 -55 -34.5 -79t-52.5 -24z" />
    <glyph glyph-name="uni1ED7" unicode="&#x1ed7;" horiz-adv-x="592" 
d="M291 -12q-72 0 -128 31.5t-87.5 87.5t-31.5 128q0 76 33 133.5t91 90.5t133 33q73 0 128.5 -31.5t87 -87t31.5 -128.5q0 -75 -33 -133t-90.5 -91t-133.5 -33zM301 42q45 0 79 24t53.5 67t19.5 99q0 61 -20.5 107t-57 72.5t-84.5 26.5q-45 0 -79 -24t-53.5 -67t-19.5 -99
q0 -60 20.5 -106.5t57 -73t84.5 -26.5zM144 530l-12 12l140 161h48l140 -161l-12 -12l-158 89h12zM388 721q-24 0 -50.5 13.5t-51.5 27t-47 13.5q-39 0 -56 -41l-19 4q15 112 82 112q25 0 51 -13.5t51 -27t47 -13.5q39 0 56 41l19 -4q-15 -112 -82 -112z" />
    <glyph glyph-name="uni1ED8" unicode="&#x1ed8;" horiz-adv-x="773" 
d="M380 -16q-98 0 -174 44.5t-118.5 124.5t-42.5 185q0 108 44.5 191t123 130t180.5 47q99 0 174.5 -44.5t118 -124t42.5 -185.5q0 -108 -44.5 -191t-123 -130t-180.5 -47zM398 41q69 0 119.5 35.5t78 100.5t27.5 154q0 98 -30.5 169t-86 110t-131.5 39q-69 0 -119.5 -35.5
t-78 -100.5t-27.5 -154q0 -97 30.5 -168.5t86 -110.5t131.5 -39zM380 -214q-31 0 -50 18.5t-19 47.5t19 47.5t50 18.5t50 -18.5t19 -47.5t-19 -47.5t-50 -18.5zM235 740l-12 12l140 161h48l140 -161l-12 -12l-158 89h12z" />
    <glyph glyph-name="uni1ED9" unicode="&#x1ed9;" horiz-adv-x="592" 
d="M291 -12q-72 0 -128 31.5t-87.5 87.5t-31.5 128q0 76 33 133.5t91 90.5t133 33q73 0 128.5 -31.5t87 -87t31.5 -128.5q0 -75 -33 -133t-90.5 -91t-133.5 -33zM301 42q45 0 79 24t53.5 67t19.5 99q0 61 -20.5 107t-57 72.5t-84.5 26.5q-45 0 -79 -24t-53.5 -67t-19.5 -99
q0 -60 20.5 -106.5t57 -73t84.5 -26.5zM296 -214q-31 0 -50 18.5t-19 47.5t19 47.5t50 18.5t50 -18.5t19 -47.5t-19 -47.5t-50 -18.5zM175 551l-17 10l120 204h36l120 -204l-17 -10l-127 110h12z" />
    <glyph glyph-name="uni1EDA" unicode="&#x1eda;" horiz-adv-x="773" 
d="M380 -16q-98 0 -174 44.5t-118.5 124.5t-42.5 185q0 108 44.5 191t123 130t180.5 47q99 0 174.5 -44.5t118 -124t42.5 -185.5q0 -108 -44.5 -191t-123 -130t-180.5 -47zM398 41q69 0 119.5 35.5t78 100.5t27.5 154q0 98 -30.5 169t-86 110t-131.5 39q-69 0 -119.5 -35.5
t-78 -100.5t-27.5 -154q0 -97 30.5 -168.5t86 -110.5t131.5 -39zM573 820l94 24q16 -56 5.5 -97t-45 -63.5t-90.5 -22.5h-106v29h61q59 0 78.5 31.5t2.5 98.5zM321 739l-13 14l157 177h2l69 -83v-2z" />
    <glyph glyph-name="uni1EDB" unicode="&#x1edb;" horiz-adv-x="592" 
d="M291 -12q-72 0 -128 31.5t-87.5 87.5t-31.5 128q0 76 33 133.5t91 90.5t133 33q73 0 128.5 -31.5t87 -87t31.5 -128.5q0 -75 -33 -133t-90.5 -91t-133.5 -33zM301 42q45 0 79 24t53.5 67t19.5 99q0 61 -20.5 107t-57 72.5t-84.5 26.5q-45 0 -79 -24t-53.5 -67t-19.5 -99
q0 -60 20.5 -106.5t57 -73t84.5 -26.5zM522 570l88 38q56 -147 -121 -215l-52 -20v38l48 20q26 11 38.5 29t12 45.5t-13.5 64.5zM266 550l-17 10l90 205h2l90 -59v-2z" />
    <glyph glyph-name="uni1EDC" unicode="&#x1edc;" horiz-adv-x="773" 
d="M380 -16q-98 0 -174 44.5t-118.5 124.5t-42.5 185q0 108 44.5 191t123 130t180.5 47q99 0 174.5 -44.5t118 -124t42.5 -185.5q0 -108 -44.5 -191t-123 -130t-180.5 -47zM398 41q69 0 119.5 35.5t78 100.5t27.5 154q0 98 -30.5 169t-86 110t-131.5 39q-69 0 -119.5 -35.5
t-78 -100.5t-27.5 -154q0 -97 30.5 -168.5t86 -110.5t131.5 -39zM573 820l94 24q16 -56 5.5 -97t-45 -63.5t-90.5 -22.5h-106v29h61q59 0 78.5 31.5t2.5 98.5zM453 739l-215 106v2l69 83h2l157 -177z" />
    <glyph glyph-name="uni1EDD" unicode="&#x1edd;" horiz-adv-x="592" 
d="M291 -12q-72 0 -128 31.5t-87.5 87.5t-31.5 128q0 76 33 133.5t91 90.5t133 33q73 0 128.5 -31.5t87 -87t31.5 -128.5q0 -75 -33 -133t-90.5 -91t-133.5 -33zM301 42q45 0 79 24t53.5 67t19.5 99q0 61 -20.5 107t-57 72.5t-84.5 26.5q-45 0 -79 -24t-53.5 -67t-19.5 -99
q0 -60 20.5 -106.5t57 -73t84.5 -26.5zM522 570l88 38q56 -147 -121 -215l-52 -20v38l48 20q26 11 38.5 29t12 45.5t-13.5 64.5zM327 550l-165 154v2l90 59h2l90 -205z" />
    <glyph glyph-name="uni1EDE" unicode="&#x1ede;" horiz-adv-x="773" 
d="M380 -16q-98 0 -174 44.5t-118.5 124.5t-42.5 185q0 108 44.5 191t123 130t180.5 47q99 0 174.5 -44.5t118 -124t42.5 -185.5q0 -108 -44.5 -191t-123 -130t-180.5 -47zM398 41q69 0 119.5 35.5t78 100.5t27.5 154q0 98 -30.5 169t-86 110t-131.5 39q-69 0 -119.5 -35.5
t-78 -100.5t-27.5 -154q0 -97 30.5 -168.5t86 -110.5t131.5 -39zM573 820l94 24q16 -56 5.5 -97t-45 -63.5t-90.5 -22.5h-106v29h61q59 0 78.5 31.5t2.5 98.5zM347 744l-5 19q66 9 66 48q0 19 -23 30t-62 11l-20 78q52 0 89.5 -11.5t58 -32.5t20.5 -50q0 -39 -36 -65.5
t-88 -26.5z" />
    <glyph glyph-name="uni1EDF" unicode="&#x1edf;" horiz-adv-x="592" 
d="M291 -12q-72 0 -128 31.5t-87.5 87.5t-31.5 128q0 76 33 133.5t91 90.5t133 33q73 0 128.5 -31.5t87 -87t31.5 -128.5q0 -75 -33 -133t-90.5 -91t-133.5 -33zM301 42q45 0 79 24t53.5 67t19.5 99q0 61 -20.5 107t-57 72.5t-84.5 26.5q-45 0 -79 -24t-53.5 -67t-19.5 -99
q0 -60 20.5 -106.5t57 -73t84.5 -26.5zM522 570l88 38q56 -147 -121 -215l-52 -20v38l48 20q26 11 38.5 29t12 45.5t-13.5 64.5zM257 558l-6 19q31 4 48.5 17t17.5 31q0 23 -24 37t-62 14l-19 74q73 0 119 -28t46 -72q0 -39 -35 -65.5t-85 -26.5z" />
    <glyph glyph-name="uni1EE0" unicode="&#x1ee0;" horiz-adv-x="773" 
d="M380 -16q-98 0 -174 44.5t-118.5 124.5t-42.5 185q0 108 44.5 191t123 130t180.5 47q99 0 174.5 -44.5t118 -124t42.5 -185.5q0 -108 -44.5 -191t-123 -130t-180.5 -47zM398 41q69 0 119.5 35.5t78 100.5t27.5 154q0 98 -30.5 169t-86 110t-131.5 39q-69 0 -119.5 -35.5
t-78 -100.5t-27.5 -154q0 -97 30.5 -168.5t86 -110.5t131.5 -39zM573 820l94 24q16 -56 5.5 -97t-45 -63.5t-90.5 -22.5h-106v29h61q59 0 78.5 31.5t2.5 98.5zM444 752q-34 0 -58 8.5t-46 17t-50 8.5q-22 0 -39.5 -8t-27.5 -24l-18 6q14 56 34.5 79.5t52.5 23.5
q35 0 58.5 -8.5t45.5 -17t50 -8.5q23 0 40 8t27 24l18 -6q-14 -55 -34.5 -79t-52.5 -24z" />
    <glyph glyph-name="uni1EE1" unicode="&#x1ee1;" horiz-adv-x="592" 
d="M291 -12q-72 0 -128 31.5t-87.5 87.5t-31.5 128q0 76 33 133.5t91 90.5t133 33q73 0 128.5 -31.5t87 -87t31.5 -128.5q0 -75 -33 -133t-90.5 -91t-133.5 -33zM301 42q45 0 79 24t53.5 67t19.5 99q0 61 -20.5 107t-57 72.5t-84.5 26.5q-45 0 -79 -24t-53.5 -67t-19.5 -99
q0 -60 20.5 -106.5t57 -73t84.5 -26.5zM522 570l88 38q56 -147 -121 -215l-52 -20v38l48 20q26 11 38.5 29t12 45.5t-13.5 64.5zM376 557q-34 0 -60.5 12.5t-51 25t-52.5 12.5q-27 0 -45 -12t-29 -36l-21 6q14 54 42 83.5t65 29.5q35 0 61 -12.5t50.5 -25t52.5 -12.5
q27 0 45.5 12t28.5 36l21 -6q-14 -54 -42 -83.5t-65 -29.5z" />
    <glyph glyph-name="uni1EE2" unicode="&#x1ee2;" horiz-adv-x="773" 
d="M380 -16q-98 0 -174 44.5t-118.5 124.5t-42.5 185q0 108 44.5 191t123 130t180.5 47q99 0 174.5 -44.5t118 -124t42.5 -185.5q0 -108 -44.5 -191t-123 -130t-180.5 -47zM398 41q69 0 119.5 35.5t78 100.5t27.5 154q0 98 -30.5 169t-86 110t-131.5 39q-69 0 -119.5 -35.5
t-78 -100.5t-27.5 -154q0 -97 30.5 -168.5t86 -110.5t131.5 -39zM573 820l94 24q16 -56 5.5 -97t-45 -63.5t-90.5 -22.5h-106v29h61q59 0 78.5 31.5t2.5 98.5zM380 -214q-31 0 -50 18.5t-19 47.5t19 47.5t50 18.5t50 -18.5t19 -47.5t-19 -47.5t-50 -18.5z" />
    <glyph glyph-name="uni1EE3" unicode="&#x1ee3;" horiz-adv-x="592" 
d="M291 -12q-72 0 -128 31.5t-87.5 87.5t-31.5 128q0 76 33 133.5t91 90.5t133 33q73 0 128.5 -31.5t87 -87t31.5 -128.5q0 -75 -33 -133t-90.5 -91t-133.5 -33zM301 42q45 0 79 24t53.5 67t19.5 99q0 61 -20.5 107t-57 72.5t-84.5 26.5q-45 0 -79 -24t-53.5 -67t-19.5 -99
q0 -60 20.5 -106.5t57 -73t84.5 -26.5zM522 570l88 38q56 -147 -121 -215l-52 -20v38l48 20q26 11 38.5 29t12 45.5t-13.5 64.5zM296 -214q-31 0 -50 18.5t-19 47.5t19 47.5t50 18.5t50 -18.5t19 -47.5t-19 -47.5t-50 -18.5z" />
    <glyph glyph-name="uni1EE4" unicode="&#x1ee4;" horiz-adv-x="699" 
d="M545 611l-89 63v16h241v-16l-79 -63v-322q0 -98 -30 -166t-88 -103.5t-141 -35.5q-139 0 -208.5 69.5t-69.5 208.5v353l-79 59v16h254v-16l-79 -59v-326q0 -127 44 -185t140 -58t140 58t44 185v322zM350 -214q-31 0 -50 18.5t-19 47.5t19 47.5t50 18.5t50 -18.5t19 -47.5
t-19 -47.5t-50 -18.5z" />
    <glyph glyph-name="uni1EE5" unicode="&#x1ee5;" horiz-adv-x="591" 
d="M242 -12q-77 0 -115.5 44.5t-38.5 133.5v235l43 -63l-109 80v15l133 51h23v-291q0 -71 22.5 -101t76.5 -30q44 0 80.5 19.5t72.5 61.5v-66h-17q-49 -50 -86 -69.5t-85 -19.5zM447 -12l-25 89h-9v324l43 -63l-114 80v15l138 51h23v-403l-41 57l107 -75v-15l-105 -60h-17z
M296 -214q-31 0 -50 18.5t-19 47.5t19 47.5t50 18.5t50 -18.5t19 -47.5t-19 -47.5t-50 -18.5z" />
    <glyph glyph-name="uni1EE6" unicode="&#x1ee6;" horiz-adv-x="699" 
d="M545 611l-89 63v16h241v-16l-79 -63v-322q0 -98 -30 -166t-88 -103.5t-141 -35.5q-139 0 -208.5 69.5t-69.5 208.5v353l-79 59v16h254v-16l-79 -59v-326q0 -127 44 -185t140 -58t140 58t44 185v322zM318 744l-5 19q66 9 66 48q0 19 -23 30t-62 11l-20 78q52 0 89.5 -11.5
t58 -32.5t20.5 -50q0 -39 -36 -65.5t-88 -26.5z" />
    <glyph glyph-name="uni1EE7" unicode="&#x1ee7;" horiz-adv-x="591" 
d="M242 -12q-77 0 -115.5 44.5t-38.5 133.5v235l43 -63l-109 80v15l133 51h23v-291q0 -71 22.5 -101t76.5 -30q44 0 80.5 19.5t72.5 61.5v-66h-17q-49 -50 -86 -69.5t-85 -19.5zM447 -12l-25 89h-9v324l43 -63l-114 80v15l138 51h23v-403l-41 57l107 -75v-15l-105 -60h-17z
M257 558l-6 19q31 4 48.5 17t17.5 31q0 23 -24 37t-62 14l-19 74q73 0 119 -28t46 -72q0 -39 -35 -65.5t-85 -26.5z" />
    <glyph glyph-name="uni1EE8" unicode="&#x1ee8;" horiz-adv-x="699" 
d="M359 -16q-139 0 -208.5 69.5t-69.5 208.5v353l-79 59v16h254v-16l-79 -59v-326q0 -127 44 -185t140 -58t140 58t44 185v322l-89 63v16h162v-401q0 -98 -30 -166t-88 -103.5t-141 -35.5zM643 820l94 24q16 -56 5.5 -97t-45 -63.5t-90.5 -22.5h-106v29h61q59 0 78.5 31.5
t2.5 98.5zM292 739l-13 14l157 177h2l69 -83v-2z" />
    <glyph glyph-name="uni1EE9" unicode="&#x1ee9;" horiz-adv-x="591" 
d="M242 -12q-77 0 -115.5 44.5t-38.5 133.5v235l43 -63l-109 80v15l133 51h23v-291q0 -71 22.5 -101t76.5 -30q44 0 80.5 19.5t72.5 61.5v-66h-17q-49 -50 -86 -69.5t-85 -19.5zM447 -12l-25 89h-9v324l43 -63l-114 80v15l138 51h23v-403l-41 57l107 -75v-15l-105 -60h-17z
M541 570l88 38q56 -147 -121 -215l-52 -20v38l48 20q26 11 38.5 29t12 45.5t-13.5 64.5zM266 550l-17 10l90 205h2l90 -59v-2z" />
    <glyph glyph-name="uni1EEA" unicode="&#x1eea;" horiz-adv-x="699" 
d="M359 -16q-139 0 -208.5 69.5t-69.5 208.5v353l-79 59v16h254v-16l-79 -59v-326q0 -127 44 -185t140 -58t140 58t44 185v322l-89 63v16h162v-401q0 -98 -30 -166t-88 -103.5t-141 -35.5zM643 820l94 24q16 -56 5.5 -97t-45 -63.5t-90.5 -22.5h-106v29h61q59 0 78.5 31.5
t2.5 98.5zM424 739l-215 106v2l69 83h2l157 -177z" />
    <glyph glyph-name="uni1EEB" unicode="&#x1eeb;" horiz-adv-x="591" 
d="M242 -12q-77 0 -115.5 44.5t-38.5 133.5v235l43 -63l-109 80v15l133 51h23v-291q0 -71 22.5 -101t76.5 -30q44 0 80.5 19.5t72.5 61.5v-66h-17q-49 -50 -86 -69.5t-85 -19.5zM447 -12l-25 89h-9v324l43 -63l-114 80v15l138 51h23v-403l-41 57l107 -75v-15l-105 -60h-17z
M541 570l88 38q56 -147 -121 -215l-52 -20v38l48 20q26 11 38.5 29t12 45.5t-13.5 64.5zM327 550l-165 154v2l90 59h2l90 -205z" />
    <glyph glyph-name="uni1EEC" unicode="&#x1eec;" horiz-adv-x="699" 
d="M359 -16q-139 0 -208.5 69.5t-69.5 208.5v353l-79 59v16h254v-16l-79 -59v-326q0 -127 44 -185t140 -58t140 58t44 185v322l-89 63v16h162v-401q0 -98 -30 -166t-88 -103.5t-141 -35.5zM643 820l94 24q16 -56 5.5 -97t-45 -63.5t-90.5 -22.5h-106v29h61q59 0 78.5 31.5
t2.5 98.5zM318 744l-5 19q66 9 66 48q0 19 -23 30t-62 11l-20 78q52 0 89.5 -11.5t58 -32.5t20.5 -50q0 -39 -36 -65.5t-88 -26.5z" />
    <glyph glyph-name="uni1EED" unicode="&#x1eed;" horiz-adv-x="591" 
d="M242 -12q-77 0 -115.5 44.5t-38.5 133.5v235l43 -63l-109 80v15l133 51h23v-291q0 -71 22.5 -101t76.5 -30q44 0 80.5 19.5t72.5 61.5v-66h-17q-49 -50 -86 -69.5t-85 -19.5zM447 -12l-25 89h-9v324l43 -63l-114 80v15l138 51h23v-403l-41 57l107 -75v-15l-105 -60h-17z
M541 570l88 38q56 -147 -121 -215l-52 -20v38l48 20q26 11 38.5 29t12 45.5t-13.5 64.5zM257 558l-6 19q31 4 48.5 17t17.5 31q0 23 -24 37t-62 14l-19 74q73 0 119 -28t46 -72q0 -39 -35 -65.5t-85 -26.5z" />
    <glyph glyph-name="uni1EEE" unicode="&#x1eee;" horiz-adv-x="699" 
d="M359 -16q-139 0 -208.5 69.5t-69.5 208.5v353l-79 59v16h254v-16l-79 -59v-326q0 -127 44 -185t140 -58t140 58t44 185v322l-89 63v16h162v-401q0 -98 -30 -166t-88 -103.5t-141 -35.5zM643 820l94 24q16 -56 5.5 -97t-45 -63.5t-90.5 -22.5h-106v29h61q59 0 78.5 31.5
t2.5 98.5zM452 752q-34 0 -58 8.5t-46 17t-50 8.5q-22 0 -39.5 -8t-27.5 -24l-18 6q14 56 34.5 79.5t52.5 23.5q35 0 58.5 -8.5t45.5 -17t50 -8.5q23 0 40 8t27 24l18 -6q-14 -55 -34.5 -79t-52.5 -24z" />
    <glyph glyph-name="uni1EEF" unicode="&#x1eef;" horiz-adv-x="591" 
d="M242 -12q-77 0 -115.5 44.5t-38.5 133.5v235l43 -63l-109 80v15l133 51h23v-291q0 -71 22.5 -101t76.5 -30q44 0 80.5 19.5t72.5 61.5v-66h-17q-49 -50 -86 -69.5t-85 -19.5zM447 -12l-25 89h-9v324l43 -63l-114 80v15l138 51h23v-403l-41 57l107 -75v-15l-105 -60h-17z
M541 570l88 38q56 -147 -121 -215l-52 -20v38l48 20q26 11 38.5 29t12 45.5t-13.5 64.5zM376 557q-34 0 -60.5 12.5t-51 25t-52.5 12.5q-27 0 -45 -12t-29 -36l-21 6q14 54 42 83.5t65 29.5q35 0 61 -12.5t50.5 -25t52.5 -12.5q27 0 45.5 12t28.5 36l21 -6
q-14 -54 -42 -83.5t-65 -29.5z" />
    <glyph glyph-name="uni1EF0" unicode="&#x1ef0;" horiz-adv-x="699" 
d="M359 -16q-139 0 -208.5 69.5t-69.5 208.5v353l-79 59v16h254v-16l-79 -59v-326q0 -127 44 -185t140 -58t140 58t44 185v322l-89 63v16h162v-401q0 -98 -30 -166t-88 -103.5t-141 -35.5zM643 820l94 24q16 -56 5.5 -97t-45 -63.5t-90.5 -22.5h-106v29h61q59 0 78.5 31.5
t2.5 98.5zM350 -214q-31 0 -50 18.5t-19 47.5t19 47.5t50 18.5t50 -18.5t19 -47.5t-19 -47.5t-50 -18.5z" />
    <glyph glyph-name="uni1EF1" unicode="&#x1ef1;" horiz-adv-x="591" 
d="M242 -12q-77 0 -115.5 44.5t-38.5 133.5v235l43 -63l-109 80v15l133 51h23v-291q0 -71 22.5 -101t76.5 -30q44 0 80.5 19.5t72.5 61.5v-66h-17q-49 -50 -86 -69.5t-85 -19.5zM447 -12l-25 89h-9v324l43 -63l-114 80v15l138 51h23v-403l-41 57l107 -75v-15l-105 -60h-17z
M541 570l88 38q56 -147 -121 -215l-52 -20v38l48 20q26 11 38.5 29t12 45.5t-13.5 64.5zM296 -214q-31 0 -50 18.5t-19 47.5t19 47.5t50 18.5t50 -18.5t19 -47.5t-19 -47.5t-50 -18.5z" />
    <glyph glyph-name="Ygrave" unicode="&#x1ef2;" horiz-adv-x="676" 
d="M317 208l-286 469l56 -78l-85 75v16h253v-16l-138 -94l20 97l231 -377h-6l180 377l20 -92l-128 89v16h240v-16l-81 -72l54 75l-296 -469h-34zM212 0v16l79 59v210h96v-210l79 -59v-16h-254zM409 739l-215 106v2l69 83h2l157 -177z" />
    <glyph glyph-name="ygrave" unicode="&#x1ef3;" horiz-adv-x="556" 
d="M258 -56l-223 508h33v-59l-66 73v14h213v-14l-71 -58h-10v35l176 -402h-34l159 411v-44h-11l-73 58v14h203v-14l-66 -70v56h33l-352 -703h-16l-81 81v13l187 157zM318 550l-165 154v2l90 59h2l90 -205z" />
    <glyph glyph-name="uni1EF4" unicode="&#x1ef4;" horiz-adv-x="676" 
d="M317 208l-286 469l56 -78l-85 75v16h253v-16l-138 -94l20 97l231 -377h-6l180 377l20 -92l-128 89v16h240v-16l-81 -72l54 75l-296 -469h-34zM212 0v16l79 59v210h96v-210l79 -59v-16h-254zM338 -214q-31 0 -50 18.5t-19 47.5t19 47.5t50 18.5t50 -18.5t19 -47.5
t-19 -47.5t-50 -18.5z" />
    <glyph glyph-name="uni1EF5" unicode="&#x1ef5;" horiz-adv-x="556" 
d="M258 -56l-223 508h33v-59l-66 73v14h213v-14l-71 -58h-10v35l176 -402h-34l159 411v-44h-11l-73 58v14h203v-14l-66 -70v56h33l-352 -703h-16l-81 81v13l187 157zM358 -214q-31 0 -50 18.5t-19 47.5t19 47.5t50 18.5t50 -18.5t19 -47.5t-19 -47.5t-50 -18.5z" />
    <glyph glyph-name="uni1EF6" unicode="&#x1ef6;" horiz-adv-x="676" 
d="M317 208l-286 469l56 -78l-85 75v16h253v-16l-138 -94l20 97l231 -377h-6l180 377l20 -92l-128 89v16h240v-16l-81 -72l54 75l-296 -469h-34zM212 0v16l79 59v210h96v-210l79 -59v-16h-254zM303 744l-5 19q66 9 66 48q0 19 -23 30t-62 11l-20 78q52 0 89.5 -11.5
t58 -32.5t20.5 -50q0 -39 -36 -65.5t-88 -26.5z" />
    <glyph glyph-name="uni1EF7" unicode="&#x1ef7;" horiz-adv-x="556" 
d="M258 -56l-223 508h33v-59l-66 73v14h213v-14l-71 -58h-10v35l176 -402h-34l159 411v-44h-11l-73 58v14h203v-14l-66 -70v56h33l-352 -703h-16l-81 81v13l187 157zM248 558l-6 19q31 4 48.5 17t17.5 31q0 23 -24 37t-62 14l-19 74q73 0 119 -28t46 -72q0 -39 -35 -65.5
t-85 -26.5z" />
    <glyph glyph-name="uni1EF8" unicode="&#x1ef8;" horiz-adv-x="676" 
d="M317 208l-286 469l56 -78l-85 75v16h253v-16l-138 -94l20 97l231 -377h-6l180 377l20 -92l-128 89v16h240v-16l-81 -72l54 75l-296 -469h-34zM212 0v16l79 59v210h96v-210l79 -59v-16h-254zM418 752q-34 0 -60.5 9t-51 18t-52.5 9q-51 0 -74 -34l-21 6q13 50 41 76.5
t66 26.5q35 0 61 -9t50.5 -18t52.5 -9q51 0 74 34l21 -6q-13 -49 -41 -76t-66 -27z" />
    <glyph glyph-name="uni1EF9" unicode="&#x1ef9;" horiz-adv-x="556" 
d="M258 -56l-223 508h33v-59l-66 73v14h213v-14l-71 -58h-10v35l176 -402h-34l159 411v-44h-11l-73 58v14h203v-14l-66 -70v56h33l-352 -703h-16l-81 81v13l187 157zM367 557q-34 0 -60.5 12.5t-51 25t-52.5 12.5q-27 0 -45 -12t-29 -36l-21 6q14 54 42 83.5t65 29.5
q35 0 61 -12.5t50.5 -25t52.5 -12.5q27 0 45.5 12t28.5 36l21 -6q-14 -54 -42 -83.5t-65 -29.5z" />
    <glyph glyph-name="uni2000" unicode="&#x2000;" horiz-adv-x="500" 
 />
    <glyph glyph-name="uni2001" unicode="&#x2001;" horiz-adv-x="1000" 
 />
    <glyph glyph-name="uni2002" unicode="&#x2002;" horiz-adv-x="500" 
 />
    <glyph glyph-name="uni2003" unicode="&#x2003;" horiz-adv-x="1000" 
 />
    <glyph glyph-name="uni2004" unicode="&#x2004;" horiz-adv-x="333" 
 />
    <glyph glyph-name="uni2005" unicode="&#x2005;" horiz-adv-x="250" 
 />
    <glyph glyph-name="uni2006" unicode="&#x2006;" horiz-adv-x="166" 
 />
    <glyph glyph-name="uni2007" unicode="&#x2007;" horiz-adv-x="690" 
 />
    <glyph glyph-name="uni2008" unicode="&#x2008;" horiz-adv-x="284" 
 />
    <glyph glyph-name="uni2009" unicode="&#x2009;" horiz-adv-x="125" 
 />
    <glyph glyph-name="uni200A" unicode="&#x200a;" horiz-adv-x="70" 
 />
    <glyph glyph-name="uni200B" unicode="&#x200b;" 
 />
    <glyph glyph-name="endash" unicode="&#x2013;" horiz-adv-x="540" 
d="M20 219v60h500v-60h-500z" />
    <glyph glyph-name="emdash" unicode="&#x2014;" horiz-adv-x="940" 
d="M20 219v60h900v-60h-900z" />
    <glyph glyph-name="uni2016" unicode="&#x2016;" horiz-adv-x="334" 
d="M206 -275v1080h48v-1080h-48zM80 -275v1080h48v-1080h-48z" />
    <glyph glyph-name="quoteleft" unicode="&#x2018;" horiz-adv-x="285" 
d="M220 709l8 -27q-37 -14 -59 -43.5t-22 -65.5l71 -48v-12q0 -31 -21 -51.5t-55 -20.5t-55 23.5t-21 60.5q0 45 20 83.5t54.5 65t79.5 35.5z" />
    <glyph glyph-name="quoteright" unicode="&#x2019;" horiz-adv-x="285" 
d="M65 438l-8 27q38 14 59.5 43.5t21.5 65.5l-71 48v12q0 32 21 52t55 20t55 -23.5t21 -60.5q0 -45 -19.5 -83.5t-54.5 -65t-80 -35.5z" />
    <glyph glyph-name="quotesinglbase" unicode="&#x201a;" horiz-adv-x="285" 
d="M65 -136l-8 27q38 14 59.5 43.5t21.5 65.5l-71 48v12q0 32 21 52t55 20t55 -23.5t21 -60.5q0 -45 -19.5 -83.5t-54.5 -65t-80 -35.5z" />
    <glyph glyph-name="quotedblleft" unicode="&#x201c;" horiz-adv-x="487" 
d="M422 709l8 -27q-37 -14 -59 -43.5t-22 -65.5l71 -48v-12q0 -31 -21 -51.5t-55 -20.5t-55 23.5t-21 60.5q0 45 20 83.5t54.5 65t79.5 35.5zM220 709l8 -27q-37 -14 -59 -43.5t-22 -65.5l71 -48v-12q0 -31 -21 -51.5t-55 -20.5t-55 23.5t-21 60.5q0 45 20 83.5t54.5 65
t79.5 35.5z" />
    <glyph glyph-name="quotedblright" unicode="&#x201d;" horiz-adv-x="487" 
d="M267 438l-8 27q38 14 59.5 43.5t21.5 65.5l-71 48v12q0 32 21 52t55 20t55 -23.5t21 -60.5q0 -45 -19.5 -83.5t-54.5 -65t-80 -35.5zM65 438l-8 27q38 14 59.5 43.5t21.5 65.5l-71 48v12q0 32 21 52t55 20t55 -23.5t21 -60.5q0 -45 -19.5 -83.5t-54.5 -65t-80 -35.5z" />
    <glyph glyph-name="quotedblbase" unicode="&#x201e;" horiz-adv-x="485" 
d="M265 -136l-8 27q38 14 59.5 43.5t21.5 65.5l-71 48v12q0 32 21 52t55 20t55 -23.5t21 -60.5q0 -45 -19.5 -83.5t-54.5 -65t-80 -35.5zM65 -136l-8 27q38 14 59.5 43.5t21.5 65.5l-71 48v12q0 32 21 52t55 20t55 -23.5t21 -60.5q0 -45 -19.5 -83.5t-54.5 -65t-80 -35.5z
" />
    <glyph glyph-name="dagger" unicode="&#x2020;" horiz-adv-x="404" 
d="M197 -78l-37 367q-4 40 -2 64.5t9 47.5l21 66l-136 -39l-8 7v92l8 7l136 -39l-42 187l7 8h98l7 -8l-42 -187l136 39l8 -7v-92l-8 -7l-136 39l21 -66q8 -24 9.5 -48.5t-2.5 -63.5l-37 -367h-10z" />
    <glyph glyph-name="daggerdbl" unicode="&#x2021;" horiz-adv-x="404" 
d="M153 -78l-7 8l42 187l-136 -39l-8 7v92l8 7l136 -39l-17 66q-13 53 -13 95t13 95l17 66l-136 -39l-8 7v92l8 7l136 -39l-42 187l7 8h98l7 -8l-42 -187l136 39l8 -7v-92l-8 -7l-136 39l17 -66q14 -53 14 -95t-14 -95l-17 -66l136 39l8 -7v-92l-8 -7l-136 39l42 -187l-7 -8
h-98z" />
    <glyph glyph-name="bullet" unicode="&#x2022;" horiz-adv-x="348" 
d="M174 157q-30 0 -54.5 14.5t-39 39t-14.5 54.5q0 31 14.5 55.5t39 39t54.5 14.5t54.5 -14.5t39 -39t14.5 -54.5t-14.5 -55t-39 -39.5t-54.5 -14.5z" />
    <glyph glyph-name="ellipsis" unicode="&#x2026;" horiz-adv-x="860" 
d="M430 -12q-34 0 -55 20.5t-21 51.5q0 32 21 52t55 20t55 -20t21 -52q0 -31 -21 -51.5t-55 -20.5zM718 -12q-34 0 -55 20.5t-21 51.5q0 32 21 52t55 20t55 -20t21 -52q0 -31 -21 -51.5t-55 -20.5zM142 -12q-34 0 -55 20.5t-21 51.5q0 32 21 52t55 20t55 -20t21 -52
q0 -31 -21 -51.5t-55 -20.5z" />
    <glyph glyph-name="uni202F" unicode="&#x202f;" horiz-adv-x="53" 
 />
    <glyph glyph-name="perthousand" unicode="&#x2030;" horiz-adv-x="1236" 
d="M112 0l566 690h59l-566 -690h-59zM216 317q-50 0 -89 23t-61 63.5t-22 93.5q0 60 22 106t61 72.5t89 26.5q51 0 89.5 -23t60.5 -63.5t22 -93.5q0 -60 -22 -106.5t-60.5 -72.5t-89.5 -26zM216 354q47 0 72.5 39.5t25.5 112.5q0 74 -26.5 116.5t-71.5 42.5
q-47 0 -72.5 -39.5t-25.5 -112.5t26.5 -116t71.5 -43zM633 -12q-50 0 -89 23t-61 63.5t-22 93.5q0 60 22 106.5t61 72.5t89 26q51 0 89.5 -23t60.5 -63.5t22 -93.5q0 -60 -22 -106t-60.5 -72.5t-89.5 -26.5zM633 25q47 0 72.5 39.5t25.5 112.5q0 74 -26.5 116.5t-71.5 42.5
q-47 0 -72.5 -39.5t-25.5 -112.5t26.5 -116t71.5 -43zM1020 -12q-50 0 -89 23t-61 63.5t-22 93.5q0 60 22 106.5t61 72.5t89 26q51 0 89.5 -23t60.5 -63.5t22 -93.5q0 -60 -22 -106t-60.5 -72.5t-89.5 -26.5zM1020 25q47 0 72.5 39.5t25.5 112.5q0 74 -26.5 116.5
t-71.5 42.5q-47 0 -72.5 -39.5t-25.5 -112.5t26.5 -116t71.5 -43z" />
    <glyph glyph-name="minute" unicode="&#x2032;" horiz-adv-x="234" 
d="M44 514l34 183l3 4h106l3 -4l-106 -183h-40z" />
    <glyph glyph-name="second" unicode="&#x2033;" horiz-adv-x="375" 
d="M185 514l34 183l3 4h106l3 -4l-106 -183h-40zM44 514l34 183l3 4h106l3 -4l-106 -183h-40z" />
    <glyph glyph-name="guilsinglleft" unicode="&#x2039;" horiz-adv-x="275" 
d="M211 139l-189 212v8l189 212l20 -13l-100 -203l100 -203z" />
    <glyph glyph-name="guilsinglright" unicode="&#x203a;" horiz-adv-x="275" 
d="M64 139l-20 13l100 203l-100 203l20 13l189 -212v-8z" />
    <glyph glyph-name="fraction" unicode="&#x2044;" horiz-adv-x="35" 
d="M-295 0l566 690h59l-566 -690h-59z" />
    <glyph glyph-name="uni205F" unicode="&#x205f;" horiz-adv-x="222" 
 />
    <glyph glyph-name="uni2070" unicode="&#x2070;" horiz-adv-x="432" 
d="M216 392q-50 0 -89 23t-61 63.5t-22 93.5q0 60 22 106.5t61 72.5t89 26q51 0 89.5 -23t60.5 -63.5t22 -93.5q0 -60 -22 -106t-60.5 -72.5t-89.5 -26.5zM216 429q47 0 72.5 39.5t25.5 112.5q0 74 -26.5 116.5t-71.5 42.5q-47 0 -72.5 -39.5t-25.5 -112.5t26.5 -116
t71.5 -43z" />
    <glyph glyph-name="uni2074" unicode="&#x2074;" horiz-adv-x="361" 
d="M35 501l-10 15l149 249h82v-7l-199 -240l-4 -17h-18zM35 501l17 34h294v-34h-311zM137 404v8l56 34v177h65v-177l57 -34v-8h-178z" />
    <glyph glyph-name="uni2075" unicode="&#x2075;" horiz-adv-x="377" 
d="M179 392q-74 0 -135 44l34 69h8l63 -91l-52 5l-8 61q9 -25 33.5 -39.5t56.5 -14.5q41 0 63 21t22 61q0 38 -23 59t-66 21q-50 0 -90 -26l-12 11l13 192h180l44 34h9l-8 -89h-213l33 27l-10 -142l-16 6q19 14 43 20.5t52 6.5q59 0 96 -31t37 -81q0 -55 -43 -89.5
t-111 -34.5z" />
    <glyph glyph-name="uni2076" unicode="&#x2076;" horiz-adv-x="383" 
d="M196 392q-73 0 -112.5 49.5t-39.5 141.5q0 57 21.5 101t60 68.5t87.5 24.5q61 0 116 -34l-36 -67h-9l-48 77l40 5l13 -49q-31 34 -78 34q-45 0 -71 -42.5t-26 -115.5q0 -77 22 -119t63 -42q32 0 50.5 22.5t18.5 59.5q0 43 -18.5 64.5t-56.5 21.5q-30 0 -55.5 -19
t-39.5 -52l-7 33q15 34 47.5 55.5t69.5 21.5q60 0 95.5 -31.5t35.5 -85.5q0 -34 -19 -61.5t-51.5 -44t-72.5 -16.5z" />
    <glyph glyph-name="uni2077" unicode="&#x2077;" horiz-adv-x="323" 
d="M86 404l186 330v-24h-175l-45 -52h-8l-14 107h273l10 -18l-143 -343h-84z" />
    <glyph glyph-name="uni2078" unicode="&#x2078;" horiz-adv-x="391" 
d="M196 392q-67 0 -109.5 29t-42.5 74q0 37 31.5 62t98.5 42l4 -17q-31 -10 -48.5 -31.5t-17.5 -48.5q0 -37 22.5 -57t63.5 -20q33 0 55.5 21t22.5 51q0 22 -16 34.5t-41 20t-52.5 15t-52.5 19t-41 32t-16 55.5q0 46 39 75t100 29q63 0 100 -25t37 -69q0 -31 -32.5 -55.5
t-92.5 -38.5l-4 15q63 23 63 73q0 30 -21 49t-54 19q-27 0 -45.5 -18t-18.5 -44q0 -22 16 -34t41 -19.5t52.5 -15t52.5 -19t41 -32t16 -55.5q0 -51 -42 -83.5t-109 -32.5z" />
    <glyph glyph-name="uni2079" unicode="&#x2079;" horiz-adv-x="383" 
d="M187 777q73 0 112.5 -49.5t39.5 -141.5q0 -57 -21.5 -100.5t-59.5 -68.5t-88 -25q-61 0 -116 34l36 67h9l48 -77l-40 -5l-13 49q31 -34 78 -34q45 0 71 42.5t26 115.5q0 77 -22 119t-63 42q-31 0 -50 -22t-19 -60q0 -43 19 -64.5t56 -21.5q30 0 55.5 19t39.5 52l7 -33
q-15 -34 -47.5 -55.5t-69.5 -21.5q-60 0 -95.5 31.5t-35.5 85.5q0 34 19 61.5t51.5 44t72.5 16.5z" />
    <glyph glyph-name="uni2080" unicode="&#x2080;" horiz-adv-x="432" 
d="M216 -132q-50 0 -89 23t-61 63.5t-22 93.5q0 60 22 106.5t61 72.5t89 26q51 0 89.5 -23t60.5 -63.5t22 -93.5q0 -60 -22 -106t-60.5 -72.5t-89.5 -26.5zM216 -95q47 0 72.5 39.5t25.5 112.5q0 74 -26.5 116.5t-71.5 42.5q-47 0 -72.5 -39.5t-25.5 -112.5t26.5 -116
t71.5 -43z" />
    <glyph glyph-name="uni2081" unicode="&#x2081;" horiz-adv-x="262" 
d="M36 -120v8l65 34v249h-69l-2 7l130 75h6v-331l66 -34v-8h-196z" />
    <glyph glyph-name="uni2082" unicode="&#x2082;" horiz-adv-x="360" 
d="M55 -120l-10 18l71 70q43 42 69 74.5t38 58.5t12 50q0 30 -19 49t-48 19q-25 0 -47 -8.5t-37 -25.5l12 50h47l-56 -86h-9l-34 67q21 17 57.5 27t71.5 10q59 0 96 -25.5t37 -65.5q0 -22 -10.5 -44.5t-35 -51.5t-66.5 -69l-91 -86v24h150l55 52h8l-10 -107h-251z" />
    <glyph glyph-name="uni2083" unicode="&#x2083;" horiz-adv-x="375" 
d="M175 -132q-34 0 -69.5 11t-61.5 30l35 65h8l59 -88l-48 6l-12 55q22 -45 89 -45q35 0 59 22.5t24 54.5q0 35 -26.5 57t-67.5 22v27q80 0 123.5 -25.5t43.5 -72.5q0 -52 -43.5 -85.5t-112.5 -33.5zM164 73v17q36 0 59 20t23 51q0 27 -19 42.5t-52 15.5q-45 0 -79 -29l7 52
h54l-59 -84h-8l-34 64q45 31 125 31q59 0 96.5 -24.5t37.5 -62.5q0 -43 -40.5 -68t-110.5 -25z" />
    <glyph glyph-name="uni2084" unicode="&#x2084;" horiz-adv-x="361" 
d="M35 -23l-10 15l149 249h82v-7l-199 -240l-4 -17h-18zM35 -23l17 34h294v-34h-311zM137 -120v8l56 34v177h65v-177l57 -34v-8h-178z" />
    <glyph glyph-name="uni2085" unicode="&#x2085;" horiz-adv-x="377" 
d="M179 -132q-74 0 -135 44l34 69h8l63 -91l-52 5l-8 61q9 -25 33.5 -39.5t56.5 -14.5q41 0 63 21t22 61q0 38 -23 59t-66 21q-50 0 -90 -26l-12 11l13 192h180l44 34h9l-8 -89h-213l33 27l-10 -142l-16 6q19 14 43 20.5t52 6.5q59 0 96 -31t37 -81q0 -55 -43 -89.5
t-111 -34.5z" />
    <glyph glyph-name="uni2086" unicode="&#x2086;" horiz-adv-x="383" 
d="M196 -132q-73 0 -112.5 49.5t-39.5 141.5q0 57 21.5 101t60 68.5t87.5 24.5q61 0 116 -34l-36 -67h-9l-48 77l40 5l13 -49q-31 34 -78 34q-45 0 -71 -42.5t-26 -115.5q0 -77 22 -119t63 -42q32 0 50.5 22.5t18.5 59.5q0 43 -18.5 64.5t-56.5 21.5q-30 0 -55.5 -19
t-39.5 -52l-7 33q15 34 47.5 55.5t69.5 21.5q60 0 95.5 -31.5t35.5 -85.5q0 -34 -19 -61.5t-51.5 -44t-72.5 -16.5z" />
    <glyph glyph-name="uni2087" unicode="&#x2087;" horiz-adv-x="323" 
d="M86 -120l186 330v-24h-175l-45 -52h-8l-14 107h273l10 -18l-143 -343h-84z" />
    <glyph glyph-name="uni2088" unicode="&#x2088;" horiz-adv-x="391" 
d="M196 -132q-67 0 -109.5 29t-42.5 74q0 37 31.5 62t98.5 42l4 -17q-31 -10 -48.5 -31.5t-17.5 -48.5q0 -37 22.5 -57t63.5 -20q33 0 55.5 21t22.5 51q0 22 -16 34.5t-41 20t-52.5 15t-52.5 19t-41 32t-16 55.5q0 46 39 75t100 29q63 0 100 -25t37 -69q0 -31 -32.5 -55.5
t-92.5 -38.5l-4 15q63 23 63 73q0 30 -21 49t-54 19q-27 0 -45.5 -18t-18.5 -44q0 -22 16 -34t41 -19.5t52.5 -15t52.5 -19t41 -32t16 -55.5q0 -51 -42 -83.5t-109 -32.5z" />
    <glyph glyph-name="uni2089" unicode="&#x2089;" horiz-adv-x="383" 
d="M187 253q73 0 112.5 -49.5t39.5 -141.5q0 -57 -21.5 -100.5t-59.5 -68.5t-88 -25q-61 0 -116 34l36 67h9l48 -77l-40 -5l-13 49q31 -34 78 -34q45 0 71 42.5t26 115.5q0 77 -22 119t-63 42q-31 0 -50 -22t-19 -60q0 -43 19 -64.5t56 -21.5q30 0 55.5 19t39.5 52l7 -33
q-15 -34 -47.5 -55.5t-69.5 -21.5q-60 0 -95.5 31.5t-35.5 85.5q0 34 19 61.5t51.5 44t72.5 16.5z" />
    <glyph glyph-name="colonmonetary" unicode="&#x20a1;" horiz-adv-x="601" 
d="M333 -16q-88 0 -153 41t-100 116t-35 177q0 108 39.5 191t110 130t161.5 47q95 0 200 -57l-67 -117h-16l-98 140h115v-95q-31 39 -63 55.5t-79 16.5q-95 0 -146.5 -75t-51.5 -215q0 -91 26 -157.5t74.5 -102.5t113.5 -36q49 0 87.5 18.5t73.5 58.5l27 -16
q-32 -58 -88.5 -89t-130.5 -31zM170 -107l145 884h43l-145 -884h-43zM273 -107l145 884h43l-145 -884h-43z" />
    <glyph glyph-name="uni20A6" unicode="&#x20a6;" horiz-adv-x="714" 
d="M573 -6l-439 571v105h33l415 -541h-21l-38 466l-79 59v16h240v-16l-79 -59v-601h-32zM30 0v16l79 59l12 502l-69 77v16h106l33 -595l79 -59v-16h-240zM30 319v44h654v-44h-654z" />
    <glyph glyph-name="uni20A8" unicode="&#x20a8;" horiz-adv-x="1077" 
d="M30 0v16l79 59v520l-79 59v16h175v-595l79 -59v-16h-254zM473 0l-190 307l91 28l199 -322l-84 94l128 -91v-16h-144zM170 280v50h127q71 0 113 39.5t42 106.5q0 66 -42 105t-113 39h-155v50h165q115 0 182 -49.5t67 -134.5q0 -89 -63 -141.5t-171 -52.5h-6v-12h-146z
M821 -12q-37 0 -75.5 7.5t-73 20.5t-61.5 32l51 101h16l89 -128h-67l-6 73q26 -30 57.5 -43.5t73.5 -13.5q54 0 88 24t34 61q0 30 -22.5 47t-57.5 27.5t-74.5 20t-74.5 25t-57.5 41.5t-22.5 70q0 64 54 101.5t145 37.5q34 0 67.5 -6t65 -17t57.5 -27l-51 -101h-16l-98 128
h76l6 -73q-19 22 -49 34.5t-62 12.5q-50 0 -79.5 -19t-29.5 -51q0 -30 22.5 -46.5t57.5 -26.5t74.5 -19.5t74.5 -25t57.5 -42t22.5 -71.5q0 -74 -55 -114t-157 -40z" />
    <glyph glyph-name="uni20A9" unicode="&#x20a9;" horiz-adv-x="993" 
d="M675 -12l-202 546v48l-119 72v16h287v-16l-129 -78l13 78l212 -572h-39l158 575l20 -83l-129 80v16h244v-16l-85 -81l45 84l-249 -669h-27zM286 -12l-248 664l40 -76l-76 78v16h245v-16l-129 -83l18 83l212 -572h-39l158 575h95l-249 -669h-27zM48 293v44h892v-44h-892z
" />
    <glyph glyph-name="uni20AA" unicode="&#x20aa;" horiz-adv-x="712" 
d="M396 243v221q0 75 -49 115.5t-141 40.5h-87v50h87q137 0 211.5 -53.5t74.5 -152.5v-221h-96zM44 0v670h96v-670h-96zM506 0q-137 0 -211.5 53.5t-74.5 152.5v221h96v-221q0 -75 49.5 -115.5t140.5 -40.5h87v-50h-87zM572 0v670h96v-670h-96z" />
    <glyph glyph-name="dong" unicode="&#x20ab;" horiz-adv-x="528" 
d="M382 95l-25 76h-7v504l43 -63l-116 82v15l140 56h23v-577l-41 57l107 -75v-15l-107 -60h-17zM210 95q-48 0 -85.5 24t-59 66.5t-21.5 97.5q0 59 29.5 106t80 75t112.5 28q61 0 119 -33v-78q-30 32 -59 45.5t-70 13.5q-52 0 -86 -38.5t-34 -100.5q0 -67 28.5 -102.5
t81.5 -35.5q37 0 63 14.5t56 51.5v-58h-15q-20 -35 -58 -55.5t-82 -20.5zM218 539v44h288v-44h-288zM62 0v44h444v-44h-444z" />
    <glyph glyph-name="Euro" unicode="&#x20ac;" horiz-adv-x="661" 
d="M393 -16q-88 0 -153 41t-100 116t-35 177q0 108 39.5 191t110 130t161.5 47q95 0 200 -57l-67 -117h-16l-98 140h115v-95q-31 39 -63 55.5t-79 16.5q-95 0 -146.5 -75t-51.5 -215q0 -91 26 -157.5t74.5 -102.5t113.5 -36q49 0 87.5 18.5t73.5 58.5l27 -16
q-32 -58 -88.5 -89t-130.5 -31zM45 372v44h448l-15 -44h-433zM45 268v44h412l-15 -44h-397z" />
    <glyph glyph-name="uni20AD" unicode="&#x20ad;" horiz-adv-x="668" 
d="M324 325l-40 27l220 305l-22 -87l-81 84v16h265v-16l-145 -88l74 58zM30 0v16l79 59v520l-79 59v16h254v-16l-79 -59v-520l79 -59v-16h-254zM419 0v16l82 85l16 -85l-258 314l101 23l278 -340l-92 95l120 -92v-16h-247zM30 313v44h512v-44h-512z" />
    <glyph glyph-name="uni20AE" unicode="&#x20ae;" horiz-adv-x="640" 
d="M183 0v16l89 59v550l-106 -9l-105 -103h-16v157h550v-157h-16l-105 103l-106 9v-550l89 -59v-16h-274zM159 180v48l321 151v-48zM159 302v48l321 151v-48z" />
    <glyph glyph-name="uni20B1" unicode="&#x20b1;" horiz-adv-x="600" 
d="M30 0v16l79 59v520l-79 59v16h175v-595l94 -59v-16h-269zM267 244h-97v50h107q68 0 111.5 45.5t43.5 117.5q0 75 -42 119t-113 44h-135v50h145q77 0 132.5 -24.5t86 -70t30.5 -107.5q0 -66 -34.5 -116.5t-95 -79t-139.5 -28.5zM30 489v44h568v-44h-568zM30 381v44h568
v-44h-568z" />
    <glyph glyph-name="uni20B2" unicode="&#x20b2;" horiz-adv-x="726" 
d="M384 -16q-104 0 -180 41.5t-117.5 117.5t-41.5 180q0 76 26 142t72.5 115.5t108.5 77.5t134 28q48 0 97 -8.5t91.5 -23.5t69.5 -35l-71 -113h-16l-112 149h95l5 -87q-31 32 -71 46.5t-96 14.5q-67 0 -118.5 -36.5t-80.5 -100.5t-29 -148q0 -145 61.5 -223t176.5 -78
q50 0 88.5 20t60 54.5t21.5 79.5l35 -20q-9 -56 -38.5 -100t-73.5 -68.5t-97 -24.5zM357 -107v884h46v-884h-46zM617 -16l-86 75v193l-69 64v16h234v-16l-69 -59v-273h-10z" />
    <glyph glyph-name="uni20B4" unicode="&#x20b4;" horiz-adv-x="637" 
d="M45 377v44h547v-44h-547zM45 264v44h547v-44h-547zM285 282q-64 -29 -89.5 -56t-25.5 -68q0 -56 37.5 -86.5t106.5 -30.5q50 0 88.5 19.5t60.5 54.5v-95h-74l99 152h16l58 -114q-48 -34 -112.5 -54t-127.5 -20q-74 0 -128 21.5t-83.5 60.5t-29.5 93q0 81 66 123h138z
M280 382q67 26 106 49t55.5 47t16.5 55q0 47 -37.5 71.5t-106.5 24.5q-40 0 -72.5 -18t-55.5 -54l-7 95h92l-98 -145h-16l-70 109q28 21 65 36.5t77.5 24.5t76.5 9q78 0 131.5 -19t81.5 -55.5t28 -89.5q0 -47 -22 -80.5t-71 -59.5h-174z" />
    </font>
</defs>
</svg>
