<?xml version="1.0" standalone="no"?>
<!DOCTYPE svg PUBLIC "-//W3C//DTD SVG 1.1//EN" "http://www.w3.org/Graphics/SVG/1.1/DTD/svg11.dtd" >
<svg xmlns="http://www.w3.org/2000/svg" xmlns:xlink="http://www.w3.org/1999/xlink" version="1.1">
<metadata>
Created by FontForge 20201107 at Wed Mar  6 16:29:35 2024
 By 
Copyright 2024 The Platypi Project Authors (https://github.com/d-sargent/platypi)
</metadata>
<defs>
<font id="Platypi-Bold" horiz-adv-x="0" >
  <font-face 
    font-family="Platypi"
    font-weight="700"
    font-stretch="normal"
    units-per-em="1000"
    panose-1="0 0 0 0 0 0 0 0 0 0"
    ascent="800"
    descent="-200"
    x-height="496"
    cap-height="690"
    bbox="-299 -332 1282 1103"
    underline-thickness="50"
    underline-position="-125"
    unicode-range="U+0020-FB03"
  />
<missing-glyph horiz-adv-x="614" 
d="M35 0v690h545v-690h-545zM116 75h383v540h-383v-540z" />
    <glyph glyph-name="fi" unicode="fi" horiz-adv-x="732" 
d="M42 0v17l78 83l-16 -28v386l43 -69h-123v22l80 96v15q0 74 37 131.5t102 90.5t149 33q109 0 169.5 -30.5t60.5 -85.5q0 -37 -33.5 -59.5t-86.5 -22.5h-16l-110 161h115l1 -98q-31 68 -101 68q-55 0 -90 -43.5t-35 -112.5v-483l-16 28l78 -82v-17h-286zM434 0v17l78 83
l-16 -28v355l43 -59l-332 38v67l420 35h31v-437l-16 28l78 -82v-17h-286z" />
    <glyph glyph-name="fl" unicode="fl" horiz-adv-x="732" 
d="M42 0v17l78 83l-16 -28v386l43 -69h-123v22l80 96v15q0 74 37 131.5t102 90.5t149 33q69 0 121.5 -23t81.5 -63.5t29 -94.5v-51h-99l-137 195h103l1 -98q-16 34 -41 51t-60 17q-55 0 -90 -43.5t-35 -112.5v-483l-16 28l78 -82v-17h-286zM390 378l-188 45v44l184 51h20
v-128zM434 0v17l78 83l-16 -28v601l131 92h31v-694l-16 28l78 -82v-17h-286z" />
    <glyph glyph-name="f_f_i" unicode="ffi" horiz-adv-x="1124" 
d="M42 0v17l78 83l-16 -28v386l43 -69h-123v22l80 96v11q0 69 37.5 121.5t103 82.5t151.5 30q70 0 119.5 -20t76 -58t26.5 -92q0 -10 -8.5 -22.5t-25.5 -22t-44 -9.5h-15l-135 187h106v-90q-13 28 -39.5 44t-61.5 16q-57 0 -93 -39.5t-36 -103.5v-471l-16 28l78 -82v-17
h-286zM534 374l-327 32v67l327 27v-126zM826 0v17l78 83l-16 -28v355l43 -59l-332 38v67l420 35h31v-437l-16 28l78 -82v-17h-286zM434 0v17l78 83l-16 -28v450q0 74 37 131.5t102 90.5t149 33q109 0 169.5 -30.5t60.5 -85.5q0 -37 -33.5 -59.5t-87.5 -22.5h-15l-110 161
h115l1 -98q-32 68 -101 68q-56 0 -90.5 -43.5t-34.5 -112.5v-483l-16 28l78 -82v-17h-286z" />
    <glyph glyph-name="f_f" unicode="ff" horiz-adv-x="829" 
d="M42 0v17l78 83l-16 -28v386l43 -69h-123v22l80 96v32q0 61 27.5 109t74.5 76t106 28q95 0 169 -47l-60 -141h-27l-109 151h131v-58q-16 17 -35 25t-47 8q-31 0 -49.5 -29t-18.5 -81v-509l-16 28l78 -82v-17h-286zM534 375l-327 33v66l327 27v-126zM432 0v17l78 83
l-16 -28v467q0 71 26.5 124.5t73.5 83.5t108 30q49 0 97.5 -12.5t82.5 -34.5l-60 -141h-27l-113 151h124v-58q-16 18 -35 25.5t-47 7.5q-31 0 -49.5 -29t-18.5 -81v-539l-16 30l112 -79v-17h-320zM790 378l-198 42v49l194 49h20v-128z" />
    <glyph glyph-name="f_f_l" unicode="ffl" horiz-adv-x="1124" 
d="M434 0v17l78 83l-16 -28v450q0 74 37 131.5t102 90.5t149 33q69 0 121.5 -23t81.5 -63.5t29 -94.5v-51h-99l-137 195h103l1 -98q-16 34 -41 51t-60 17q-56 0 -90.5 -43.5t-34.5 -112.5v-483l-16 28l78 -82v-17h-286zM42 0v17l78 83l-16 -28v386l43 -69h-123v22l80 96v11
q0 69 37.5 121.5t103 82.5t151.5 30q70 0 119.5 -20t76 -58t26.5 -92q0 -10 -8.5 -22.5t-25.5 -22t-44 -9.5h-15l-135 187h106v-90q-13 28 -39.5 44t-61.5 16q-57 0 -93 -39.5t-36 -103.5v-471l-16 28l78 -82v-17h-286zM534 374l-327 32v67l327 27v-126zM782 378l-188 45v44
l184 51h20v-128zM826 0v17l78 83l-16 -28v601l131 92h31v-694l-16 28l78 -82v-17h-286z" />
    <glyph glyph-name=".notdef" horiz-adv-x="614" 
d="M35 0v690h545v-690h-545zM116 75h383v540h-383v-540z" />
    <glyph glyph-name=".null" 
 />
    <glyph glyph-name="nonmarkingreturn" horiz-adv-x="333" 
 />
    <glyph glyph-name="space" unicode=" " horiz-adv-x="261" 
 />
    <glyph glyph-name="exclam" unicode="!" horiz-adv-x="295" 
d="M114 223l-76 450l209 33l11 -17l-79 -466h-65zM147 -15q-45 0 -76 27t-31 68t31 68t76 27t76 -27t31 -68t-31 -68t-76 -27z" />
    <glyph glyph-name="quotedbl" unicode="&#x22;" horiz-adv-x="434" 
d="M295 420l-64 297l8 9h151l8 -9l-64 -297h-39zM100 420l-64 297l8 9h151l8 -9l-64 -297h-39z" />
    <glyph glyph-name="numbersign" unicode="#" horiz-adv-x="623" 
d="M313 0l136 592h64l-136 -592h-64zM36 139l23 99h479l-23 -99h-479zM109 0l136 592h64l-136 -592h-64zM84 354l24 99h479l-23 -99h-480z" />
    <glyph glyph-name="dollar" unicode="$" horiz-adv-x="601" 
d="M282 -16q-59 0 -123.5 19.5t-123.5 54.5l68 142h25l128 -174h-111v97q16 -30 58 -49t92 -19q55 0 88 26t33 68q0 35 -20.5 57t-54 35.5t-73.5 24.5t-79.5 25t-73 35.5t-54 57t-20.5 89.5q0 64 33.5 111.5t92.5 74.5t137 27q40 0 83 -8.5t86.5 -25t82.5 -39.5l-76 -135
h-25l-122 167h97l8 -98q-18 33 -55 52t-84 19q-48 0 -76.5 -23.5t-28.5 -63.5q0 -31 20 -49.5t53 -30.5t73 -23t80 -25t73 -36.5t53 -58.5t20 -90q0 -69 -36 -122t-100 -82.5t-148 -29.5zM276 -107v884h55v-884h-55z" />
    <glyph glyph-name="percent" unicode="%" horiz-adv-x="904" 
d="M130 0l566 690h78l-566 -690h-78zM227 317q-58 0 -101 23t-66.5 64.5t-23.5 97.5q0 59 24.5 104t68 70.5t98.5 25.5q58 0 101 -22.5t66.5 -64.5t23.5 -98q0 -58 -24 -103.5t-67 -71t-100 -25.5zM227 359q37 0 55.5 36.5t18.5 108.5q0 74 -19 115t-55 41t-55 -36.5
t-19 -108.5q0 -74 19.5 -115t54.5 -41zM677 -12q-58 0 -101 22.5t-66.5 64.5t-23.5 98q0 59 24.5 104t67.5 70.5t99 25.5q58 0 101 -23t66.5 -64.5t23.5 -97.5q0 -58 -24.5 -103.5t-67 -71t-99.5 -25.5zM677 30q37 0 55.5 36.5t18.5 108.5q0 74 -19.5 115t-54.5 41
q-37 0 -55.5 -36.5t-18.5 -108.5q0 -74 19.5 -115t54.5 -41z" />
    <glyph glyph-name="ampersand" unicode="&#x26;" horiz-adv-x="848" 
d="M707 -16q-46 0 -91 17.5t-93.5 55t-107.5 99.5l-203 220q-32 34 -49 73.5t-17 78.5q0 56 26.5 96t76.5 61t120 21q49 0 111 -16.5t116 -43.5l-86 -143h-25l-129 169h141l3 -122q-11 26 -33.5 46.5t-50 33t-55.5 12.5q-35 0 -54 -18t-19 -49q0 -21 11 -42t41 -52l213 -232
q88 -93 139.5 -132.5t83.5 -39.5t48 13l22 -24q-16 -37 -53.5 -59.5t-85.5 -22.5zM314 -16q-85 0 -148 25.5t-97 72.5t-34 110q0 56 27 99t76 69t114 29l12 -20q-28 -24 -42 -56t-14 -69q0 -50 22.5 -89t63 -60.5t91.5 -21.5q75 0 110 52l50 -48q-41 -47 -98.5 -70
t-132.5 -23zM607 146l-43 39q20 22 29.5 62t9.5 108l-103 65v22h280v-22l-74 -67q-17 -67 -43.5 -122t-55.5 -85z" />
    <glyph glyph-name="quotesingle" unicode="'" horiz-adv-x="239" 
d="M100 420l-64 297l8 9h151l8 -9l-64 -297h-39z" />
    <glyph glyph-name="parenleft" unicode="(" horiz-adv-x="362" 
d="M332 -235q-98 60 -163.5 136.5t-99 168t-33.5 195.5q0 105 33.5 196t99 168t163.5 136l18 -24q-87 -79 -134.5 -203t-47.5 -273t47.5 -273t134.5 -203z" />
    <glyph glyph-name="parenright" unicode=")" horiz-adv-x="362" 
d="M30 -235l-18 24q88 79 135 203t47 273t-47 273t-135 203l18 24q98 -59 164 -136t99 -168t33 -196q0 -104 -33 -195.5t-99 -168t-164 -136.5z" />
    <glyph glyph-name="asterisk" unicode="*" horiz-adv-x="426" 
d="M274 374l-14 7l-47 142l-46 -142l-14 -7l-114 82l3 15l120 88l-149 1l-11 11l43 133l16 2l121 -87l-46 142l7 14h140l7 -14l-45 -142l121 87l15 -2l43 -133l-11 -11l-149 -1l121 -88l2 -15z" />
    <glyph glyph-name="plus" unicode="+" horiz-adv-x="518" 
d="M226 120v444h66v-444h-66zM36 311v62h446v-62h-446z" />
    <glyph glyph-name="comma" unicode="," horiz-adv-x="323" 
d="M51 -162l-12 37q47 16 74 49.5t27 75.5l-86 62v11q0 44 31 73t76 29q48 0 78 -34t30 -87q0 -54 -28 -100t-77 -76.5t-113 -39.5z" />
    <glyph glyph-name="hyphen" unicode="-" horiz-adv-x="368" 
d="M17 198l10 112h319l-10 -112h-319z" />
    <glyph glyph-name="period" unicode="." horiz-adv-x="322" 
d="M161 -15q-45 0 -76 27t-31 68t31 68t76 27t76 -27t31 -68t-31 -68t-76 -27z" />
    <glyph glyph-name="slash" unicode="/" horiz-adv-x="417" 
d="M6 -95l328 900h77l-328 -900h-77z" />
    <glyph glyph-name="zero" unicode="0" horiz-adv-x="711" 
d="M356 -16q-99 0 -170.5 42.5t-110.5 120.5t-39 185q0 116 39 199.5t110.5 129t170.5 45.5q98 0 169.5 -42.5t110.5 -120.5t39 -185q0 -115 -39 -199t-110.5 -129.5t-169.5 -45.5zM356 48q44 0 73.5 31t44 94.5t14.5 160.5q0 153 -33 230.5t-99 77.5q-45 0 -74 -31
t-44 -94.5t-15 -160.5q0 -153 33.5 -230.5t99.5 -77.5z" />
    <glyph glyph-name="one" unicode="1" horiz-adv-x="495" 
d="M40 0v26l128 55v447h-138l-7 24l281 149h31v-620l128 -55v-26h-423z" />
    <glyph glyph-name="two" unicode="2" horiz-adv-x="669" 
d="M70 0l-19 34l113 115q88 89 139.5 152t73.5 110.5t22 89.5q0 65 -32.5 103.5t-87.5 38.5q-38 0 -71 -20t-51 -53l5 95h111l-117 -172h-24l-82 145q38 23 78.5 37.5t84 22.5t86.5 8q141 0 216 -44.5t75 -127.5q0 -37 -18.5 -75.5t-59.5 -84t-110 -102t-170 -129.5l-53 -47
l8 32h299l104 103h25l-4 -231h-541z" />
    <glyph glyph-name="three" unicode="3" horiz-adv-x="644" 
d="M312 -16q-81 0 -149 18t-128 56l80 148h25l125 -187l-117 9l-4 88q25 -34 60.5 -51t82.5 -17q40 0 70.5 18t48 50.5t17.5 72.5q0 42 -21 75t-56.5 52.5t-80.5 19.5v55q172 0 258 -49t86 -145q0 -65 -36 -113t-102.5 -74t-158.5 -26zM358 366v28h46v-28h-46zM265 373v28
q42 0 74.5 17.5t52.5 47t20 65.5q0 48 -34 79.5t-87 31.5q-41 0 -77 -15t-64 -44l4 83l122 12l-124 -183h-25l-81 145q57 33 125 49.5t147 16.5q83 0 144 -20t94.5 -57t33.5 -88q0 -83 -82 -125.5t-243 -42.5z" />
    <glyph glyph-name="four" unicode="4" horiz-adv-x="692" 
d="M29 166l-16 30l271 494h233v-26l-453 -467l-2 -21zM29 166l38 68h598v-68h-636zM248 0v22l95 59v289l18 20h150v-309l95 -59v-22h-358z" />
    <glyph glyph-name="five" unicode="5" horiz-adv-x="667" 
d="M323 -16q-88 0 -156.5 17.5t-130.5 56.5l80 148h25l125 -187l-116 9l-5 88q25 -34 62.5 -51t90.5 -17q44 0 76.5 20.5t51.5 56.5t19 83q0 62 -45 100t-117 38q-48 0 -84 -9.5t-70 -31.5l-32 35l26 350h349l98 68h23l-19 -196h-421l54 53l-19 -261l-21 23q37 29 89 45
t108 16q85 0 144 -26.5t91 -76t32 -119.5q0 -71 -38 -123t-107 -80.5t-163 -28.5z" />
    <glyph glyph-name="six" unicode="6" horiz-adv-x="687" 
d="M349 -16q-150 0 -231.5 92.5t-81.5 264.5q0 107 42.5 189.5t118 129t173.5 46.5q75 0 141.5 -16.5t122.5 -49.5l-79 -146h-25l-133 180l123 -10l5 -90q-61 67 -143 67q-49 0 -85 -35t-54.5 -101.5t-18.5 -159.5q0 -98 15 -164.5t44.5 -100t73.5 -33.5q54 0 85 37.5
t31 103.5q0 78 -32 120.5t-92 42.5q-48 0 -85 -20t-66 -62l-13 40q22 41 55 69t75.5 43.5t90.5 15.5q73 0 128 -26.5t86 -74t31 -110.5q0 -73 -37.5 -127.5t-105 -84.5t-159.5 -30z" />
    <glyph glyph-name="seven" unicode="7" horiz-adv-x="616" 
d="M367 0h-219v26l413 631l-1 33h22l17 -29zM41 459l-6 231h543l-53 -128h-360l-100 -103h-24z" />
    <glyph glyph-name="eight" unicode="8" horiz-adv-x="686" 
d="M343 -16q-94 0 -163.5 23t-107 64.5t-37.5 98.5q0 73 63 119t196 72l1 -31q-43 -28 -67 -67.5t-24 -85.5q0 -62 37.5 -98t102.5 -36q62 0 98.5 31t36.5 84q0 35 -23 58.5t-60 40.5t-82 32t-90 32.5t-82.5 42.5t-60 62t-22.5 91q0 57 35 99.5t99 66t150 23.5
q84 0 146 -20.5t95.5 -57t33.5 -87.5q0 -64 -54 -102.5t-178 -59.5l-15 24q42 28 61.5 59.5t19.5 73.5q0 50 -31.5 81.5t-81.5 31.5q-30 0 -54.5 -12.5t-39 -34t-14.5 -48.5q0 -35 23 -58.5t60 -40.5t82 -32t90 -32.5t82.5 -42.5t60 -62t22.5 -91q0 -63 -39 -110.5t-108 -74
t-161 -26.5z" />
    <glyph glyph-name="nine" unicode="9" horiz-adv-x="687" 
d="M338 706q150 0 231.5 -92.5t81.5 -264.5q0 -107 -42.5 -189.5t-118 -129t-173.5 -46.5q-74 0 -140.5 16.5t-123.5 49.5l79 146h25l133 -180l-123 10l-5 90q61 -67 143 -67q50 0 85.5 35t54 101.5t18.5 159.5q0 98 -15 164.5t-44.5 100t-73.5 33.5q-53 0 -84.5 -37.5
t-31.5 -103.5q0 -78 32 -120.5t92 -42.5q48 0 85 20t66 62l13 -40q-21 -40 -54.5 -68.5t-75.5 -44t-91 -15.5q-72 0 -127.5 26.5t-86.5 74.5t-31 110q0 74 37.5 128t105 84t159.5 30z" />
    <glyph glyph-name="colon" unicode=":" horiz-adv-x="322" 
d="M161 277q-45 0 -76 27t-31 68t31 68t76 27t76 -27t31 -68t-31 -68t-76 -27zM161 -15q-45 0 -76 27t-31 68t31 68t76 27t76 -27t31 -68t-31 -68t-76 -27z" />
    <glyph glyph-name="semicolon" unicode=";" horiz-adv-x="323" 
d="M51 -162l-12 37q47 16 74 49.5t27 75.5l-86 62v11q0 44 31 73t76 29q48 0 78 -34t30 -87q0 -54 -28 -100t-77 -76.5t-113 -39.5zM161 277q-45 0 -76 27t-31 68t31 68t76 27t76 -27t31 -68t-31 -68t-76 -27z" />
    <glyph glyph-name="less" unicode="&#x3c;" horiz-adv-x="518" 
d="M482 79l-446 230v66l446 230v-67l-414 -213v34l414 -213v-67z" />
    <glyph glyph-name="equal" unicode="=" horiz-adv-x="518" 
d="M36 388v63h446v-63h-446zM36 233v63h446v-63h-446z" />
    <glyph glyph-name="greater" unicode="&#x3e;" horiz-adv-x="518" 
d="M36 79v67l414 213v-34l-414 213v67l446 -230v-66z" />
    <glyph glyph-name="question" unicode="?" horiz-adv-x="583" 
d="M215 223l-15 58q-13 51 -5.5 82.5t28 50t46.5 30.5t50.5 23.5t40.5 28.5t16 47q0 43 -33 68.5t-88 25.5q-75 0 -112 -70v98h124l-135 -176h-25l-83 144q39 24 81.5 40t88.5 24.5t95 8.5q76 0 134 -21.5t91 -60t33 -89.5q0 -48 -18 -79.5t-45.5 -52t-60 -35.5t-62.5 -30.5
t-51.5 -37.5t-26.5 -57l-4 -20h-64zM249 -15q-45 0 -76 27t-31 68t31 68t76 27t76 -27t31 -68t-31 -68t-76 -27z" />
    <glyph glyph-name="at" unicode="@" horiz-adv-x="1256" 
d="M607 -251q-119 0 -217.5 34.5t-170.5 97t-111 148.5t-39 189q0 94 31 178t87.5 153.5t134 120.5t171.5 79t198 28q105 0 195.5 -31.5t157.5 -88.5t104.5 -132.5t37.5 -163.5q0 -77 -25.5 -143t-72 -114.5t-108 -76t-135.5 -27.5q-95 0 -138.5 53t-22.5 144l68 295h37
l102 38h26l-79 -347q-13 -60 2.5 -92.5t57.5 -32.5q46 0 80 33.5t52 93.5t18 142q0 120 -44.5 208.5t-126.5 136.5t-195 48q-103 0 -190 -34.5t-151 -98t-99 -149.5t-35 -189q0 -101 30 -182.5t86 -139.5t134.5 -89t175.5 -31q80 0 163.5 21.5t151.5 58.5l20 -31
q-40 -32 -99.5 -56t-127 -37.5t-134.5 -13.5zM472 15q-57 0 -90.5 44.5t-33.5 120.5t25.5 141.5t70.5 115t105 77.5t130 28q55 0 100 -21t69 -58l-87 -74q0 52 -17.5 76t-55.5 24q-36 0 -64 -20t-48.5 -53.5t-34.5 -72.5t-21 -78t-7 -71q0 -74 43 -74q23 0 46.5 23t48 66
t48 105t44.5 141l56 -28l-11 -199h-98q-45 -112 -96.5 -162.5t-121.5 -50.5z" />
    <glyph glyph-name="A" unicode="A" horiz-adv-x="766" 
d="M2 0v22l76 85l-51 -94l300 677h112l300 -677l-52 94l77 -85v-22h-316v22l99 82l9 -91l-260 588h35l-166 -588l-3 90l100 -81v-22h-260zM174 200v58h381v-58h-381zM305 582l-79 86v22h126z" />
    <glyph glyph-name="B" unicode="B" horiz-adv-x="711" 
d="M185 0v58h139q79 0 119.5 36t40.5 107q0 66 -35 101.5t-100 35.5h-141v50h198q134 0 202 -44t68 -131q0 -70 -39 -117.5t-116.5 -71.5t-193.5 -24h-142zM27 0v22l71 67v512l-71 67v22h247v-690h-247zM451 372v36h38v-36h-38zM205 374v10l159 16q46 4 70.5 33t24.5 79
q0 120 -126 120h-140v58h159q146 0 214.5 -37.5t68.5 -117.5q0 -83 -68 -122t-214 -39h-148z" />
    <glyph glyph-name="C" unicode="C" horiz-adv-x="700" 
d="M392 -16q-110 0 -190.5 42t-123.5 120t-43 185q0 85 27 153.5t77 118.5t120 76.5t156 26.5q43 0 86 -8.5t84.5 -25t77.5 -39.5l-76 -144h-25l-142 176h125v-98q-38 70 -118 70q-57 0 -102.5 -36.5t-72 -98.5t-26.5 -140q0 -82 28.5 -143t81 -94t123.5 -33q51 0 93.5 21
t74.5 61l38 -21q-34 -78 -107 -123.5t-166 -45.5z" />
    <glyph glyph-name="D" unicode="D" horiz-adv-x="793" 
d="M207 0v58h139q68 0 117.5 34.5t76 98.5t26.5 151q0 90 -26.5 154.5t-75.5 100t-116 35.5h-141v58h160q119 0 207 -41.5t136 -116.5t48 -178q0 -78 -30 -143t-84.5 -112t-129.5 -73t-165 -26h-142zM27 0v22l71 67v512l-71 67v22h247v-690h-247z" />
    <glyph glyph-name="E" unicode="E" horiz-adv-x="636" 
d="M27 0v22l71 67v512l-71 67v22h247v-690h-247zM224 0v47l337 25v-72h-337zM423 0v46l153 138h25l-6 -184h-172zM476 318l-254 15v45l254 16v-76zM480 247l-95 88v42l95 88h25v-218h-25zM561 618l-337 25v47h337v-72zM558 524l-143 120v46l148 14h19l1 -180h-25z" />
    <glyph glyph-name="F" unicode="F" horiz-adv-x="606" 
d="M27 0v22l71 67v512l-71 67v22h247v-601l94 -67v-22h-341zM469 306l-246 15v45l246 16v-76zM471 235l-95 88v42l95 88h24v-218h-24zM551 618l-327 25v47h327v-72zM547 524l-143 120v46l148 14h19l1 -180h-25z" />
    <glyph glyph-name="G" unicode="G" horiz-adv-x="785" 
d="M392 -16q-110 0 -190.5 42t-123.5 120t-43 185q0 85 27 153.5t77 118.5t120 76.5t156 26.5q48 0 96.5 -9t93 -25t77.5 -39l-77 -145h-24l-152 177h126l1 -95q-20 32 -53 49.5t-76 17.5q-57 0 -102.5 -36.5t-72 -98.5t-26.5 -140q0 -86 28.5 -150t81 -99.5t123.5 -35.5
q53 0 88.5 24.5t58.5 75.5l38 -19q-22 -81 -89 -127.5t-163 -46.5zM682 -16l-153 96v169l-81 68v22h310v-22l-53 -61v-272h-23z" />
    <glyph glyph-name="H" unicode="H" horiz-adv-x="817" 
d="M478 0v22l65 67v512l-65 67v22h312v-22l-71 -67v-512l71 -67v-22h-312zM27 0v22l71 67v512l-71 67v22h311v-22l-64 -67v-512l64 -67v-22h-311zM203 323v63h416v-63h-416z" />
    <glyph glyph-name="I" unicode="I" horiz-adv-x="372" 
d="M27 0v22l71 67v512l-71 67v22h318v-22l-71 -67v-512l71 -67v-22h-318z" />
    <glyph glyph-name="J" unicode="J" horiz-adv-x="647" 
d="M276 -16q-44 0 -91.5 14.5t-90 40.5t-72.5 58l84 138h25l114 -196h-112v155q24 -71 57.5 -102.5t86.5 -31.5q45 0 70.5 38t25.5 106v397l-71 67v22h318v-22l-71 -67v-367q0 -119 -71.5 -184.5t-201.5 -65.5z" />
    <glyph glyph-name="K" unicode="K" horiz-adv-x="795" 
d="M203 230l6 57l353 390l-7 -124l-104 115v22h322v-22l-162 -96l135 98zM27 0v22l71 67v512l-71 67v22h318v-22l-71 -67v-512l71 -67v-22h-318zM476 0v22l73 99l19 -107l-245 354l136 100l313 -455l-104 125l125 -116v-22h-317z" />
    <glyph glyph-name="L" unicode="L" horiz-adv-x="616" 
d="M27 0v22l71 67v512l-71 67v22h320v-22l-73 -67v-601h-247zM224 0v47l331 25v-72h-331zM405 0v46l151 167h25l-1 -213h-175z" />
    <glyph glyph-name="M" unicode="M" horiz-adv-x="999" 
d="M414 0l-292 690h181l236 -556h-27l149 556h110l-265 -690h-92zM2 0v22l71 67l71 540l3 -32l-86 71v22h129l-15 -601l71 -67v-22h-244zM682 0v22l71 67l-58 601h253v-22l-71 -67l49 -512l71 -67v-22h-315z" />
    <glyph glyph-name="N" unicode="N" horiz-adv-x="762" 
d="M573 -1l-438 552v139h100l417 -526l-30 -41l-62 478l-71 67v22h246v-22l-71 -67v-602h-91zM27 0v22l71 67l21 486l-80 93v22h115l48 -601l71 -67v-22h-246z" />
    <glyph glyph-name="O" unicode="O" horiz-adv-x="826" 
d="M408 -16q-113 0 -197 43.5t-130 123.5t-46 189q0 112 47 194t133 127t203 45q114 0 197.5 -43.5t129.5 -123t46 -189.5q0 -111 -47 -193.5t-133 -127.5t-203 -45zM421 54q56 0 96 32.5t60.5 94t20.5 148.5q0 95 -23.5 163.5t-66.5 106t-103 37.5q-57 0 -96.5 -32t-60 -94
t-20.5 -149q0 -94 23.5 -163t67 -106.5t102.5 -37.5z" />
    <glyph glyph-name="P" unicode="P" horiz-adv-x="683" 
d="M27 0v22l71 67v512l-71 67v22h247v-601l74 -67v-22h-321zM311 257h-148v58h150q66 0 104.5 44.5t38.5 118.5q0 71 -38.5 112.5t-104.5 41.5h-133v58h197q81 0 142 -25t95 -70.5t34 -106.5q0 -75 -38 -127t-113 -78t-186 -26z" />
    <glyph glyph-name="Q" unicode="Q" horiz-adv-x="826" 
d="M727 -250l-128 37q-96 28 -148.5 76t-73.5 129l94 23v-30l335 -83v-21l-62 -125zM408 -16q-113 0 -197 43.5t-130 123.5t-46 189q0 112 47 194t133 127t203 45q114 0 197.5 -43.5t129.5 -123t46 -189.5q0 -111 -47 -193.5t-133 -127.5t-203 -45zM421 54q56 0 96 32.5
t60.5 94t20.5 148.5q0 95 -23.5 163.5t-66.5 106t-103 37.5q-57 0 -96.5 -32t-60 -94t-20.5 -149q0 -94 23.5 -163t67 -106.5t102.5 -37.5z" />
    <glyph glyph-name="R" unicode="R" horiz-adv-x="728" 
d="M27 0v22l71 67v512l-71 67v22h247v-601l71 -67v-22h-318zM504 0l-187 313l157 65l217 -365l-96 125l123 -116v-22h-214zM163 296v54h151q64 0 103 40.5t39 104.5q0 63 -38.5 100t-103.5 37h-134v58h197q135 0 203 -47t68 -139q0 -93 -74 -143.5t-210 -50.5h-5v-14h-196z
" />
    <glyph glyph-name="S" unicode="S" horiz-adv-x="628" 
d="M302 -16q-48 0 -94 8.5t-90 25.5t-83 40l68 145h25l148 -177h-123v97q16 -31 61 -49.5t101 -18.5q60 0 92.5 26.5t32.5 75.5q0 41 -39.5 68t-133.5 56q-78 25 -125.5 53t-68 66t-20.5 91q0 99 73 157t198 58q42 0 86.5 -8.5t87.5 -25t81 -39.5l-76 -138h-25l-145 170h129
l-1 -98q-18 33 -56 52t-86 19q-50 0 -81.5 -23.5t-31.5 -60.5q0 -40 39.5 -67.5t133.5 -56.5q79 -24 126 -52.5t67.5 -66t20.5 -91.5q0 -72 -35.5 -125t-101 -82t-154.5 -29z" />
    <glyph glyph-name="T" unicode="T" horiz-adv-x="737" 
d="M204 0v22l77 67v581l72 -27l-293 -25v72h617v-72l-293 25l73 27v-581l77 -67v-22h-330zM35 499l3 205h22l147 -14l8 -46l-156 -145h-24zM678 499l-156 145l8 46l147 14h23l3 -205h-25z" />
    <glyph glyph-name="U" unicode="U" horiz-adv-x="737" 
d="M563 595l-87 73v22h259v-22l-75 -73v-340q0 -82 -34.5 -142.5t-97.5 -94.5t-147 -34q-149 0 -228.5 68.5t-79.5 196.5v352l-71 67v22h318v-22l-71 -67v-321q0 -102 39 -152t118 -50t118 50t39 152v315z" />
    <glyph glyph-name="V" unicode="V" horiz-adv-x="746" 
d="M328 -2l-301 679l51 -94l-76 85v22h315v-22l-100 -80l-7 88l248 -560h-35l157 561l4 -89l-100 80v22h260v-22l-76 -84l52 93l-302 -679h-90z" />
    <glyph glyph-name="W" unicode="W" horiz-adv-x="1159" 
d="M761 -2l-229 554l2 48l-88 68v22h321v-22l-96 -74l-9 82l231 -560h-40l143 561l6 -86l-100 77v22h255v-22l-76 -87l52 96l-281 -679h-91zM307 -2l-281 678l50 -96l-74 88v22h310v-22l-96 -75l-9 83l231 -560h-39l146 561h133l-281 -679h-90z" />
    <glyph glyph-name="X" unicode="X" horiz-adv-x="765" 
d="M419 0v22l123 103v-112l-508 664l81 -96l-96 87v22h344v-22l-122 -103v112l508 -664l-82 96l96 -87v-22h-344zM2 0v22l94 86l-82 -95l308 385l38 -3l-177 -382v92l100 -83v-22h-281zM395 295l162 382v-92l-100 83v22h281v-22l-94 -86l83 95l-307 -382h-25z" />
    <glyph glyph-name="Y" unicode="Y" horiz-adv-x="722" 
d="M307 200l-292 477l64 -94l-77 85v22h322v-22l-121 -98l4 107l225 -365h-8l129 365l4 -92l-101 83v22h264v-22l-77 -84l64 93l-295 -477h-105zM204 0v22l71 67v199h176v-199l71 -67v-22h-318z" />
    <glyph glyph-name="Z" unicode="Z" horiz-adv-x="664" 
d="M35 0v22l409 657l21 -35l-349 -24v70h510v-22l-406 -653l-21 35l378 22v-72h-542zM442 0v47l162 151h25l-7 -198h-180zM64 509l-18 195h20l161 -14l-2 -44l-136 -137h-25z" />
    <glyph glyph-name="bracketleft" unicode="[" horiz-adv-x="297" 
d="M36 -204v938h249v-25l-161 -46l31 52v-900l-31 52l161 -46v-25h-249z" />
    <glyph glyph-name="backslash" unicode="\" horiz-adv-x="415" 
d="M334 -95l-328 900h75l328 -900h-75z" />
    <glyph glyph-name="bracketright" unicode="]" horiz-adv-x="297" 
d="M261 -204h-249v25l161 46l-31 -52v900l31 -52l-161 46v25h249v-938z" />
    <glyph glyph-name="asciicircum" unicode="^" horiz-adv-x="518" 
d="M36 345l190 345h66l190 -345h-68l-171 313h32l-171 -313h-68z" />
    <glyph glyph-name="underscore" unicode="_" horiz-adv-x="568" 
d="M20 -120v76h528v-76h-528z" />
    <glyph glyph-name="grave" unicode="`" horiz-adv-x="293" 
d="M239 560l-203 146v7l141 96h7l73 -237z" />
    <glyph glyph-name="a" unicode="a" horiz-adv-x="595" 
d="M412 -13l-40 75h-12v261q0 58 -27.5 90t-76.5 32q-28 0 -52.5 -14t-39.5 -38l1 96h98l-129 -168h-26l-59 143q24 14 63 25t83.5 17.5t87.5 6.5q116 0 177.5 -47.5t61.5 -137.5v-228l-43 74l103 -100v-22l-145 -65h-25zM191 -15q-66 0 -108 38t-42 98q0 131 220 172
l122 23v-54l-74 -18q-52 -13 -75.5 -34t-23.5 -55t18.5 -52.5t51.5 -18.5q56 0 95 32v-54h-11q-31 -38 -75 -57.5t-98 -19.5z" />
    <glyph glyph-name="b" unicode="b" horiz-adv-x="655" 
d="M332 -15q-93 0 -149 43v93q30 -39 61.5 -56.5t72.5 -17.5q43 0 72.5 22t45 65t15.5 107q0 77 -32.5 121t-87.5 44q-30 0 -55 -10t-46 -30v58h11q29 40 75 63.5t94 23.5q62 0 109.5 -30t74 -83t26.5 -124q0 -84 -36.5 -150t-101.5 -102.5t-149 -36.5zM82 -15v653l43 -79
l-113 113v22l201 71h31v-715l-142 -65h-20z" />
    <glyph glyph-name="c" unicode="c" horiz-adv-x="534" 
d="M295 -15q-76 0 -134.5 31t-91.5 86.5t-33 126.5q0 83 36.5 146.5t101.5 99.5t150 36q52 0 102 -13t87 -36l-61 -145h-26l-116 157h89v-60q-28 30 -75 30q-34 0 -61 -23.5t-43 -63.5t-16 -92q0 -82 40.5 -130t110.5 -48q74 0 126 53l32 -24q-29 -61 -87 -96t-131 -35z" />
    <glyph glyph-name="d" unicode="d" horiz-adv-x="646" 
d="M463 -13l-40 85h-12v566l43 -79l-113 113v22l201 71h31v-665l-43 74l103 -100v-22l-145 -65h-25zM246 -15q-62 0 -109.5 30t-74 83.5t-26.5 123.5q0 85 36.5 150.5t101.5 102t149 36.5q93 0 149 -43v-93q-30 39 -61.5 56.5t-72.5 17.5q-43 0 -72.5 -22t-45 -65
t-15.5 -107q0 -76 32.5 -120.5t87.5 -44.5q31 0 56 10t45 30v-58h-11q-29 -40 -74.5 -63.5t-94.5 -23.5z" />
    <glyph glyph-name="e" unicode="e" horiz-adv-x="570" 
d="M295 -15q-76 0 -134.5 31t-91.5 86.5t-33 126.5q0 83 35.5 146.5t98.5 99.5t145 36q65 0 114 -31.5t77 -90.5t28 -140h-382v36l217 38q0 59 -20.5 89.5t-54.5 30.5q-27 0 -47.5 -21.5t-31.5 -62t-11 -94.5q0 -82 40.5 -130t109.5 -48q83 0 135 53l31 -24
q-29 -61 -88.5 -96t-136.5 -35z" />
    <glyph glyph-name="f" unicode="f" horiz-adv-x="440" 
d="M42 0v17l78 83l-16 -28v386l43 -69h-123v22l80 96v57q0 61 27.5 109t74.5 76t106 28q50 0 98 -12.5t83 -34.5l-61 -141h-27l-112 151h123v-58q-16 18 -35 25.5t-47 7.5q-31 0 -49.5 -29t-18.5 -81v-539l-16 30l112 -79v-17h-320zM400 378l-198 42v49l194 49h20v-128z" />
    <glyph glyph-name="g" unicode="g" horiz-adv-x="630" 
d="M313 -251q-90 0 -153.5 14.5t-97 41.5t-33.5 65q0 34 27 58t68 27v37h75v-42q-24 -16 -24 -57q0 -38 47 -62t121 -24q64 0 106 22.5t42 56.5q0 29 -24.5 46.5t-68.5 17.5h-222q-61 0 -98.5 35.5t-37.5 91.5q0 31 14 57t38 44t55 22l46 -26q-20 0 -31 -10t-11 -28
q0 -22 20 -33t59 -11h186q96 0 149 -38t53 -107q0 -58 -39 -102.5t-107.5 -70t-158.5 -25.5zM294 156q-71 0 -126 22t-85.5 60.5t-30.5 88.5q0 59 31 100t89 62.5t140 21.5q71 0 126 -22t85.5 -60.5t30.5 -88.5q0 -58 -30.5 -99.5t-89 -63t-140.5 -21.5zM310 214q40 0 61 25
t21 74q0 62 -26.5 101t-69.5 39q-40 0 -60.5 -25t-20.5 -74q0 -61 26.5 -100.5t68.5 -39.5zM352 467l244 149h22v-143l-9 -9l-144 16v-13h-113z" />
    <glyph glyph-name="h" unicode="h" horiz-adv-x="680" 
d="M389 0v17l70 83l-15 -28v228q0 54 -21 78.5t-68 24.5q-34 0 -62 -11t-52 -34v58h11q90 97 193 97q76 0 118.5 -46.5t42.5 -128.5v-267l-16 28l78 -82v-17h-279zM32 0v17l78 83l-16 -28v566l43 -79l-112 113v22l200 71h31v-694l-15 29l71 -83v-17h-280z" />
    <glyph glyph-name="i" unicode="i" horiz-adv-x="331" 
d="M32 0v17l78 83l-16 -28v306l43 -75l-112 114v22l200 66h31v-434l-15 28l77 -82v-17h-286zM178 565q-45 0 -73.5 26t-28.5 67t28.5 66.5t73.5 25.5q46 0 74.5 -26t28.5 -66q0 -41 -28.5 -67t-74.5 -26z" />
    <glyph glyph-name="j" unicode="j" horiz-adv-x="331" 
d="M1 -248l-51 155l16 19l167 -60l-39 -35v547l43 -75l-112 114v22l200 66h31v-468q0 -94 -61.5 -167.5t-179.5 -117.5h-14zM178 565q-45 0 -73.5 26t-28.5 67t28.5 66.5t73.5 25.5q46 0 74.5 -26t28.5 -66q0 -41 -28.5 -67t-74.5 -26z" />
    <glyph glyph-name="k" unicode="k" horiz-adv-x="693" 
d="M32 0v17l78 83l-16 -28v566l43 -79l-112 113v22l200 71h31v-710l-15 45l73 -83v-17h-282zM477 0l-187 290l128 97l223 -347l-86 18v86l126 -127v-17h-204zM242 210v55l204 198l36 -88h-35l-76 104v17h302v-17z" />
    <glyph glyph-name="l" unicode="l" horiz-adv-x="331" 
d="M32 0v17l78 83l-16 -28v566l43 -79l-112 113v22l200 71h31v-694l-15 28l77 -82v-17h-286z" />
    <glyph glyph-name="m" unicode="m" horiz-adv-x="1005" 
d="M723 0v17l61 83l-15 -29v229q0 53 -20 78t-64 25q-29 0 -57.5 -11.5t-51.5 -33.5v58h12q41 48 88 72.5t99 24.5q75 0 115.5 -45.5t40.5 -128.5v-269l-16 29l78 -82v-17h-270zM32 0v17l78 82l-16 -28v303l43 -77l-112 119v22l198 67h31l-7 -89h9v-346l-15 29l68 -82v-17
h-277zM386 0v17l61 83l-15 -29v229q0 53 -20 78t-63 25q-61 0 -108 -45v58h11q41 48 88 72.5t99 24.5q74 0 114.5 -45.5t40.5 -128.5v-269l-16 29l68 -82v-17h-260zM541 299v86h53v-86h-53z" />
    <glyph glyph-name="n" unicode="n" horiz-adv-x="680" 
d="M389 0v17l70 83l-15 -28v228q0 54 -21 78.5t-68 24.5q-34 0 -62 -11t-52 -34v58h11q90 97 193 97q76 0 118.5 -46.5t42.5 -128.5v-267l-16 28l78 -82v-17h-279zM32 0v17l78 83l-16 -29v330l43 -102l-112 118v22l198 66h31l-7 -89h9v-345l-15 29l71 -83v-17h-280z" />
    <glyph glyph-name="o" unicode="o" horiz-adv-x="646" 
d="M320 -15q-87 0 -150.5 31.5t-98.5 88.5t-35 135q0 80 37 141t102.5 95.5t150.5 34.5q86 0 150 -31.5t99 -88.5t35 -135q0 -79 -37 -140.5t-102.5 -96t-150.5 -34.5zM335 52q32 0 55 20t36 56.5t13 85.5q0 76 -14.5 127t-43 77t-70.5 26q-31 0 -55 -20t-37 -56.5
t-13 -85.5q0 -76 15 -127t43.5 -77t70.5 -26z" />
    <glyph glyph-name="p" unicode="p" horiz-adv-x="667" 
d="M344 -15q-93 0 -148 43v93q30 -39 61.5 -56.5t72.5 -17.5q43 0 72.5 22t44.5 65t15 107q0 77 -32 121t-88 44q-30 0 -55 -10t-46 -30v58h11q30 40 75.5 63.5t93.5 23.5q63 0 110 -30t73.5 -83t26.5 -124q0 -84 -36.5 -150t-101 -102.5t-149.5 -36.5zM32 -235v17l78 83
l-16 -28v537l43 -75l-112 118v22l198 66h31l-7 -81h9v-589l-15 24l100 -77v-17h-309z" />
    <glyph glyph-name="q" unicode="q" horiz-adv-x="637" 
d="M246 -15q-62 0 -109.5 30t-74 83.5t-26.5 123.5q0 85 36.5 150.5t101.5 102t149 36.5q93 0 149 -43v-93q-30 39 -61.5 56.5t-72.5 17.5q-43 0 -72.5 -22t-45 -65t-15.5 -107q0 -76 32.5 -120.5t87.5 -44.5q31 0 56 10t45 30v-58h-11q-29 -40 -74.5 -63.5t-94.5 -23.5z
M327 -235v17l99 77l-15 -24v617l142 60h20v-675l-16 28l78 -83v-17h-308z" />
    <glyph glyph-name="r" unicode="r" horiz-adv-x="497" 
d="M32 0v17l78 83l-16 -28v302l43 -75l-112 118v22l198 66h31l-7 -101h9v-333l-15 31l107 -85v-17h-316zM240 337l1 67h11q28 51 72 80t91 29q42 0 75 -17l-72 -199h-27l-115 117l114 -22q-52 0 -90 -14t-60 -41z" />
    <glyph glyph-name="s" unicode="s" horiz-adv-x="540" 
d="M258 -15q-40 0 -82 7t-80.5 19t-66.5 28l57 140h26l127 -168h-96l-1 94q16 -26 50 -40.5t79 -14.5q41 0 63.5 14.5t22.5 41.5q0 26 -22.5 42t-57 27t-73 22.5t-73 29t-57 46t-22.5 73.5q0 79 62.5 122t176.5 43q37 0 75 -6t74 -17t62 -26l-57 -138h-27l-128 163h98l1 -94
q-15 25 -48 39t-69 14q-35 0 -54.5 -11.5t-19.5 -32.5q0 -26 22.5 -42t57.5 -28t73.5 -24t73.5 -29.5t57 -45.5t22 -71q0 -85 -63.5 -131t-182.5 -46z" />
    <glyph glyph-name="t" unicode="t" horiz-adv-x="463" 
d="M268 -15q-50 0 -88.5 22t-60 61t-21.5 91v303l43 -74h-131v23l219 235h31v-448q0 -55 18.5 -81.5t58.5 -26.5q49 0 83 41l33 -18q-16 -59 -65.5 -93.5t-119.5 -34.5zM407 378l-200 40v53l196 47h20v-128z" />
    <glyph glyph-name="u" unicode="u" horiz-adv-x="651" 
d="M236 -15q-75 0 -115 45t-40 129v244l43 -91l-112 108v22l200 61h31v-305q0 -54 19.5 -78.5t63.5 -24.5q29 0 56 11.5t50 32.5v-58h-12q-41 -48 -87 -72t-97 -24zM469 -13l-43 92h-10v325l43 -90l-112 107v22l200 62h31v-405l-42 74l103 -100v-22l-145 -65h-25z" />
    <glyph glyph-name="v" unicode="v" horiz-adv-x="613" 
d="M276 -2l-229 442h50v-75l-95 114v17h286v-17l-66 -112h-13v100l177 -342h-21l84 361v-98h-9l-55 91v17h226v-17l-95 -114v75h50l-229 -442h-61z" />
    <glyph glyph-name="w" unicode="w" horiz-adv-x="941" 
d="M276 -2l-229 442h50v-76l-95 115v17h286v-17l-66 -112h-13v100l177 -342h-26l83 371h91l11 -68l-208 -430h-61zM604 -2l-165 356l24 142h82l171 -370h-23l84 360l1 -98h-9l-55 91v17h225v-17l-95 -114v75h50l-229 -442h-61z" />
    <glyph glyph-name="x" unicode="x" horiz-adv-x="652" 
d="M330 0v17l69 104h15v-100l-344 440h74v-80l-114 98v17h308v-17l-67 -109h-15v105l344 -440h-74v80l114 -98v-17h-310zM12 0v17l150 114v-78h-93l198 219l18 -31l-90 -227v89h7l56 -86v-17h-246zM380 224l-13 31l86 227v-86h-8l-54 83v17h244v-17l-150 -114v78h93z" />
    <glyph glyph-name="y" unicode="y" horiz-adv-x="624" 
d="M286 -78l-240 518h50v-81l-94 120v17h281v-17l-65 -101h-14v89l178 -381l-29 -15l112 415v-96h-8l-68 89v17h233v-17l-90 -117v78h50l-369 -691h-26l-136 111v17l241 102z" />
    <glyph glyph-name="z" unicode="z" horiz-adv-x="573" 
d="M52 0v27l308 469h167v-27l-309 -469h-166zM167 0v42l297 39l-106 -29l141 138h26v-190h-358zM96 312l-49 184h368v-38l-296 -39l107 25l-104 -132h-26z" />
    <glyph glyph-name="braceleft" unicode="{" horiz-adv-x="300" 
d="M288 -212q-107 0 -168.5 39.5t-61.5 108.5q0 42 11 72t22 58.5t11 64.5q0 44 -11.5 70.5t-35.5 39.5q-19 11 -19 24t19 24q24 13 35.5 40t11.5 70q0 37 -11 65t-22 58t-11 72q0 69 61.5 108.5t168.5 39.5v-25q-50 0 -78 -32.5t-28 -90.5q0 -42 11.5 -72t22.5 -58t11 -65
q0 -51 -31 -84t-95 -48v-4q64 -14 95 -47t31 -85q0 -36 -11 -64.5t-22.5 -58.5t-11.5 -72q0 -58 28 -90.5t78 -32.5v-25z" />
    <glyph glyph-name="bar" unicode="|" horiz-adv-x="187" 
d="M64 -275v1080h59v-1080h-59z" />
    <glyph glyph-name="braceright" unicode="}" horiz-adv-x="300" 
d="M12 -212v25q51 0 78.5 32.5t27.5 90.5q0 42 -11 72t-22.5 58.5t-11.5 64.5q0 52 31.5 85t94.5 47v4q-63 15 -94.5 48t-31.5 84q0 37 11.5 65t22.5 58t11 72q0 58 -27.5 90.5t-78.5 32.5v25q107 0 168.5 -39.5t61.5 -108.5q0 -42 -10.5 -72t-22 -58t-11.5 -65
q0 -43 11.5 -70t35.5 -40q19 -11 19 -24t-19 -24q-24 -13 -35.5 -39.5t-11.5 -70.5q0 -36 11.5 -64.5t22 -58.5t10.5 -72q0 -69 -61.5 -108.5t-168.5 -39.5z" />
    <glyph glyph-name="asciitilde" unicode="~" horiz-adv-x="518" 
d="M362 285q-39 0 -74.5 14t-68 28t-64.5 14q-29 0 -51 -12.5t-34 -36.5l-34 15q11 42 43 67t77 25q39 0 74.5 -14t68.5 -28t64 -14q29 0 51 12.5t34 36.5l34 -15q-11 -43 -43 -67.5t-77 -24.5z" />
    <glyph glyph-name="uni00A0" unicode="&#xa0;" horiz-adv-x="261" 
 />
    <glyph glyph-name="exclamdown" unicode="&#xa1;" horiz-adv-x="295" 
d="M181 273l76 -450l-209 -33l-10 17l79 466h64zM148 511q45 0 76 -27t31 -68t-31 -68t-76 -27t-76 27t-31 68t31 68t76 27z" />
    <glyph glyph-name="cent" unicode="&#xa2;" horiz-adv-x="534" 
d="M295 84q-76 0 -134.5 31t-91.5 86.5t-33 126.5q0 83 36.5 146.5t101.5 99.5t150 36q52 0 102 -13t87 -36l-61 -145h-26l-116 157h89v-60q-28 29 -75 29q-34 0 -61 -23t-43 -63t-16 -92q0 -82 40.5 -130t110.5 -48q74 0 126 52l32 -24q-29 -60 -87 -95t-131 -35zM272 550
v140h55v-140h-55zM272 0v120h55v-120h-55z" />
    <glyph glyph-name="sterling" unicode="&#xa3;" horiz-adv-x="634" 
d="M258 497q0 -37 8.5 -65.5t18 -53.5t14 -50.5t-2 -55t-29.5 -67t-70 -88.5l-34 -37l9 42h292l100 101h25v-223h-522l-19 34l44 49q33 37 42 67.5t2.5 61t-19.5 65.5t-24.5 80t-11.5 107q0 65 36.5 115.5t101.5 78.5t149 28q55 0 113 -15t118 -45l-87 -146h-24l-118 172
h130v-120q-39 90 -130 90q-48 0 -80 -35.5t-32 -89.5zM37 320v54h423v-54h-423z" />
    <glyph glyph-name="currency" unicode="&#xa4;" horiz-adv-x="474" 
d="M237 181q-51 0 -91 20.5t-62.5 57.5t-22.5 85t22.5 85t62 57.5t91.5 20.5t91.5 -20.5t62 -57.5t22.5 -85t-22 -84.5t-62 -57.5t-92 -21zM72 142l-37 37l89 90l38 -38zM124 419l-89 90l37 37l90 -89zM237 237q50 0 79 29t29 78t-29 78t-79 29t-79 -29t-29 -78t29 -78
t79 -29zM402 142l-90 89l38 38l89 -90zM350 419l-38 38l90 89l37 -37z" />
    <glyph glyph-name="yen" unicode="&#xa5;" horiz-adv-x="660" 
d="M276 270l-260 387l92 -120l-106 111v22h319v-22l-106 -103l-2 112l192 -284h-13l87 284l11 -98l-95 89v22h263v-22l-101 -100l85 109l-262 -387h-104zM172 0v22l71 67v253h176v-253l71 -67v-22h-318zM113 278v54h436v-54h-436zM113 170v54h436v-54h-436z" />
    <glyph glyph-name="brokenbar" unicode="&#xa6;" horiz-adv-x="187" 
d="M64 307v498h59v-498h-59zM64 -275v498h59v-498h-59z" />
    <glyph glyph-name="section" unicode="&#xa7;" horiz-adv-x="611" 
d="M345 118l-14 24q50 25 70.5 46.5t20.5 49.5q0 38 -39.5 65t-133.5 57q-112 33 -163 80.5t-51 118.5q0 67 33 116t94 75.5t144 26.5q42 0 86 -8.5t87.5 -25t81.5 -39.5l-76 -138h-25l-145 170h129l-1 -98q-18 33 -56 52t-87 19q-50 0 -81 -22t-31 -58q0 -37 39 -64.5
t134 -56.5q112 -34 163 -81.5t51 -117.5q0 -153 -230 -191zM305 -251q-42 0 -86 8.5t-87 25.5t-82 39l76 138h25l145 -170h-130l2 98q17 -33 56 -52t86 -19q50 0 81.5 22t31.5 58q0 37 -39.5 64.5t-133.5 56.5q-112 34 -163 81.5t-51 117.5q0 153 229 191l15 -24
q-50 -25 -70.5 -46.5t-20.5 -49.5q0 -38 39 -65t134 -57q112 -33 163 -80.5t51 -118.5q0 -66 -33 -115.5t-94 -76t-144 -26.5z" />
    <glyph glyph-name="dieresis" unicode="&#xa8;" horiz-adv-x="457" 
d="M123 578q-38 0 -62.5 22t-24.5 57q0 34 24.5 56t62.5 22t62.5 -22t24.5 -56q0 -35 -24.5 -57t-62.5 -22zM361 578q-38 0 -62.5 22t-24.5 57q0 34 24.5 56t62.5 22q39 0 63 -22t24 -56q0 -35 -24 -57t-63 -22z" />
    <glyph glyph-name="copyright" unicode="&#xa9;" horiz-adv-x="833" 
d="M417 -16q-80 0 -149.5 27.5t-121.5 76.5t-81.5 114.5t-29.5 141.5t29.5 142t81.5 115.5t121.5 77t149.5 27.5t149.5 -27.5t121.5 -76.5t81.5 -114.5t29.5 -141.5t-29.5 -142t-81.5 -115.5t-121.5 -77t-149.5 -27.5zM417 49q66 0 123.5 23t101 63.5t67.5 94.5t24 116
t-24 115.5t-67.5 93.5t-101 63t-123.5 23q-67 0 -124.5 -23t-101 -63.5t-67.5 -94t-24 -116.5q0 -62 24.5 -115.5t67.5 -93.5t100.5 -63t124.5 -23zM417 132q-62 0 -108.5 25.5t-73 69.5t-26.5 101q0 67 29.5 118t81.5 80.5t120 29.5q42 0 82 -10.5t70 -29.5l-49 -115h-21
l-93 125h71v-49q-22 25 -59 25q-43 0 -70.5 -41t-27.5 -103q0 -67 32.5 -105t88.5 -38q61 0 103 42l25 -20q-23 -48 -70 -76.5t-105 -28.5z" />
    <glyph glyph-name="ordfeminine" unicode="&#xaa;" horiz-adv-x="478" 
d="M314 312l-29 57h-11v195q0 43 -19.5 67t-57.5 24q-20 0 -38.5 -10.5t-30.5 -28.5l1 72h73l-96 -125h-19l-45 107q18 10 47 18t63 13t66 5q86 0 132.5 -36t46.5 -102v-171l-32 55l77 -74v-17l-109 -49h-19zM149 310q-49 0 -81 29t-32 73q0 97 165 129l92 18v-41l-56 -14
q-39 -9 -56.5 -24.5t-17.5 -41.5t14 -40t39 -14q21 0 38.5 6.5t32.5 19.5v-41h-9q-47 -59 -129 -59zM67 213v57h336v-57h-336z" />
    <glyph glyph-name="guillemotleft" unicode="&#xab;" horiz-adv-x="502" 
d="M237 128l-225 223v8l225 223l24 -16l-92 -211l92 -211zM441 128l-224 223v8l224 223l25 -16l-92 -211l92 -211z" />
    <glyph glyph-name="logicalnot" unicode="&#xac;" horiz-adv-x="518" 
d="M416 120v191h-380v62h446v-253h-66z" />
    <glyph glyph-name="registered" unicode="&#xae;" horiz-adv-x="546" 
d="M273 341q-66 0 -120 30t-85.5 81t-31.5 113q0 63 31.5 113.5t85.5 80.5t120 30q67 0 120.5 -30t85 -80.5t31.5 -113.5q0 -62 -31.5 -113t-85 -81t-120.5 -30zM273 389q53 0 96 23.5t68 63.5t25 89q0 50 -25 90t-68 63.5t-96 23.5q-52 0 -95.5 -23.5t-68.5 -63.5t-25 -90
q0 -49 25 -89t68.5 -63.5t95.5 -23.5zM167 456v7l24 24v165l-24 24v6h115q44 0 66.5 -15.5t22.5 -45.5q0 -44 -49 -58l46 -76l25 -24v-7h-72l-58 97h-12v-66l23 -24v-7h-107zM251 572h11q22 0 33.5 12.5t11.5 33.5t-11 33t-34 12h-11v-91z" />
    <glyph glyph-name="macron" unicode="&#xaf;" horiz-adv-x="428" 
d="M36 594v88h356v-88h-356z" />
    <glyph glyph-name="degree" unicode="&#xb0;" horiz-adv-x="418" 
d="M209 383q-51 0 -90 20.5t-61 57t-22 83.5q0 48 22 84t61 57t90 21q52 0 90.5 -21t60.5 -57t22 -84q0 -47 -22 -83.5t-60.5 -57t-90.5 -20.5zM209 435q47 0 79 31.5t32 77.5q0 47 -32 78.5t-79 31.5q-46 0 -78.5 -31.5t-32.5 -78.5q0 -46 32.5 -77.5t78.5 -31.5z" />
    <glyph glyph-name="plusminus" unicode="&#xb1;" horiz-adv-x="518" 
d="M36 0v62h446v-62h-446zM226 120v444h66v-444h-66zM36 311v62h446v-62h-446z" />
    <glyph glyph-name="uni00B2" unicode="&#xb2;" horiz-adv-x="382" 
d="M53 404l-11 21l60 61q45 45 71 77.5t37.5 57t11.5 46.5q0 32 -16 51t-43 19q-20 0 -37.5 -11.5t-27.5 -28.5l2 58h64l-69 -100h-13l-46 86q27 17 65 26.5t74 9.5q78 0 120.5 -24.5t42.5 -68.5q0 -26 -18 -54t-60 -63t-115 -84l-29 -25l6 23h152l58 64h14l-2 -141h-291z
" />
    <glyph glyph-name="uni00B3" unicode="&#xb3;" horiz-adv-x="385" 
d="M184 392q-41 0 -79 10t-69 29l43 83h14l69 -104l-65 5l-2 52q27 -35 76 -35q28 0 45.5 19.5t17.5 50.5q0 32 -22 53.5t-55 21.5v33q96 0 144 -26t48 -78q0 -49 -46 -81.5t-119 -32.5zM157 599v16q31 0 52.5 20t21.5 49q0 24 -16 38.5t-42 14.5q-43 0 -75 -30l2 49l68 7
l-70 -102h-13l-43 81q60 35 145 35q69 0 109.5 -23.5t40.5 -64.5q0 -44 -45 -67t-135 -23z" />
    <glyph glyph-name="acute" unicode="&#xb4;" horiz-adv-x="293" 
d="M54 560l-18 12l73 237h7l141 -96v-7z" />
    <glyph glyph-name="uni00B5" unicode="&#xb5;" horiz-adv-x="651" 
d="M81 164h30v-107l138 -224v-23l-158 -46h-10v400zM236 -15q-75 0 -115 45t-40 129v244l43 -91l-112 108v22l200 61h31v-305q0 -54 19.5 -78.5t63.5 -24.5q29 0 56 11.5t50 32.5v-58h-12q-41 -48 -87 -72t-97 -24zM469 -13l-43 92h-10v325l43 -90l-112 107v22l200 62h31
v-405l-42 74l103 -100v-22l-145 -65h-25z" />
    <glyph glyph-name="paragraph" unicode="&#xb6;" horiz-adv-x="614" 
d="M308 278q-80 0 -142 27.5t-96.5 76.5t-34.5 113q0 91 68.5 143t184.5 52h60v-412h-40zM319 -107v797h58v-797h-58zM460 -107v797h128v-22l-91 -86l21 67v-756h-58zM363 632v58h108v-58h-108z" />
    <glyph glyph-name="periodcentered" unicode="&#xb7;" horiz-adv-x="322" 
d="M161 250q-45 0 -76 27t-31 68t31 68t76 27t76 -27t31 -68t-31 -68t-76 -27z" />
    <glyph glyph-name="cedilla" unicode="&#xb8;" horiz-adv-x="301" 
d="M36 -243l15 33q48 -4 76.5 5t28.5 28q0 16 -19.5 27.5t-55.5 15.5l58 144h53l-26 -62q51 -7 81.5 -31.5t30.5 -59.5q0 -42 -31 -68.5t-85.5 -35t-125.5 3.5z" />
    <glyph glyph-name="uni00B9" unicode="&#xb9;" horiz-adv-x="315" 
d="M39 404v14l72 34v224h-77l-4 13l165 88h17v-325l73 -34v-14h-246z" />
    <glyph glyph-name="ordmasculine" unicode="&#xba;" horiz-adv-x="502" 
d="M249 311q-64 0 -112 23.5t-74.5 66.5t-26.5 101q0 60 27.5 106t77 72t112.5 26q65 0 112.5 -23.5t74 -66.5t26.5 -101q0 -60 -27.5 -106t-76.5 -72t-113 -26zM260 361q36 0 57 33.5t21 88.5q0 85 -24.5 128.5t-71.5 43.5q-35 0 -56.5 -33t-21.5 -89q0 -84 24.5 -128
t71.5 -44zM74 213v57h354v-57h-354z" />
    <glyph glyph-name="guillemotright" unicode="&#xbb;" horiz-adv-x="502" 
d="M265 128l-25 16l92 211l-92 211l25 16l224 -223v-8zM61 128l-25 16l92 211l-92 211l25 16l224 -223v-8z" />
    <glyph glyph-name="onequarter" unicode="&#xbc;" horiz-adv-x="785" 
d="M50 329v14l72 34v224h-78l-3 13l165 88h17v-325l72 -34v-14h-245zM66 0l566 690h78l-566 -690h-78zM405 83l-11 16l140 262h136v-13l-245 -248l-1 -12zM405 83l18 38h326v-38h-344zM510 0v14l58 29v158h101v-158l59 -29v-14h-218z" />
    <glyph glyph-name="onehalf" unicode="&#xbd;" horiz-adv-x="802" 
d="M50 329v14l72 34v224h-78l-3 13l165 88h17v-325l72 -34v-14h-245zM66 0l566 690h78l-566 -690h-78zM474 0l-11 21l59 61q46 45 72 77.5t37.5 57t11.5 46.5q0 32 -16 51t-43 19q-20 0 -37.5 -11.5t-28.5 -28.5l3 58h64l-69 -100h-13l-46 86q27 17 65 26.5t73 9.5
q79 0 121.5 -24.5t42.5 -68.5q0 -26 -18 -54t-60.5 -63t-114.5 -84l-29 -25l6 23h152l58 64h13l-2 -141h-290z" />
    <glyph glyph-name="threequarters" unicode="&#xbe;" horiz-adv-x="808" 
d="M184 317q-41 0 -79 10t-69 29l43 83h14l69 -104l-65 5l-2 52q27 -35 76 -35q28 0 45.5 19.5t17.5 50.5q0 32 -22 53.5t-55 21.5v33q96 0 144 -26t48 -78q0 -49 -46 -81.5t-119 -32.5zM157 524v16q31 0 52.5 20t21.5 49q0 24 -16 38.5t-42 14.5q-43 0 -75 -30l2 49l68 7
l-70 -102h-13l-43 81q60 35 145 35q69 0 109.5 -23.5t40.5 -64.5q0 -44 -45 -67t-135 -23zM89 0l566 690h78l-566 -690h-78zM425 83l-11 16l140 262h136v-13l-245 -248l-1 -12zM425 83l18 38h326v-38h-344zM530 0v14l58 29v158h101v-158l59 -29v-14h-218z" />
    <glyph glyph-name="questiondown" unicode="&#xbf;" horiz-adv-x="571" 
d="M368 273l15 -58q12 -51 4.5 -82.5t-27.5 -50t-46 -30.5t-50.5 -23.5t-41 -28.5t-16.5 -47q0 -43 33.5 -68.5t87.5 -25.5q75 0 113 70v-98h-124l135 176h25l82 -144q-37 -23 -80.5 -39.5t-89.5 -25t-94 -8.5q-77 0 -134.5 21.5t-90.5 60.5t-33 89q0 48 17.5 79.5t45.5 52
t60.5 35.5t62 30.5t51 37.5t27.5 57l3 20h65zM334 511q45 0 76 -27t31 -68t-31 -68t-76 -27t-76 27t-31 68t31 68t76 27z" />
    <glyph glyph-name="Agrave" unicode="&#xc0;" horiz-adv-x="766" 
d="M2 0v22l76 85l-51 -94l300 677h112l300 -677l-52 94l77 -85v-22h-316v22l99 82l9 -91l-260 588h35l-166 -588l-3 90l100 -81v-22h-260zM174 200v58h381v-58h-381zM305 582l-79 86v22h126zM433 734l-254 95v7l106 127h7l154 -214z" />
    <glyph glyph-name="Aacute" unicode="&#xc1;" horiz-adv-x="766" 
d="M2 0v22l76 85l-51 -94l300 677h112l300 -677l-52 94l77 -85v-22h-316v22l99 82l9 -91l-260 588h35l-166 -588l-3 90l100 -81v-22h-260zM174 200v58h381v-58h-381zM305 582l-79 86v22h126zM293 734l-13 15l155 214h6l106 -127v-7z" />
    <glyph glyph-name="Acircumflex" unicode="&#xc2;" horiz-adv-x="766" 
d="M2 0v22l76 85l-51 -94l300 677h112l300 -677l-52 94l77 -85v-22h-316v22l99 82l9 -91l-260 588h35l-166 -588l-3 90l100 -81v-22h-260zM174 200v58h381v-58h-381zM305 582l-79 86v22h126zM181 731l-14 16l167 188h56l167 -188l-14 -16l-187 78h12z" />
    <glyph glyph-name="Atilde" unicode="&#xc3;" horiz-adv-x="766" 
d="M2 0v22l76 85l-51 -94l300 677h112l300 -677l-52 94l77 -85v-22h-316v22l99 82l9 -91l-260 588h35l-166 -588l-3 90l100 -81v-22h-260zM174 200v58h381v-58h-381zM305 582l-79 86v22h126zM442 748q-34 0 -63 10t-57.5 20t-60.5 10q-62 0 -85 -39l-23 7q7 63 41.5 99
t87.5 36q35 0 64 -10t57.5 -20t60.5 -10q62 0 84 39l24 -7q-7 -63 -41.5 -99t-88.5 -36z" />
    <glyph glyph-name="Adieresis" unicode="&#xc4;" horiz-adv-x="766" 
d="M2 0v22l76 85l-51 -94l300 677h112l300 -677l-52 94l77 -85v-22h-316v22l99 82l9 -91l-260 588h35l-166 -588l-3 90l100 -81v-22h-260zM174 200v58h381v-58h-381zM305 582l-79 86v22h126zM241 747q-38 0 -62.5 22t-24.5 55q0 34 24.5 56t62.5 22t62.5 -22t24.5 -56
q0 -33 -24.5 -55t-62.5 -22zM483 747q-38 0 -63 22t-25 55q0 34 25 56t63 22q39 0 63 -22t24 -56q0 -33 -24 -55t-63 -22z" />
    <glyph glyph-name="Aring" unicode="&#xc5;" horiz-adv-x="766" 
d="M2 0v22l76 85l-51 -94l300 677h112l300 -677l-52 94l77 -85v-22h-316v22l99 82l9 -91l-260 588h35l-166 -588l-3 90l100 -81v-22h-260zM174 200v58h381v-58h-381zM305 582l-79 86v22h126zM362 733q-55 0 -90 33t-35 84t35 83.5t90 32.5t90 -32.5t35 -83.5t-35 -84
t-90 -33zM362 784q29 0 47 18.5t18 47.5q0 28 -18.5 46.5t-46.5 18.5q-29 0 -47 -18.5t-18 -47.5q0 -28 18.5 -46.5t46.5 -18.5z" />
    <glyph glyph-name="AE" unicode="&#xc6;" horiz-adv-x="1003" 
d="M2 0v22l74 84l-61 -93l404 677h145l122 -690h-261v22l99 82l-11 -91l-104 588h12l-254 -588l8 89l99 -79v-23h-272zM204 209v58h319v-58h-319zM632 0v43l296 29v-72h-296zM790 0v46l154 138h24l-6 -184h-172zM839 321l-268 15v46l268 16v-77zM394 576l-101 92v22h151z
M843 251l-95 88v41l95 88h25v-217h-25zM909 618l-419 23v49h419v-72zM906 524l-143 120v46l149 14h18l1 -180h-25z" />
    <glyph glyph-name="Ccedilla" unicode="&#xc7;" horiz-adv-x="700" 
d="M392 -16q-110 0 -190.5 42t-123.5 120t-43 185q0 85 27 153.5t77 118.5t120 76.5t156 26.5q43 0 86 -8.5t84.5 -25t77.5 -39.5l-76 -144h-25l-142 176h125v-98q-38 70 -118 70q-57 0 -102.5 -36.5t-72 -98.5t-26.5 -140q0 -82 28.5 -143t81 -94t123.5 -33q51 0 93.5 21
t74.5 61l38 -21q-34 -78 -107 -123.5t-166 -45.5zM240 -243l15 33q48 -4 76.5 5t28.5 28q0 16 -19.5 27.5t-55.5 15.5l58 144h53l-26 -62q51 -7 81.5 -31.5t30.5 -59.5q0 -42 -31 -68.5t-85.5 -35t-125.5 3.5z" />
    <glyph glyph-name="Egrave" unicode="&#xc8;" horiz-adv-x="636" 
d="M27 0v22l71 67v512l-71 67v22h247v-690h-247zM224 0v47l337 25v-72h-337zM423 0v46l153 138h25l-6 -184h-172zM476 318l-254 15v45l254 16v-76zM480 247l-95 88v42l95 88h25v-218h-25zM561 618l-337 25v47h337v-72zM558 524l-143 120v46l148 14h19l1 -180h-25zM389 734
l-254 95v7l105 127h7l155 -214z" />
    <glyph glyph-name="Eacute" unicode="&#xc9;" horiz-adv-x="636" 
d="M27 0v22l71 67v512l-71 67v22h247v-690h-247zM224 0v47l337 25v-72h-337zM423 0v46l153 138h25l-6 -184h-172zM476 318l-254 15v45l254 16v-76zM480 247l-95 88v42l95 88h25v-218h-25zM561 618l-337 25v47h337v-72zM558 524l-143 120v46l148 14h19l1 -180h-25zM249 734
l-13 15l155 214h6l106 -127v-7z" />
    <glyph glyph-name="Ecircumflex" unicode="&#xca;" horiz-adv-x="636" 
d="M27 0v22l71 67v512l-71 67v22h247v-690h-247zM224 0v47l337 25v-72h-337zM423 0v46l153 138h25l-6 -184h-172zM476 318l-254 15v45l254 16v-76zM480 247l-95 88v42l95 88h25v-218h-25zM561 618l-337 25v47h337v-72zM558 524l-143 120v46l148 14h19l1 -180h-25zM137 731
l-14 16l167 188h56l167 -188l-14 -16l-187 78h12z" />
    <glyph glyph-name="Edieresis" unicode="&#xcb;" horiz-adv-x="636" 
d="M27 0v22l71 67v512l-71 67v22h247v-690h-247zM224 0v47l337 25v-72h-337zM423 0v46l153 138h25l-6 -184h-172zM476 318l-254 15v45l254 16v-76zM480 247l-95 88v42l95 88h25v-218h-25zM561 618l-337 25v47h337v-72zM558 524l-143 120v46l148 14h19l1 -180h-25zM197 747
q-38 0 -62.5 22t-24.5 55q0 34 24.5 56t62.5 22t62.5 -22t24.5 -56q0 -33 -24.5 -55t-62.5 -22zM439 747q-38 0 -63 22t-25 55q0 34 25 56t63 22q39 0 63 -22t24 -56q0 -33 -24 -55t-63 -22z" />
    <glyph glyph-name="Igrave" unicode="&#xcc;" horiz-adv-x="372" 
d="M27 0v22l71 67v512l-71 67v22h318v-22l-71 -67v-512l71 -67v-22h-318zM257 734l-255 95v7l106 127h7l155 -214z" />
    <glyph glyph-name="Iacute" unicode="&#xcd;" horiz-adv-x="372" 
d="M27 0v22l71 67v512l-71 67v22h318v-22l-71 -67v-512l71 -67v-22h-318zM117 734l-13 15l155 214h6l106 -127v-7z" />
    <glyph glyph-name="Icircumflex" unicode="&#xce;" horiz-adv-x="372" 
d="M27 0v22l71 67v512l-71 67v22h318v-22l-71 -67v-512l71 -67v-22h-318zM5 731l-14 16l167 188h56l167 -188l-14 -16l-187 78h12z" />
    <glyph glyph-name="Idieresis" unicode="&#xcf;" horiz-adv-x="372" 
d="M27 0v22l71 67v512l-71 67v22h318v-22l-71 -67v-512l71 -67v-22h-318zM65 747q-38 0 -62.5 22t-24.5 55q0 34 24.5 56t62.5 22t62.5 -22t24.5 -56q0 -33 -24.5 -55t-62.5 -22zM307 747q-38 0 -63 22t-25 55q0 34 25 56t63 22q39 0 63 -22t24 -56q0 -33 -24 -55t-63 -22z
" />
    <glyph glyph-name="Eth" unicode="&#xd0;" horiz-adv-x="793" 
d="M207 0v58h139q68 0 117.5 34.5t76 98.5t26.5 151q0 90 -26.5 154.5t-75.5 100t-116 35.5h-141v58h160q119 0 207 -41.5t136 -116.5t48 -178q0 -78 -30 -143t-84.5 -112t-129.5 -73t-165 -26h-142zM27 0v22l71 67v512l-71 67v22h247v-690h-247zM27 319v63h386v-63h-386z
" />
    <glyph glyph-name="Ntilde" unicode="&#xd1;" horiz-adv-x="762" 
d="M573 -1l-438 552v139h100l417 -526l-30 -41l-62 478l-71 67v22h246v-22l-71 -67v-602h-91zM27 0v22l71 67l21 486l-80 93v22h115l48 -601l71 -67v-22h-246zM459 748q-34 0 -63 10t-57.5 20t-60.5 10q-62 0 -85 -39l-23 7q7 63 41.5 99t87.5 36q35 0 64 -10t57.5 -20
t60.5 -10q62 0 84 39l24 -7q-7 -63 -41.5 -99t-88.5 -36z" />
    <glyph glyph-name="Ograve" unicode="&#xd2;" horiz-adv-x="826" 
d="M408 -16q-113 0 -197 43.5t-130 123.5t-46 189q0 112 47 194t133 127t203 45q114 0 197.5 -43.5t129.5 -123t46 -189.5q0 -111 -47 -193.5t-133 -127.5t-203 -45zM421 54q56 0 96 32.5t60.5 94t20.5 148.5q0 95 -23.5 163.5t-66.5 106t-103 37.5q-57 0 -96.5 -32t-60 -94
t-20.5 -149q0 -94 23.5 -163t67 -106.5t102.5 -37.5zM484 734l-254 95v7l106 127h7l154 -214z" />
    <glyph glyph-name="Oacute" unicode="&#xd3;" horiz-adv-x="826" 
d="M408 -16q-113 0 -197 43.5t-130 123.5t-46 189q0 112 47 194t133 127t203 45q114 0 197.5 -43.5t129.5 -123t46 -189.5q0 -111 -47 -193.5t-133 -127.5t-203 -45zM421 54q56 0 96 32.5t60.5 94t20.5 148.5q0 95 -23.5 163.5t-66.5 106t-103 37.5q-57 0 -96.5 -32t-60 -94
t-20.5 -149q0 -94 23.5 -163t67 -106.5t102.5 -37.5zM344 734l-13 15l155 214h6l106 -127v-7z" />
    <glyph glyph-name="Ocircumflex" unicode="&#xd4;" horiz-adv-x="826" 
d="M408 -16q-113 0 -197 43.5t-130 123.5t-46 189q0 112 47 194t133 127t203 45q114 0 197.5 -43.5t129.5 -123t46 -189.5q0 -111 -47 -193.5t-133 -127.5t-203 -45zM421 54q56 0 96 32.5t60.5 94t20.5 148.5q0 95 -23.5 163.5t-66.5 106t-103 37.5q-57 0 -96.5 -32t-60 -94
t-20.5 -149q0 -94 23.5 -163t67 -106.5t102.5 -37.5zM232 731l-14 16l167 188h56l167 -188l-14 -16l-187 78h12z" />
    <glyph glyph-name="Otilde" unicode="&#xd5;" horiz-adv-x="826" 
d="M408 -16q-113 0 -197 43.5t-130 123.5t-46 189q0 112 47 194t133 127t203 45q114 0 197.5 -43.5t129.5 -123t46 -189.5q0 -111 -47 -193.5t-133 -127.5t-203 -45zM421 54q56 0 96 32.5t60.5 94t20.5 148.5q0 95 -23.5 163.5t-66.5 106t-103 37.5q-57 0 -96.5 -32t-60 -94
t-20.5 -149q0 -94 23.5 -163t67 -106.5t102.5 -37.5zM493 748q-34 0 -63 10t-57.5 20t-60.5 10q-62 0 -85 -39l-23 7q7 63 41.5 99t87.5 36q35 0 64 -10t57.5 -20t60.5 -10q62 0 84 39l24 -7q-7 -63 -41.5 -99t-88.5 -36z" />
    <glyph glyph-name="Odieresis" unicode="&#xd6;" horiz-adv-x="826" 
d="M408 -16q-113 0 -197 43.5t-130 123.5t-46 189q0 112 47 194t133 127t203 45q114 0 197.5 -43.5t129.5 -123t46 -189.5q0 -111 -47 -193.5t-133 -127.5t-203 -45zM421 54q56 0 96 32.5t60.5 94t20.5 148.5q0 95 -23.5 163.5t-66.5 106t-103 37.5q-57 0 -96.5 -32t-60 -94
t-20.5 -149q0 -94 23.5 -163t67 -106.5t102.5 -37.5zM292 747q-38 0 -62.5 22t-24.5 55q0 34 24.5 56t62.5 22t62.5 -22t24.5 -56q0 -33 -24.5 -55t-62.5 -22zM534 747q-38 0 -63 22t-25 55q0 34 25 56t63 22q39 0 63 -22t24 -56q0 -33 -24 -55t-63 -22z" />
    <glyph glyph-name="multiply" unicode="&#xd7;" horiz-adv-x="518" 
d="M439 119l43 43l-403 403l-43 -43zM79 119l403 403l-43 43l-403 -403z" />
    <glyph glyph-name="Oslash" unicode="&#xd8;" horiz-adv-x="826" 
d="M408 -16q-113 0 -197 43.5t-130 123.5t-46 189q0 112 47 194t133 127t203 45q114 0 197.5 -43.5t129.5 -123t46 -189.5q0 -111 -47 -193.5t-133 -127.5t-203 -45zM421 54q56 0 96 32.5t60.5 94t20.5 148.5q0 95 -23.5 163.5t-66.5 106t-103 37.5q-57 0 -96.5 -32t-60 -94
t-20.5 -149q0 -94 23.5 -163t67 -106.5t102.5 -37.5zM118 -27l544 777l46 -32l-544 -778z" />
    <glyph glyph-name="Ugrave" unicode="&#xd9;" horiz-adv-x="737" 
d="M563 595l-87 73v22h259v-22l-75 -73v-340q0 -82 -34.5 -142.5t-97.5 -94.5t-147 -34q-149 0 -228.5 68.5t-79.5 196.5v352l-71 67v22h318v-22l-71 -67v-321q0 -102 39 -152t118 -50t118 50t39 152v315zM471 734l-254 95v7l106 127h7l154 -214z" />
    <glyph glyph-name="Uacute" unicode="&#xda;" horiz-adv-x="737" 
d="M563 595l-87 73v22h259v-22l-75 -73v-340q0 -82 -34.5 -142.5t-97.5 -94.5t-147 -34q-149 0 -228.5 68.5t-79.5 196.5v352l-71 67v22h318v-22l-71 -67v-321q0 -102 39 -152t118 -50t118 50t39 152v315zM331 734l-13 15l155 214h6l106 -127v-7z" />
    <glyph glyph-name="Ucircumflex" unicode="&#xdb;" horiz-adv-x="737" 
d="M563 595l-87 73v22h259v-22l-75 -73v-340q0 -82 -34.5 -142.5t-97.5 -94.5t-147 -34q-149 0 -228.5 68.5t-79.5 196.5v352l-71 67v22h318v-22l-71 -67v-321q0 -102 39 -152t118 -50t118 50t39 152v315zM219 731l-14 16l167 188h56l167 -188l-14 -16l-187 78h12z" />
    <glyph glyph-name="Udieresis" unicode="&#xdc;" horiz-adv-x="737" 
d="M563 595l-87 73v22h259v-22l-75 -73v-340q0 -82 -34.5 -142.5t-97.5 -94.5t-147 -34q-149 0 -228.5 68.5t-79.5 196.5v352l-71 67v22h318v-22l-71 -67v-321q0 -102 39 -152t118 -50t118 50t39 152v315zM279 747q-38 0 -62.5 22t-24.5 55q0 34 24.5 56t62.5 22t62.5 -22
t24.5 -56q0 -33 -24.5 -55t-62.5 -22zM521 747q-38 0 -63 22t-25 55q0 34 25 56t63 22q39 0 63 -22t24 -56q0 -33 -24 -55t-63 -22z" />
    <glyph glyph-name="Yacute" unicode="&#xdd;" horiz-adv-x="722" 
d="M307 200l-292 477l64 -94l-77 85v22h322v-22l-121 -98l4 107l225 -365h-8l129 365l4 -92l-101 83v22h264v-22l-77 -84l64 93l-295 -477h-105zM204 0v22l71 67v199h176v-199l71 -67v-22h-318zM320 734l-13 15l155 214h6l106 -127v-7z" />
    <glyph glyph-name="Thorn" unicode="&#xde;" horiz-adv-x="683" 
d="M27 0v22l71 67v512l-71 67v22h318v-22l-71 -67v-512l71 -67v-22h-318zM163 132v58h150q66 0 104.5 44.5t38.5 118.5q0 71 -38.5 112.5t-104.5 41.5h-133v58h197q81 0 142 -25t95 -70.5t34 -106.5q0 -75 -38 -127t-113 -78t-186 -26h-148z" />
    <glyph glyph-name="germandbls" unicode="&#xdf;" horiz-adv-x="738" 
d="M32 0v17l78 83l-16 -28v329l43 -102l-112 118v22l125 42l-56 -43v84q0 78 33.5 135t94 88.5t142.5 31.5q83 0 141.5 -20.5t89.5 -60t31 -95.5q0 -53 -36 -94t-99 -64t-146 -23v28q52 0 82 38.5t30 101.5q0 57 -25 89.5t-69 32.5q-49 0 -78 -42t-29 -114v-554h-224z
M475 -15q-56 0 -99 14.5t-86 47.5l63 129h27l111 -154h-117v50q17 -18 33.5 -26t40.5 -8q39 0 61.5 43t22.5 116q0 52 -24.5 92t-66.5 63.5t-96 23.5v66q115 0 194.5 -27t121 -78t41.5 -123q0 -67 -29 -118.5t-80 -81t-118 -29.5zM417 418v28h46v-28h-46z" />
    <glyph glyph-name="agrave" unicode="&#xe0;" horiz-adv-x="595" 
d="M412 -13l-40 75h-12v261q0 58 -27.5 90t-76.5 32q-28 0 -52.5 -14t-39.5 -38l1 96h98l-129 -168h-26l-59 143q24 14 63 25t83.5 17.5t87.5 6.5q116 0 177.5 -47.5t61.5 -137.5v-228l-43 74l103 -100v-22l-145 -65h-25zM191 -15q-66 0 -108 38t-42 98q0 131 220 172
l122 23v-54l-74 -18q-52 -13 -75.5 -34t-23.5 -55t18.5 -52.5t51.5 -18.5q56 0 95 32v-54h-11q-31 -38 -75 -57.5t-98 -19.5zM351 560l-203 146v7l141 96h7l73 -237z" />
    <glyph glyph-name="aacute" unicode="&#xe1;" horiz-adv-x="595" 
d="M412 -13l-40 75h-12v261q0 58 -27.5 90t-76.5 32q-28 0 -52.5 -14t-39.5 -38l1 96h98l-129 -168h-26l-59 143q24 14 63 25t83.5 17.5t87.5 6.5q116 0 177.5 -47.5t61.5 -137.5v-228l-43 74l103 -100v-22l-145 -65h-25zM191 -15q-66 0 -108 38t-42 98q0 131 220 172
l122 23v-54l-74 -18q-52 -13 -75.5 -34t-23.5 -55t18.5 -52.5t51.5 -18.5q56 0 95 32v-54h-11q-31 -38 -75 -57.5t-98 -19.5zM252 560l-18 12l73 237h7l141 -96v-7z" />
    <glyph glyph-name="acircumflex" unicode="&#xe2;" horiz-adv-x="595" 
d="M412 -13l-40 75h-12v261q0 58 -27.5 90t-76.5 32q-28 0 -52.5 -14t-39.5 -38l1 96h98l-129 -168h-26l-59 143q24 14 63 25t83.5 17.5t87.5 6.5q116 0 177.5 -47.5t61.5 -137.5v-228l-43 74l103 -100v-22l-145 -65h-25zM191 -15q-66 0 -108 38t-42 98q0 131 220 172
l122 23v-54l-74 -18q-52 -13 -75.5 -34t-23.5 -55t18.5 -52.5t51.5 -18.5q56 0 95 32v-54h-11q-31 -38 -75 -57.5t-98 -19.5zM139 559l-18 16l160 227h39l160 -227l-18 -16l-167 96h12z" />
    <glyph glyph-name="atilde" unicode="&#xe3;" horiz-adv-x="595" 
d="M412 -13l-40 75h-12v261q0 58 -27.5 90t-76.5 32q-28 0 -52.5 -14t-39.5 -38l1 96h98l-129 -168h-26l-59 143q24 14 63 25t83.5 17.5t87.5 6.5q116 0 177.5 -47.5t61.5 -137.5v-228l-43 74l103 -100v-22l-145 -65h-25zM191 -15q-66 0 -108 38t-42 98q0 131 220 172
l122 23v-54l-74 -18q-52 -13 -75.5 -34t-23.5 -55t18.5 -52.5t51.5 -18.5q56 0 95 32v-54h-11q-31 -38 -75 -57.5t-98 -19.5zM389 565q-34 0 -62.5 13.5t-55.5 27.5t-55 14q-31 0 -55.5 -14t-35.5 -40l-25 7q7 68 42.5 110.5t86.5 42.5q35 0 63.5 -13.5t55.5 -27.5t55 -14
q31 0 55.5 14.5t35.5 39.5l25 -7q-7 -68 -42.5 -110.5t-87.5 -42.5z" />
    <glyph glyph-name="adieresis" unicode="&#xe4;" horiz-adv-x="595" 
d="M412 -13l-40 75h-12v261q0 58 -27.5 90t-76.5 32q-28 0 -52.5 -14t-39.5 -38l1 96h98l-129 -168h-26l-59 143q24 14 63 25t83.5 17.5t87.5 6.5q116 0 177.5 -47.5t61.5 -137.5v-228l-43 74l103 -100v-22l-145 -65h-25zM191 -15q-66 0 -108 38t-42 98q0 131 220 172
l122 23v-54l-74 -18q-52 -13 -75.5 -34t-23.5 -55t18.5 -52.5t51.5 -18.5q56 0 95 32v-54h-11q-31 -38 -75 -57.5t-98 -19.5zM181 578q-38 0 -62.5 22t-24.5 57q0 34 24.5 56t62.5 22t62.5 -22t24.5 -56q0 -35 -24.5 -57t-62.5 -22zM419 578q-38 0 -62.5 22t-24.5 57
q0 34 24.5 56t62.5 22q39 0 63 -22t24 -56q0 -35 -24 -57t-63 -22z" />
    <glyph glyph-name="aring" unicode="&#xe5;" horiz-adv-x="595" 
d="M412 -13l-40 75h-12v261q0 58 -27.5 90t-76.5 32q-28 0 -52.5 -14t-39.5 -38l1 96h98l-129 -168h-26l-59 143q24 14 63 25t83.5 17.5t87.5 6.5q116 0 177.5 -47.5t61.5 -137.5v-228l-43 74l103 -100v-22l-145 -65h-25zM191 -15q-66 0 -108 38t-42 98q0 131 220 172
l122 23v-54l-74 -18q-52 -13 -75.5 -34t-23.5 -55t18.5 -52.5t51.5 -18.5q56 0 95 32v-54h-11q-31 -38 -75 -57.5t-98 -19.5zM299 562q-61 0 -100 36.5t-39 94.5t39.5 94.5t99.5 36.5q63 0 102 -36.5t39 -94.5t-39 -94.5t-102 -36.5zM300 618q33 0 53.5 21t20.5 54
q0 34 -20.5 54.5t-53.5 20.5t-53.5 -20.5t-20.5 -54.5q0 -33 20.5 -54t53.5 -21z" />
    <glyph glyph-name="ae" unicode="&#xe6;" horiz-adv-x="899" 
d="M360 276v47q0 58 -27.5 90t-76.5 32q-28 0 -52.5 -14t-39.5 -38l1 96h98l-129 -168h-26l-59 143q24 14 63 25t83.5 17.5t87.5 6.5q71 0 125 -23.5t84 -65t30 -96.5v-52h-162zM191 -15q-66 0 -108 38t-42 97q0 65 58.5 109.5t161.5 56.5l122 14v-57l-74 -10
q-51 -7 -75 -30t-24 -56q0 -30 18.5 -46.5t51.5 -16.5q43 0 79 15.5t61 44.5l1 -66h-11q-38 -48 -91 -70.5t-128 -22.5zM624 -15q-77 0 -135 31t-91 86.5t-33 126.5q0 60 21 111.5t59 89.5t88.5 59.5t109.5 21.5q66 0 115 -29.5t77 -82t28 -122.5l-383 -27v51l225 32
q0 50 -22 80t-60 30q-27 0 -47.5 -21.5t-31.5 -62t-11 -94.5q0 -82 40 -130t110 -48q82 0 134 53l32 -24q-29 -61 -89 -96t-136 -35z" />
    <glyph glyph-name="ccedilla" unicode="&#xe7;" horiz-adv-x="534" 
d="M295 -15q-76 0 -134.5 31t-91.5 86.5t-33 126.5q0 83 36.5 146.5t101.5 99.5t150 36q52 0 102 -13t87 -36l-61 -145h-26l-116 157h89v-60q-28 30 -75 30q-34 0 -61 -23.5t-43 -63.5t-16 -92q0 -82 40.5 -130t110.5 -48q74 0 126 53l32 -24q-29 -61 -87 -96t-131 -35z
M175 -243l15 33q48 -4 76.5 5t28.5 28q0 16 -19.5 27.5t-55.5 15.5l58 144h53l-26 -62q51 -7 81.5 -31.5t30.5 -59.5q0 -42 -31 -68.5t-85.5 -35t-125.5 3.5z" />
    <glyph glyph-name="egrave" unicode="&#xe8;" horiz-adv-x="570" 
d="M295 -15q-76 0 -134.5 31t-91.5 86.5t-33 126.5q0 83 35.5 146.5t98.5 99.5t145 36q65 0 114 -31.5t77 -90.5t28 -140h-382v36l217 38q0 59 -20.5 89.5t-54.5 30.5q-27 0 -47.5 -21.5t-31.5 -62t-11 -94.5q0 -82 40.5 -130t109.5 -48q83 0 135 53l31 -24
q-29 -61 -88.5 -96t-136.5 -35zM354 560l-203 146v7l141 96h7l73 -237z" />
    <glyph glyph-name="eacute" unicode="&#xe9;" horiz-adv-x="570" 
d="M295 -15q-76 0 -134.5 31t-91.5 86.5t-33 126.5q0 83 35.5 146.5t98.5 99.5t145 36q65 0 114 -31.5t77 -90.5t28 -140h-382v36l217 38q0 59 -20.5 89.5t-54.5 30.5q-27 0 -47.5 -21.5t-31.5 -62t-11 -94.5q0 -82 40.5 -130t109.5 -48q83 0 135 53l31 -24
q-29 -61 -88.5 -96t-136.5 -35zM255 560l-18 12l73 237h7l141 -96v-7z" />
    <glyph glyph-name="ecircumflex" unicode="&#xea;" horiz-adv-x="570" 
d="M295 -15q-76 0 -134.5 31t-91.5 86.5t-33 126.5q0 83 35.5 146.5t98.5 99.5t145 36q65 0 114 -31.5t77 -90.5t28 -140h-382v36l217 38q0 59 -20.5 89.5t-54.5 30.5q-27 0 -47.5 -21.5t-31.5 -62t-11 -94.5q0 -82 40.5 -130t109.5 -48q83 0 135 53l31 -24
q-29 -61 -88.5 -96t-136.5 -35zM141 559l-18 16l160 227h39l160 -227l-18 -16l-167 96h12z" />
    <glyph glyph-name="edieresis" unicode="&#xeb;" horiz-adv-x="570" 
d="M295 -15q-76 0 -134.5 31t-91.5 86.5t-33 126.5q0 83 35.5 146.5t98.5 99.5t145 36q65 0 114 -31.5t77 -90.5t28 -140h-382v36l217 38q0 59 -20.5 89.5t-54.5 30.5q-27 0 -47.5 -21.5t-31.5 -62t-11 -94.5q0 -82 40.5 -130t109.5 -48q83 0 135 53l31 -24
q-29 -61 -88.5 -96t-136.5 -35zM184 578q-38 0 -62.5 22t-24.5 57q0 34 24.5 56t62.5 22t62.5 -22t24.5 -56q0 -35 -24.5 -57t-62.5 -22zM422 578q-38 0 -62.5 22t-24.5 57q0 34 24.5 56t62.5 22q39 0 63 -22t24 -56q0 -35 -24 -57t-63 -22z" />
    <glyph glyph-name="igrave" unicode="&#xec;" horiz-adv-x="331" 
d="M32 0v17l78 83l-16 -28v306l43 -75l-112 114v22l200 66h31v-434l-15 28l77 -82v-17h-286zM229 560l-203 146v7l141 96h7l73 -237z" />
    <glyph glyph-name="iacute" unicode="&#xed;" horiz-adv-x="331" 
d="M32 0v17l78 83l-16 -28v306l43 -75l-112 114v22l200 66h31v-434l-15 28l77 -82v-17h-286zM130 560l-18 12l73 237h7l141 -96v-7z" />
    <glyph glyph-name="icircumflex" unicode="&#xee;" horiz-adv-x="331" 
d="M32 0v17l78 83l-16 -28v306l43 -75l-112 114v22l200 66h31v-434l-15 28l77 -82v-17h-286zM52 559l-18 16l124 227h39l124 -227l-18 -16l-131 89h12z" />
    <glyph glyph-name="idieresis" unicode="&#xef;" horiz-adv-x="331" 
d="M32 0v17l78 83l-16 -28v306l43 -75l-112 114v22l200 66h31v-434l-15 28l77 -82v-17h-286zM255 578q-34 0 -56 23t-22 60q0 35 22 57.5t56 22.5q35 0 56.5 -22.5t21.5 -57.5q0 -37 -21.5 -60t-56.5 -23zM76 578q-35 0 -56.5 23t-21.5 60q0 35 21.5 57.5t56.5 22.5
q34 0 55.5 -22.5t21.5 -57.5q0 -37 -21.5 -60t-55.5 -23z" />
    <glyph glyph-name="eth" unicode="&#xf0;" horiz-adv-x="644" 
d="M320 -15q-87 0 -150.5 31.5t-98.5 88.5t-35 135q0 80 37 141t102.5 95.5t150.5 34.5q46 0 84 -18t64 -53h48v-206h-83q0 101 -33 155.5t-95 54.5q-31 0 -55 -20t-37 -56.5t-13 -85.5q0 -76 15 -127t43.5 -77t70.5 -26q49 0 76.5 49t27.5 133v150q0 117 -73 195t-228 125
v11l19 52h5q214 -54 330 -176t116 -295q0 -95 -35 -165.5t-100 -108t-153 -37.5zM163 532v63l339 166v-63z" />
    <glyph glyph-name="ntilde" unicode="&#xf1;" horiz-adv-x="680" 
d="M389 0v17l70 83l-15 -28v228q0 54 -21 78.5t-68 24.5q-34 0 -62 -11t-52 -34v58h11q90 97 193 97q76 0 118.5 -46.5t42.5 -128.5v-267l-16 28l78 -82v-17h-279zM32 0v17l78 83l-16 -29v330l43 -102l-112 118v22l198 66h31l-7 -89h9v-345l-15 29l71 -83v-17h-280zM437 565
q-34 0 -62.5 13.5t-55.5 27.5t-55 14q-31 0 -55.5 -14t-35.5 -40l-25 7q7 68 42.5 110.5t86.5 42.5q35 0 63.5 -13.5t55.5 -27.5t55 -14q31 0 55.5 14.5t35.5 39.5l25 -7q-7 -68 -42.5 -110.5t-87.5 -42.5z" />
    <glyph glyph-name="ograve" unicode="&#xf2;" horiz-adv-x="646" 
d="M320 -15q-87 0 -150.5 31.5t-98.5 88.5t-35 135q0 80 37 141t102.5 95.5t150.5 34.5q86 0 150 -31.5t99 -88.5t35 -135q0 -79 -37 -140.5t-102.5 -96t-150.5 -34.5zM335 52q32 0 55 20t36 56.5t13 85.5q0 76 -14.5 127t-43 77t-70.5 26q-31 0 -55 -20t-37 -56.5
t-13 -85.5q0 -76 15 -127t43.5 -77t70.5 -26zM374 560l-203 146v7l141 96h7l73 -237z" />
    <glyph glyph-name="oacute" unicode="&#xf3;" horiz-adv-x="646" 
d="M320 -15q-87 0 -150.5 31.5t-98.5 88.5t-35 135q0 80 37 141t102.5 95.5t150.5 34.5q86 0 150 -31.5t99 -88.5t35 -135q0 -79 -37 -140.5t-102.5 -96t-150.5 -34.5zM335 52q32 0 55 20t36 56.5t13 85.5q0 76 -14.5 127t-43 77t-70.5 26q-31 0 -55 -20t-37 -56.5
t-13 -85.5q0 -76 15 -127t43.5 -77t70.5 -26zM275 560l-18 12l73 237h7l141 -96v-7z" />
    <glyph glyph-name="ocircumflex" unicode="&#xf4;" horiz-adv-x="646" 
d="M320 -15q-87 0 -150.5 31.5t-98.5 88.5t-35 135q0 80 37 141t102.5 95.5t150.5 34.5q86 0 150 -31.5t99 -88.5t35 -135q0 -79 -37 -140.5t-102.5 -96t-150.5 -34.5zM335 52q32 0 55 20t36 56.5t13 85.5q0 76 -14.5 127t-43 77t-70.5 26q-31 0 -55 -20t-37 -56.5
t-13 -85.5q0 -76 15 -127t43.5 -77t70.5 -26zM162 559l-18 16l160 227h39l160 -227l-18 -16l-167 96h12z" />
    <glyph glyph-name="otilde" unicode="&#xf5;" horiz-adv-x="646" 
d="M320 -15q-87 0 -150.5 31.5t-98.5 88.5t-35 135q0 80 37 141t102.5 95.5t150.5 34.5q86 0 150 -31.5t99 -88.5t35 -135q0 -79 -37 -140.5t-102.5 -96t-150.5 -34.5zM335 52q32 0 55 20t36 56.5t13 85.5q0 76 -14.5 127t-43 77t-70.5 26q-31 0 -55 -20t-37 -56.5
t-13 -85.5q0 -76 15 -127t43.5 -77t70.5 -26zM412 565q-34 0 -62.5 13.5t-55.5 27.5t-55 14q-31 0 -55.5 -14t-35.5 -40l-25 7q7 68 42.5 110.5t86.5 42.5q35 0 63.5 -13.5t55.5 -27.5t55 -14q31 0 55.5 14.5t35.5 39.5l25 -7q-7 -68 -42.5 -110.5t-87.5 -42.5z" />
    <glyph glyph-name="odieresis" unicode="&#xf6;" horiz-adv-x="646" 
d="M320 -15q-87 0 -150.5 31.5t-98.5 88.5t-35 135q0 80 37 141t102.5 95.5t150.5 34.5q86 0 150 -31.5t99 -88.5t35 -135q0 -79 -37 -140.5t-102.5 -96t-150.5 -34.5zM335 52q32 0 55 20t36 56.5t13 85.5q0 76 -14.5 127t-43 77t-70.5 26q-31 0 -55 -20t-37 -56.5
t-13 -85.5q0 -76 15 -127t43.5 -77t70.5 -26zM204 578q-38 0 -62.5 22t-24.5 57q0 34 24.5 56t62.5 22t62.5 -22t24.5 -56q0 -35 -24.5 -57t-62.5 -22zM442 578q-38 0 -62.5 22t-24.5 57q0 34 24.5 56t62.5 22q39 0 63 -22t24 -56q0 -35 -24 -57t-63 -22z" />
    <glyph glyph-name="divide" unicode="&#xf7;" horiz-adv-x="518" 
d="M36 311v62h446v-62h-446zM259 135q-22 0 -37.5 14t-15.5 35q0 22 15.5 36.5t37.5 14.5q23 0 38 -14.5t15 -36.5q0 -21 -15 -35t-38 -14zM259 449q-22 0 -37.5 14t-15.5 36q0 21 15.5 35.5t37.5 14.5q23 0 38 -14.5t15 -35.5q0 -22 -15 -36t-38 -14z" />
    <glyph glyph-name="oslash" unicode="&#xf8;" horiz-adv-x="646" 
d="M320 -15q-87 0 -150.5 31.5t-98.5 88.5t-35 135q0 80 37 141t102.5 95.5t150.5 34.5q86 0 150 -31.5t99 -88.5t35 -135q0 -79 -37 -140.5t-102.5 -96t-150.5 -34.5zM335 52q32 0 55 20t36 56.5t13 85.5q0 76 -14.5 127t-43 77t-70.5 26q-31 0 -55 -20t-37 -56.5
t-13 -85.5q0 -76 15 -127t43.5 -77t70.5 -26zM144 -56l-45 31l404 578l45 -32z" />
    <glyph glyph-name="ugrave" unicode="&#xf9;" horiz-adv-x="651" 
d="M236 -15q-75 0 -115 45t-40 129v244l43 -91l-112 108v22l200 61h31v-305q0 -54 19.5 -78.5t63.5 -24.5q29 0 56 11.5t50 32.5v-58h-12q-41 -48 -87 -72t-97 -24zM469 -13l-43 92h-10v325l43 -90l-112 107v22l200 62h31v-405l-42 74l103 -100v-22l-145 -65h-25zM377 560
l-204 146v7l141 96h7l73 -237z" />
    <glyph glyph-name="uacute" unicode="&#xfa;" horiz-adv-x="651" 
d="M236 -15q-75 0 -115 45t-40 129v244l43 -91l-112 108v22l200 61h31v-305q0 -54 19.5 -78.5t63.5 -24.5q29 0 56 11.5t50 32.5v-58h-12q-41 -48 -87 -72t-97 -24zM469 -13l-43 92h-10v325l43 -90l-112 107v22l200 62h31v-405l-42 74l103 -100v-22l-145 -65h-25zM277 560
l-18 12l73 237h7l141 -96v-7z" />
    <glyph glyph-name="ucircumflex" unicode="&#xfb;" horiz-adv-x="651" 
d="M236 -15q-75 0 -115 45t-40 129v244l43 -91l-112 108v22l200 61h31v-305q0 -54 19.5 -78.5t63.5 -24.5q29 0 56 11.5t50 32.5v-58h-12q-41 -48 -87 -72t-97 -24zM469 -13l-43 92h-10v325l43 -90l-112 107v22l200 62h31v-405l-42 74l103 -100v-22l-145 -65h-25zM164 559
l-18 16l160 227h39l160 -227l-18 -16l-167 96h12z" />
    <glyph glyph-name="udieresis" unicode="&#xfc;" horiz-adv-x="651" 
d="M236 -15q-75 0 -115 45t-40 129v244l43 -91l-112 108v22l200 61h31v-305q0 -54 19.5 -78.5t63.5 -24.5q29 0 56 11.5t50 32.5v-58h-12q-41 -48 -87 -72t-97 -24zM469 -13l-43 92h-10v325l43 -90l-112 107v22l200 62h31v-405l-42 74l103 -100v-22l-145 -65h-25zM206 578
q-38 0 -62.5 22t-24.5 57q0 34 24.5 56t62.5 22t62.5 -22t24.5 -56q0 -35 -24.5 -57t-62.5 -22zM444 578q-38 0 -62.5 22t-24.5 57q0 34 24.5 56t62.5 22q39 0 63 -22t24 -56q0 -35 -24 -57t-63 -22z" />
    <glyph glyph-name="yacute" unicode="&#xfd;" horiz-adv-x="624" 
d="M286 -78l-240 518h50v-81l-94 120v17h281v-17l-65 -101h-14v89l178 -381l-29 -15l112 415v-96h-8l-68 89v17h233v-17l-90 -117v78h50l-369 -691h-26l-136 111v17l241 102zM285 560l-18 12l73 237h7l141 -96v-7z" />
    <glyph glyph-name="thorn" unicode="&#xfe;" horiz-adv-x="667" 
d="M32 -235v17l78 83l-16 -28v801l43 -79l-112 113v22l200 71h31v-930l-15 24l100 -77v-17h-309zM344 -15q-93 0 -148 43v93q30 -39 61.5 -56.5t72.5 -17.5q43 0 72.5 22t44.5 65t15 107q0 77 -32 121t-88 44q-30 0 -55 -10t-46 -30v58h11q30 40 75.5 63.5t93.5 23.5
q63 0 110 -30t73.5 -83t26.5 -124q0 -84 -36.5 -150t-101 -102.5t-149.5 -36.5z" />
    <glyph glyph-name="ydieresis" unicode="&#xff;" horiz-adv-x="624" 
d="M286 -78l-240 518h50v-81l-94 120v17h281v-17l-65 -101h-14v89l178 -381l-29 -15l112 415v-96h-8l-68 89v17h233v-17l-90 -117v78h50l-369 -691h-26l-136 111v17l241 102zM214 578q-38 0 -62.5 22t-24.5 57q0 34 24.5 56t62.5 22t62.5 -22t24.5 -56q0 -35 -24.5 -57
t-62.5 -22zM452 578q-38 0 -62.5 22t-24.5 57q0 34 24.5 56t62.5 22q39 0 63 -22t24 -56q0 -35 -24 -57t-63 -22z" />
    <glyph glyph-name="Amacron" unicode="&#x100;" horiz-adv-x="766" 
d="M2 0v22l76 85l-51 -94l300 677h112l300 -677l-52 94l77 -85v-22h-316v22l99 82l9 -91l-260 588h35l-166 -588l-3 90l100 -81v-22h-260zM174 200v58h381v-58h-381zM305 582l-79 86v22h126zM174 782v88h377v-88h-377z" />
    <glyph glyph-name="amacron" unicode="&#x101;" horiz-adv-x="595" 
d="M412 -13l-40 75h-12v261q0 58 -27.5 90t-76.5 32q-28 0 -52.5 -14t-39.5 -38l1 96h98l-129 -168h-26l-59 143q24 14 63 25t83.5 17.5t87.5 6.5q116 0 177.5 -47.5t61.5 -137.5v-228l-43 74l103 -100v-22l-145 -65h-25zM191 -15q-66 0 -108 38t-42 98q0 131 220 172
l122 23v-54l-74 -18q-52 -13 -75.5 -34t-23.5 -55t18.5 -52.5t51.5 -18.5q56 0 95 32v-54h-11q-31 -38 -75 -57.5t-98 -19.5zM122 594v88h356v-88h-356z" />
    <glyph glyph-name="Abreve" unicode="&#x102;" horiz-adv-x="766" 
d="M2 0v22l76 85l-51 -94l300 677h112l300 -677l-52 94l77 -85v-22h-316v22l99 82l9 -91l-260 588h35l-166 -588l-3 90l100 -81v-22h-260zM174 200v58h381v-58h-381zM305 582l-79 86v22h126zM363 742q-74 0 -118.5 47.5t-44.5 126.5l22 4q15 -30 55.5 -50t85.5 -20
q47 0 87 20t53 50l23 -4q-1 -79 -45 -126.5t-118 -47.5z" />
    <glyph glyph-name="abreve" unicode="&#x103;" horiz-adv-x="595" 
d="M412 -13l-40 75h-12v261q0 58 -27.5 90t-76.5 32q-28 0 -52.5 -14t-39.5 -38l1 96h98l-129 -168h-26l-59 143q24 14 63 25t83.5 17.5t87.5 6.5q116 0 177.5 -47.5t61.5 -137.5v-228l-43 74l103 -100v-22l-145 -65h-25zM191 -15q-66 0 -108 38t-42 98q0 131 220 172
l122 23v-54l-74 -18q-52 -13 -75.5 -34t-23.5 -55t18.5 -52.5t51.5 -18.5q56 0 95 32v-54h-11q-31 -38 -75 -57.5t-98 -19.5zM301 565q-75 0 -119 53t-44 144l21 2q14 -40 51.5 -63t89.5 -23q53 0 90.5 23t51.5 63l21 -3q0 -90 -43.5 -143t-118.5 -53z" />
    <glyph glyph-name="Aogonek" unicode="&#x104;" horiz-adv-x="766" 
d="M2 0v22l76 85l-51 -94l300 677h112l300 -677l-52 94l77 -85v-22h-316v22l99 82l9 -91l-260 588h35l-166 -588l-3 90l100 -81v-22h-260zM174 200v58h381v-58h-381zM305 582l-79 86v22h126zM602 -251q-57 0 -88.5 28.5t-31.5 79.5q0 46 26.5 83.5t73.5 56.5v23h51v-20
q-21 -19 -34.5 -45.5t-13.5 -50.5q0 -72 69 -72q22 0 40.5 8t33.5 25l17 -11q-15 -53 -50.5 -79t-92.5 -26z" />
    <glyph glyph-name="aogonek" unicode="&#x105;" horiz-adv-x="595" 
d="M412 -13l-40 75h-12v261q0 58 -27.5 90t-76.5 32q-28 0 -52.5 -14t-39.5 -38l1 96h98l-129 -168h-26l-59 143q24 14 63 25t83.5 17.5t87.5 6.5q116 0 177.5 -47.5t61.5 -137.5v-228l-43 74l103 -100v-22l-145 -65h-25zM191 -15q-66 0 -108 38t-42 98q0 131 220 172
l122 23v-54l-74 -18q-52 -13 -75.5 -34t-23.5 -55t18.5 -52.5t51.5 -18.5q56 0 95 32v-54h-11q-31 -38 -75 -57.5t-98 -19.5zM406 -252q-49 0 -79 28.5t-30 74.5q0 55 38 99t102 63v-26q-19 -11 -29.5 -34t-10.5 -52q0 -70 63 -70q19 0 38 8.5t34 24.5l17 -11
q-13 -48 -52 -76.5t-91 -28.5z" />
    <glyph glyph-name="Cacute" unicode="&#x106;" horiz-adv-x="700" 
d="M392 -16q-110 0 -190.5 42t-123.5 120t-43 185q0 85 27 153.5t77 118.5t120 76.5t156 26.5q43 0 86 -8.5t84.5 -25t77.5 -39.5l-76 -144h-25l-142 176h125v-98q-38 70 -118 70q-57 0 -102.5 -36.5t-72 -98.5t-26.5 -140q0 -82 28.5 -143t81 -94t123.5 -33q51 0 93.5 21
t74.5 61l38 -21q-34 -78 -107 -123.5t-166 -45.5zM345 734l-13 15l155 214h6l106 -127v-7z" />
    <glyph glyph-name="cacute" unicode="&#x107;" horiz-adv-x="534" 
d="M295 -15q-76 0 -134.5 31t-91.5 86.5t-33 126.5q0 83 36.5 146.5t101.5 99.5t150 36q52 0 102 -13t87 -36l-61 -145h-26l-116 157h89v-60q-28 30 -75 30q-34 0 -61 -23.5t-43 -63.5t-16 -92q0 -82 40.5 -130t110.5 -48q74 0 126 53l32 -24q-29 -61 -87 -96t-131 -35z
M253 560l-18 12l73 237h7l141 -96v-7z" />
    <glyph glyph-name="Ccircumflex" unicode="&#x108;" horiz-adv-x="700" 
d="M392 -16q-110 0 -190.5 42t-123.5 120t-43 185q0 85 27 153.5t77 118.5t120 76.5t156 26.5q43 0 86 -8.5t84.5 -25t77.5 -39.5l-76 -144h-25l-142 176h125v-98q-38 70 -118 70q-57 0 -102.5 -36.5t-72 -98.5t-26.5 -140q0 -82 28.5 -143t81 -94t123.5 -33q51 0 93.5 21
t74.5 61l38 -21q-34 -78 -107 -123.5t-166 -45.5zM233 731l-14 16l167 188h56l167 -188l-14 -16l-187 78h12z" />
    <glyph glyph-name="ccircumflex" unicode="&#x109;" horiz-adv-x="534" 
d="M295 -15q-76 0 -134.5 31t-91.5 86.5t-33 126.5q0 83 36.5 146.5t101.5 99.5t150 36q52 0 102 -13t87 -36l-61 -145h-26l-116 157h89v-60q-28 30 -75 30q-34 0 -61 -23.5t-43 -63.5t-16 -92q0 -82 40.5 -130t110.5 -48q74 0 126 53l32 -24q-29 -61 -87 -96t-131 -35z
M139 559l-18 16l160 227h39l160 -227l-18 -16l-167 96h12z" />
    <glyph glyph-name="Cdotaccent" unicode="&#x10a;" horiz-adv-x="700" 
d="M392 -16q-110 0 -190.5 42t-123.5 120t-43 185q0 85 27 153.5t77 118.5t120 76.5t156 26.5q43 0 86 -8.5t84.5 -25t77.5 -39.5l-76 -144h-25l-142 176h125v-98q-38 70 -118 70q-57 0 -102.5 -36.5t-72 -98.5t-26.5 -140q0 -82 28.5 -143t81 -94t123.5 -33q51 0 93.5 21
t74.5 61l38 -21q-34 -78 -107 -123.5t-166 -45.5zM414 742q-46 0 -74.5 26t-28.5 67t28.5 66.5t74.5 25.5q45 0 73.5 -25.5t28.5 -66.5q0 -40 -28.5 -66.5t-73.5 -26.5z" />
    <glyph glyph-name="cdotaccent" unicode="&#x10b;" horiz-adv-x="534" 
d="M295 -15q-76 0 -134.5 31t-91.5 86.5t-33 126.5q0 83 36.5 146.5t101.5 99.5t150 36q52 0 102 -13t87 -36l-61 -145h-26l-116 157h89v-60q-28 30 -75 30q-34 0 -61 -23.5t-43 -63.5t-16 -92q0 -82 40.5 -130t110.5 -48q74 0 126 53l32 -24q-29 -61 -87 -96t-131 -35z
M301 565q-45 0 -73.5 26t-28.5 67t28.5 66.5t73.5 25.5q46 0 74.5 -26t28.5 -66q0 -41 -28.5 -67t-74.5 -26z" />
    <glyph glyph-name="Ccaron" unicode="&#x10c;" horiz-adv-x="700" 
d="M392 -16q-110 0 -190.5 42t-123.5 120t-43 185q0 85 27 153.5t77 118.5t120 76.5t156 26.5q43 0 86 -8.5t84.5 -25t77.5 -39.5l-76 -144h-25l-142 176h125v-98q-38 70 -118 70q-57 0 -102.5 -36.5t-72 -98.5t-26.5 -140q0 -82 28.5 -143t81 -94t123.5 -33q51 0 93.5 21
t74.5 61l38 -21q-34 -78 -107 -123.5t-166 -45.5zM234 947l187 -78h-12l187 78l14 -16l-167 -189h-56l-167 189z" />
    <glyph glyph-name="ccaron" unicode="&#x10d;" horiz-adv-x="534" 
d="M295 -15q-76 0 -134.5 31t-91.5 86.5t-33 126.5q0 83 36.5 146.5t101.5 99.5t150 36q52 0 102 -13t87 -36l-61 -145h-26l-116 157h89v-60q-28 30 -75 30q-34 0 -61 -23.5t-43 -63.5t-16 -92q0 -82 40.5 -130t110.5 -48q74 0 126 53l32 -24q-29 -61 -87 -96t-131 -35z
M139 808l168 -96h-12l168 96l18 -16l-160 -227h-40l-160 227z" />
    <glyph glyph-name="Dcaron" unicode="&#x10e;" horiz-adv-x="793" 
d="M207 0v58h139q68 0 117.5 34.5t76 98.5t26.5 151q0 90 -26.5 154.5t-75.5 100t-116 35.5h-141v58h160q119 0 207 -41.5t136 -116.5t48 -178q0 -78 -30 -143t-84.5 -112t-129.5 -73t-165 -26h-142zM27 0v22l71 67v512l-71 67v22h247v-690h-247zM187 947l187 -78h-12
l187 78l14 -16l-167 -189h-56l-167 189z" />
    <glyph glyph-name="dcaron" unicode="&#x10f;" horiz-adv-x="646" 
d="M463 -13l-40 85h-12v566l43 -79l-113 113v22l201 71h31v-665l-43 74l103 -100v-22l-145 -65h-25zM246 -15q-62 0 -109.5 30t-74 83.5t-26.5 123.5q0 85 36.5 150.5t101.5 102t149 36.5q93 0 149 -43v-93q-30 39 -61.5 56.5t-72.5 17.5q-43 0 -72.5 -22t-45 -65
t-15.5 -107q0 -76 32.5 -120.5t87.5 -44.5q31 0 56 10t45 30v-58h-11q-29 -40 -74.5 -63.5t-94.5 -23.5zM646 542l-21 6l7 221l6 4l146 -43l1 -6z" />
    <glyph glyph-name="Dcroat" unicode="&#x110;" horiz-adv-x="793" 
d="M207 0v58h139q68 0 117.5 34.5t76 98.5t26.5 151q0 90 -26.5 154.5t-75.5 100t-116 35.5h-141v58h160q119 0 207 -41.5t136 -116.5t48 -178q0 -78 -30 -143t-84.5 -112t-129.5 -73t-165 -26h-142zM27 0v22l71 67v512l-71 67v22h247v-690h-247zM27 319v63h386v-63h-386z
" />
    <glyph glyph-name="dcroat" unicode="&#x111;" horiz-adv-x="646" 
d="M463 -13l-40 85h-12v566l43 -79l-113 113v22l201 71h31v-665l-43 74l103 -100v-22l-145 -65h-25zM246 -15q-62 0 -109.5 30t-74 83.5t-26.5 123.5q0 85 36.5 150.5t101.5 102t149 36.5q93 0 149 -43v-93q-30 39 -61.5 56.5t-72.5 17.5q-43 0 -72.5 -22t-45 -65
t-15.5 -107q0 -76 32.5 -120.5t87.5 -44.5q31 0 56 10t45 30v-58h-11q-29 -40 -74.5 -63.5t-94.5 -23.5zM261 541v58h372v-58h-372z" />
    <glyph glyph-name="Emacron" unicode="&#x112;" horiz-adv-x="636" 
d="M27 0v22l71 67v512l-71 67v22h247v-690h-247zM224 0v47l337 25v-72h-337zM423 0v46l153 138h25l-6 -184h-172zM476 318l-254 15v45l254 16v-76zM480 247l-95 88v42l95 88h25v-218h-25zM561 618l-337 25v47h337v-72zM558 524l-143 120v46l148 14h19l1 -180h-25zM130 782
v88h377v-88h-377z" />
    <glyph glyph-name="emacron" unicode="&#x113;" horiz-adv-x="570" 
d="M295 -15q-76 0 -134.5 31t-91.5 86.5t-33 126.5q0 83 35.5 146.5t98.5 99.5t145 36q65 0 114 -31.5t77 -90.5t28 -140h-382v36l217 38q0 59 -20.5 89.5t-54.5 30.5q-27 0 -47.5 -21.5t-31.5 -62t-11 -94.5q0 -82 40.5 -130t109.5 -48q83 0 135 53l31 -24
q-29 -61 -88.5 -96t-136.5 -35zM125 594v88h356v-88h-356z" />
    <glyph glyph-name="Ebreve" unicode="&#x114;" horiz-adv-x="636" 
d="M27 0v22l71 67v512l-71 67v22h247v-690h-247zM224 0v47l337 25v-72h-337zM423 0v46l153 138h25l-6 -184h-172zM476 318l-254 15v45l254 16v-76zM480 247l-95 88v42l95 88h25v-218h-25zM561 618l-337 25v47h337v-72zM558 524l-143 120v46l148 14h19l1 -180h-25zM318 742
q-74 0 -118.5 47.5t-44.5 126.5l22 4q15 -30 55.5 -50t85.5 -20q47 0 87 20t53 50l23 -4q-1 -79 -45 -126.5t-118 -47.5z" />
    <glyph glyph-name="ebreve" unicode="&#x115;" horiz-adv-x="570" 
d="M295 -15q-76 0 -134.5 31t-91.5 86.5t-33 126.5q0 83 35.5 146.5t98.5 99.5t145 36q65 0 114 -31.5t77 -90.5t28 -140h-382v36l217 38q0 59 -20.5 89.5t-54.5 30.5q-27 0 -47.5 -21.5t-31.5 -62t-11 -94.5q0 -82 40.5 -130t109.5 -48q83 0 135 53l31 -24
q-29 -61 -88.5 -96t-136.5 -35zM304 565q-75 0 -119 53t-44 144l21 2q14 -40 51.5 -63t89.5 -23q53 0 90.5 23t51.5 63l21 -3q0 -90 -43.5 -143t-118.5 -53z" />
    <glyph glyph-name="Edotaccent" unicode="&#x116;" horiz-adv-x="636" 
d="M27 0v22l71 67v512l-71 67v22h247v-690h-247zM224 0v47l337 25v-72h-337zM423 0v46l153 138h25l-6 -184h-172zM476 318l-254 15v45l254 16v-76zM480 247l-95 88v42l95 88h25v-218h-25zM561 618l-337 25v47h337v-72zM558 524l-143 120v46l148 14h19l1 -180h-25zM318 742
q-46 0 -74.5 26t-28.5 67t28.5 66.5t74.5 25.5q45 0 73.5 -25.5t28.5 -66.5q0 -40 -28.5 -66.5t-73.5 -26.5z" />
    <glyph glyph-name="edotaccent" unicode="&#x117;" horiz-adv-x="570" 
d="M295 -15q-76 0 -134.5 31t-91.5 86.5t-33 126.5q0 83 35.5 146.5t98.5 99.5t145 36q65 0 114 -31.5t77 -90.5t28 -140h-382v36l217 38q0 59 -20.5 89.5t-54.5 30.5q-27 0 -47.5 -21.5t-31.5 -62t-11 -94.5q0 -82 40.5 -130t109.5 -48q83 0 135 53l31 -24
q-29 -61 -88.5 -96t-136.5 -35zM303 565q-45 0 -73.5 26t-28.5 67t28.5 66.5t73.5 25.5q46 0 74.5 -26t28.5 -66q0 -41 -28.5 -67t-74.5 -26z" />
    <glyph glyph-name="Eogonek" unicode="&#x118;" horiz-adv-x="636" 
d="M27 0v22l71 67v512l-71 67v22h247v-690h-247zM224 0v47l337 25v-72h-337zM423 0v46l153 138h25l-6 -184h-172zM476 318l-254 15v45l254 16v-76zM480 247l-95 88v42l95 88h25v-218h-25zM561 618l-337 25v47h337v-72zM558 524l-143 120v46l148 14h19l1 -180h-25zM431 -251
q-57 0 -88.5 28.5t-31.5 79.5q0 46 26.5 83.5t73.5 56.5v23h51v-20q-21 -19 -34.5 -45.5t-13.5 -50.5q0 -72 69 -72q22 0 40.5 8t33.5 25l17 -11q-15 -53 -50.5 -79t-92.5 -26z" />
    <glyph glyph-name="eogonek" unicode="&#x119;" horiz-adv-x="570" 
d="M295 -15q-76 0 -134.5 31t-91.5 86.5t-33 126.5q0 83 35.5 146.5t98.5 99.5t145 36q65 0 114 -31.5t77 -90.5t28 -140h-382v36l217 38q0 59 -20.5 89.5t-54.5 30.5q-27 0 -47.5 -21.5t-31.5 -62t-11 -94.5q0 -82 40.5 -130t109.5 -48q83 0 135 53l31 -24
q-29 -61 -88.5 -96t-136.5 -35zM363 -251q-48 0 -78 28.5t-30 74.5q0 38 23.5 72.5t65.5 60.5v37h77v-8q-31 -18 -49 -48t-18 -64q0 -70 64 -70q19 0 38 8.5t34 24.5l17 -11q-14 -48 -52.5 -76.5t-91.5 -28.5z" />
    <glyph glyph-name="Ecaron" unicode="&#x11a;" horiz-adv-x="636" 
d="M27 0v22l71 67v512l-71 67v22h247v-690h-247zM224 0v47l337 25v-72h-337zM423 0v46l153 138h25l-6 -184h-172zM476 318l-254 15v45l254 16v-76zM480 247l-95 88v42l95 88h25v-218h-25zM561 618l-337 25v47h337v-72zM558 524l-143 120v46l148 14h19l1 -180h-25zM138 947
l187 -78h-12l187 78l14 -16l-167 -189h-56l-167 189z" />
    <glyph glyph-name="ecaron" unicode="&#x11b;" horiz-adv-x="570" 
d="M295 -15q-76 0 -134.5 31t-91.5 86.5t-33 126.5q0 83 35.5 146.5t98.5 99.5t145 36q65 0 114 -31.5t77 -90.5t28 -140h-382v36l217 38q0 59 -20.5 89.5t-54.5 30.5q-27 0 -47.5 -21.5t-31.5 -62t-11 -94.5q0 -82 40.5 -130t109.5 -48q83 0 135 53l31 -24
q-29 -61 -88.5 -96t-136.5 -35zM141 808l168 -96h-12l168 96l18 -16l-160 -227h-40l-160 227z" />
    <glyph glyph-name="Gcircumflex" unicode="&#x11c;" horiz-adv-x="785" 
d="M392 -16q-110 0 -190.5 42t-123.5 120t-43 185q0 85 27 153.5t77 118.5t120 76.5t156 26.5q48 0 96.5 -9t93 -25t77.5 -39l-77 -145h-24l-152 177h126l1 -95q-20 32 -53 49.5t-76 17.5q-57 0 -102.5 -36.5t-72 -98.5t-26.5 -140q0 -86 28.5 -150t81 -99.5t123.5 -35.5
q53 0 88.5 24.5t58.5 75.5l38 -19q-22 -81 -89 -127.5t-163 -46.5zM682 -16l-153 96v169l-81 68v22h310v-22l-53 -61v-272h-23zM234 731l-14 16l167 188h56l167 -188l-14 -16l-187 78h12z" />
    <glyph glyph-name="gcircumflex" unicode="&#x11d;" horiz-adv-x="630" 
d="M313 -251q-90 0 -153.5 14.5t-97 41.5t-33.5 65q0 34 27 58t68 27v37h75v-42q-24 -16 -24 -57q0 -38 47 -62t121 -24q64 0 106 22.5t42 56.5q0 29 -24.5 46.5t-68.5 17.5h-222q-61 0 -98.5 35.5t-37.5 91.5q0 31 14 57t38 44t55 22l46 -26q-20 0 -31 -10t-11 -28
q0 -22 20 -33t59 -11h186q96 0 149 -38t53 -107q0 -58 -39 -102.5t-107.5 -70t-158.5 -25.5zM294 156q-71 0 -126 22t-85.5 60.5t-30.5 88.5q0 59 31 100t89 62.5t140 21.5q28 0 57.5 -4.5t45.5 -11.5v-41q57 -24 90.5 -61t33.5 -77q0 -46 -31 -82.5t-86.5 -57t-127.5 -20.5
zM310 214q40 0 61 25t21 74q0 62 -26.5 101t-69.5 39q-40 0 -60.5 -25t-20.5 -74q0 -61 26.5 -100.5t68.5 -39.5zM594 397l-163 59l-6 -16l-106 51l293 58l6 -6v-146h-24zM135 559l-18 16l160 227h39l160 -227l-18 -16l-167 96h12z" />
    <glyph glyph-name="Gbreve" unicode="&#x11e;" horiz-adv-x="785" 
d="M392 -16q-110 0 -190.5 42t-123.5 120t-43 185q0 85 27 153.5t77 118.5t120 76.5t156 26.5q48 0 96.5 -9t93 -25t77.5 -39l-77 -145h-24l-152 177h126l1 -95q-20 32 -53 49.5t-76 17.5q-57 0 -102.5 -36.5t-72 -98.5t-26.5 -140q0 -86 28.5 -150t81 -99.5t123.5 -35.5
q53 0 88.5 24.5t58.5 75.5l38 -19q-22 -81 -89 -127.5t-163 -46.5zM682 -16l-153 96v169l-81 68v22h310v-22l-53 -61v-272h-23zM415 742q-74 0 -118.5 47.5t-44.5 126.5l22 4q15 -30 55.5 -50t85.5 -20q47 0 87 20t53 50l23 -4q-1 -79 -45 -126.5t-118 -47.5z" />
    <glyph glyph-name="gbreve" unicode="&#x11f;" horiz-adv-x="630" 
d="M313 -251q-90 0 -153.5 14.5t-97 41.5t-33.5 65q0 34 27 58t68 27v37h75v-42q-24 -16 -24 -57q0 -38 47 -62t121 -24q64 0 106 22.5t42 56.5q0 29 -24.5 46.5t-68.5 17.5h-222q-61 0 -98.5 35.5t-37.5 91.5q0 31 14 57t38 44t55 22l46 -26q-20 0 -31 -10t-11 -28
q0 -22 20 -33t59 -11h186q96 0 149 -38t53 -107q0 -58 -39 -102.5t-107.5 -70t-158.5 -25.5zM294 156q-71 0 -126 22t-85.5 60.5t-30.5 88.5q0 59 31 100t89 62.5t140 21.5q28 0 57.5 -4.5t45.5 -11.5v-41q57 -24 90.5 -61t33.5 -77q0 -46 -31 -82.5t-86.5 -57t-127.5 -20.5
zM310 214q40 0 61 25t21 74q0 62 -26.5 101t-69.5 39q-40 0 -60.5 -25t-20.5 -74q0 -61 26.5 -100.5t68.5 -39.5zM594 397l-163 59l-6 -16l-106 51l293 58l6 -6v-146h-24zM297 565q-75 0 -119 53t-44 144l21 2q14 -40 51.5 -63t89.5 -23q53 0 90.5 23t51.5 63l21 -3
q0 -90 -43.5 -143t-118.5 -53z" />
    <glyph glyph-name="Gdotaccent" unicode="&#x120;" horiz-adv-x="785" 
d="M392 -16q-110 0 -190.5 42t-123.5 120t-43 185q0 85 27 153.5t77 118.5t120 76.5t156 26.5q48 0 96.5 -9t93 -25t77.5 -39l-77 -145h-24l-152 177h126l1 -95q-20 32 -53 49.5t-76 17.5q-57 0 -102.5 -36.5t-72 -98.5t-26.5 -140q0 -86 28.5 -150t81 -99.5t123.5 -35.5
q53 0 88.5 24.5t58.5 75.5l38 -19q-22 -81 -89 -127.5t-163 -46.5zM682 -16l-153 96v169l-81 68v22h310v-22l-53 -61v-272h-23zM415 742q-46 0 -74.5 26t-28.5 67t28.5 66.5t74.5 25.5q45 0 73.5 -25.5t28.5 -66.5q0 -40 -28.5 -66.5t-73.5 -26.5z" />
    <glyph glyph-name="gdotaccent" unicode="&#x121;" horiz-adv-x="630" 
d="M313 -251q-90 0 -153.5 14.5t-97 41.5t-33.5 65q0 34 27 58t68 27v37h75v-42q-24 -16 -24 -57q0 -38 47 -62t121 -24q64 0 106 22.5t42 56.5q0 29 -24.5 46.5t-68.5 17.5h-222q-61 0 -98.5 35.5t-37.5 91.5q0 31 14 57t38 44t55 22l46 -26q-20 0 -31 -10t-11 -28
q0 -22 20 -33t59 -11h186q96 0 149 -38t53 -107q0 -58 -39 -102.5t-107.5 -70t-158.5 -25.5zM294 156q-71 0 -126 22t-85.5 60.5t-30.5 88.5q0 59 31 100t89 62.5t140 21.5q28 0 57.5 -4.5t45.5 -11.5v-41q57 -24 90.5 -61t33.5 -77q0 -46 -31 -82.5t-86.5 -57t-127.5 -20.5
zM310 214q40 0 61 25t21 74q0 62 -26.5 101t-69.5 39q-40 0 -60.5 -25t-20.5 -74q0 -61 26.5 -100.5t68.5 -39.5zM594 397l-163 59l-6 -16l-106 51l293 58l6 -6v-146h-24zM296 565q-45 0 -73.5 26t-28.5 67t28.5 66.5t73.5 25.5q46 0 74.5 -26t28.5 -66q0 -41 -28.5 -67
t-74.5 -26z" />
    <glyph glyph-name="uni0122" unicode="&#x122;" horiz-adv-x="785" 
d="M392 -16q-110 0 -190.5 42t-123.5 120t-43 185q0 85 27 153.5t77 118.5t120 76.5t156 26.5q48 0 96.5 -9t93 -25t77.5 -39l-77 -145h-24l-152 177h126l1 -95q-20 32 -53 49.5t-76 17.5q-57 0 -102.5 -36.5t-72 -98.5t-26.5 -140q0 -86 28.5 -150t81 -99.5t123.5 -35.5
q53 0 88.5 24.5t58.5 75.5l38 -19q-22 -81 -89 -127.5t-163 -46.5zM682 -16l-153 96v169l-81 68v22h310v-22l-53 -61v-272h-23zM283 -332l-7 37q40 9 65 30.5t25 47.5l-75 47v6q0 40 29.5 67t72.5 27t72 -31t29 -78q0 -44 -27 -78.5t-74 -54t-110 -20.5z" />
    <glyph glyph-name="uni0123" unicode="&#x123;" horiz-adv-x="630" 
d="M313 -251q-90 0 -153.5 14.5t-97 41.5t-33.5 65q0 34 27 58t68 27v37h75v-42q-24 -16 -24 -57q0 -38 47 -62t121 -24q64 0 106 22.5t42 56.5q0 29 -24.5 46.5t-68.5 17.5h-222q-61 0 -98.5 35.5t-37.5 91.5q0 31 14 57t38 44t55 22l46 -26q-20 0 -31 -10t-11 -28
q0 -22 20 -33t59 -11h186q96 0 149 -38t53 -107q0 -58 -39 -102.5t-107.5 -70t-158.5 -25.5zM294 156q-71 0 -126 22t-85.5 60.5t-30.5 88.5q0 59 31 100t89 62.5t140 21.5q28 0 57.5 -4.5t45.5 -11.5v-41q57 -24 90.5 -61t33.5 -77q0 -46 -31 -82.5t-86.5 -57t-127.5 -20.5
zM310 214q40 0 61 25t21 74q0 62 -26.5 101t-69.5 39q-40 0 -60.5 -25t-20.5 -74q0 -61 26.5 -100.5t68.5 -39.5zM594 397l-163 59l-6 -16l-106 51l293 58l6 -6v-146h-24zM406 827l6 -37q-40 -8 -65 -30t-25 -48l75 -47v-6q0 -39 -29 -66.5t-73 -27.5q-43 0 -71.5 31
t-28.5 78q0 45 26.5 79t74.5 54t110 20z" />
    <glyph glyph-name="Hcircumflex" unicode="&#x124;" horiz-adv-x="817" 
d="M478 0v22l65 67v512l-65 67v22h312v-22l-71 -67v-512l71 -67v-22h-312zM27 0v22l71 67v512l-71 67v22h311v-22l-64 -67v-512l64 -67v-22h-311zM203 323v63h416v-63h-416zM227 731l-14 16l167 188h56l167 -188l-14 -16l-187 78h12z" />
    <glyph glyph-name="hcircumflex" unicode="&#x125;" horiz-adv-x="680" 
d="M389 0v17l70 83l-15 -28v228q0 54 -21 78.5t-68 24.5q-34 0 -62 -11t-52 -34v58h11q90 97 193 97q76 0 118.5 -46.5t42.5 -128.5v-267l-16 28l78 -82v-17h-279zM32 0v17l78 83l-16 -28v566l43 -79l-112 113v22l200 71h31v-694l-15 29l71 -83v-17h-280zM-1 786l-14 16
l167 188h56l167 -188l-14 -16l-187 78h12z" />
    <glyph glyph-name="Hbar" unicode="&#x126;" horiz-adv-x="817" 
d="M478 0v22l65 67v512l-65 67v22h312v-22l-71 -67v-512l71 -67v-22h-312zM27 0v22l71 67v512l-71 67v22h311v-22l-64 -67v-512l64 -67v-22h-311zM203 323v63h416v-63h-416zM27 480v61h763v-61h-763z" />
    <glyph glyph-name="hbar" unicode="&#x127;" horiz-adv-x="680" 
d="M389 0v17l70 83l-15 -28v228q0 54 -21 78.5t-68 24.5q-34 0 -62 -11t-52 -34v58h11q90 97 193 97q76 0 118.5 -46.5t42.5 -128.5v-267l-16 28l78 -82v-17h-279zM32 0v17l78 83l-16 -28v566l43 -79l-112 113v22l200 71h31v-694l-15 29l71 -83v-17h-280zM24 541v58h372v-58
h-372z" />
    <glyph glyph-name="Itilde" unicode="&#x128;" horiz-adv-x="372" 
d="M27 0v22l71 67v512l-71 67v22h318v-22l-71 -67v-512l71 -67v-22h-318zM265 748q-34 0 -63 10t-57.5 20t-60.5 10q-62 0 -85 -39l-23 7q7 63 41.5 99t87.5 36q35 0 64 -10t57.5 -20t60.5 -10q62 0 84 39l24 -7q-7 -63 -41.5 -99t-88.5 -36z" />
    <glyph glyph-name="itilde" unicode="&#x129;" horiz-adv-x="331" 
d="M32 0v17l78 83l-16 -28v306l43 -75l-112 114v22l200 66h31v-434l-15 28l77 -82v-17h-286zM250 565q-29 0 -56 13.5t-52.5 26.5t-47.5 13q-49 0 -72 -50l-24 7q11 152 99 152q29 0 55.5 -13t52 -26.5t48.5 -13.5q48 0 71 50l25 -6q-11 -153 -99 -153z" />
    <glyph glyph-name="Imacron" unicode="&#x12a;" horiz-adv-x="372" 
d="M27 0v22l71 67v512l-71 67v22h318v-22l-71 -67v-512l71 -67v-22h-318zM-3 782v88h377v-88h-377z" />
    <glyph glyph-name="imacron" unicode="&#x12b;" horiz-adv-x="331" 
d="M32 0v17l78 83l-16 -28v306l43 -75l-112 114v22l200 66h31v-434l-15 28l77 -82v-17h-286zM33 594v88h278v-88h-278z" />
    <glyph glyph-name="Ibreve" unicode="&#x12c;" horiz-adv-x="372" 
d="M27 0v22l71 67v512l-71 67v22h318v-22l-71 -67v-512l71 -67v-22h-318zM186 742q-74 0 -118.5 47.5t-44.5 126.5l22 4q15 -30 55.5 -50t85.5 -20q47 0 87 20t53 50l23 -4q-1 -79 -45 -126.5t-118 -47.5z" />
    <glyph glyph-name="ibreve" unicode="&#x12d;" horiz-adv-x="331" 
d="M32 0v17l78 83l-16 -28v306l43 -75l-112 114v22l200 66h31v-434l-15 28l77 -82v-17h-286zM178 565q-69 0 -105.5 51t-36.5 146l21 2q29 -86 121 -86q91 0 120 86l21 -2q0 -95 -36 -146t-105 -51z" />
    <glyph glyph-name="Iogonek" unicode="&#x12e;" horiz-adv-x="372" 
d="M27 0v22l71 67v512l-71 67v22h318v-22l-71 -67v-512l71 -67v-22h-318zM181 -251q-57 0 -88.5 28.5t-31.5 79.5q0 46 26.5 83.5t73.5 56.5v23h51v-20q-21 -19 -34.5 -45.5t-13.5 -50.5q0 -72 69 -72q22 0 40.5 8t33.5 25l17 -11q-15 -53 -50.5 -79t-92.5 -26z" />
    <glyph glyph-name="iogonek" unicode="&#x12f;" horiz-adv-x="331" 
d="M167 -251q-51 0 -80 28t-29 75t24.5 87t65.5 59v28h52v-26q-20 -13 -31.5 -39t-11.5 -59q0 -70 64 -70q19 0 38 8.5t34 24.5l17 -11q-14 -48 -52.5 -76.5t-90.5 -28.5zM32 0v17l78 83l-16 -28v306l43 -75l-112 114v22l200 66h31v-434l-15 28l77 -82v-17h-286zM178 565
q-45 0 -74 26t-29 67t29 66.5t74 25.5t74 -25.5t29 -66.5t-29 -67t-74 -26z" />
    <glyph glyph-name="Idotaccent" unicode="&#x130;" horiz-adv-x="372" 
d="M27 0v22l71 67v512l-71 67v22h318v-22l-71 -67v-512l71 -67v-22h-318zM186 742q-46 0 -74.5 26t-28.5 67t28.5 66.5t74.5 25.5q45 0 73.5 -25.5t28.5 -66.5q0 -40 -28.5 -66.5t-73.5 -26.5z" />
    <glyph glyph-name="dotlessi" unicode="&#x131;" horiz-adv-x="331" 
d="M32 0v17l78 83l-16 -28v306l43 -75l-112 114v22l200 66h31v-434l-15 28l77 -82v-17h-286z" />
    <glyph glyph-name="IJ" unicode="&#x132;" horiz-adv-x="987" 
d="M27 0v22l71 67v512l-71 67v22h318v-22l-71 -67v-512l71 -67v-22h-318zM617 -16q-44 0 -91.5 14.5t-90 40.5t-72.5 58l84 138h25l114 -196h-112v155q24 -71 57.5 -102.5t86.5 -31.5q45 0 70.5 38t25.5 106v397l-71 67v22h318v-22l-71 -67v-367q0 -119 -71.5 -184.5
t-201.5 -65.5z" />
    <glyph glyph-name="ij" unicode="&#x133;" horiz-adv-x="661" 
d="M32 0v17l78 83l-16 -28v306l43 -75l-112 114v22l200 66h31v-434l-15 28l77 -82v-17h-286zM178 565q-45 0 -73.5 26t-28.5 67t28.5 66.5t73.5 25.5q46 0 74.5 -26t28.5 -66q0 -41 -28.5 -67t-74.5 -26zM327 -248l-51 155l16 19l167 -60l-39 -35v547l43 -75l-112 114v22
l200 66h31v-468q0 -94 -61.5 -167.5t-179.5 -117.5h-14zM504 565q-45 0 -73.5 26t-28.5 67t28.5 66.5t73.5 25.5q46 0 74.5 -26t28.5 -66q0 -41 -28.5 -67t-74.5 -26z" />
    <glyph glyph-name="Jcircumflex" unicode="&#x134;" horiz-adv-x="647" 
d="M276 -16q-44 0 -91.5 14.5t-90 40.5t-72.5 58l84 138h25l114 -196h-112v155q24 -71 57.5 -102.5t86.5 -31.5q45 0 70.5 38t25.5 106v397l-71 67v22h318v-22l-71 -67v-367q0 -119 -71.5 -184.5t-201.5 -65.5zM278 731l-14 16l167 188h56l167 -188l-14 -16l-187 78h12z" />
    <glyph glyph-name="jcircumflex" unicode="&#x135;" horiz-adv-x="331" 
d="M1 -248l-51 155l16 19l167 -60l-39 -35v547l43 -75l-112 114v22l200 66h31v-468q0 -94 -61.5 -167.5t-179.5 -117.5h-14zM16 559l-18 16l160 227h39l160 -227l-18 -16l-167 96h12z" />
    <glyph glyph-name="uni0136" unicode="&#x136;" horiz-adv-x="795" 
d="M203 230l6 57l353 390l-7 -124l-104 115v22h322v-22l-162 -96l135 98zM27 0v22l71 67v512l-71 67v22h318v-22l-71 -67v-512l71 -67v-22h-318zM476 0v22l73 99l19 -107l-245 354l136 100l313 -455l-104 125l125 -116v-22h-317zM288 -332l-7 37q40 9 65 30.5t25 47.5
l-75 47v6q0 40 29.5 67t72.5 27t72 -31t29 -78q0 -44 -27 -78.5t-74 -54t-110 -20.5z" />
    <glyph glyph-name="uni0137" unicode="&#x137;" horiz-adv-x="693" 
d="M32 0v17l78 83l-16 -28v566l43 -79l-112 113v22l200 71h31v-710l-15 45l73 -83v-17h-282zM477 0l-187 290l128 97l223 -347l-86 18v86l126 -127v-17h-204zM242 210v55l204 198l36 -88h-35l-76 104v17h302v-17zM265 -332l-7 37q40 9 65 30.5t25 47.5l-75 47v6
q0 40 29.5 67t72.5 27t72 -31t29 -78q0 -44 -27 -78.5t-74 -54t-110 -20.5z" />
    <glyph glyph-name="kgreenlandic" unicode="&#x138;" horiz-adv-x="685" 
d="M469 0l-187 290l128 97l223 -347l-86 18v86l126 -127v-17h-204zM24 0v17l78 83l-16 -28v352l16 -28l-78 83v17h224v-441l-15 45l73 -83v-17h-282zM234 210v55l204 198l36 -88h-35l-76 104v17h302v-17z" />
    <glyph glyph-name="Lacute" unicode="&#x139;" horiz-adv-x="616" 
d="M27 0v22l71 67v512l-71 67v22h320v-22l-73 -67v-601h-247zM224 0v47l331 25v-72h-331zM405 0v46l151 167h25l-1 -213h-175zM114 734l-13 15l155 214h6l106 -127v-7z" />
    <glyph glyph-name="lacute" unicode="&#x13a;" horiz-adv-x="331" 
d="M32 0v17l78 83l-16 -28v566l43 -79l-112 113v22l200 71h31v-694l-15 28l77 -82v-17h-286zM98 779l-13 15l155 214h6l106 -127v-7z" />
    <glyph glyph-name="uni013B" unicode="&#x13b;" horiz-adv-x="616" 
d="M27 0v22l71 67v512l-71 67v22h320v-22l-73 -67v-601h-247zM224 0v47l331 25v-72h-331zM405 0v46l151 167h25l-1 -213h-175zM198 -332l-7 37q40 9 65 30.5t25 47.5l-75 47v6q0 40 29.5 67t72.5 27t72 -31t29 -78q0 -44 -27 -78.5t-74 -54t-110 -20.5z" />
    <glyph glyph-name="uni013C" unicode="&#x13c;" horiz-adv-x="331" 
d="M32 0v17l78 83l-16 -28v566l43 -79l-112 113v22l200 71h31v-694l-15 28l77 -82v-17h-286zM56 -332l-7 37q40 9 65 30.5t25 47.5l-75 47v6q0 40 29.5 67t72.5 27t72 -31t29 -78q0 -44 -27 -78.5t-74 -54t-110 -20.5z" />
    <glyph glyph-name="Lcaron" unicode="&#x13d;" horiz-adv-x="616" 
d="M27 0v22l71 67v512l-71 67v22h320v-22l-73 -67v-601h-247zM224 0v47l331 25v-72h-331zM405 0v46l151 167h25l-1 -213h-175zM424 471l-21 6l7 221l6 4l146 -43l1 -6z" />
    <glyph glyph-name="lcaron" unicode="&#x13e;" horiz-adv-x="331" 
d="M32 0v17l78 83l-16 -28v566l43 -79l-112 113v22l200 71h31v-694l-15 28l77 -82v-17h-286zM329 542l-21 6l7 221l6 4l146 -43l1 -6z" />
    <glyph glyph-name="Ldot" unicode="&#x13f;" horiz-adv-x="616" 
d="M489 250q-46 0 -77 27t-31 68t31 68t77 27q45 0 76 -27t31 -68t-31 -68t-76 -27zM27 0v22l71 67v512l-71 67v22h320v-22l-73 -67v-601h-247zM224 0v47l331 25v-72h-331zM405 0v46l151 167h25l-1 -213h-175z" />
    <glyph glyph-name="ldot" unicode="&#x140;" horiz-adv-x="437" 
d="M32 0v17l78 83l-16 -28v566l43 -79l-112 113v22l200 71h31v-694l-15 28l77 -82v-17h-286zM394 261q-45 0 -76 27t-31 68t31 68t76 27t76 -27t31 -68t-31 -68t-76 -27z" />
    <glyph glyph-name="Lslash" unicode="&#x141;" horiz-adv-x="616" 
d="M27 0v22l71 67v512l-71 67v22h320v-22l-73 -67v-601h-247zM224 0v47l331 25v-72h-331zM405 0v46l151 167h25l-1 -213h-175zM27 240v61l410 162v-61z" />
    <glyph glyph-name="lslash" unicode="&#x142;" horiz-adv-x="331" 
d="M32 0v17l78 83l-16 -28v566l43 -79l-112 113v22l200 71h31v-694l-15 28l77 -82v-17h-286zM28 286v62l290 117v-62z" />
    <glyph glyph-name="Nacute" unicode="&#x143;" horiz-adv-x="762" 
d="M573 -1l-438 552v139h100l417 -526l-30 -41l-62 478l-71 67v22h246v-22l-71 -67v-602h-91zM27 0v22l71 67l21 486l-80 93v22h115l48 -601l71 -67v-22h-246zM310 734l-13 15l155 214h6l106 -127v-7z" />
    <glyph glyph-name="nacute" unicode="&#x144;" horiz-adv-x="680" 
d="M389 0v17l70 83l-15 -28v228q0 54 -21 78.5t-68 24.5q-34 0 -62 -11t-52 -34v58h11q90 97 193 97q76 0 118.5 -46.5t42.5 -128.5v-267l-16 28l78 -82v-17h-279zM32 0v17l78 83l-16 -29v330l43 -102l-112 118v22l198 66h31l-7 -89h9v-345l-15 29l71 -83v-17h-280zM301 560
l-18 12l73 237h7l141 -96v-7z" />
    <glyph glyph-name="uni0145" unicode="&#x145;" horiz-adv-x="762" 
d="M573 -1l-438 552v139h100l417 -526l-30 -41l-62 478l-71 67v22h246v-22l-71 -67v-602h-91zM27 0v22l71 67l21 486l-80 93v22h115l48 -601l71 -67v-22h-246zM270 -332l-7 37q40 9 65 30.5t25 47.5l-75 47v6q0 40 29.5 67t72.5 27t72 -31t29 -78q0 -44 -27 -78.5t-74 -54
t-110 -20.5z" />
    <glyph glyph-name="uni0146" unicode="&#x146;" horiz-adv-x="680" 
d="M389 0v17l70 83l-15 -28v228q0 54 -21 78.5t-68 24.5q-34 0 -62 -11t-52 -34v58h11q90 97 193 97q76 0 118.5 -46.5t42.5 -128.5v-267l-16 28l78 -82v-17h-279zM32 0v17l78 83l-16 -29v330l43 -102l-112 118v22l198 66h31l-7 -89h9v-345l-15 29l71 -83v-17h-280z
M231 -332l-7 37q40 9 65 30.5t25 47.5l-75 47v6q0 40 29.5 67t72.5 27t72 -31t29 -78q0 -44 -27 -78.5t-74 -54t-110 -20.5z" />
    <glyph glyph-name="Ncaron" unicode="&#x147;" horiz-adv-x="762" 
d="M573 -1l-438 552v139h100l417 -526l-30 -41l-62 478l-71 67v22h246v-22l-71 -67v-602h-91zM27 0v22l71 67l21 486l-80 93v22h115l48 -601l71 -67v-22h-246zM200 947l187 -78h-12l186 78l15 -16l-167 -189h-56l-168 189z" />
    <glyph glyph-name="ncaron" unicode="&#x148;" horiz-adv-x="680" 
d="M389 0v17l70 83l-15 -28v228q0 54 -21 78.5t-68 24.5q-34 0 -62 -11t-52 -34v58h11q90 97 193 97q76 0 118.5 -46.5t42.5 -128.5v-267l-16 28l78 -82v-17h-279zM32 0v17l78 83l-16 -29v330l43 -102l-112 118v22l198 66h31l-7 -89h9v-345l-15 29l71 -83v-17h-280zM187 808
l168 -96h-12l168 96l18 -16l-160 -227h-40l-160 227z" />
    <glyph glyph-name="napostrophe" unicode="&#x149;" horiz-adv-x="680" 
d="M389 0v17l70 83l-15 -28v228q0 54 -21 78.5t-68 24.5q-34 0 -62 -11t-52 -34v58h11q90 97 193 97q76 0 118.5 -46.5t42.5 -128.5v-267l-16 28l78 -82v-17h-279zM32 0v17l78 83l-16 -29v330l43 -102l-112 118v22l198 66h31l-7 -89h9v-345l-15 29l71 -83v-17h-280zM51 569
l-7 37q40 9 65 30.5t25 47.5l-75 47v6q0 40 29.5 67t72.5 27t72 -31t29 -78q0 -44 -27 -78.5t-74 -54t-110 -20.5z" />
    <glyph glyph-name="Eng" unicode="&#x14a;" horiz-adv-x="762" 
d="M452 -251q-61 0 -120 22t-107 61l79 141h25l121 -187h-111v98q26 -37 53.5 -53.5t62.5 -16.5q46 0 72.5 43.5t26.5 116.5v148h110v-160q0 -62 -27 -110.5t-75 -75.5t-110 -27zM573 -1l-438 552v139h100l417 -526l-30 -41l-62 478l-71 67v22h246v-22l-71 -67v-602h-91z
M27 0v22l71 67l21 486l-80 93v22h115l48 -601l71 -67v-22h-246z" />
    <glyph glyph-name="eng" unicode="&#x14b;" horiz-adv-x="680" 
d="M351 -248l-54 154l16 18l170 -39l-39 -54v469q0 54 -21 78.5t-68 24.5q-34 0 -62 -11t-52 -34v58h11q90 97 193 97q76 0 118.5 -46.5t42.5 -128.5v-314q0 -87 -61.5 -156.5t-179.5 -115.5h-14zM32 0v17l78 83l-16 -29v330l43 -102l-112 118v22l198 66h31l-7 -89h9v-345
l-15 28l77 -82v-17h-286z" />
    <glyph glyph-name="Omacron" unicode="&#x14c;" horiz-adv-x="826" 
d="M408 -16q-113 0 -197 43.5t-130 123.5t-46 189q0 112 47 194t133 127t203 45q114 0 197.5 -43.5t129.5 -123t46 -189.5q0 -111 -47 -193.5t-133 -127.5t-203 -45zM421 54q56 0 96 32.5t60.5 94t20.5 148.5q0 95 -23.5 163.5t-66.5 106t-103 37.5q-57 0 -96.5 -32t-60 -94
t-20.5 -149q0 -94 23.5 -163t67 -106.5t102.5 -37.5zM225 782v88h377v-88h-377z" />
    <glyph glyph-name="omacron" unicode="&#x14d;" horiz-adv-x="646" 
d="M320 -15q-87 0 -150.5 31.5t-98.5 88.5t-35 135q0 80 37 141t102.5 95.5t150.5 34.5q86 0 150 -31.5t99 -88.5t35 -135q0 -79 -37 -140.5t-102.5 -96t-150.5 -34.5zM335 52q32 0 55 20t36 56.5t13 85.5q0 76 -14.5 127t-43 77t-70.5 26q-31 0 -55 -20t-37 -56.5
t-13 -85.5q0 -76 15 -127t43.5 -77t70.5 -26zM145 594v88h356v-88h-356z" />
    <glyph glyph-name="Obreve" unicode="&#x14e;" horiz-adv-x="826" 
d="M408 -16q-113 0 -197 43.5t-130 123.5t-46 189q0 112 47 194t133 127t203 45q114 0 197.5 -43.5t129.5 -123t46 -189.5q0 -111 -47 -193.5t-133 -127.5t-203 -45zM421 54q56 0 96 32.5t60.5 94t20.5 148.5q0 95 -23.5 163.5t-66.5 106t-103 37.5q-57 0 -96.5 -32t-60 -94
t-20.5 -149q0 -94 23.5 -163t67 -106.5t102.5 -37.5zM414 742q-74 0 -118.5 47.5t-44.5 126.5l22 4q15 -30 55.5 -50t85.5 -20q47 0 87 20t53 50l23 -4q-1 -79 -45 -126.5t-118 -47.5z" />
    <glyph glyph-name="obreve" unicode="&#x14f;" horiz-adv-x="646" 
d="M320 -15q-87 0 -150.5 31.5t-98.5 88.5t-35 135q0 80 37 141t102.5 95.5t150.5 34.5q86 0 150 -31.5t99 -88.5t35 -135q0 -79 -37 -140.5t-102.5 -96t-150.5 -34.5zM335 52q32 0 55 20t36 56.5t13 85.5q0 76 -14.5 127t-43 77t-70.5 26q-31 0 -55 -20t-37 -56.5
t-13 -85.5q0 -76 15 -127t43.5 -77t70.5 -26zM324 565q-75 0 -119 53t-44 144l21 2q14 -40 51.5 -63t89.5 -23q53 0 90.5 23t51.5 63l21 -3q0 -90 -43.5 -143t-118.5 -53z" />
    <glyph glyph-name="Ohungarumlaut" unicode="&#x150;" horiz-adv-x="826" 
d="M408 -16q-113 0 -197 43.5t-130 123.5t-46 189q0 112 47 194t133 127t203 45q114 0 197.5 -43.5t129.5 -123t46 -189.5q0 -111 -47 -193.5t-133 -127.5t-203 -45zM421 54q56 0 96 32.5t60.5 94t20.5 148.5q0 95 -23.5 163.5t-66.5 106t-103 37.5q-57 0 -96.5 -32t-60 -94
t-20.5 -149q0 -94 23.5 -163t67 -106.5t102.5 -37.5zM356 736l-22 5l8 221l6 4l140 -39v-6zM489 735l-22 6l51 215l6 4l134 -45v-7z" />
    <glyph glyph-name="ohungarumlaut" unicode="&#x151;" horiz-adv-x="646" 
d="M320 -15q-87 0 -150.5 31.5t-98.5 88.5t-35 135q0 80 37 141t102.5 95.5t150.5 34.5q86 0 150 -31.5t99 -88.5t35 -135q0 -79 -37 -140.5t-102.5 -96t-150.5 -34.5zM335 52q32 0 55 20t36 56.5t13 85.5q0 76 -14.5 127t-43 77t-70.5 26q-31 0 -55 -20t-37 -56.5
t-13 -85.5q0 -76 15 -127t43.5 -77t70.5 -26zM255 558l-23 5l-16 232l6 4l142 -32v-7zM400 558l-23 5l22 228l6 4l142 -40v-7z" />
    <glyph glyph-name="OE" unicode="&#x152;" horiz-adv-x="1030" 
d="M426 0q-119 0 -207 41.5t-136 117t-48 177.5q0 78 29.5 143t84 112t130 73t164.5 26h142v-58h-138q-68 0 -117.5 -34.5t-76 -98t-26.5 -151.5q0 -89 26.5 -154t75.5 -100.5t116 -35.5h140v-58h-159zM638 0v47l317 25v-72h-317zM512 0v690h176v-690h-176zM817 0v46
l154 138h24l-6 -184h-172zM875 318l-239 15v45l239 16v-76zM879 247l-95 88v42l95 88h25v-218h-25zM955 618l-317 25v47h317v-72zM952 524l-143 120v46l149 14h18l1 -180h-25z" />
    <glyph glyph-name="oe" unicode="&#x153;" horiz-adv-x="974" 
d="M319 -15q-86 0 -150 31.5t-98.5 88.5t-34.5 135q0 80 37 141t102 95.5t150 34.5q87 0 150.5 -31.5t98 -88.5t34.5 -135q0 -79 -37 -140.5t-102 -96t-150 -34.5zM334 52q32 0 55 20t36.5 56.5t13.5 85.5q0 76 -15 127t-43.5 77t-70.5 26q-31 0 -54.5 -20t-37 -56.5
t-13.5 -85.5q0 -76 15 -127t43.5 -77t70.5 -26zM699 -15q-76 0 -134.5 31t-91.5 86.5t-33 126.5q0 83 35.5 146.5t98 99.5t144.5 36q66 0 115 -31.5t77 -90.5t28 -140h-382v36l217 38q0 59 -21 89.5t-54 30.5q-27 0 -47.5 -21.5t-31.5 -62t-11 -94.5q0 -82 40 -130t110 -48
q82 0 134 53l32 -24q-29 -61 -89 -96t-136 -35z" />
    <glyph glyph-name="Racute" unicode="&#x154;" horiz-adv-x="728" 
d="M27 0v22l71 67v512l-71 67v22h247v-601l71 -67v-22h-318zM504 0l-187 313l157 65l217 -365l-96 125l123 -116v-22h-214zM163 296v54h151q64 0 103 40.5t39 104.5q0 63 -38.5 100t-103.5 37h-134v58h197q135 0 203 -47t68 -139q0 -93 -74 -143.5t-210 -50.5h-5v-14h-196z
M272 734l-13 15l155 214h6l106 -127v-7z" />
    <glyph glyph-name="racute" unicode="&#x155;" horiz-adv-x="497" 
d="M32 0v17l78 83l-16 -28v302l43 -75l-112 118v22l198 66h31l-7 -101h9v-333l-15 31l107 -85v-17h-316zM240 337l1 67h11q28 51 72 80t91 29q42 0 75 -17l-72 -199h-27l-115 117l114 -22q-52 0 -90 -14t-60 -41zM201 560l-18 12l73 237h7l141 -96v-7z" />
    <glyph glyph-name="uni0156" unicode="&#x156;" horiz-adv-x="728" 
d="M27 0v22l71 67v512l-71 67v22h247v-601l71 -67v-22h-318zM504 0l-187 313l157 65l217 -365l-96 125l123 -116v-22h-214zM163 296v54h151q64 0 103 40.5t39 104.5q0 63 -38.5 100t-103.5 37h-134v58h197q135 0 203 -47t68 -139q0 -93 -74 -143.5t-210 -50.5h-5v-14h-196z
M254 -332l-7 37q40 9 65 30.5t25 47.5l-75 47v6q0 40 29.5 67t72.5 27t72 -31t29 -78q0 -44 -27 -78.5t-74 -54t-110 -20.5z" />
    <glyph glyph-name="uni0157" unicode="&#x157;" horiz-adv-x="497" 
d="M32 0v17l78 83l-16 -28v302l43 -75l-112 118v22l198 66h31l-7 -101h9v-333l-15 31l107 -85v-17h-316zM240 337l1 67h11q28 51 72 80t91 29q42 0 75 -17l-72 -199h-27l-115 117l114 -22q-52 0 -90 -14t-60 -41zM77 -332l-7 37q40 9 65 30.5t25 47.5l-75 47v6q0 40 29.5 67
t72.5 27t72 -31t29 -78q0 -44 -27 -78.5t-74 -54t-110 -20.5z" />
    <glyph glyph-name="Rcaron" unicode="&#x158;" horiz-adv-x="728" 
d="M27 0v22l71 67v512l-71 67v22h247v-601l71 -67v-22h-318zM504 0l-187 313l157 65l217 -365l-96 125l123 -116v-22h-214zM163 296v54h151q64 0 103 40.5t39 104.5q0 63 -38.5 100t-103.5 37h-134v58h197q135 0 203 -47t68 -139q0 -93 -74 -143.5t-210 -50.5h-5v-14h-196z
M162 947l186 -78h-12l187 78l15 -16l-168 -189h-56l-167 189z" />
    <glyph glyph-name="rcaron" unicode="&#x159;" horiz-adv-x="497" 
d="M32 0v17l78 83l-16 -28v302l43 -75l-112 118v22l198 66h31l-7 -101h9v-333l-15 31l107 -85v-17h-316zM240 337l1 67h11q28 51 72 80t91 29q42 0 75 -17l-72 -199h-27l-115 117l114 -22q-52 0 -90 -14t-60 -41zM87 808l168 -96h-12l168 96l18 -16l-160 -227h-39l-160 227z
" />
    <glyph glyph-name="Sacute" unicode="&#x15a;" horiz-adv-x="628" 
d="M302 -16q-48 0 -94 8.5t-90 25.5t-83 40l68 145h25l148 -177h-123v97q16 -31 61 -49.5t101 -18.5q60 0 92.5 26.5t32.5 75.5q0 41 -39.5 68t-133.5 56q-78 25 -125.5 53t-68 66t-20.5 91q0 99 73 157t198 58q42 0 86.5 -8.5t87.5 -25t81 -39.5l-76 -138h-25l-145 170h129
l-1 -98q-18 33 -56 52t-86 19q-50 0 -81.5 -23.5t-31.5 -60.5q0 -40 39.5 -67.5t133.5 -56.5q79 -24 126 -52.5t67.5 -66t20.5 -91.5q0 -72 -35.5 -125t-101 -82t-154.5 -29zM245 734l-13 15l155 214h6l106 -127v-7z" />
    <glyph glyph-name="sacute" unicode="&#x15b;" horiz-adv-x="540" 
d="M258 -15q-40 0 -82 7t-80.5 19t-66.5 28l57 140h26l127 -168h-96l-1 94q16 -26 50 -40.5t79 -14.5q41 0 63.5 14.5t22.5 41.5q0 26 -22.5 42t-57 27t-73 22.5t-73 29t-57 46t-22.5 73.5q0 79 62.5 122t176.5 43q37 0 75 -6t74 -17t62 -26l-57 -138h-27l-128 163h98l1 -94
q-15 25 -48 39t-69 14q-35 0 -54.5 -11.5t-19.5 -32.5q0 -26 22.5 -42t57.5 -28t73.5 -24t73.5 -29.5t57 -45.5t22 -71q0 -85 -63.5 -131t-182.5 -46zM222 560l-18 12l73 237h7l141 -96v-7z" />
    <glyph glyph-name="Scircumflex" unicode="&#x15c;" horiz-adv-x="628" 
d="M302 -16q-48 0 -94 8.5t-90 25.5t-83 40l68 145h25l148 -177h-123v97q16 -31 61 -49.5t101 -18.5q60 0 92.5 26.5t32.5 75.5q0 41 -39.5 68t-133.5 56q-78 25 -125.5 53t-68 66t-20.5 91q0 99 73 157t198 58q42 0 86.5 -8.5t87.5 -25t81 -39.5l-76 -138h-25l-145 170h129
l-1 -98q-18 33 -56 52t-86 19q-50 0 -81.5 -23.5t-31.5 -60.5q0 -40 39.5 -67.5t133.5 -56.5q79 -24 126 -52.5t67.5 -66t20.5 -91.5q0 -72 -35.5 -125t-101 -82t-154.5 -29zM133 731l-14 16l167 188h56l167 -188l-14 -16l-187 78h12z" />
    <glyph glyph-name="scircumflex" unicode="&#x15d;" horiz-adv-x="540" 
d="M258 -15q-40 0 -82 7t-80.5 19t-66.5 28l57 140h26l127 -168h-96l-1 94q16 -26 50 -40.5t79 -14.5q41 0 63.5 14.5t22.5 41.5q0 26 -22.5 42t-57 27t-73 22.5t-73 29t-57 46t-22.5 73.5q0 79 62.5 122t176.5 43q37 0 75 -6t74 -17t62 -26l-57 -138h-27l-128 163h98l1 -94
q-15 25 -48 39t-69 14q-35 0 -54.5 -11.5t-19.5 -32.5q0 -26 22.5 -42t57.5 -28t73.5 -24t73.5 -29.5t57 -45.5t22 -71q0 -85 -63.5 -131t-182.5 -46zM109 559l-18 16l160 227h39l160 -227l-18 -16l-167 96h12z" />
    <glyph glyph-name="Scedilla" unicode="&#x15e;" horiz-adv-x="628" 
d="M302 -16q-48 0 -94 8.5t-90 25.5t-83 40l68 145h25l148 -177h-123v97q16 -31 61 -49.5t101 -18.5q60 0 92.5 26.5t32.5 75.5q0 41 -39.5 68t-133.5 56q-78 25 -125.5 53t-68 66t-20.5 91q0 99 73 157t198 58q42 0 86.5 -8.5t87.5 -25t81 -39.5l-76 -138h-25l-145 170h129
l-1 -98q-18 33 -56 52t-86 19q-50 0 -81.5 -23.5t-31.5 -60.5q0 -40 39.5 -67.5t133.5 -56.5q79 -24 126 -52.5t67.5 -66t20.5 -91.5q0 -72 -35.5 -125t-101 -82t-154.5 -29zM194 -243l15 33q48 -4 76.5 5t28.5 28q0 16 -19.5 27.5t-55.5 15.5l58 144h53l-26 -62
q51 -7 81.5 -31.5t30.5 -59.5q0 -42 -31 -68.5t-85.5 -35t-125.5 3.5z" />
    <glyph glyph-name="scedilla" unicode="&#x15f;" horiz-adv-x="540" 
d="M258 -15q-40 0 -82 7t-80.5 19t-66.5 28l57 140h26l127 -168h-96l-1 94q16 -26 50 -40.5t79 -14.5q41 0 63.5 14.5t22.5 41.5q0 26 -22.5 42t-57 27t-73 22.5t-73 29t-57 46t-22.5 73.5q0 79 62.5 122t176.5 43q37 0 75 -6t74 -17t62 -26l-57 -138h-27l-128 163h98l1 -94
q-15 25 -48 39t-69 14q-35 0 -54.5 -11.5t-19.5 -32.5q0 -26 22.5 -42t57.5 -28t73.5 -24t73.5 -29.5t57 -45.5t22 -71q0 -85 -63.5 -131t-182.5 -46zM150 -243l15 33q48 -4 76.5 5t28.5 28q0 16 -19.5 27.5t-55.5 15.5l58 144h53l-26 -62q51 -7 81.5 -31.5t30.5 -59.5
q0 -42 -31 -68.5t-85.5 -35t-125.5 3.5z" />
    <glyph glyph-name="Scaron" unicode="&#x160;" horiz-adv-x="628" 
d="M302 -16q-48 0 -94 8.5t-90 25.5t-83 40l68 145h25l148 -177h-123v97q16 -31 61 -49.5t101 -18.5q60 0 92.5 26.5t32.5 75.5q0 41 -39.5 68t-133.5 56q-78 25 -125.5 53t-68 66t-20.5 91q0 99 73 157t198 58q42 0 86.5 -8.5t87.5 -25t81 -39.5l-76 -138h-25l-145 170h129
l-1 -98q-18 33 -56 52t-86 19q-50 0 -81.5 -23.5t-31.5 -60.5q0 -40 39.5 -67.5t133.5 -56.5q79 -24 126 -52.5t67.5 -66t20.5 -91.5q0 -72 -35.5 -125t-101 -82t-154.5 -29zM134 947l187 -78h-12l187 78l14 -16l-167 -189h-56l-167 189z" />
    <glyph glyph-name="scaron" unicode="&#x161;" horiz-adv-x="540" 
d="M258 -15q-40 0 -82 7t-80.5 19t-66.5 28l57 140h26l127 -168h-96l-1 94q16 -26 50 -40.5t79 -14.5q41 0 63.5 14.5t22.5 41.5q0 26 -22.5 42t-57 27t-73 22.5t-73 29t-57 46t-22.5 73.5q0 79 62.5 122t176.5 43q37 0 75 -6t74 -17t62 -26l-57 -138h-27l-128 163h98l1 -94
q-15 25 -48 39t-69 14q-35 0 -54.5 -11.5t-19.5 -32.5q0 -26 22.5 -42t57.5 -28t73.5 -24t73.5 -29.5t57 -45.5t22 -71q0 -85 -63.5 -131t-182.5 -46zM108 808l168 -96h-12l168 96l18 -16l-160 -227h-39l-160 227z" />
    <glyph glyph-name="uni0162" unicode="&#x162;" horiz-adv-x="737" 
d="M204 0v22l77 67v581l72 -27l-293 -25v72h617v-72l-293 25l73 27v-581l77 -67v-22h-330zM35 499l3 205h22l147 -14l8 -46l-156 -145h-24zM678 499l-156 145l8 46l147 14h23l3 -205h-25zM249 -243l15 33q48 -4 76.5 5t28.5 28q0 16 -19.5 27.5t-55.5 15.5l58 144h53
l-26 -62q51 -7 81.5 -31.5t30.5 -59.5q0 -42 -31 -68.5t-85.5 -35t-125.5 3.5z" />
    <glyph glyph-name="uni0163" unicode="&#x163;" horiz-adv-x="463" 
d="M268 -15q-50 0 -88.5 22t-60 61t-21.5 91v303l43 -74h-131v23l219 235h31v-448q0 -55 18.5 -81.5t58.5 -26.5q49 0 83 41l33 -18q-16 -59 -65.5 -93.5t-119.5 -34.5zM407 378l-200 40v53l196 47h20v-128zM138 -243l15 33q48 -4 76.5 5t28.5 28q0 16 -19.5 27.5
t-55.5 15.5l58 144h53l-26 -62q51 -7 81.5 -31.5t30.5 -59.5q0 -42 -31 -68.5t-85.5 -35t-125.5 3.5z" />
    <glyph glyph-name="Tcaron" unicode="&#x164;" horiz-adv-x="737" 
d="M204 0v22l77 67v581l72 -27l-293 -25v72h617v-72l-293 25l73 27v-581l77 -67v-22h-330zM35 499l3 205h22l147 -14l8 -46l-156 -145h-24zM678 499l-156 145l8 46l147 14h23l3 -205h-25zM189 947l187 -78h-12l186 78l15 -16l-167 -189h-56l-168 189z" />
    <glyph glyph-name="tcaron" unicode="&#x165;" horiz-adv-x="463" 
d="M268 -15q-50 0 -88.5 22t-60 61t-21.5 91v303l43 -74h-131v23l219 235h31v-448q0 -55 18.5 -81.5t58.5 -26.5q49 0 83 41l33 -18q-16 -59 -65.5 -93.5t-119.5 -34.5zM407 378l-200 40v53l196 47h20v-128zM332 546l-21 6l7 221l6 4l146 -43l1 -6z" />
    <glyph glyph-name="Tbar" unicode="&#x166;" horiz-adv-x="737" 
d="M204 0v22l77 67v581l72 -27l-293 -25v72h617v-72l-293 25l73 27v-581l77 -67v-22h-330zM35 499l3 205h22l147 -14l8 -46l-156 -145h-24zM678 499l-156 145l8 46l147 14h23l3 -205h-25zM176 323v63h386v-63h-386z" />
    <glyph glyph-name="tbar" unicode="&#x167;" horiz-adv-x="463" 
d="M268 -15q-50 0 -88.5 22t-60 61t-21.5 91v303l43 -74h-131v23l219 235h31v-448q0 -55 18.5 -81.5t58.5 -26.5q49 0 83 41l33 -18q-16 -59 -65.5 -93.5t-119.5 -34.5zM407 378l-200 40v53l196 47h20v-128zM11 232v58h372v-58h-372z" />
    <glyph glyph-name="Utilde" unicode="&#x168;" horiz-adv-x="737" 
d="M563 595l-87 73v22h259v-22l-75 -73v-340q0 -82 -34.5 -142.5t-97.5 -94.5t-147 -34q-149 0 -228.5 68.5t-79.5 196.5v352l-71 67v22h318v-22l-71 -67v-321q0 -102 39 -152t118 -50t118 50t39 152v315zM480 748q-34 0 -63 10t-57.5 20t-60.5 10q-62 0 -85 -39l-23 7
q7 63 41.5 99t87.5 36q35 0 64 -10t57.5 -20t60.5 -10q62 0 84 39l24 -7q-7 -63 -41.5 -99t-88.5 -36z" />
    <glyph glyph-name="utilde" unicode="&#x169;" horiz-adv-x="651" 
d="M236 -15q-75 0 -115 45t-40 129v244l43 -91l-112 108v22l200 61h31v-305q0 -54 19.5 -78.5t63.5 -24.5q29 0 56 11.5t50 32.5v-58h-12q-41 -48 -87 -72t-97 -24zM469 -13l-43 92h-10v325l43 -90l-112 107v22l200 62h31v-405l-42 74l103 -100v-22l-145 -65h-25zM414 565
q-34 0 -62.5 13.5t-55.5 27.5t-55 14q-31 0 -55.5 -14t-35.5 -40l-25 7q7 68 42.5 110.5t86.5 42.5q35 0 63.5 -13.5t55.5 -27.5t55 -14q31 0 55.5 14.5t35.5 39.5l25 -7q-7 -68 -42.5 -110.5t-87.5 -42.5z" />
    <glyph glyph-name="Umacron" unicode="&#x16a;" horiz-adv-x="737" 
d="M563 595l-87 73v22h259v-22l-75 -73v-340q0 -82 -34.5 -142.5t-97.5 -94.5t-147 -34q-149 0 -228.5 68.5t-79.5 196.5v352l-71 67v22h318v-22l-71 -67v-321q0 -102 39 -152t118 -50t118 50t39 152v315zM212 782v88h377v-88h-377z" />
    <glyph glyph-name="umacron" unicode="&#x16b;" horiz-adv-x="651" 
d="M236 -15q-75 0 -115 45t-40 129v244l43 -91l-112 108v22l200 61h31v-305q0 -54 19.5 -78.5t63.5 -24.5q29 0 56 11.5t50 32.5v-58h-12q-41 -48 -87 -72t-97 -24zM469 -13l-43 92h-10v325l43 -90l-112 107v22l200 62h31v-405l-42 74l103 -100v-22l-145 -65h-25zM148 594
v88h356v-88h-356z" />
    <glyph glyph-name="Ubreve" unicode="&#x16c;" horiz-adv-x="737" 
d="M563 595l-87 73v22h259v-22l-75 -73v-340q0 -82 -34.5 -142.5t-97.5 -94.5t-147 -34q-149 0 -228.5 68.5t-79.5 196.5v352l-71 67v22h318v-22l-71 -67v-321q0 -102 39 -152t118 -50t118 50t39 152v315zM401 742q-74 0 -118.5 47.5t-44.5 126.5l22 4q15 -30 55.5 -50
t85.5 -20q47 0 87 20t53 50l23 -4q-1 -79 -45 -126.5t-118 -47.5z" />
    <glyph glyph-name="ubreve" unicode="&#x16d;" horiz-adv-x="651" 
d="M236 -15q-75 0 -115 45t-40 129v244l43 -91l-112 108v22l200 61h31v-305q0 -54 19.5 -78.5t63.5 -24.5q29 0 56 11.5t50 32.5v-58h-12q-41 -48 -87 -72t-97 -24zM469 -13l-43 92h-10v325l43 -90l-112 107v22l200 62h31v-405l-42 74l103 -100v-22l-145 -65h-25zM326 565
q-75 0 -119 53t-44 144l21 2q14 -40 51.5 -63t89.5 -23q53 0 90.5 23t51.5 63l21 -3q0 -90 -43.5 -143t-118.5 -53z" />
    <glyph glyph-name="Uring" unicode="&#x16e;" horiz-adv-x="737" 
d="M563 595l-87 73v22h259v-22l-75 -73v-340q0 -82 -34.5 -142.5t-97.5 -94.5t-147 -34q-149 0 -228.5 68.5t-79.5 196.5v352l-71 67v22h318v-22l-71 -67v-321q0 -102 39 -152t118 -50t118 50t39 152v315zM400 733q-55 0 -90 33t-35 84t35 83.5t90 32.5t90 -32.5t35 -83.5
t-35 -84t-90 -33zM400 784q29 0 47 18.5t18 47.5q0 28 -18.5 46.5t-46.5 18.5q-29 0 -47 -18.5t-18 -47.5q0 -28 18.5 -46.5t46.5 -18.5z" />
    <glyph glyph-name="uring" unicode="&#x16f;" horiz-adv-x="651" 
d="M236 -15q-75 0 -115 45t-40 129v244l43 -91l-112 108v22l200 61h31v-305q0 -54 19.5 -78.5t63.5 -24.5q29 0 56 11.5t50 32.5v-58h-12q-41 -48 -87 -72t-97 -24zM469 -13l-43 92h-10v325l43 -90l-112 107v22l200 62h31v-405l-42 74l103 -100v-22l-145 -65h-25zM325 562
q-61 0 -100 36.5t-39 94.5t39.5 94.5t99.5 36.5q63 0 102 -36.5t39 -94.5t-39 -94.5t-102 -36.5zM326 618q33 0 53.5 21t20.5 54q0 34 -20.5 54.5t-53.5 20.5t-53.5 -20.5t-20.5 -54.5q0 -33 20.5 -54t53.5 -21z" />
    <glyph glyph-name="Uhungarumlaut" unicode="&#x170;" horiz-adv-x="737" 
d="M563 595l-87 73v22h259v-22l-75 -73v-340q0 -82 -34.5 -142.5t-97.5 -94.5t-147 -34q-149 0 -228.5 68.5t-79.5 196.5v352l-71 67v22h318v-22l-71 -67v-321q0 -102 39 -152t118 -50t118 50t39 152v315zM343 736l-22 5l8 221l6 4l140 -39v-6zM476 735l-22 6l51 215l6 4
l134 -45v-7z" />
    <glyph glyph-name="uhungarumlaut" unicode="&#x171;" horiz-adv-x="651" 
d="M236 -15q-75 0 -115 45t-40 129v244l43 -91l-112 108v22l200 61h31v-305q0 -54 19.5 -78.5t63.5 -24.5q29 0 56 11.5t50 32.5v-58h-12q-41 -48 -87 -72t-97 -24zM469 -13l-43 92h-10v325l43 -90l-112 107v22l200 62h31v-405l-42 74l103 -100v-22l-145 -65h-25zM257 558
l-23 5l-16 232l6 4l142 -32v-7zM402 558l-23 5l22 228l6 4l142 -40v-7z" />
    <glyph glyph-name="Uogonek" unicode="&#x172;" horiz-adv-x="737" 
d="M381 -16q-149 0 -228.5 68.5t-79.5 196.5v352l-71 67v22h318v-22l-71 -67v-321q0 -102 39 -152t118 -50t118 50t39 152v315l-87 73v22h259v-22l-75 -73v-340q0 -82 -34.5 -142.5t-97.5 -94.5t-147 -34zM454 -251q-57 0 -88.5 28t-31.5 79q0 39 23 74.5t59 53.5v38l85 1
v-17q-28 -12 -46 -39.5t-18 -61.5q0 -73 69 -73q22 0 40.5 8t33.5 25l17 -11q-15 -53 -50.5 -79t-92.5 -26z" />
    <glyph glyph-name="uogonek" unicode="&#x173;" horiz-adv-x="651" 
d="M236 -15q-75 0 -115 45t-40 129v244l43 -91l-112 108v22l200 61h31v-305q0 -54 19.5 -78.5t63.5 -24.5q29 0 56 11.5t50 32.5v-58h-12q-41 -48 -87 -72t-97 -24zM469 -13l-43 92h-10v325l43 -90l-112 107v22l200 62h31v-405l-42 74l103 -100v-22l-145 -65h-25zM462 -252
q-49 0 -79 28.5t-30 74.5q0 55 38 99t102 63v-26q-19 -11 -29.5 -34t-10.5 -52q0 -70 63 -70q19 0 38 8.5t34 24.5l17 -11q-13 -48 -52 -76.5t-91 -28.5z" />
    <glyph glyph-name="Wcircumflex" unicode="&#x174;" horiz-adv-x="1159" 
d="M761 -2l-229 554l2 48l-88 68v22h321v-22l-96 -74l-9 82l231 -560h-40l143 561l6 -86l-100 77v22h255v-22l-76 -87l52 96l-281 -679h-91zM307 -2l-281 678l50 -96l-74 88v22h310v-22l-96 -75l-9 83l231 -560h-39l146 561h133l-281 -679h-90zM425 731l-14 16l167 188h56
l167 -188l-14 -16l-187 78h12z" />
    <glyph glyph-name="wcircumflex" unicode="&#x175;" horiz-adv-x="941" 
d="M276 -2l-229 442h50v-76l-95 115v17h286v-17l-66 -112h-13v100l177 -342h-26l83 371h91l11 -68l-208 -430h-61zM604 -2l-165 356l24 142h82l171 -370h-23l84 360l1 -98h-9l-55 91v17h225v-17l-95 -114v75h50l-229 -442h-61zM336 559l-18 16l160 227h39l160 -227l-18 -16
l-167 96h12z" />
    <glyph glyph-name="Ycircumflex" unicode="&#x176;" horiz-adv-x="722" 
d="M307 200l-292 477l64 -94l-77 85v22h322v-22l-121 -98l4 107l225 -365h-8l129 365l4 -92l-101 83v22h264v-22l-77 -84l64 93l-295 -477h-105zM204 0v22l71 67v199h176v-199l71 -67v-22h-318zM208 731l-14 16l167 188h56l167 -188l-14 -16l-187 78h12z" />
    <glyph glyph-name="ycircumflex" unicode="&#x177;" horiz-adv-x="624" 
d="M286 -78l-240 518h50v-81l-94 120v17h281v-17l-65 -101h-14v89l178 -381l-29 -15l112 415v-96h-8l-68 89v17h233v-17l-90 -117v78h50l-369 -691h-26l-136 111v17l241 102zM172 559l-18 16l160 227h39l160 -227l-18 -16l-167 96h12z" />
    <glyph glyph-name="Ydieresis" unicode="&#x178;" horiz-adv-x="722" 
d="M307 200l-292 477l64 -94l-77 85v22h322v-22l-121 -98l4 107l225 -365h-8l129 365l4 -92l-101 83v22h264v-22l-77 -84l64 93l-295 -477h-105zM204 0v22l71 67v199h176v-199l71 -67v-22h-318zM268 747q-38 0 -62.5 22t-24.5 55q0 34 24.5 56t62.5 22t62.5 -22t24.5 -56
q0 -33 -24.5 -55t-62.5 -22zM510 747q-38 0 -63 22t-25 55q0 34 25 56t63 22q39 0 63 -22t24 -56q0 -33 -24 -55t-63 -22z" />
    <glyph glyph-name="Zacute" unicode="&#x179;" horiz-adv-x="664" 
d="M35 0v22l409 657l21 -35l-349 -24v70h510v-22l-406 -653l-21 35l378 22v-72h-542zM442 0v47l162 151h25l-7 -198h-180zM64 509l-18 195h20l161 -14l-2 -44l-136 -137h-25zM263 734l-13 15l155 214h6l106 -127v-7z" />
    <glyph glyph-name="zacute" unicode="&#x17a;" horiz-adv-x="573" 
d="M52 0v27l308 469h167v-27l-309 -469h-166zM167 0v42l297 39l-106 -29l141 138h26v-190h-358zM96 312l-49 184h368v-38l-296 -39l107 25l-104 -132h-26zM239 560l-18 12l73 237h7l141 -96v-7z" />
    <glyph glyph-name="Zdotaccent" unicode="&#x17b;" horiz-adv-x="664" 
d="M35 0v22l409 657l21 -35l-349 -24v70h510v-22l-406 -653l-21 35l378 22v-72h-542zM442 0v47l162 151h25l-7 -198h-180zM64 509l-18 195h20l161 -14l-2 -44l-136 -137h-25zM332 742q-46 0 -74.5 26t-28.5 67t28.5 66.5t74.5 25.5q45 0 73.5 -25.5t28.5 -66.5
q0 -40 -28.5 -66.5t-73.5 -26.5z" />
    <glyph glyph-name="zdotaccent" unicode="&#x17c;" horiz-adv-x="573" 
d="M52 0v27l308 469h167v-27l-309 -469h-166zM167 0v42l297 39l-106 -29l141 138h26v-190h-358zM96 312l-49 184h368v-38l-296 -39l107 25l-104 -132h-26zM287 565q-45 0 -73.5 26t-28.5 67t28.5 66.5t73.5 25.5q46 0 74.5 -26t28.5 -66q0 -41 -28.5 -67t-74.5 -26z" />
    <glyph glyph-name="Zcaron" unicode="&#x17d;" horiz-adv-x="664" 
d="M35 0v22l409 657l21 -35l-349 -24v70h510v-22l-406 -653l-21 35l378 22v-72h-542zM442 0v47l162 151h25l-7 -198h-180zM64 509l-18 195h20l161 -14l-2 -44l-136 -137h-25zM152 947l187 -78h-12l187 78l14 -16l-167 -189h-56l-167 189z" />
    <glyph glyph-name="zcaron" unicode="&#x17e;" horiz-adv-x="573" 
d="M52 0v27l308 469h167v-27l-309 -469h-166zM167 0v42l297 39l-106 -29l141 138h26v-190h-358zM96 312l-49 184h368v-38l-296 -39l107 25l-104 -132h-26zM125 808l168 -96h-12l168 96l18 -16l-160 -227h-40l-160 227z" />
    <glyph glyph-name="uni018F" unicode="&#x18f;" horiz-adv-x="734" 
d="M347 -16q-99 0 -169 41t-106.5 119.5t-36.5 189.5h521v-47l-320 -40q0 -56 16 -100t45 -69t65 -25q45 0 78 34t51 95.5t18 145.5q0 93 -24.5 160t-69 104t-106.5 37q-47 0 -91 -15t-80 -44l32 95h125l-136 -176h-24l-83 144q40 24 86 40t96.5 24.5t103.5 8.5
q108 0 189 -43.5t127 -122t46 -181.5q0 -85 -25 -153.5t-71.5 -118.5t-111.5 -76.5t-145 -26.5z" />
    <glyph glyph-name="florin" unicode="&#x192;" horiz-adv-x="604" 
d="M91 -212q-40 0 -71.5 7.5t-69.5 25.5l65 140h25l92 -146h-103v20q51 0 79.5 32.5t45.5 109.5l105 458q27 121 94.5 186t164.5 65q31 0 63.5 -7t75.5 -23l-69 -155h-25l-86 150h119v-47q-21 36 -70 36q-32 0 -58 -44t-45 -130l-97 -425q-17 -78 -52 -134.5t-81.5 -87.5
t-101.5 -31zM141 264l11 52h378l-11 -52h-378z" />
    <glyph glyph-name="uni019D" unicode="&#x19d;" horiz-adv-x="762" 
d="M573 -1l-438 552v139h100l417 -526l-30 -41l-62 478l-71 67v22h246v-22l-71 -67v-602h-91zM37 -251q-72 0 -108 40t-36 122h106q0 -60 9.5 -86t31.5 -26q29 0 41.5 44t16.5 157l21 575l-80 93v22h119l38 -690q5 -93 -8.5 -148t-49.5 -79t-101 -24z" />
    <glyph glyph-name="Ohorn" unicode="&#x1a0;" horiz-adv-x="826" 
d="M408 -16q-113 0 -197 43.5t-130 123.5t-46 189q0 112 47 194t133 127t203 45q114 0 197.5 -43.5t129.5 -123t46 -189.5q0 -111 -47 -193.5t-133 -127.5t-203 -45zM421 54q56 0 96 32.5t60.5 94t20.5 148.5q0 95 -23.5 163.5t-66.5 106t-103 37.5q-57 0 -96.5 -32t-60 -94
t-20.5 -149q0 -94 23.5 -163t67 -106.5t102.5 -37.5zM597 849l132 32q28 -64 14.5 -114.5t-63 -80.5t-129.5 -30h-56v34h50q56 0 69.5 43.5t-17.5 115.5z" />
    <glyph glyph-name="ohorn" unicode="&#x1a1;" horiz-adv-x="646" 
d="M320 -15q-87 0 -150.5 31.5t-98.5 88.5t-35 135q0 80 37 141t102.5 95.5t150.5 34.5q86 0 150 -31.5t99 -88.5t35 -135q0 -79 -37 -140.5t-102.5 -96t-150.5 -34.5zM335 52q32 0 55 20t36 56.5t13 85.5q0 76 -14.5 127t-43 77t-70.5 26q-31 0 -55 -20t-37 -56.5
t-13 -85.5q0 -76 15 -127t43.5 -77t70.5 -26zM540 617l114 44q88 -170 -131 -254l-52 -20v41l54 23q25 10 35 34.5t5 59t-25 72.5z" />
    <glyph glyph-name="Uhorn" unicode="&#x1af;" horiz-adv-x="737" 
d="M381 -16q-149 0 -228.5 68.5t-79.5 196.5v352l-71 67v22h318v-22l-71 -67v-321q0 -102 39 -152t118 -50t118 50t39 152v315l-87 73v22h184v-435q0 -82 -34.5 -142.5t-97.5 -94.5t-147 -34zM634 849l132 32q29 -64 15 -114.5t-63.5 -80.5t-128.5 -30h-57v34h50
q56 0 70 43.5t-18 115.5z" />
    <glyph glyph-name="uhorn" unicode="&#x1b0;" horiz-adv-x="651" 
d="M236 -15q-75 0 -115 45t-40 129v244l43 -91l-112 108v22l200 61h31v-305q0 -54 19.5 -78.5t63.5 -24.5q29 0 56 11.5t50 32.5v-58h-12q-41 -48 -87 -72t-97 -24zM469 -13l-43 92h-10v325l43 -90l-112 107v22l200 62h31v-405l-42 74l103 -100v-22l-145 -65h-25zM587 617
l114 44q88 -170 -131 -254l-52 -20v41l54 23q25 10 35 34.5t5 59t-25 72.5z" />
    <glyph glyph-name="uni01CD" unicode="&#x1cd;" horiz-adv-x="766" 
d="M2 0v22l76 85l-51 -94l300 677h112l300 -677l-52 94l77 -85v-22h-316v22l99 82l9 -91l-260 588h35l-166 -588l-3 90l100 -81v-22h-260zM174 200v58h381v-58h-381zM305 582l-79 86v22h126zM183 947l186 -78h-12l187 78l15 -16l-168 -189h-56l-167 189z" />
    <glyph glyph-name="uni01CE" unicode="&#x1ce;" horiz-adv-x="595" 
d="M412 -13l-40 75h-12v261q0 58 -27.5 90t-76.5 32q-28 0 -52.5 -14t-39.5 -38l1 96h98l-129 -168h-26l-59 143q24 14 63 25t83.5 17.5t87.5 6.5q116 0 177.5 -47.5t61.5 -137.5v-228l-43 74l103 -100v-22l-145 -65h-25zM191 -15q-66 0 -108 38t-42 98q0 131 220 172
l122 23v-54l-74 -18q-52 -13 -75.5 -34t-23.5 -55t18.5 -52.5t51.5 -18.5q56 0 95 32v-54h-11q-31 -38 -75 -57.5t-98 -19.5zM138 808l168 -96h-12l168 96l18 -16l-160 -227h-39l-160 227z" />
    <glyph glyph-name="Gcaron" unicode="&#x1e6;" horiz-adv-x="785" 
d="M392 -16q-110 0 -190.5 42t-123.5 120t-43 185q0 85 27 153.5t77 118.5t120 76.5t156 26.5q48 0 96.5 -9t93 -25t77.5 -39l-77 -145h-24l-152 177h126l1 -95q-20 32 -53 49.5t-76 17.5q-57 0 -102.5 -36.5t-72 -98.5t-26.5 -140q0 -86 28.5 -150t81 -99.5t123.5 -35.5
q53 0 88.5 24.5t58.5 75.5l38 -19q-22 -81 -89 -127.5t-163 -46.5zM682 -16l-153 96v169l-81 68v22h310v-22l-53 -61v-272h-23zM235 947l187 -78h-12l187 78l14 -16l-167 -189h-56l-167 189z" />
    <glyph glyph-name="gcaron" unicode="&#x1e7;" horiz-adv-x="630" 
d="M313 -251q-90 0 -153.5 14.5t-97 41.5t-33.5 65q0 34 27 58t68 27v37h75v-42q-24 -16 -24 -57q0 -38 47 -62t121 -24q64 0 106 22.5t42 56.5q0 29 -24.5 46.5t-68.5 17.5h-222q-61 0 -98.5 35.5t-37.5 91.5q0 31 14 57t38 44t55 22l46 -26q-20 0 -31 -10t-11 -28
q0 -22 20 -33t59 -11h186q96 0 149 -38t53 -107q0 -58 -39 -102.5t-107.5 -70t-158.5 -25.5zM294 156q-71 0 -126 22t-85.5 60.5t-30.5 88.5q0 59 31 100t89 62.5t140 21.5q28 0 57.5 -4.5t45.5 -11.5v-41q57 -24 90.5 -61t33.5 -77q0 -46 -31 -82.5t-86.5 -57t-127.5 -20.5
zM310 214q40 0 61 25t21 74q0 62 -26.5 101t-69.5 39q-40 0 -60.5 -25t-20.5 -74q0 -61 26.5 -100.5t68.5 -39.5zM594 397l-163 59l-6 -16l-106 51l293 58l6 -6v-146h-24zM135 808l167 -96h-12l168 96l18 -16l-160 -227h-39l-160 227z" />
    <glyph glyph-name="uni01EA" unicode="&#x1ea;" horiz-adv-x="826" 
d="M408 -16q-113 0 -197 43.5t-130 123.5t-46 189q0 112 47 194t133 127t203 45q114 0 197.5 -43.5t129.5 -123t46 -189.5q0 -111 -47 -193.5t-133 -127.5t-203 -45zM503 -251q-57 0 -88.5 28t-31.5 79q0 39 23.5 74.5t58.5 53.5v38l86 1v-19q-29 -10 -47 -37.5t-18 -61.5
q0 -35 18.5 -54t51.5 -19q21 0 39.5 8t33.5 25l18 -11q-16 -53 -51.5 -79t-92.5 -26zM421 54q56 0 96 32.5t60.5 94t20.5 148.5q0 95 -23.5 163.5t-66.5 106t-103 37.5q-57 0 -96.5 -32t-60 -94t-20.5 -149q0 -94 23.5 -163t67 -106.5t102.5 -37.5z" />
    <glyph glyph-name="uni01EB" unicode="&#x1eb;" horiz-adv-x="646" 
d="M320 -15q-87 0 -150.5 31.5t-98.5 88.5t-35 135q0 80 37 141t102.5 95.5t150.5 34.5q86 0 150 -31.5t99 -88.5t35 -135q0 -79 -37 -140.5t-102.5 -96t-150.5 -34.5zM363 -251q-48 0 -78 28.5t-30 74.5q0 38 22.5 71t66.5 59v40h77v-22q-31 -14 -49 -40t-18 -58
q0 -70 64 -70q19 0 38 8.5t34 24.5l17 -11q-14 -48 -52.5 -76.5t-91.5 -28.5zM335 52q32 0 55 20t36 56.5t13 85.5q0 76 -14.5 127t-43 77t-70.5 26q-31 0 -55 -20t-37 -56.5t-13 -85.5q0 -76 15 -127t43.5 -77t70.5 -26z" />
    <glyph glyph-name="AEacute" unicode="&#x1fc;" horiz-adv-x="1003" 
d="M2 0v22l74 84l-61 -93l404 677h145l122 -690h-261v22l99 82l-11 -91l-104 588h12l-254 -588l8 89l99 -79v-23h-272zM204 209v58h319v-58h-319zM632 0v43l296 29v-72h-296zM790 0v46l154 138h24l-6 -184h-172zM839 321l-268 15v46l268 16v-77zM394 576l-101 92v22h151z
M843 251l-95 88v41l95 88h25v-217h-25zM909 618l-419 23v49h419v-72zM906 524l-143 120v46l149 14h18l1 -180h-25zM422 734l-13 15l155 214h6l106 -127v-7z" />
    <glyph glyph-name="aeacute" unicode="&#x1fd;" horiz-adv-x="899" 
d="M360 276v47q0 58 -27.5 90t-76.5 32q-28 0 -52.5 -14t-39.5 -38l1 96h98l-129 -168h-26l-59 143q24 14 63 25t83.5 17.5t87.5 6.5q71 0 125 -23.5t84 -65t30 -96.5v-52h-162zM191 -15q-66 0 -108 38t-42 97q0 65 58.5 109.5t161.5 56.5l122 14v-57l-74 -10
q-51 -7 -75 -30t-24 -56q0 -30 18.5 -46.5t51.5 -16.5q43 0 79 15.5t61 44.5l1 -66h-11q-38 -48 -91 -70.5t-128 -22.5zM624 -15q-77 0 -135 31t-91 86.5t-33 126.5q0 60 21 111.5t59 89.5t88.5 59.5t109.5 21.5q66 0 115 -29.5t77 -82t28 -122.5l-383 -27v51l225 32
q0 50 -22 80t-60 30q-27 0 -47.5 -21.5t-31.5 -62t-11 -94.5q0 -82 40 -130t110 -48q82 0 134 53l32 -24q-29 -61 -89 -96t-136 -35zM416 560l-18 12l73 237h7l141 -96v-7z" />
    <glyph glyph-name="Oslashacute" unicode="&#x1fe;" horiz-adv-x="826" 
d="M408 -16q-113 0 -197 43.5t-130 123.5t-46 189q0 112 47 194t133 127t203 45q114 0 197.5 -43.5t129.5 -123t46 -189.5q0 -111 -47 -193.5t-133 -127.5t-203 -45zM421 54q56 0 96 32.5t60.5 94t20.5 148.5q0 95 -23.5 163.5t-66.5 106t-103 37.5q-57 0 -96.5 -32t-60 -94
t-20.5 -149q0 -94 23.5 -163t67 -106.5t102.5 -37.5zM118 -27l544 777l46 -32l-544 -778zM344 734l-13 15l155 214h6l106 -127v-7z" />
    <glyph glyph-name="oslashacute" unicode="&#x1ff;" horiz-adv-x="646" 
d="M320 -15q-87 0 -150.5 31.5t-98.5 88.5t-35 135q0 80 37 141t102.5 95.5t150.5 34.5q86 0 150 -31.5t99 -88.5t35 -135q0 -79 -37 -140.5t-102.5 -96t-150.5 -34.5zM335 52q32 0 55 20t36 56.5t13 85.5q0 76 -14.5 127t-43 77t-70.5 26q-31 0 -55 -20t-37 -56.5
t-13 -85.5q0 -76 15 -127t43.5 -77t70.5 -26zM144 -56l-45 31l404 578l45 -32zM275 560l-18 12l73 237h7l141 -96v-7z" />
    <glyph glyph-name="uni0218" unicode="&#x218;" horiz-adv-x="628" 
d="M302 -16q-48 0 -94 8.5t-90 25.5t-83 40l68 145h25l148 -177h-123v97q16 -31 61 -49.5t101 -18.5q60 0 92.5 26.5t32.5 75.5q0 41 -39.5 68t-133.5 56q-78 25 -125.5 53t-68 66t-20.5 91q0 99 73 157t198 58q42 0 86.5 -8.5t87.5 -25t81 -39.5l-76 -138h-25l-145 170h129
l-1 -98q-18 33 -56 52t-86 19q-50 0 -81.5 -23.5t-31.5 -60.5q0 -40 39.5 -67.5t133.5 -56.5q79 -24 126 -52.5t67.5 -66t20.5 -91.5q0 -72 -35.5 -125t-101 -82t-154.5 -29zM204 -332l-7 37q40 9 65 30.5t25 47.5l-75 47v6q0 40 29.5 67t72.5 27t72 -31t29 -78
q0 -44 -27 -78.5t-74 -54t-110 -20.5z" />
    <glyph glyph-name="uni0219" unicode="&#x219;" horiz-adv-x="540" 
d="M258 -15q-40 0 -82 7t-80.5 19t-66.5 28l57 140h26l127 -168h-96l-1 94q16 -26 50 -40.5t79 -14.5q41 0 63.5 14.5t22.5 41.5q0 26 -22.5 42t-57 27t-73 22.5t-73 29t-57 46t-22.5 73.5q0 79 62.5 122t176.5 43q37 0 75 -6t74 -17t62 -26l-57 -138h-27l-128 163h98l1 -94
q-15 25 -48 39t-69 14q-35 0 -54.5 -11.5t-19.5 -32.5q0 -26 22.5 -42t57.5 -28t73.5 -24t73.5 -29.5t57 -45.5t22 -71q0 -85 -63.5 -131t-182.5 -46zM160 -332l-7 37q40 9 65 30.5t25 47.5l-75 47v6q0 40 29.5 67t72.5 27t72 -31t29 -78q0 -44 -27 -78.5t-74 -54
t-110 -20.5z" />
    <glyph glyph-name="uni021A" unicode="&#x21a;" horiz-adv-x="737" 
d="M204 0v22l77 67v581l72 -27l-293 -25v72h617v-72l-293 25l73 27v-581l77 -67v-22h-330zM35 499l3 205h22l147 -14l8 -46l-156 -145h-24zM678 499l-156 145l8 46l147 14h23l3 -205h-25zM259 -332l-7 37q40 9 65 30.5t25 47.5l-75 47v6q0 40 29.5 67t72.5 27t72 -31t29 -78
q0 -44 -27 -78.5t-74 -54t-110 -20.5z" />
    <glyph glyph-name="uni021B" unicode="&#x21b;" horiz-adv-x="463" 
d="M268 -15q-50 0 -88.5 22t-60 61t-21.5 91v303l43 -74h-131v23l219 235h31v-448q0 -55 18.5 -81.5t58.5 -26.5q49 0 83 41l33 -18q-16 -59 -65.5 -93.5t-119.5 -34.5zM407 378l-200 40v53l196 47h20v-128zM148 -332l-7 37q40 9 65 30.5t25 47.5l-75 47v6q0 40 29.5 67
t72.5 27t72 -31t29 -78q0 -44 -27 -78.5t-74 -54t-110 -20.5z" />
    <glyph glyph-name="uni0232" unicode="&#x232;" horiz-adv-x="722" 
d="M307 200l-292 477l64 -94l-77 85v22h322v-22l-121 -98l4 107l225 -365h-8l129 365l4 -92l-101 83v22h264v-22l-77 -84l64 93l-295 -477h-105zM204 0v22l71 67v199h176v-199l71 -67v-22h-318zM201 782v88h377v-88h-377z" />
    <glyph glyph-name="uni0233" unicode="&#x233;" horiz-adv-x="624" 
d="M286 -78l-240 518h50v-81l-94 120v17h281v-17l-65 -101h-14v89l178 -381l-29 -15l112 415v-96h-8l-68 89v17h233v-17l-90 -117v78h50l-369 -691h-26l-136 111v17l241 102zM155 594v88h356v-88h-356z" />
    <glyph glyph-name="uni0237" unicode="&#x237;" horiz-adv-x="331" 
d="M1 -248l-51 155l16 19l167 -60l-39 -35v547l43 -75l-112 114v22l200 66h31v-468q0 -94 -61.5 -167.5t-179.5 -117.5h-14z" />
    <glyph glyph-name="uni0259" unicode="&#x259;" horiz-adv-x="570" 
d="M275 511q76 0 135 -31t91.5 -86t32.5 -127q0 -82 -35.5 -146t-98.5 -100t-144 -36q-65 0 -114.5 31.5t-77.5 91t-28 139.5h382v-36l-217 -38q0 -59 21 -89.5t54 -30.5q28 0 48 22t31 62t11 94q0 83 -40.5 130.5t-109.5 47.5q-82 0 -134 -53l-32 24q29 61 89 96t136 35z
" />
    <glyph glyph-name="uni0272" unicode="&#x272;" horiz-adv-x="680" 
d="M50 -251q-79 0 -122 42t-43 120h134q0 -61 8.5 -86.5t26.5 -25.5q23 0 31.5 30.5t8.5 108.5v463l43 -102l-112 118v22l198 66h31l-7 -89h9v-474q0 -100 -49 -146.5t-157 -46.5zM389 0v17l70 83l-15 -28v228q0 54 -21 78.5t-68 24.5q-34 0 -62 -11t-52 -34v58h11
q90 97 193 97q76 0 118.5 -46.5t42.5 -128.5v-267l-16 28l78 -82v-17h-279z" />
    <glyph glyph-name="uni02BB" unicode="&#x2bb;" horiz-adv-x="29" 
d="M119 827l7 -37q-41 -8 -66 -29.5t-25 -48.5l76 -47v-6q0 -39 -29.5 -66.5t-72.5 -27.5t-72 31.5t-29 77.5q0 45 27 79t74.5 54t109.5 20z" />
    <glyph glyph-name="circumflex" unicode="&#x2c6;" horiz-adv-x="431" 
d="M54 559l-18 16l160 227h39l160 -227l-18 -16l-167 96h12z" />
    <glyph glyph-name="caron" unicode="&#x2c7;" horiz-adv-x="431" 
d="M54 808l168 -96h-12l167 96l18 -16l-160 -227h-39l-160 227z" />
    <glyph glyph-name="breve" unicode="&#x2d8;" horiz-adv-x="397" 
d="M199 565q-75 0 -119 53t-44 144l21 2q14 -40 51.5 -63t89.5 -23q53 0 90.5 23t51.5 63l21 -3q0 -90 -43.5 -143t-118.5 -53z" />
    <glyph glyph-name="dotaccent" unicode="&#x2d9;" horiz-adv-x="225" 
d="M112 565q-45 0 -73.5 26t-28.5 67t28.5 66.5t73.5 25.5q46 0 74.5 -26t28.5 -66q0 -41 -28.5 -67t-74.5 -26z" />
    <glyph glyph-name="ring" unicode="&#x2da;" horiz-adv-x="352" 
d="M175 562q-61 0 -100 36.5t-39 94.5t39.5 94.5t99.5 36.5q63 0 102 -36.5t39 -94.5t-39 -94.5t-102 -36.5zM176 618q33 0 53.5 21t20.5 54q0 34 -20.5 54.5t-53.5 20.5t-53.5 -20.5t-20.5 -54.5q0 -33 20.5 -54t53.5 -21z" />
    <glyph glyph-name="ogonek" unicode="&#x2db;" horiz-adv-x="324" 
d="M145 -251q-49 0 -79 28.5t-30 74.5q0 55 38 99t102 63v-26q-19 -11 -29.5 -34t-10.5 -52q0 -70 63 -70q19 0 38 8.5t34 24.5l17 -11q-13 -48 -52 -76.5t-91 -28.5z" />
    <glyph glyph-name="tilde" unicode="&#x2dc;" horiz-adv-x="491" 
d="M325 565q-34 0 -62.5 13.5t-55.5 27.5t-55 14q-31 0 -55.5 -14t-35.5 -40l-25 7q7 68 42.5 110.5t86.5 42.5q35 0 63.5 -13.5t55.5 -27.5t55 -14q31 0 55.5 14.5t35.5 39.5l25 -7q-7 -68 -42.5 -110.5t-87.5 -42.5z" />
    <glyph glyph-name="hungarumlaut" unicode="&#x2dd;" horiz-adv-x="403" 
d="M75 558l-23 5l-16 232l6 4l142 -32v-7zM220 558l-23 5l22 228l6 4l142 -40v-7z" />
    <glyph glyph-name="gravecomb" unicode="&#x300;" 
d="M239 560l-203 146v7l141 96h7l73 -237z" />
    <glyph glyph-name="acutecomb" unicode="&#x301;" 
d="M54 560l-18 12l73 237h7l141 -96v-7z" />
    <glyph glyph-name="uni0302" unicode="&#x302;" 
d="M54 559l-18 16l160 227h39l160 -227l-18 -16l-167 96h12z" />
    <glyph glyph-name="tildecomb" unicode="&#x303;" 
d="M325 565q-34 0 -62.5 13.5t-55.5 27.5t-55 14q-31 0 -55.5 -14t-35.5 -40l-25 7q7 68 42.5 110.5t86.5 42.5q35 0 63.5 -13.5t55.5 -27.5t55 -14q31 0 55.5 14.5t35.5 39.5l25 -7q-7 -68 -42.5 -110.5t-87.5 -42.5z" />
    <glyph glyph-name="uni0304" unicode="&#x304;" 
d="M36 594v88h356v-88h-356z" />
    <glyph glyph-name="uni0306" unicode="&#x306;" 
d="M199 565q-75 0 -119 53t-44 144l21 2q14 -40 51.5 -63t89.5 -23q53 0 90.5 23t51.5 63l21 -3q0 -90 -43.5 -143t-118.5 -53z" />
    <glyph glyph-name="uni0307" unicode="&#x307;" 
d="M112 565q-45 0 -73.5 26t-28.5 67t28.5 66.5t73.5 25.5q46 0 74.5 -26t28.5 -66q0 -41 -28.5 -67t-74.5 -26z" />
    <glyph glyph-name="uni0308" unicode="&#x308;" 
d="M123 578q-38 0 -62.5 22t-24.5 57q0 34 24.5 56t62.5 22t62.5 -22t24.5 -56q0 -35 -24.5 -57t-62.5 -22zM361 578q-38 0 -62.5 22t-24.5 57q0 34 24.5 56t62.5 22q39 0 63 -22t24 -56q0 -35 -24 -57t-63 -22z" />
    <glyph glyph-name="hookabovecomb" unicode="&#x309;" 
d="M91 565l-6 23q26 3 40 14t14 28q0 21 -20 34.5t-53 13.5l-30 114q91 0 144.5 -30.5t53.5 -81.5q0 -50 -40.5 -82.5t-102.5 -32.5z" />
    <glyph glyph-name="uni030A" unicode="&#x30a;" 
d="M175 562q-61 0 -100 36.5t-39 94.5t39.5 94.5t99.5 36.5q63 0 102 -36.5t39 -94.5t-39 -94.5t-102 -36.5zM176 618q33 0 53.5 21t20.5 54q0 34 -20.5 54.5t-53.5 20.5t-53.5 -20.5t-20.5 -54.5q0 -33 20.5 -54t53.5 -21z" />
    <glyph glyph-name="uni030B" unicode="&#x30b;" 
d="M75 558l-23 5l-16 232l6 4l142 -32v-7zM220 558l-23 5l22 228l6 4l142 -40v-7z" />
    <glyph glyph-name="uni030C" unicode="&#x30c;" 
d="M54 808l168 -96h-12l167 96l18 -16l-160 -227h-39l-160 227z" />
    <glyph glyph-name="uni0312" unicode="&#x312;" 
d="M247 827l7 -37q-41 -8 -66 -29.5t-25 -48.5l76 -47v-6q0 -39 -29.5 -66.5t-72.5 -27.5t-72 31.5t-29 77.5q0 45 27 79t74.5 54t109.5 20z" />
    <glyph glyph-name="uni0313" unicode="&#x313;" 
d="M43 569l-7 37q40 9 65 30.5t25 47.5l-75 47v6q0 40 29.5 67t72.5 27t72 -31t29 -78q0 -44 -27 -78.5t-74 -54t-110 -20.5z" />
    <glyph glyph-name="uni031B" unicode="&#x31b;" 
d="M105 613l114 44q88 -170 -131 -254l-52 -20v41l54 23q25 10 35 34.5t5 59t-25 72.5z" />
    <glyph glyph-name="dotbelowcomb" unicode="&#x323;" 
d="M139 -255q-46 0 -74.5 26t-28.5 67t28.5 66.5t74.5 25.5q45 0 73.5 -26t28.5 -66q0 -41 -28.5 -67t-73.5 -26z" />
    <glyph glyph-name="uni0326" unicode="&#x326;" 
d="M43 -332l-7 37q40 9 65 30.5t25 47.5l-75 47v6q0 40 29.5 67t72.5 27t72 -31t29 -78q0 -44 -27 -78.5t-74 -54t-110 -20.5z" />
    <glyph glyph-name="uni0327" unicode="&#x327;" 
d="M36 -243l15 33q48 -4 76.5 5t28.5 28q0 16 -19.5 27.5t-55.5 15.5l58 144h53l-26 -62q51 -7 81.5 -31.5t30.5 -59.5q0 -42 -31 -68.5t-85.5 -35t-125.5 3.5z" />
    <glyph glyph-name="uni0328" unicode="&#x328;" 
d="M145 -251q-49 0 -79 28.5t-30 74.5q0 55 38 99t102 63v-26q-19 -11 -29.5 -34t-10.5 -52q0 -70 63 -70q19 0 38 8.5t34 24.5l17 -11q-13 -48 -52 -76.5t-91 -28.5z" />
    <glyph glyph-name="uni0331" unicode="&#x331;" 
d="M36 -183v89h402v-89h-402z" />
    <glyph glyph-name="uni0335" unicode="&#x335;" 
d="M36 268v58h372v-58h-372z" />
    <glyph glyph-name="uni0336" unicode="&#x336;" 
d="M36 269v61h763v-61h-763z" />
    <glyph glyph-name="uni0337" unicode="&#x337;" 
d="M36 265v62l290 117v-62z" />
    <glyph glyph-name="uni0338" unicode="&#x338;" 
d="M126 -70l-45 31l404 578l45 -32z" />
    <glyph glyph-name="uni03A9" unicode="&#x3a9;" horiz-adv-x="935" 
d="M54 0l-18 215h25l91 -87h198l21 -20q-65 0 -122 22t-99.5 62t-67 93t-24.5 113q0 70 29 126.5t83 97t129.5 62.5t167.5 22q94 0 169 -22t128.5 -62.5t82.5 -97t29 -126.5q0 -60 -24 -113t-66.5 -93t-99.5 -62t-122 -22l21 20h198l91 87h25l-18 -215h-372l-17 63v18
q90 32 140.5 108t50.5 177q0 79 -26.5 138t-75 91.5t-114.5 32.5q-65 0 -113.5 -32.5t-75.5 -91.5t-27 -138q0 -101 51.5 -177t140.5 -108v-18l-17 -63h-372z" />
    <glyph glyph-name="pi" unicode="&#x3c0;" horiz-adv-x="802" 
d="M619 -16q-83 0 -122.5 48t-39.5 148v274l154 5v-281q0 -52 19 -76.5t58 -24.5q32 0 48 13l22 -24q-17 -37 -54 -59.5t-85 -22.5zM89 0l179 450l56 1l-28 -451h-207zM61 337l-25 7q7 71 60 112t138 41h528v-19l-43 -105h-521q-66 0 -97.5 -8.5t-39.5 -27.5z" />
    <glyph glyph-name="uni0E3F" unicode="&#xe3f;" horiz-adv-x="707" 
d="M201 0v58h135q71 0 107.5 35t36.5 104q0 65 -30 98t-89 33h-138v50h194q122 0 188.5 -44.5t66.5 -125.5q0 -65 -39 -112t-113.5 -71.5t-180.5 -24.5h-138zM27 0v22l71 67v492l-71 67v22h247v-670h-247zM331 -107v884h54v-884h-54zM435 362v36h38v-36h-38zM220 364v10
l144 14q43 4 67 33t24 75q0 58 -28 87t-82 29h-137v58h156q85 0 144.5 -18t91 -51.5t31.5 -81.5q0 -79 -64.5 -117t-201.5 -38h-145z" />
    <glyph glyph-name="Dmacronbelow" unicode="&#x1e0e;" horiz-adv-x="793" 
d="M207 0v58h139q68 0 117.5 34.5t76 98.5t26.5 151q0 90 -26.5 154.5t-75.5 100t-116 35.5h-141v58h160q119 0 207 -41.5t136 -116.5t48 -178q0 -78 -30 -143t-84.5 -112t-129.5 -73t-165 -26h-142zM27 0v22l71 67v512l-71 67v22h247v-690h-247zM138 -183v89h462v-89h-462z
" />
    <glyph glyph-name="dmacronbelow" unicode="&#x1e0f;" horiz-adv-x="646" 
d="M463 -13l-40 85h-12v566l43 -79l-113 113v22l201 71h31v-665l-43 74l103 -100v-22l-145 -65h-25zM246 -15q-62 0 -109.5 30t-74 83.5t-26.5 123.5q0 85 36.5 150.5t101.5 102t149 36.5q93 0 149 -43v-93q-30 39 -61.5 56.5t-72.5 17.5q-43 0 -72.5 -22t-45 -65
t-15.5 -107q0 -76 32.5 -120.5t87.5 -44.5q31 0 56 10t45 30v-58h-11q-29 -40 -74.5 -63.5t-94.5 -23.5zM122 -183v89h402v-89h-402z" />
    <glyph glyph-name="uni1E20" unicode="&#x1e20;" horiz-adv-x="785" 
d="M392 -16q-110 0 -190.5 42t-123.5 120t-43 185q0 85 27 153.5t77 118.5t120 76.5t156 26.5q48 0 96.5 -9t93 -25t77.5 -39l-77 -145h-24l-152 177h126l1 -95q-20 32 -53 49.5t-76 17.5q-57 0 -102.5 -36.5t-72 -98.5t-26.5 -140q0 -86 28.5 -150t81 -99.5t123.5 -35.5
q53 0 88.5 24.5t58.5 75.5l38 -19q-22 -81 -89 -127.5t-163 -46.5zM682 -16l-153 96v169l-81 68v22h310v-22l-53 -61v-272h-23zM226 782v88h377v-88h-377z" />
    <glyph glyph-name="uni1E21" unicode="&#x1e21;" horiz-adv-x="630" 
d="M313 -251q-90 0 -153.5 14.5t-97 41.5t-33.5 65q0 34 27 58t68 27v37h75v-42q-24 -16 -24 -57q0 -38 47 -62t121 -24q64 0 106 22.5t42 56.5q0 29 -24.5 46.5t-68.5 17.5h-222q-61 0 -98.5 35.5t-37.5 91.5q0 31 14 57t38 44t55 22l46 -26q-20 0 -31 -10t-11 -28
q0 -22 20 -33t59 -11h186q96 0 149 -38t53 -107q0 -58 -39 -102.5t-107.5 -70t-158.5 -25.5zM294 156q-71 0 -126 22t-85.5 60.5t-30.5 88.5q0 59 31 100t89 62.5t140 21.5q28 0 57.5 -4.5t45.5 -11.5v-41q57 -24 90.5 -61t33.5 -77q0 -46 -31 -82.5t-86.5 -57t-127.5 -20.5
zM310 214q40 0 61 25t21 74q0 62 -26.5 101t-69.5 39q-40 0 -60.5 -25t-20.5 -74q0 -61 26.5 -100.5t68.5 -39.5zM594 397l-163 59l-6 -16l-106 51l293 58l6 -6v-146h-24zM118 594v88h356v-88h-356z" />
    <glyph glyph-name="Lmacronbelow" unicode="&#x1e3a;" horiz-adv-x="616" 
d="M27 0v22l71 67v512l-71 67v22h320v-22l-73 -67v-601h-247zM224 0v47l331 25v-72h-331zM405 0v46l151 167h25l-1 -213h-175zM77 -183v89h462v-89h-462z" />
    <glyph glyph-name="lmacronbelow" unicode="&#x1e3b;" horiz-adv-x="331" 
d="M32 0v17l78 83l-16 -28v566l43 -79l-112 113v22l200 71h31v-694l-15 28l77 -82v-17h-286zM-36 -183v89h402v-89h-402z" />
    <glyph glyph-name="Nmacronbelow" unicode="&#x1e48;" horiz-adv-x="762" 
d="M573 -1l-438 552v139h100l417 -526l-30 -41l-62 478l-71 67v22h246v-22l-71 -67v-602h-91zM27 0v22l71 67l21 486l-80 93v22h115l48 -601l71 -67v-22h-246zM149 -183v89h462v-89h-462z" />
    <glyph glyph-name="nmacronbelow" unicode="&#x1e49;" horiz-adv-x="680" 
d="M389 0v17l70 83l-15 -28v228q0 54 -21 78.5t-68 24.5q-34 0 -62 -11t-52 -34v58h11q90 97 193 97q76 0 118.5 -46.5t42.5 -128.5v-267l-16 28l78 -82v-17h-279zM32 0v17l78 83l-16 -29v330l43 -102l-112 118v22l198 66h31l-7 -89h9v-345l-15 29l71 -83v-17h-280z
M140 -183v89h402v-89h-402z" />
    <glyph glyph-name="Rmacronbelow" unicode="&#x1e5e;" horiz-adv-x="728" 
d="M27 0v22l71 67v512l-71 67v22h247v-601l71 -67v-22h-318zM504 0l-187 313l157 65l217 -365l-96 125l123 -116v-22h-214zM163 296v54h151q64 0 103 40.5t39 104.5q0 63 -38.5 100t-103.5 37h-134v58h197q135 0 203 -47t68 -139q0 -93 -74 -143.5t-210 -50.5h-5v-14h-196z
M133 -183v89h462v-89h-462z" />
    <glyph glyph-name="rmacronbelow" unicode="&#x1e5f;" horiz-adv-x="497" 
d="M32 0v17l78 83l-16 -28v302l43 -75l-112 118v22l198 66h31l-7 -101h9v-333l-15 31l107 -85v-17h-316zM240 337l1 67h11q28 51 72 80t91 29q42 0 75 -17l-72 -199h-27l-115 117l114 -22q-52 0 -90 -14t-60 -41zM-15 -183v89h402v-89h-402z" />
    <glyph glyph-name="Tmacronbelow" unicode="&#x1e6e;" horiz-adv-x="737" 
d="M204 0v22l77 67v581l72 -27l-293 -25v72h617v-72l-293 25l73 27v-581l77 -67v-22h-330zM35 499l3 205h22l147 -14l8 -46l-156 -145h-24zM678 499l-156 145l8 46l147 14h23l3 -205h-25zM138 -183v89h462v-89h-462z" />
    <glyph glyph-name="tmacronbelow" unicode="&#x1e6f;" horiz-adv-x="463" 
d="M268 -15q-50 0 -88.5 22t-60 61t-21.5 91v303l43 -74h-131v23l219 235h31v-448q0 -55 18.5 -81.5t58.5 -26.5q49 0 83 41l33 -18q-16 -59 -65.5 -93.5t-119.5 -34.5zM407 378l-200 40v53l196 47h20v-128zM57 -183v89h402v-89h-402z" />
    <glyph glyph-name="Wgrave" unicode="&#x1e80;" horiz-adv-x="1159" 
d="M761 -2l-229 554l2 48l-88 68v22h321v-22l-96 -74l-9 82l231 -560h-40l143 561l6 -86l-100 77v22h255v-22l-76 -87l52 96l-281 -679h-91zM307 -2l-281 678l50 -96l-74 88v22h310v-22l-96 -75l-9 83l231 -560h-39l146 561h133l-281 -679h-90zM677 734l-254 95v7l106 127h7
l154 -214z" />
    <glyph glyph-name="wgrave" unicode="&#x1e81;" horiz-adv-x="941" 
d="M276 -2l-229 442h50v-76l-95 115v17h286v-17l-66 -112h-13v100l177 -342h-26l83 371h91l11 -68l-208 -430h-61zM604 -2l-165 356l24 142h82l171 -370h-23l84 360l1 -98h-9l-55 91v17h225v-17l-95 -114v75h50l-229 -442h-61zM549 560l-204 146v7l142 96h6l74 -237z" />
    <glyph glyph-name="Wacute" unicode="&#x1e82;" horiz-adv-x="1159" 
d="M761 -2l-229 554l2 48l-88 68v22h321v-22l-96 -74l-9 82l231 -560h-40l143 561l6 -86l-100 77v22h255v-22l-76 -87l52 96l-281 -679h-91zM307 -2l-281 678l50 -96l-74 88v22h310v-22l-96 -75l-9 83l231 -560h-39l146 561h133l-281 -679h-90zM537 734l-13 15l155 214h6
l106 -127v-7z" />
    <glyph glyph-name="wacute" unicode="&#x1e83;" horiz-adv-x="941" 
d="M276 -2l-229 442h50v-76l-95 115v17h286v-17l-66 -112h-13v100l177 -342h-26l83 371h91l11 -68l-208 -430h-61zM604 -2l-165 356l24 142h82l171 -370h-23l84 360l1 -98h-9l-55 91v17h225v-17l-95 -114v75h50l-229 -442h-61zM450 560l-18 12l73 237h7l141 -96v-7z" />
    <glyph glyph-name="Wdieresis" unicode="&#x1e84;" horiz-adv-x="1159" 
d="M761 -2l-229 554l2 48l-88 68v22h321v-22l-96 -74l-9 82l231 -560h-40l143 561l6 -86l-100 77v22h255v-22l-76 -87l52 96l-281 -679h-91zM307 -2l-281 678l50 -96l-74 88v22h310v-22l-96 -75l-9 83l231 -560h-39l146 561h133l-281 -679h-90zM486 747q-38 0 -62.5 22
t-24.5 55q0 34 24.5 56t62.5 22t62.5 -22t24.5 -56q0 -33 -24.5 -55t-62.5 -22zM728 747q-38 0 -63 22t-25 55q0 34 25 56t63 22q39 0 63 -22t24 -56q0 -33 -24 -55t-63 -22z" />
    <glyph glyph-name="wdieresis" unicode="&#x1e85;" horiz-adv-x="941" 
d="M276 -2l-229 442h50v-76l-95 115v17h286v-17l-66 -112h-13v100l177 -342h-26l83 371h91l11 -68l-208 -430h-61zM604 -2l-165 356l24 142h82l171 -370h-23l84 360l1 -98h-9l-55 91v17h225v-17l-95 -114v75h50l-229 -442h-61zM379 578q-38 0 -62.5 22t-24.5 57
q0 34 24.5 56t62.5 22t62.5 -22t24.5 -56q0 -35 -24.5 -57t-62.5 -22zM617 578q-38 0 -62.5 22t-24.5 57q0 34 24.5 56t62.5 22q39 0 63 -22t24 -56q0 -35 -24 -57t-63 -22z" />
    <glyph glyph-name="uni1E9E" unicode="&#x1e9e;" horiz-adv-x="870" 
d="M545 -16q-57 0 -106.5 13.5t-98.5 42.5l67 152h25l130 -166h-142v86q10 -37 33.5 -58t56.5 -21q60 0 97.5 43.5t37.5 112.5q0 58 -24 102t-67.5 69t-100.5 25l4 46q121 0 205 -25t128.5 -73t44.5 -116q0 -65 -39 -118t-104.5 -84t-146.5 -31zM27 0v22l71 67v512l-71 67
v22h247v-690h-247zM424 385l-9 23l173 282h175v-22l-172 -283h-167zM197 632v58h474v-58h-474z" />
    <glyph glyph-name="uni1EA0" unicode="&#x1ea0;" horiz-adv-x="766" 
d="M2 0v22l76 85l-51 -94l300 677h112l300 -677l-52 94l77 -85v-22h-316v22l99 82l9 -91l-260 588h35l-166 -588l-3 90l100 -81v-22h-260zM174 200v58h381v-58h-381zM305 582l-79 86v22h126zM383 -255q-46 0 -74.5 26t-28.5 67t28.5 66.5t74.5 25.5q45 0 73.5 -26t28.5 -66
q0 -41 -28.5 -67t-73.5 -26z" />
    <glyph glyph-name="uni1EA1" unicode="&#x1ea1;" horiz-adv-x="595" 
d="M412 -13l-40 75h-12v261q0 58 -27.5 90t-76.5 32q-28 0 -52.5 -14t-39.5 -38l1 96h98l-129 -168h-26l-59 143q24 14 63 25t83.5 17.5t87.5 6.5q116 0 177.5 -47.5t61.5 -137.5v-228l-43 74l103 -100v-22l-145 -65h-25zM191 -15q-66 0 -108 38t-42 98q0 131 220 172
l122 23v-54l-74 -18q-52 -13 -75.5 -34t-23.5 -55t18.5 -52.5t51.5 -18.5q56 0 95 32v-54h-11q-31 -38 -75 -57.5t-98 -19.5zM302 -255q-46 0 -74.5 26t-28.5 67t28.5 66.5t74.5 25.5q45 0 73.5 -26t28.5 -66q0 -41 -28.5 -67t-73.5 -26z" />
    <glyph glyph-name="uni1EA2" unicode="&#x1ea2;" horiz-adv-x="766" 
d="M2 0v22l76 85l-51 -94l300 677h112l300 -677l-52 94l77 -85v-22h-316v22l99 82l9 -91l-260 588h35l-166 -588l-3 90l100 -81v-22h-260zM174 200v58h381v-58h-381zM305 582l-79 86v22h126zM316 742l-6 24q57 7 57 39q0 18 -20 29.5t-54 11.5l-31 117q60 0 105 -14.5
t70.5 -40t25.5 -59.5q0 -49 -40 -78t-107 -29z" />
    <glyph glyph-name="uni1EA3" unicode="&#x1ea3;" horiz-adv-x="595" 
d="M412 -13l-40 75h-12v261q0 58 -27.5 90t-76.5 32q-28 0 -52.5 -14t-39.5 -38l1 96h98l-129 -168h-26l-59 143q24 14 63 25t83.5 17.5t87.5 6.5q116 0 177.5 -47.5t61.5 -137.5v-228l-43 74l103 -100v-22l-145 -65h-25zM191 -15q-66 0 -108 38t-42 98q0 131 220 172
l122 23v-54l-74 -18q-52 -13 -75.5 -34t-23.5 -55t18.5 -52.5t51.5 -18.5q56 0 95 32v-54h-11q-31 -38 -75 -57.5t-98 -19.5zM269 565l-6 23q26 3 40 14t14 28q0 21 -20 34.5t-53 13.5l-30 114q91 0 144.5 -30.5t53.5 -81.5q0 -50 -40.5 -82.5t-102.5 -32.5z" />
    <glyph glyph-name="uni1EA4" unicode="&#x1ea4;" horiz-adv-x="766" 
d="M2 0v22l76 85l-51 -94l300 677h112l300 -677l-52 94l77 -85v-22h-316v22l99 82l9 -91l-260 588h35l-166 -588l-3 90l100 -81v-22h-260zM174 200v58h381v-58h-381zM305 582l-79 86v22h126zM181 723l-14 16l167 188h56l167 -188l-14 -16l-187 78h12zM487 874l-13 15
l154 214h7l106 -127v-7z" />
    <glyph glyph-name="uni1EA5" unicode="&#x1ea5;" horiz-adv-x="595" 
d="M412 -13l-40 75h-12v261q0 58 -27.5 90t-76.5 32q-28 0 -52.5 -14t-39.5 -38l1 96h98l-129 -168h-26l-59 143q24 14 63 25t83.5 17.5t87.5 6.5q116 0 177.5 -47.5t61.5 -137.5v-228l-43 74l103 -100v-22l-145 -65h-25zM191 -15q-66 0 -108 38t-42 98q0 131 220 172
l122 23v-54l-74 -18q-52 -13 -75.5 -34t-23.5 -55t18.5 -52.5t51.5 -18.5q56 0 95 32v-54h-11q-31 -38 -75 -57.5t-98 -19.5zM139 559l-18 16l160 227h39l160 -227l-18 -16l-167 96h12zM446 682l-17 12l73 237h7l141 -96v-7z" />
    <glyph glyph-name="uni1EA6" unicode="&#x1ea6;" horiz-adv-x="766" 
d="M2 0v22l76 85l-51 -94l300 677h112l300 -677l-52 94l77 -85v-22h-316v22l99 82l9 -91l-260 588h35l-166 -588l-3 90l100 -81v-22h-260zM174 200v58h381v-58h-381zM305 582l-79 86v22h126zM181 723l-14 16l167 188h56l167 -188l-14 -16l-187 78h12zM561 834l-194 190v6
l152 72h5l55 -260z" />
    <glyph glyph-name="uni1EA7" unicode="&#x1ea7;" horiz-adv-x="595" 
d="M412 -13l-40 75h-12v261q0 58 -27.5 90t-76.5 32q-28 0 -52.5 -14t-39.5 -38l1 96h98l-129 -168h-26l-59 143q24 14 63 25t83.5 17.5t87.5 6.5q116 0 177.5 -47.5t61.5 -137.5v-228l-43 74l103 -100v-22l-145 -65h-25zM191 -15q-66 0 -108 38t-42 98q0 131 220 172
l122 23v-54l-74 -18q-52 -13 -75.5 -34t-23.5 -55t18.5 -52.5t51.5 -18.5q56 0 95 32v-54h-11q-31 -38 -75 -57.5t-98 -19.5zM139 559l-18 16l160 227h39l160 -227l-18 -16l-167 96h12zM477 676l-159 194l1 6l161 56l7 -2l11 -247z" />
    <glyph glyph-name="uni1EA8" unicode="&#x1ea8;" horiz-adv-x="766" 
d="M2 0v22l76 85l-51 -94l300 677h112l300 -677l-52 94l77 -85v-22h-316v22l99 82l9 -91l-260 588h35l-166 -588l-3 90l100 -81v-22h-260zM174 200v58h381v-58h-381zM305 582l-79 86v22h126zM181 723l-14 16l167 188h56l167 -188l-14 -16l-187 78h12zM503 856l-5 25
q57 6 57 39q0 17 -20.5 28.5t-53.5 11.5l-31 117q60 0 105 -14t70.5 -40t25.5 -60q0 -48 -40 -77.5t-108 -29.5z" />
    <glyph glyph-name="uni1EA9" unicode="&#x1ea9;" horiz-adv-x="595" 
d="M412 -13l-40 75h-12v261q0 58 -27.5 90t-76.5 32q-28 0 -52.5 -14t-39.5 -38l1 96h98l-129 -168h-26l-59 143q24 14 63 25t83.5 17.5t87.5 6.5q116 0 177.5 -47.5t61.5 -137.5v-228l-43 74l103 -100v-22l-145 -65h-25zM191 -15q-66 0 -108 38t-42 98q0 131 220 172
l122 23v-54l-74 -18q-52 -13 -75.5 -34t-23.5 -55t18.5 -52.5t51.5 -18.5q56 0 95 32v-54h-11q-31 -38 -75 -57.5t-98 -19.5zM139 559l-18 16l160 227h39l160 -227l-18 -16l-167 96h12zM453 679l-6 23q26 3 40 14t14 27q0 22 -20 35t-53 13l-30 114q91 0 144.5 -30.5
t53.5 -81.5q0 -49 -40.5 -81.5t-102.5 -32.5z" />
    <glyph glyph-name="uni1EAA" unicode="&#x1eaa;" horiz-adv-x="766" 
d="M2 0v22l76 85l-51 -94l300 677h112l300 -677l-52 94l77 -85v-22h-316v22l99 82l9 -91l-260 588h35l-166 -588l-3 90l100 -81v-22h-260zM174 200v58h381v-58h-381zM305 582l-79 86v22h126zM181 723l-14 16l167 188h56l167 -188l-14 -16l-187 78h12zM460 943
q-30 0 -57 11.5t-53 22.5t-53 11q-24 0 -44 -9t-28 -24l-24 7q7 70 32.5 103.5t71.5 33.5q31 0 57.5 -11.5t52.5 -22.5t53 -11q25 0 44.5 9t26.5 24l25 -6q-6 -70 -32 -104t-72 -34z" />
    <glyph glyph-name="uni1EAB" unicode="&#x1eab;" horiz-adv-x="595" 
d="M412 -13l-40 75h-12v261q0 58 -27.5 90t-76.5 32q-28 0 -52.5 -14t-39.5 -38l1 96h98l-129 -168h-26l-59 143q24 14 63 25t83.5 17.5t87.5 6.5q116 0 177.5 -47.5t61.5 -137.5v-228l-43 74l103 -100v-22l-145 -65h-25zM191 -15q-66 0 -108 38t-42 98q0 131 220 172
l122 23v-54l-74 -18q-52 -13 -75.5 -34t-23.5 -55t18.5 -52.5t51.5 -18.5q56 0 95 32v-54h-11q-31 -38 -75 -57.5t-98 -19.5zM119 537l-14 16l167 188h56l167 -188l-14 -16l-187 78h12zM399 755q-28 0 -55.5 13.5t-53 26.5t-48.5 13q-48 0 -71 -50l-24 7q11 153 98 153
q29 0 56 -13.5t52.5 -27t48.5 -13.5q48 0 71 50l24 -6q-11 -153 -98 -153z" />
    <glyph glyph-name="uni1EAC" unicode="&#x1eac;" horiz-adv-x="766" 
d="M2 0v22l76 85l-51 -94l300 677h112l300 -677l-52 94l77 -85v-22h-316v22l99 82l9 -91l-260 588h35l-166 -588l-3 90l100 -81v-22h-260zM174 200v58h381v-58h-381zM305 582l-79 86v22h126zM383 -255q-46 0 -74.5 26t-28.5 67t28.5 66.5t74.5 25.5q45 0 73.5 -26t28.5 -66
q0 -41 -28.5 -67t-73.5 -26zM181 731l-14 16l167 188h56l167 -188l-14 -16l-187 78h12z" />
    <glyph glyph-name="uni1EAD" unicode="&#x1ead;" horiz-adv-x="595" 
d="M412 -13l-40 75h-12v261q0 58 -27.5 90t-76.5 32q-28 0 -52.5 -14t-39.5 -38l1 96h98l-129 -168h-26l-59 143q24 14 63 25t83.5 17.5t87.5 6.5q116 0 177.5 -47.5t61.5 -137.5v-228l-43 74l103 -100v-22l-145 -65h-25zM191 -15q-66 0 -108 38t-42 98q0 131 220 172
l122 23v-54l-74 -18q-52 -13 -75.5 -34t-23.5 -55t18.5 -52.5t51.5 -18.5q56 0 95 32v-54h-11q-31 -38 -75 -57.5t-98 -19.5zM302 -255q-46 0 -74.5 26t-28.5 67t28.5 66.5t74.5 25.5q45 0 73.5 -26t28.5 -66q0 -41 -28.5 -67t-73.5 -26zM139 559l-18 16l160 227h39
l160 -227l-18 -16l-167 96h12z" />
    <glyph glyph-name="uni1EAE" unicode="&#x1eae;" horiz-adv-x="766" 
d="M2 0v22l76 85l-51 -94l300 677h112l300 -677l-52 94l77 -85v-22h-316v22l99 82l9 -91l-260 588h35l-166 -588l-3 90l100 -81v-22h-260zM174 200v58h381v-58h-381zM305 582l-79 86v22h126zM363 721q-74 0 -118.5 47.5t-44.5 126.5l22 4q15 -30 55.5 -50t85.5 -20
q47 0 87 20t53 50l23 -4q-1 -79 -45 -126.5t-118 -47.5zM314 874l-13 15l154 214h7l106 -127v-7z" />
    <glyph glyph-name="uni1EAF" unicode="&#x1eaf;" horiz-adv-x="595" 
d="M412 -13l-40 75h-12v261q0 58 -27.5 90t-76.5 32q-28 0 -52.5 -14t-39.5 -38l1 96h98l-129 -168h-26l-59 143q24 14 63 25t83.5 17.5t87.5 6.5q116 0 177.5 -47.5t61.5 -137.5v-228l-43 74l103 -100v-22l-145 -65h-25zM191 -15q-66 0 -108 38t-42 98q0 131 220 172
l122 23v-54l-74 -18q-52 -13 -75.5 -34t-23.5 -55t18.5 -52.5t51.5 -18.5q56 0 95 32v-54h-11q-31 -38 -75 -57.5t-98 -19.5zM300 545q-74 0 -118 53t-44 144l21 2q14 -40 51.5 -63t89.5 -23q53 0 90.5 23t51.5 63l21 -2q0 -91 -43.5 -144t-119.5 -53zM268 708l-18 12
l73 237h7l141 -96v-7z" />
    <glyph glyph-name="uni1EB0" unicode="&#x1eb0;" horiz-adv-x="766" 
d="M2 0v22l76 85l-51 -94l300 677h112l300 -677l-52 94l77 -85v-22h-316v22l99 82l9 -91l-260 588h35l-166 -588l-3 90l100 -81v-22h-260zM174 200v58h381v-58h-381zM305 582l-79 86v22h126zM363 721q-74 0 -118.5 47.5t-44.5 126.5l22 4q15 -30 55.5 -50t85.5 -20
q47 0 87 20t53 50l23 -4q-1 -79 -45 -126.5t-118 -47.5zM417 874l-254 95v7l106 127h7l154 -214z" />
    <glyph glyph-name="uni1EB1" unicode="&#x1eb1;" horiz-adv-x="595" 
d="M412 -13l-40 75h-12v261q0 58 -27.5 90t-76.5 32q-28 0 -52.5 -14t-39.5 -38l1 96h98l-129 -168h-26l-59 143q24 14 63 25t83.5 17.5t87.5 6.5q116 0 177.5 -47.5t61.5 -137.5v-228l-43 74l103 -100v-22l-145 -65h-25zM191 -15q-66 0 -108 38t-42 98q0 131 220 172
l122 23v-54l-74 -18q-52 -13 -75.5 -34t-23.5 -55t18.5 -52.5t51.5 -18.5q56 0 95 32v-54h-11q-31 -38 -75 -57.5t-98 -19.5zM304 545q-74 0 -118 53t-44 144l21 2q13 -40 51 -63t90 -23q53 0 90.5 23t51.5 63l21 -2q0 -91 -44 -144t-119 -53zM339 708l-203 146v7l141 96h7
l73 -237z" />
    <glyph glyph-name="uni1EB2" unicode="&#x1eb2;" horiz-adv-x="766" 
d="M2 0v22l76 85l-51 -94l300 677h112l300 -677l-52 94l77 -85v-22h-316v22l99 82l9 -91l-260 588h35l-166 -588l-3 90l100 -81v-22h-260zM174 200v58h381v-58h-381zM305 582l-79 86v22h126zM363 721q-74 0 -118.5 47.5t-44.5 126.5l22 4q15 -30 55.5 -50t85.5 -20
q47 0 87 20t53 50l23 -4q-1 -79 -45 -126.5t-118 -47.5zM339 860l-5 24q57 7 57 40q0 17 -20.5 28.5t-53.5 11.5l-31 117q60 0 105 -14.5t70.5 -40t25.5 -59.5q0 -49 -40 -78t-108 -29z" />
    <glyph glyph-name="uni1EB3" unicode="&#x1eb3;" horiz-adv-x="595" 
d="M412 -13l-40 75h-12v261q0 58 -27.5 90t-76.5 32q-28 0 -52.5 -14t-39.5 -38l1 96h98l-129 -168h-26l-59 143q24 14 63 25t83.5 17.5t87.5 6.5q116 0 177.5 -47.5t61.5 -137.5v-228l-43 74l103 -100v-22l-145 -65h-25zM191 -15q-66 0 -108 38t-42 98q0 131 220 172
l122 23v-54l-74 -18q-52 -13 -75.5 -34t-23.5 -55t18.5 -52.5t51.5 -18.5q56 0 95 32v-54h-11q-31 -38 -75 -57.5t-98 -19.5zM300 545q-74 0 -118 53t-44 144l21 2q14 -40 51.5 -63t89.5 -23q53 0 90.5 23t51.5 63l21 -2q0 -91 -43.5 -144t-119.5 -53zM269 712l-6 23
q26 3 40 14t14 28q0 21 -20 34.5t-53 13.5l-30 114q91 0 144.5 -30.5t53.5 -81.5q0 -50 -40.5 -82.5t-102.5 -32.5z" />
    <glyph glyph-name="uni1EB4" unicode="&#x1eb4;" horiz-adv-x="766" 
d="M2 0v22l76 85l-51 -94l300 677h112l300 -677l-52 94l77 -85v-22h-316v22l99 82l9 -91l-260 588h35l-166 -588l-3 90l100 -81v-22h-260zM174 200v58h381v-58h-381zM305 582l-79 86v22h126zM363 721q-73 0 -117.5 47.5t-44.5 126.5l22 4q15 -30 55.5 -50t84.5 -20
q47 0 87.5 20t53.5 50l22 -4q0 -79 -44 -126.5t-119 -47.5zM445 917q-30 0 -57 11t-53 22.5t-53 11.5q-24 0 -44 -9t-28 -25l-24 7q7 71 32.5 104.5t71.5 33.5q31 0 57.5 -11.5t52.5 -23t53 -11.5q25 0 44.5 9.5t26.5 24.5l25 -7q-6 -69 -32 -103t-72 -34z" />
    <glyph glyph-name="uni1EB5" unicode="&#x1eb5;" horiz-adv-x="595" 
d="M412 -13l-40 75h-12v261q0 58 -27.5 90t-76.5 32q-28 0 -52.5 -14t-39.5 -38l1 96h98l-129 -168h-26l-59 143q24 14 63 25t83.5 17.5t87.5 6.5q116 0 177.5 -47.5t61.5 -137.5v-228l-43 74l103 -100v-22l-145 -65h-25zM191 -15q-66 0 -108 38t-42 98q0 131 220 172
l122 23v-54l-74 -18q-52 -13 -75.5 -34t-23.5 -55t18.5 -52.5t51.5 -18.5q56 0 95 32v-54h-11q-31 -38 -75 -57.5t-98 -19.5zM300 545q-74 0 -118 53t-44 144l21 2q13 -40 51 -63t90 -23q53 0 90.5 23t51.5 63l21 -2q0 -91 -44 -144t-119 -53zM377 772q-28 0 -55.5 13.5
t-52.5 26.5t-48 13q-49 0 -71 -50l-25 7q11 152 99 152q29 0 55.5 -13t52 -26.5t48.5 -13.5q49 0 71 50l25 -6q-11 -153 -99 -153z" />
    <glyph glyph-name="uni1EB6" unicode="&#x1eb6;" horiz-adv-x="766" 
d="M2 0v22l76 85l-51 -94l300 677h112l300 -677l-52 94l77 -85v-22h-316v22l99 82l9 -91l-260 588h35l-166 -588l-3 90l100 -81v-22h-260zM174 200v58h381v-58h-381zM305 582l-79 86v22h126zM383 -255q-46 0 -74.5 26t-28.5 67t28.5 66.5t74.5 25.5q45 0 73.5 -26t28.5 -66
q0 -41 -28.5 -67t-73.5 -26zM363 742q-74 0 -118.5 47.5t-44.5 126.5l22 4q15 -30 55.5 -50t85.5 -20q47 0 87 20t53 50l23 -4q-1 -79 -45 -126.5t-118 -47.5z" />
    <glyph glyph-name="uni1EB7" unicode="&#x1eb7;" horiz-adv-x="595" 
d="M412 -13l-40 75h-12v261q0 58 -27.5 90t-76.5 32q-28 0 -52.5 -14t-39.5 -38l1 96h98l-129 -168h-26l-59 143q24 14 63 25t83.5 17.5t87.5 6.5q116 0 177.5 -47.5t61.5 -137.5v-228l-43 74l103 -100v-22l-145 -65h-25zM191 -15q-66 0 -108 38t-42 98q0 131 220 172
l122 23v-54l-74 -18q-52 -13 -75.5 -34t-23.5 -55t18.5 -52.5t51.5 -18.5q56 0 95 32v-54h-11q-31 -38 -75 -57.5t-98 -19.5zM302 -255q-46 0 -74.5 26t-28.5 67t28.5 66.5t74.5 25.5q45 0 73.5 -26t28.5 -66q0 -41 -28.5 -67t-73.5 -26zM301 565q-75 0 -119 53t-44 144
l21 2q14 -40 51.5 -63t89.5 -23q53 0 90.5 23t51.5 63l21 -3q0 -90 -43.5 -143t-118.5 -53z" />
    <glyph glyph-name="uni1EB8" unicode="&#x1eb8;" horiz-adv-x="636" 
d="M27 0v22l71 67v512l-71 67v22h247v-690h-247zM224 0v47l337 25v-72h-337zM423 0v46l153 138h25l-6 -184h-172zM476 318l-254 15v45l254 16v-76zM480 247l-95 88v42l95 88h25v-218h-25zM561 618l-337 25v47h337v-72zM558 524l-143 120v46l148 14h19l1 -180h-25zM318 -255
q-46 0 -74.5 26t-28.5 67t28.5 66.5t74.5 25.5q45 0 73.5 -26t28.5 -66q0 -41 -28.5 -67t-73.5 -26z" />
    <glyph glyph-name="uni1EB9" unicode="&#x1eb9;" horiz-adv-x="570" 
d="M295 -15q-76 0 -134.5 31t-91.5 86.5t-33 126.5q0 83 35.5 146.5t98.5 99.5t145 36q65 0 114 -31.5t77 -90.5t28 -140h-382v36l217 38q0 59 -20.5 89.5t-54.5 30.5q-27 0 -47.5 -21.5t-31.5 -62t-11 -94.5q0 -82 40.5 -130t109.5 -48q83 0 135 53l31 -24
q-29 -61 -88.5 -96t-136.5 -35zM296 -255q-46 0 -74.5 26t-28.5 67t28.5 66.5t74.5 25.5q45 0 73.5 -26t28.5 -66q0 -41 -28.5 -67t-73.5 -26z" />
    <glyph glyph-name="uni1EBA" unicode="&#x1eba;" horiz-adv-x="636" 
d="M27 0v22l71 67v512l-71 67v22h247v-690h-247zM224 0v47l337 25v-72h-337zM423 0v46l153 138h25l-6 -184h-172zM476 318l-254 15v45l254 16v-76zM480 247l-95 88v42l95 88h25v-218h-25zM561 618l-337 25v47h337v-72zM558 524l-143 120v46l148 14h19l1 -180h-25zM271 742
l-6 24q57 7 57 39q0 18 -20 29.5t-54 11.5l-31 117q60 0 105 -14.5t70.5 -40t25.5 -59.5q0 -49 -40 -78t-107 -29z" />
    <glyph glyph-name="uni1EBB" unicode="&#x1ebb;" horiz-adv-x="570" 
d="M295 -15q-76 0 -134.5 31t-91.5 86.5t-33 126.5q0 83 35.5 146.5t98.5 99.5t145 36q65 0 114 -31.5t77 -90.5t28 -140h-382v36l217 38q0 59 -20.5 89.5t-54.5 30.5q-27 0 -47.5 -21.5t-31.5 -62t-11 -94.5q0 -82 40.5 -130t109.5 -48q83 0 135 53l31 -24
q-29 -61 -88.5 -96t-136.5 -35zM272 565l-6 23q26 3 40 14t14 28q0 21 -20 34.5t-53 13.5l-30 114q91 0 144.5 -30.5t53.5 -81.5q0 -50 -40.5 -82.5t-102.5 -32.5z" />
    <glyph glyph-name="uni1EBC" unicode="&#x1ebc;" horiz-adv-x="636" 
d="M27 0v22l71 67v512l-71 67v22h247v-690h-247zM224 0v47l337 25v-72h-337zM423 0v46l153 138h25l-6 -184h-172zM476 318l-254 15v45l254 16v-76zM480 247l-95 88v42l95 88h25v-218h-25zM561 618l-337 25v47h337v-72zM558 524l-143 120v46l148 14h19l1 -180h-25zM397 748
q-34 0 -63 10t-57.5 20t-60.5 10q-62 0 -85 -39l-23 7q7 63 41.5 99t87.5 36q35 0 64 -10t57.5 -20t60.5 -10q62 0 84 39l24 -7q-7 -63 -41.5 -99t-88.5 -36z" />
    <glyph glyph-name="uni1EBD" unicode="&#x1ebd;" horiz-adv-x="570" 
d="M295 -15q-76 0 -134.5 31t-91.5 86.5t-33 126.5q0 83 35.5 146.5t98.5 99.5t145 36q65 0 114 -31.5t77 -90.5t28 -140h-382v36l217 38q0 59 -20.5 89.5t-54.5 30.5q-27 0 -47.5 -21.5t-31.5 -62t-11 -94.5q0 -82 40.5 -130t109.5 -48q83 0 135 53l31 -24
q-29 -61 -88.5 -96t-136.5 -35zM391 565q-34 0 -62.5 13.5t-55.5 27.5t-55 14q-31 0 -55.5 -14t-35.5 -40l-25 7q7 68 42.5 110.5t86.5 42.5q35 0 63.5 -13.5t55.5 -27.5t55 -14q31 0 55.5 14.5t35.5 39.5l25 -7q-7 -68 -42.5 -110.5t-87.5 -42.5z" />
    <glyph glyph-name="uni1EBE" unicode="&#x1ebe;" horiz-adv-x="636" 
d="M27 0v22l71 67v512l-71 67v22h247v-690h-247zM224 0v47l337 25v-72h-337zM423 0v46l153 138h25l-6 -184h-172zM476 318l-254 15v45l254 16v-76zM480 247l-95 88v42l95 88h25v-218h-25zM561 618l-337 25v47h337v-72zM558 524l-143 120v46l148 14h19l1 -180h-25zM137 723
l-14 16l167 188h56l167 -188l-14 -16l-187 78h12zM443 874l-13 15l154 214h7l106 -127v-7z" />
    <glyph glyph-name="uni1EBF" unicode="&#x1ebf;" horiz-adv-x="570" 
d="M295 -15q-76 0 -134.5 31t-91.5 86.5t-33 126.5q0 83 35.5 146.5t98.5 99.5t145 36q65 0 114 -31.5t77 -90.5t28 -140h-382v36l217 38q0 59 -20.5 89.5t-54.5 30.5q-27 0 -47.5 -21.5t-31.5 -62t-11 -94.5q0 -82 40.5 -130t109.5 -48q83 0 135 53l31 -24
q-29 -61 -88.5 -96t-136.5 -35zM141 559l-18 16l160 227h39l160 -227l-18 -16l-167 96h12zM448 682l-17 12l73 237h7l141 -96v-7z" />
    <glyph glyph-name="uni1EC0" unicode="&#x1ec0;" horiz-adv-x="636" 
d="M27 0v22l71 67v512l-71 67v22h247v-690h-247zM224 0v47l337 25v-72h-337zM423 0v46l153 138h25l-6 -184h-172zM476 318l-254 15v45l254 16v-76zM480 247l-95 88v42l95 88h25v-218h-25zM561 618l-337 25v47h337v-72zM558 524l-143 120v46l148 14h19l1 -180h-25zM137 723
l-14 16l167 188h56l167 -188l-14 -16l-187 78h12zM517 834l-194 190v6l152 72h5l55 -260z" />
    <glyph glyph-name="uni1EC1" unicode="&#x1ec1;" horiz-adv-x="570" 
d="M295 -15q-76 0 -134.5 31t-91.5 86.5t-33 126.5q0 83 35.5 146.5t98.5 99.5t145 36q65 0 114 -31.5t77 -90.5t28 -140h-382v36l217 38q0 59 -20.5 89.5t-54.5 30.5q-27 0 -47.5 -21.5t-31.5 -62t-11 -94.5q0 -82 40.5 -130t109.5 -48q83 0 135 53l31 -24
q-29 -61 -88.5 -96t-136.5 -35zM141 559l-18 16l160 227h39l160 -227l-18 -16l-167 96h12zM479 676l-159 194l1 6l161 56l7 -2l11 -247z" />
    <glyph glyph-name="uni1EC2" unicode="&#x1ec2;" horiz-adv-x="636" 
d="M27 0v22l71 67v512l-71 67v22h247v-690h-247zM224 0v47l337 25v-72h-337zM423 0v46l153 138h25l-6 -184h-172zM476 318l-254 15v45l254 16v-76zM480 247l-95 88v42l95 88h25v-218h-25zM561 618l-337 25v47h337v-72zM558 524l-143 120v46l148 14h19l1 -180h-25zM137 723
l-14 16l167 188h56l167 -188l-14 -16l-187 78h12zM459 856l-5 25q57 6 57 39q0 17 -20.5 28.5t-53.5 11.5l-31 117q60 0 105 -14t70.5 -40t25.5 -60q0 -48 -40 -77.5t-108 -29.5z" />
    <glyph glyph-name="uni1EC3" unicode="&#x1ec3;" horiz-adv-x="570" 
d="M295 -15q-76 0 -134.5 31t-91.5 86.5t-33 126.5q0 83 35.5 146.5t98.5 99.5t145 36q65 0 114 -31.5t77 -90.5t28 -140h-382v36l217 38q0 59 -20.5 89.5t-54.5 30.5q-27 0 -47.5 -21.5t-31.5 -62t-11 -94.5q0 -82 40.5 -130t109.5 -48q83 0 135 53l31 -24
q-29 -61 -88.5 -96t-136.5 -35zM141 559l-18 16l160 227h39l160 -227l-18 -16l-167 96h12zM455 679l-6 23q26 3 40 14t14 27q0 22 -20 35t-53 13l-30 114q91 0 144.5 -30.5t53.5 -81.5q0 -49 -40.5 -81.5t-102.5 -32.5z" />
    <glyph glyph-name="uni1EC4" unicode="&#x1ec4;" horiz-adv-x="636" 
d="M27 0v22l71 67v512l-71 67v22h247v-690h-247zM224 0v47l337 25v-72h-337zM423 0v46l153 138h25l-6 -184h-172zM476 318l-254 15v45l254 16v-76zM480 247l-95 88v42l95 88h25v-218h-25zM561 618l-337 25v47h337v-72zM558 524l-143 120v46l148 14h19l1 -180h-25zM137 723
l-14 16l167 188h56l167 -188l-14 -16l-187 78h12zM416 943q-30 0 -57 11.5t-53 22.5t-53 11q-24 0 -44 -9t-28 -24l-24 7q7 70 32.5 103.5t71.5 33.5q31 0 57.5 -11.5t52.5 -22.5t53 -11q25 0 44.5 9t26.5 24l25 -6q-6 -70 -32 -104t-72 -34z" />
    <glyph glyph-name="uni1EC5" unicode="&#x1ec5;" horiz-adv-x="570" 
d="M295 -15q-76 0 -134.5 31t-91.5 86.5t-33 126.5q0 83 35.5 146.5t98.5 99.5t145 36q65 0 114 -31.5t77 -90.5t28 -140h-382v36l217 38q0 59 -20.5 89.5t-54.5 30.5q-27 0 -47.5 -21.5t-31.5 -62t-11 -94.5q0 -82 40.5 -130t109.5 -48q83 0 135 53l31 -24
q-29 -61 -88.5 -96t-136.5 -35zM122 537l-14 16l167 188h56l167 -188l-14 -16l-187 78h12zM402 755q-28 0 -55.5 13.5t-53 26.5t-48.5 13q-48 0 -71 -50l-24 7q11 153 98 153q29 0 56 -13.5t52.5 -27t48.5 -13.5q48 0 71 50l24 -6q-11 -153 -98 -153z" />
    <glyph glyph-name="uni1EC6" unicode="&#x1ec6;" horiz-adv-x="636" 
d="M27 0v22l71 67v512l-71 67v22h247v-690h-247zM224 0v47l337 25v-72h-337zM423 0v46l153 138h25l-6 -184h-172zM476 318l-254 15v45l254 16v-76zM480 247l-95 88v42l95 88h25v-218h-25zM561 618l-337 25v47h337v-72zM558 524l-143 120v46l148 14h19l1 -180h-25zM318 -255
q-46 0 -74.5 26t-28.5 67t28.5 66.5t74.5 25.5q45 0 73.5 -26t28.5 -66q0 -41 -28.5 -67t-73.5 -26zM137 731l-14 16l167 188h56l167 -188l-14 -16l-187 78h12z" />
    <glyph glyph-name="uni1EC7" unicode="&#x1ec7;" horiz-adv-x="570" 
d="M295 -15q-76 0 -134.5 31t-91.5 86.5t-33 126.5q0 83 35.5 146.5t98.5 99.5t145 36q65 0 114 -31.5t77 -90.5t28 -140h-382v36l217 38q0 59 -20.5 89.5t-54.5 30.5q-27 0 -47.5 -21.5t-31.5 -62t-11 -94.5q0 -82 40.5 -130t109.5 -48q83 0 135 53l31 -24
q-29 -61 -88.5 -96t-136.5 -35zM296 -255q-46 0 -74.5 26t-28.5 67t28.5 66.5t74.5 25.5q45 0 73.5 -26t28.5 -66q0 -41 -28.5 -67t-73.5 -26zM141 559l-18 16l160 227h39l160 -227l-18 -16l-167 96h12z" />
    <glyph glyph-name="uni1EC8" unicode="&#x1ec8;" horiz-adv-x="372" 
d="M27 0v22l71 67v512l-71 67v22h318v-22l-71 -67v-512l71 -67v-22h-318zM139 742l-6 24q57 7 57 39q0 18 -20 29.5t-54 11.5l-31 117q60 0 105 -14.5t70.5 -40t25.5 -59.5q0 -49 -40 -78t-107 -29z" />
    <glyph glyph-name="uni1EC9" unicode="&#x1ec9;" horiz-adv-x="331" 
d="M32 0v17l78 83l-16 -28v306l43 -75l-112 114v22l200 66h31v-434l-15 28l77 -82v-17h-286zM147 565l-6 23q26 3 40 14t14 28q0 21 -20 34.5t-53 13.5l-30 114q91 0 144.5 -30.5t53.5 -81.5q0 -50 -40.5 -82.5t-102.5 -32.5z" />
    <glyph glyph-name="uni1ECA" unicode="&#x1eca;" horiz-adv-x="372" 
d="M27 0v22l71 67v512l-71 67v22h318v-22l-71 -67v-512l71 -67v-22h-318zM186 -255q-46 0 -74.5 26t-28.5 67t28.5 66.5t74.5 25.5q45 0 73.5 -26t28.5 -66q0 -41 -28.5 -67t-73.5 -26z" />
    <glyph glyph-name="uni1ECB" unicode="&#x1ecb;" horiz-adv-x="331" 
d="M166 -255q-46 0 -74.5 26t-28.5 67t28.5 66.5t74.5 25.5q45 0 73.5 -26t28.5 -66q0 -41 -28.5 -67t-73.5 -26zM32 0v17l78 83l-16 -28v306l43 -75l-112 114v22l200 66h31v-434l-15 28l77 -82v-17h-286zM178 565q-45 0 -73.5 26t-28.5 67t28.5 66.5t73.5 25.5
q46 0 74.5 -26t28.5 -66q0 -41 -28.5 -67t-74.5 -26z" />
    <glyph glyph-name="uni1ECC" unicode="&#x1ecc;" horiz-adv-x="826" 
d="M408 -16q-113 0 -197 43.5t-130 123.5t-46 189q0 112 47 194t133 127t203 45q114 0 197.5 -43.5t129.5 -123t46 -189.5q0 -111 -47 -193.5t-133 -127.5t-203 -45zM421 54q56 0 96 32.5t60.5 94t20.5 148.5q0 95 -23.5 163.5t-66.5 106t-103 37.5q-57 0 -96.5 -32t-60 -94
t-20.5 -149q0 -94 23.5 -163t67 -106.5t102.5 -37.5zM411 -255q-46 0 -74.5 26t-28.5 67t28.5 66.5t74.5 25.5q45 0 73.5 -26t28.5 -66q0 -41 -28.5 -67t-73.5 -26z" />
    <glyph glyph-name="uni1ECD" unicode="&#x1ecd;" horiz-adv-x="646" 
d="M320 -15q-87 0 -150.5 31.5t-98.5 88.5t-35 135q0 80 37 141t102.5 95.5t150.5 34.5q86 0 150 -31.5t99 -88.5t35 -135q0 -79 -37 -140.5t-102.5 -96t-150.5 -34.5zM335 52q32 0 55 20t36 56.5t13 85.5q0 76 -14.5 127t-43 77t-70.5 26q-31 0 -55 -20t-37 -56.5
t-13 -85.5q0 -76 15 -127t43.5 -77t70.5 -26zM324 -255q-46 0 -74.5 26t-28.5 67t28.5 66.5t74.5 25.5q45 0 73.5 -26t28.5 -66q0 -41 -28.5 -67t-73.5 -26z" />
    <glyph glyph-name="uni1ECE" unicode="&#x1ece;" horiz-adv-x="826" 
d="M408 -16q-113 0 -197 43.5t-130 123.5t-46 189q0 112 47 194t133 127t203 45q114 0 197.5 -43.5t129.5 -123t46 -189.5q0 -111 -47 -193.5t-133 -127.5t-203 -45zM421 54q56 0 96 32.5t60.5 94t20.5 148.5q0 95 -23.5 163.5t-66.5 106t-103 37.5q-57 0 -96.5 -32t-60 -94
t-20.5 -149q0 -94 23.5 -163t67 -106.5t102.5 -37.5zM367 742l-6 24q57 7 57 39q0 18 -20 29.5t-54 11.5l-31 117q60 0 105 -14.5t70.5 -40t25.5 -59.5q0 -49 -40 -78t-107 -29z" />
    <glyph glyph-name="uni1ECF" unicode="&#x1ecf;" horiz-adv-x="646" 
d="M320 -15q-87 0 -150.5 31.5t-98.5 88.5t-35 135q0 80 37 141t102.5 95.5t150.5 34.5q86 0 150 -31.5t99 -88.5t35 -135q0 -79 -37 -140.5t-102.5 -96t-150.5 -34.5zM335 52q32 0 55 20t36 56.5t13 85.5q0 76 -14.5 127t-43 77t-70.5 26q-31 0 -55 -20t-37 -56.5
t-13 -85.5q0 -76 15 -127t43.5 -77t70.5 -26zM292 565l-6 23q26 3 40 14t14 28q0 21 -20 34.5t-53 13.5l-30 114q91 0 144.5 -30.5t53.5 -81.5q0 -50 -40.5 -82.5t-102.5 -32.5z" />
    <glyph glyph-name="uni1ED0" unicode="&#x1ed0;" horiz-adv-x="826" 
d="M408 -16q-113 0 -197 43.5t-130 123.5t-46 189q0 112 47 194t133 127t203 45q114 0 197.5 -43.5t129.5 -123t46 -189.5q0 -111 -47 -193.5t-133 -127.5t-203 -45zM421 54q56 0 96 32.5t60.5 94t20.5 148.5q0 95 -23.5 163.5t-66.5 106t-103 37.5q-57 0 -96.5 -32t-60 -94
t-20.5 -149q0 -94 23.5 -163t67 -106.5t102.5 -37.5zM232 723l-14 16l167 188h56l167 -188l-14 -16l-187 78h12zM538 874l-13 15l154 214h7l106 -127v-7z" />
    <glyph glyph-name="uni1ED1" unicode="&#x1ed1;" horiz-adv-x="646" 
d="M320 -15q-87 0 -150.5 31.5t-98.5 88.5t-35 135q0 80 37 141t102.5 95.5t150.5 34.5q86 0 150 -31.5t99 -88.5t35 -135q0 -79 -37 -140.5t-102.5 -96t-150.5 -34.5zM335 52q32 0 55 20t36 56.5t13 85.5q0 76 -14.5 127t-43 77t-70.5 26q-31 0 -55 -20t-37 -56.5
t-13 -85.5q0 -76 15 -127t43.5 -77t70.5 -26zM162 559l-18 16l160 227h39l160 -227l-18 -16l-167 96h12zM469 682l-17 12l73 237h7l141 -96v-7z" />
    <glyph glyph-name="uni1ED2" unicode="&#x1ed2;" horiz-adv-x="826" 
d="M408 -16q-113 0 -197 43.5t-130 123.5t-46 189q0 112 47 194t133 127t203 45q114 0 197.5 -43.5t129.5 -123t46 -189.5q0 -111 -47 -193.5t-133 -127.5t-203 -45zM421 54q56 0 96 32.5t60.5 94t20.5 148.5q0 95 -23.5 163.5t-66.5 106t-103 37.5q-57 0 -96.5 -32t-60 -94
t-20.5 -149q0 -94 23.5 -163t67 -106.5t102.5 -37.5zM232 723l-14 16l167 188h56l167 -188l-14 -16l-187 78h12zM612 834l-194 190v6l152 72h5l55 -260z" />
    <glyph glyph-name="uni1ED3" unicode="&#x1ed3;" horiz-adv-x="646" 
d="M320 -15q-87 0 -150.5 31.5t-98.5 88.5t-35 135q0 80 37 141t102.5 95.5t150.5 34.5q86 0 150 -31.5t99 -88.5t35 -135q0 -79 -37 -140.5t-102.5 -96t-150.5 -34.5zM335 52q32 0 55 20t36 56.5t13 85.5q0 76 -14.5 127t-43 77t-70.5 26q-31 0 -55 -20t-37 -56.5
t-13 -85.5q0 -76 15 -127t43.5 -77t70.5 -26zM162 559l-18 16l160 227h39l160 -227l-18 -16l-167 96h12zM500 676l-159 194l1 6l161 56l7 -2l11 -247z" />
    <glyph glyph-name="uni1ED4" unicode="&#x1ed4;" horiz-adv-x="826" 
d="M408 -16q-113 0 -197 43.5t-130 123.5t-46 189q0 112 47 194t133 127t203 45q114 0 197.5 -43.5t129.5 -123t46 -189.5q0 -111 -47 -193.5t-133 -127.5t-203 -45zM421 54q56 0 96 32.5t60.5 94t20.5 148.5q0 95 -23.5 163.5t-66.5 106t-103 37.5q-57 0 -96.5 -32t-60 -94
t-20.5 -149q0 -94 23.5 -163t67 -106.5t102.5 -37.5zM232 723l-14 16l167 188h56l167 -188l-14 -16l-187 78h12zM554 856l-5 25q57 6 57 39q0 17 -20.5 28.5t-53.5 11.5l-31 117q60 0 105 -14t70.5 -40t25.5 -60q0 -48 -40 -77.5t-108 -29.5z" />
    <glyph glyph-name="uni1ED5" unicode="&#x1ed5;" horiz-adv-x="646" 
d="M320 -15q-87 0 -150.5 31.5t-98.5 88.5t-35 135q0 80 37 141t102.5 95.5t150.5 34.5q86 0 150 -31.5t99 -88.5t35 -135q0 -79 -37 -140.5t-102.5 -96t-150.5 -34.5zM335 52q32 0 55 20t36 56.5t13 85.5q0 76 -14.5 127t-43 77t-70.5 26q-31 0 -55 -20t-37 -56.5
t-13 -85.5q0 -76 15 -127t43.5 -77t70.5 -26zM162 559l-18 16l160 227h39l160 -227l-18 -16l-167 96h12zM476 679l-6 23q26 3 40 14t14 27q0 22 -20 35t-53 13l-30 114q91 0 144.5 -30.5t53.5 -81.5q0 -49 -40.5 -81.5t-102.5 -32.5z" />
    <glyph glyph-name="uni1ED6" unicode="&#x1ed6;" horiz-adv-x="826" 
d="M408 -16q-113 0 -197 43.5t-130 123.5t-46 189q0 112 47 194t133 127t203 45q114 0 197.5 -43.5t129.5 -123t46 -189.5q0 -111 -47 -193.5t-133 -127.5t-203 -45zM421 54q56 0 96 32.5t60.5 94t20.5 148.5q0 95 -23.5 163.5t-66.5 106t-103 37.5q-57 0 -96.5 -32t-60 -94
t-20.5 -149q0 -94 23.5 -163t67 -106.5t102.5 -37.5zM232 723l-14 16l167 188h56l167 -188l-14 -16l-187 78h12zM511 943q-30 0 -57 11.5t-53 22.5t-53 11q-24 0 -44 -9t-28 -24l-24 7q7 70 32.5 103.5t71.5 33.5q31 0 57.5 -11.5t52.5 -22.5t53 -11q25 0 44.5 9t26.5 24
l25 -6q-6 -70 -32 -104t-72 -34z" />
    <glyph glyph-name="uni1ED7" unicode="&#x1ed7;" horiz-adv-x="646" 
d="M320 -15q-87 0 -150.5 31.5t-98.5 88.5t-35 135q0 80 37 141t102.5 95.5t150.5 34.5q86 0 150 -31.5t99 -88.5t35 -135q0 -79 -37 -140.5t-102.5 -96t-150.5 -34.5zM335 52q32 0 55 20t36 56.5t13 85.5q0 76 -14.5 127t-43 77t-70.5 26q-31 0 -55 -20t-37 -56.5
t-13 -85.5q0 -76 15 -127t43.5 -77t70.5 -26zM142 537l-14 16l167 188h56l167 -188l-14 -16l-187 78h12zM422 755q-28 0 -55.5 13.5t-53 26.5t-48.5 13q-48 0 -71 -50l-24 7q11 153 98 153q29 0 56 -13.5t52.5 -27t48.5 -13.5q48 0 71 50l24 -6q-11 -153 -98 -153z" />
    <glyph glyph-name="uni1ED8" unicode="&#x1ed8;" horiz-adv-x="826" 
d="M408 -16q-113 0 -197 43.5t-130 123.5t-46 189q0 112 47 194t133 127t203 45q114 0 197.5 -43.5t129.5 -123t46 -189.5q0 -111 -47 -193.5t-133 -127.5t-203 -45zM421 54q56 0 96 32.5t60.5 94t20.5 148.5q0 95 -23.5 163.5t-66.5 106t-103 37.5q-57 0 -96.5 -32t-60 -94
t-20.5 -149q0 -94 23.5 -163t67 -106.5t102.5 -37.5zM411 -255q-46 0 -74.5 26t-28.5 67t28.5 66.5t74.5 25.5q45 0 73.5 -26t28.5 -66q0 -41 -28.5 -67t-73.5 -26zM232 731l-14 16l167 188h56l167 -188l-14 -16l-187 78h12z" />
    <glyph glyph-name="uni1ED9" unicode="&#x1ed9;" horiz-adv-x="646" 
d="M320 -15q-87 0 -150.5 31.5t-98.5 88.5t-35 135q0 80 37 141t102.5 95.5t150.5 34.5q86 0 150 -31.5t99 -88.5t35 -135q0 -79 -37 -140.5t-102.5 -96t-150.5 -34.5zM335 52q32 0 55 20t36 56.5t13 85.5q0 76 -14.5 127t-43 77t-70.5 26q-31 0 -55 -20t-37 -56.5
t-13 -85.5q0 -76 15 -127t43.5 -77t70.5 -26zM324 -255q-46 0 -74.5 26t-28.5 67t28.5 66.5t74.5 25.5q45 0 73.5 -26t28.5 -66q0 -41 -28.5 -67t-73.5 -26zM162 559l-18 16l160 227h39l160 -227l-18 -16l-167 96h12z" />
    <glyph glyph-name="uni1EDA" unicode="&#x1eda;" horiz-adv-x="826" 
d="M408 -16q-113 0 -197 43.5t-130 123.5t-46 189q0 112 47 194t133 127t203 45q114 0 197.5 -43.5t129.5 -123t46 -189.5q0 -111 -47 -193.5t-133 -127.5t-203 -45zM421 54q56 0 96 32.5t60.5 94t20.5 148.5q0 95 -23.5 163.5t-66.5 106t-103 37.5q-57 0 -96.5 -32t-60 -94
t-20.5 -149q0 -94 23.5 -163t67 -106.5t102.5 -37.5zM597 849l132 32q28 -64 14.5 -114.5t-63 -80.5t-129.5 -30h-56v34h50q56 0 69.5 43.5t-17.5 115.5zM327 734l-13 15l155 214h6l106 -127v-7z" />
    <glyph glyph-name="uni1EDB" unicode="&#x1edb;" horiz-adv-x="646" 
d="M320 -15q-87 0 -150.5 31.5t-98.5 88.5t-35 135q0 80 37 141t102.5 95.5t150.5 34.5q86 0 150 -31.5t99 -88.5t35 -135q0 -79 -37 -140.5t-102.5 -96t-150.5 -34.5zM335 52q32 0 55 20t36 56.5t13 85.5q0 76 -14.5 127t-43 77t-70.5 26q-31 0 -55 -20t-37 -56.5
t-13 -85.5q0 -76 15 -127t43.5 -77t70.5 -26zM540 617l114 44q88 -170 -131 -254l-52 -20v41l54 23q25 10 35 34.5t5 59t-25 72.5zM275 560l-18 12l73 237h7l141 -96v-7z" />
    <glyph glyph-name="uni1EDC" unicode="&#x1edc;" horiz-adv-x="826" 
d="M408 -16q-113 0 -197 43.5t-130 123.5t-46 189q0 112 47 194t133 127t203 45q114 0 197.5 -43.5t129.5 -123t46 -189.5q0 -111 -47 -193.5t-133 -127.5t-203 -45zM421 54q56 0 96 32.5t60.5 94t20.5 148.5q0 95 -23.5 163.5t-66.5 106t-103 37.5q-57 0 -96.5 -32t-60 -94
t-20.5 -149q0 -94 23.5 -163t67 -106.5t102.5 -37.5zM597 849l132 32q28 -64 14.5 -114.5t-63 -80.5t-129.5 -30h-56v34h50q56 0 69.5 43.5t-17.5 115.5zM484 734l-254 95v7l106 127h7l154 -214z" />
    <glyph glyph-name="uni1EDD" unicode="&#x1edd;" horiz-adv-x="646" 
d="M320 -15q-87 0 -150.5 31.5t-98.5 88.5t-35 135q0 80 37 141t102.5 95.5t150.5 34.5q86 0 150 -31.5t99 -88.5t35 -135q0 -79 -37 -140.5t-102.5 -96t-150.5 -34.5zM335 52q32 0 55 20t36 56.5t13 85.5q0 76 -14.5 127t-43 77t-70.5 26q-31 0 -55 -20t-37 -56.5
t-13 -85.5q0 -76 15 -127t43.5 -77t70.5 -26zM540 616l115 45q88 -170 -132 -254l-52 -20v41l54 22q25 10 35 35t5.5 59.5t-25.5 71.5zM374 560l-203 146v7l141 96h7l73 -237z" />
    <glyph glyph-name="uni1EDE" unicode="&#x1ede;" horiz-adv-x="826" 
d="M408 -16q-113 0 -197 43.5t-130 123.5t-46 189q0 112 47 194t133 127t203 45q114 0 197.5 -43.5t129.5 -123t46 -189.5q0 -111 -47 -193.5t-133 -127.5t-203 -45zM421 54q56 0 96 32.5t60.5 94t20.5 148.5q0 95 -23.5 163.5t-66.5 106t-103 37.5q-57 0 -96.5 -32t-60 -94
t-20.5 -149q0 -94 23.5 -163t67 -106.5t102.5 -37.5zM597 849l132 32q28 -64 14.5 -114.5t-63 -80.5t-129.5 -30h-56v34h50q56 0 69.5 43.5t-17.5 115.5zM367 742l-6 24q57 7 57 39q0 18 -20 29.5t-54 11.5l-31 117q60 0 105 -14.5t70.5 -40t25.5 -59.5q0 -49 -40 -78
t-107 -29z" />
    <glyph glyph-name="uni1EDF" unicode="&#x1edf;" horiz-adv-x="646" 
d="M320 -15q-87 0 -150.5 31.5t-98.5 88.5t-35 135q0 80 37 141t102.5 95.5t150.5 34.5q86 0 150 -31.5t99 -88.5t35 -135q0 -79 -37 -140.5t-102.5 -96t-150.5 -34.5zM335 52q32 0 55 20t36 56.5t13 85.5q0 76 -14.5 127t-43 77t-70.5 26q-31 0 -55 -20t-37 -56.5
t-13 -85.5q0 -76 15 -127t43.5 -77t70.5 -26zM540 617l114 44q88 -170 -131 -254l-52 -20v41l54 23q25 10 35 34.5t5 59t-25 72.5zM292 565l-6 23q26 3 40 14t14 28q0 21 -20 34.5t-53 13.5l-30 114q91 0 144.5 -30.5t53.5 -81.5q0 -50 -40.5 -82.5t-102.5 -32.5z" />
    <glyph glyph-name="uni1EE0" unicode="&#x1ee0;" horiz-adv-x="826" 
d="M408 -16q-113 0 -197 43.5t-130 123.5t-46 189q0 112 47 194t133 127t203 45q114 0 197.5 -43.5t129.5 -123t46 -189.5q0 -111 -47 -193.5t-133 -127.5t-203 -45zM421 54q56 0 96 32.5t60.5 94t20.5 148.5q0 95 -23.5 163.5t-66.5 106t-103 37.5q-57 0 -96.5 -32t-60 -94
t-20.5 -149q0 -94 23.5 -163t67 -106.5t102.5 -37.5zM597 849l132 32q28 -64 14.5 -114.5t-63 -80.5t-129.5 -30h-56v34h50q56 0 69.5 43.5t-17.5 115.5zM450 738q-30 0 -57 11t-52.5 22.5t-52.5 11.5q-25 0 -45 -9t-27 -25l-25 7q7 71 33 104.5t71 33.5q31 0 58 -11.5
t53 -23t52 -11.5q25 0 44.5 9.5t27.5 24.5l24 -7q-6 -69 -31.5 -103t-72.5 -34z" />
    <glyph glyph-name="uni1EE1" unicode="&#x1ee1;" horiz-adv-x="646" 
d="M320 -15q-87 0 -150.5 31.5t-98.5 88.5t-35 135q0 80 37 141t102.5 95.5t150.5 34.5q86 0 150 -31.5t99 -88.5t35 -135q0 -79 -37 -140.5t-102.5 -96t-150.5 -34.5zM335 52q32 0 55 20t36 56.5t13 85.5q0 76 -14.5 127t-43 77t-70.5 26q-31 0 -55 -20t-37 -56.5
t-13 -85.5q0 -76 15 -127t43.5 -77t70.5 -26zM540 617l114 44q88 -170 -131 -254l-52 -20v41l54 23q25 10 35 34.5t5 59t-25 72.5zM412 565q-34 0 -62.5 13.5t-55.5 27.5t-55 14q-31 0 -55.5 -14t-35.5 -40l-25 7q7 68 42.5 110.5t86.5 42.5q35 0 63.5 -13.5t55.5 -27.5
t55 -14q31 0 55.5 14.5t35.5 39.5l25 -7q-7 -68 -42.5 -110.5t-87.5 -42.5z" />
    <glyph glyph-name="uni1EE2" unicode="&#x1ee2;" horiz-adv-x="826" 
d="M408 -16q-113 0 -197 43.5t-130 123.5t-46 189q0 112 47 194t133 127t203 45q114 0 197.5 -43.5t129.5 -123t46 -189.5q0 -111 -47 -193.5t-133 -127.5t-203 -45zM421 54q56 0 96 32.5t60.5 94t20.5 148.5q0 95 -23.5 163.5t-66.5 106t-103 37.5q-57 0 -96.5 -32t-60 -94
t-20.5 -149q0 -94 23.5 -163t67 -106.5t102.5 -37.5zM597 849l132 32q28 -64 14.5 -114.5t-63 -80.5t-129.5 -30h-56v34h50q56 0 69.5 43.5t-17.5 115.5zM411 -255q-46 0 -74.5 26t-28.5 67t28.5 66.5t74.5 25.5q45 0 73.5 -26t28.5 -66q0 -41 -28.5 -67t-73.5 -26z" />
    <glyph glyph-name="uni1EE3" unicode="&#x1ee3;" horiz-adv-x="646" 
d="M320 -15q-87 0 -150.5 31.5t-98.5 88.5t-35 135q0 80 37 141t102.5 95.5t150.5 34.5q86 0 150 -31.5t99 -88.5t35 -135q0 -79 -37 -140.5t-102.5 -96t-150.5 -34.5zM335 52q32 0 55 20t36 56.5t13 85.5q0 76 -14.5 127t-43 77t-70.5 26q-31 0 -55 -20t-37 -56.5
t-13 -85.5q0 -76 15 -127t43.5 -77t70.5 -26zM540 617l114 44q88 -170 -131 -254l-52 -20v41l54 23q25 10 35 34.5t5 59t-25 72.5zM324 -255q-46 0 -74.5 26t-28.5 67t28.5 66.5t74.5 25.5q45 0 73.5 -26t28.5 -66q0 -41 -28.5 -67t-73.5 -26z" />
    <glyph glyph-name="uni1EE4" unicode="&#x1ee4;" horiz-adv-x="737" 
d="M563 595l-87 73v22h259v-22l-75 -73v-340q0 -82 -34.5 -142.5t-97.5 -94.5t-147 -34q-149 0 -228.5 68.5t-79.5 196.5v352l-71 67v22h318v-22l-71 -67v-321q0 -102 39 -152t118 -50t118 50t39 152v315zM370 -255q-46 0 -74.5 26t-28.5 67t28.5 66.5t74.5 25.5
q45 0 73.5 -26t28.5 -66q0 -41 -28.5 -67t-73.5 -26z" />
    <glyph glyph-name="uni1EE5" unicode="&#x1ee5;" horiz-adv-x="651" 
d="M236 -15q-75 0 -115 45t-40 129v244l43 -91l-112 108v22l200 61h31v-305q0 -54 19.5 -78.5t63.5 -24.5q29 0 56 11.5t50 32.5v-58h-12q-41 -48 -87 -72t-97 -24zM469 -13l-43 92h-10v325l43 -90l-112 107v22l200 62h31v-405l-42 74l103 -100v-22l-145 -65h-25zM326 -255
q-46 0 -74.5 26t-28.5 67t28.5 66.5t74.5 25.5q45 0 73.5 -26t28.5 -66q0 -41 -28.5 -67t-73.5 -26z" />
    <glyph glyph-name="uni1EE6" unicode="&#x1ee6;" horiz-adv-x="737" 
d="M563 595l-87 73v22h259v-22l-75 -73v-340q0 -82 -34.5 -142.5t-97.5 -94.5t-147 -34q-149 0 -228.5 68.5t-79.5 196.5v352l-71 67v22h318v-22l-71 -67v-321q0 -102 39 -152t118 -50t118 50t39 152v315zM354 742l-6 24q57 7 57 39q0 18 -20 29.5t-54 11.5l-31 117
q60 0 105 -14.5t70.5 -40t25.5 -59.5q0 -49 -40 -78t-107 -29z" />
    <glyph glyph-name="uni1EE7" unicode="&#x1ee7;" horiz-adv-x="651" 
d="M236 -15q-75 0 -115 45t-40 129v244l43 -91l-112 108v22l200 61h31v-305q0 -54 19.5 -78.5t63.5 -24.5q29 0 56 11.5t50 32.5v-58h-12q-41 -48 -87 -72t-97 -24zM469 -13l-43 92h-10v325l43 -90l-112 107v22l200 62h31v-405l-42 74l103 -100v-22l-145 -65h-25zM294 565
l-6 23q26 3 40 14t14 28q0 21 -20 34.5t-53 13.5l-30 114q91 0 144.5 -30.5t53.5 -81.5q0 -50 -40.5 -82.5t-102.5 -32.5z" />
    <glyph glyph-name="uni1EE8" unicode="&#x1ee8;" horiz-adv-x="737" 
d="M381 -16q-149 0 -228.5 68.5t-79.5 196.5v352l-71 67v22h318v-22l-71 -67v-321q0 -102 39 -152t118 -50t118 50t39 152v315l-87 73v22h184v-435q0 -82 -34.5 -142.5t-97.5 -94.5t-147 -34zM634 849l132 32q29 -64 15 -114.5t-63.5 -80.5t-128.5 -30h-57v34h50
q56 0 70 43.5t-18 115.5zM331 734l-13 15l155 214h6l106 -127v-7z" />
    <glyph glyph-name="uni1EE9" unicode="&#x1ee9;" horiz-adv-x="651" 
d="M236 -15q-75 0 -115 45t-40 129v244l43 -91l-112 108v22l200 61h31v-305q0 -54 19.5 -78.5t63.5 -24.5q29 0 56 11.5t50 32.5v-58h-12q-41 -48 -87 -72t-97 -24zM469 -13l-43 92h-10v325l43 -90l-112 107v22l200 62h31v-405l-42 74l103 -100v-22l-145 -65h-25zM587 617
l114 44q88 -170 -131 -254l-52 -20v41l54 23q25 10 35 34.5t5 59t-25 72.5zM277 560l-18 12l73 237h7l141 -96v-7z" />
    <glyph glyph-name="uni1EEA" unicode="&#x1eea;" horiz-adv-x="737" 
d="M381 -16q-149 0 -228.5 68.5t-79.5 196.5v352l-71 67v22h318v-22l-71 -67v-321q0 -102 39 -152t118 -50t118 50t39 152v315l-87 73v22h184v-435q0 -82 -34.5 -142.5t-97.5 -94.5t-147 -34zM634 849l132 32q29 -64 15 -114.5t-63.5 -80.5t-128.5 -30h-57v34h50
q56 0 70 43.5t-18 115.5zM471 734l-254 95v7l106 127h7l154 -214z" />
    <glyph glyph-name="uni1EEB" unicode="&#x1eeb;" horiz-adv-x="651" 
d="M236 -15q-75 0 -115 45t-40 129v244l43 -91l-112 108v22l200 61h31v-305q0 -54 19.5 -78.5t63.5 -24.5q29 0 56 11.5t50 32.5v-58h-12q-41 -48 -87 -72t-97 -24zM469 -13l-43 92h-10v325l43 -90l-112 107v22l200 62h31v-405l-42 74l103 -100v-22l-145 -65h-25zM587 616
l114 45q88 -170 -131 -254l-52 -20v41l53 22q25 10 35.5 35t5.5 59.5t-25 71.5zM377 560l-204 146v7l141 96h7l73 -237z" />
    <glyph glyph-name="uni1EEC" unicode="&#x1eec;" horiz-adv-x="737" 
d="M381 -16q-149 0 -228.5 68.5t-79.5 196.5v352l-71 67v22h318v-22l-71 -67v-321q0 -102 39 -152t118 -50t118 50t39 152v315l-87 73v22h184v-435q0 -82 -34.5 -142.5t-97.5 -94.5t-147 -34zM634 849l132 32q29 -64 15 -114.5t-63.5 -80.5t-128.5 -30h-57v34h50
q56 0 70 43.5t-18 115.5zM354 742l-6 24q57 7 57 39q0 18 -20 29.5t-54 11.5l-31 117q60 0 105 -14.5t70.5 -40t25.5 -59.5q0 -49 -40 -78t-107 -29z" />
    <glyph glyph-name="uni1EED" unicode="&#x1eed;" horiz-adv-x="651" 
d="M236 -15q-75 0 -115 45t-40 129v244l43 -91l-112 108v22l200 61h31v-305q0 -54 19.5 -78.5t63.5 -24.5q29 0 56 11.5t50 32.5v-58h-12q-41 -48 -87 -72t-97 -24zM469 -13l-43 92h-10v325l43 -90l-112 107v22l200 62h31v-405l-42 74l103 -100v-22l-145 -65h-25zM587 617
l114 44q88 -170 -131 -254l-52 -20v41l54 23q25 10 35 34.5t5 59t-25 72.5zM294 565l-6 23q26 3 40 14t14 28q0 21 -20 34.5t-53 13.5l-30 114q91 0 144.5 -30.5t53.5 -81.5q0 -50 -40.5 -82.5t-102.5 -32.5z" />
    <glyph glyph-name="uni1EEE" unicode="&#x1eee;" horiz-adv-x="737" 
d="M381 -16q-149 0 -228.5 68.5t-79.5 196.5v352l-71 67v22h318v-22l-71 -67v-321q0 -102 39 -152t118 -50t118 50t39 152v315l-87 73v22h184v-435q0 -82 -34.5 -142.5t-97.5 -94.5t-147 -34zM634 849l132 32q29 -64 15 -114.5t-63.5 -80.5t-128.5 -30h-57v34h50
q56 0 70 43.5t-18 115.5zM468 738q-30 0 -57 11t-52.5 22.5t-52.5 11.5q-25 0 -45 -9t-27 -25l-25 7q7 71 33 104.5t71 33.5q31 0 58 -11.5t53 -23t52 -11.5q25 0 44.5 9.5t27.5 24.5l24 -7q-6 -69 -31.5 -103t-72.5 -34z" />
    <glyph glyph-name="uni1EEF" unicode="&#x1eef;" horiz-adv-x="651" 
d="M236 -15q-75 0 -115 45t-40 129v244l43 -91l-112 108v22l200 61h31v-305q0 -54 19.5 -78.5t63.5 -24.5q29 0 56 11.5t50 32.5v-58h-12q-41 -48 -87 -72t-97 -24zM469 -13l-43 92h-10v325l43 -90l-112 107v22l200 62h31v-405l-42 74l103 -100v-22l-145 -65h-25zM587 617
l114 44q88 -170 -131 -254l-52 -20v41l54 23q25 10 35 34.5t5 59t-25 72.5zM414 565q-34 0 -62.5 13.5t-55.5 27.5t-55 14q-31 0 -55.5 -14t-35.5 -40l-25 7q7 68 42.5 110.5t86.5 42.5q35 0 63.5 -13.5t55.5 -27.5t55 -14q31 0 55.5 14.5t35.5 39.5l25 -7
q-7 -68 -42.5 -110.5t-87.5 -42.5z" />
    <glyph glyph-name="uni1EF0" unicode="&#x1ef0;" horiz-adv-x="737" 
d="M381 -16q-149 0 -228.5 68.5t-79.5 196.5v352l-71 67v22h318v-22l-71 -67v-321q0 -102 39 -152t118 -50t118 50t39 152v315l-87 73v22h184v-435q0 -82 -34.5 -142.5t-97.5 -94.5t-147 -34zM634 849l132 32q29 -64 15 -114.5t-63.5 -80.5t-128.5 -30h-57v34h50
q56 0 70 43.5t-18 115.5zM370 -255q-46 0 -74.5 26t-28.5 67t28.5 66.5t74.5 25.5q45 0 73.5 -26t28.5 -66q0 -41 -28.5 -67t-73.5 -26z" />
    <glyph glyph-name="uni1EF1" unicode="&#x1ef1;" horiz-adv-x="651" 
d="M236 -15q-75 0 -115 45t-40 129v244l43 -91l-112 108v22l200 61h31v-305q0 -54 19.5 -78.5t63.5 -24.5q29 0 56 11.5t50 32.5v-58h-12q-41 -48 -87 -72t-97 -24zM469 -13l-43 92h-10v325l43 -90l-112 107v22l200 62h31v-405l-42 74l103 -100v-22l-145 -65h-25zM587 617
l114 44q88 -170 -131 -254l-52 -20v41l54 23q25 10 35 34.5t5 59t-25 72.5zM326 -255q-46 0 -74.5 26t-28.5 67t28.5 66.5t74.5 25.5q45 0 73.5 -26t28.5 -66q0 -41 -28.5 -67t-73.5 -26z" />
    <glyph glyph-name="Ygrave" unicode="&#x1ef2;" horiz-adv-x="722" 
d="M307 200l-292 477l64 -94l-77 85v22h322v-22l-121 -98l4 107l225 -365h-8l129 365l4 -92l-101 83v22h264v-22l-77 -84l64 93l-295 -477h-105zM204 0v22l71 67v199h176v-199l71 -67v-22h-318zM460 734l-254 95v7l106 127h7l154 -214z" />
    <glyph glyph-name="ygrave" unicode="&#x1ef3;" horiz-adv-x="624" 
d="M286 -78l-240 518h50v-81l-94 120v17h281v-17l-65 -101h-14v89l178 -381l-29 -15l112 415v-96h-8l-68 89v17h233v-17l-90 -117v78h50l-369 -691h-26l-136 111v17l241 102zM384 560l-203 146v7l141 96h7l73 -237z" />
    <glyph glyph-name="uni1EF4" unicode="&#x1ef4;" horiz-adv-x="722" 
d="M307 200l-292 477l64 -94l-77 85v22h322v-22l-121 -98l4 107l225 -365h-8l129 365l4 -92l-101 83v22h264v-22l-77 -84l64 93l-295 -477h-105zM204 0v22l71 67v199h176v-199l71 -67v-22h-318zM362 -255q-46 0 -74.5 26t-28.5 67t28.5 66.5t74.5 25.5q45 0 73.5 -26
t28.5 -66q0 -41 -28.5 -67t-73.5 -26z" />
    <glyph glyph-name="uni1EF5" unicode="&#x1ef5;" horiz-adv-x="624" 
d="M286 -78l-240 518h50v-81l-94 120v17h281v-17l-65 -101h-14v89l178 -381l-29 -15l112 415v-96h-8l-68 89v17h233v-17l-90 -117v78h50l-369 -691h-26l-136 111v17l241 102zM431 -255q-46 0 -74.5 26t-28.5 67t28.5 66.5t74.5 25.5q45 0 73.5 -26t28.5 -66q0 -41 -28.5 -67
t-73.5 -26z" />
    <glyph glyph-name="uni1EF6" unicode="&#x1ef6;" horiz-adv-x="722" 
d="M307 200l-292 477l64 -94l-77 85v22h322v-22l-121 -98l4 107l225 -365h-8l129 365l4 -92l-101 83v22h264v-22l-77 -84l64 93l-295 -477h-105zM204 0v22l71 67v199h176v-199l71 -67v-22h-318zM343 742l-6 24q57 7 57 39q0 18 -20 29.5t-54 11.5l-31 117q60 0 105 -14.5
t70.5 -40t25.5 -59.5q0 -49 -40 -78t-107 -29z" />
    <glyph glyph-name="uni1EF7" unicode="&#x1ef7;" horiz-adv-x="624" 
d="M286 -78l-240 518h50v-81l-94 120v17h281v-17l-65 -101h-14v89l178 -381l-29 -15l112 415v-96h-8l-68 89v17h233v-17l-90 -117v78h50l-369 -691h-26l-136 111v17l241 102zM302 565l-6 23q26 3 40 14t14 28q0 21 -20 34.5t-53 13.5l-30 114q91 0 144.5 -30.5t53.5 -81.5
q0 -50 -40.5 -82.5t-102.5 -32.5z" />
    <glyph glyph-name="uni1EF8" unicode="&#x1ef8;" horiz-adv-x="722" 
d="M307 200l-292 477l64 -94l-77 85v22h322v-22l-121 -98l4 107l225 -365h-8l129 365l4 -92l-101 83v22h264v-22l-77 -84l64 93l-295 -477h-105zM204 0v22l71 67v199h176v-199l71 -67v-22h-318zM469 748q-34 0 -63 10t-57.5 20t-60.5 10q-62 0 -85 -39l-23 7q7 63 41.5 99
t87.5 36q35 0 64 -10t57.5 -20t60.5 -10q62 0 84 39l24 -7q-7 -63 -41.5 -99t-88.5 -36z" />
    <glyph glyph-name="uni1EF9" unicode="&#x1ef9;" horiz-adv-x="624" 
d="M286 -78l-240 518h50v-81l-94 120v17h281v-17l-65 -101h-14v89l178 -381l-29 -15l112 415v-96h-8l-68 89v17h233v-17l-90 -117v78h50l-369 -691h-26l-136 111v17l241 102zM422 565q-34 0 -62.5 13.5t-55.5 27.5t-55 14q-31 0 -55.5 -14t-35.5 -40l-25 7q7 68 42.5 110.5
t86.5 42.5q35 0 63.5 -13.5t55.5 -27.5t55 -14q31 0 55.5 14.5t35.5 39.5l25 -7q-7 -68 -42.5 -110.5t-87.5 -42.5z" />
    <glyph glyph-name="uni2000" unicode="&#x2000;" horiz-adv-x="500" 
 />
    <glyph glyph-name="uni2001" unicode="&#x2001;" horiz-adv-x="1000" 
 />
    <glyph glyph-name="uni2002" unicode="&#x2002;" horiz-adv-x="500" 
 />
    <glyph glyph-name="uni2003" unicode="&#x2003;" horiz-adv-x="1000" 
 />
    <glyph glyph-name="uni2004" unicode="&#x2004;" horiz-adv-x="333" 
 />
    <glyph glyph-name="uni2005" unicode="&#x2005;" horiz-adv-x="250" 
 />
    <glyph glyph-name="uni2006" unicode="&#x2006;" horiz-adv-x="166" 
 />
    <glyph glyph-name="uni2007" unicode="&#x2007;" horiz-adv-x="690" 
 />
    <glyph glyph-name="uni2008" unicode="&#x2008;" horiz-adv-x="322" 
 />
    <glyph glyph-name="uni2009" unicode="&#x2009;" horiz-adv-x="125" 
 />
    <glyph glyph-name="uni200A" unicode="&#x200a;" horiz-adv-x="70" 
 />
    <glyph glyph-name="uni200B" unicode="&#x200b;" 
 />
    <glyph glyph-name="endash" unicode="&#x2013;" horiz-adv-x="604" 
d="M20 211v76h564v-76h-564z" />
    <glyph glyph-name="emdash" unicode="&#x2014;" horiz-adv-x="980" 
d="M20 211v76h940v-76h-940z" />
    <glyph glyph-name="uni2016" unicode="&#x2016;" horiz-adv-x="312" 
d="M188 -275v1080h59v-1080h-59zM64 -275v1080h59v-1080h-59z" />
    <glyph glyph-name="quoteleft" unicode="&#x2018;" horiz-adv-x="323" 
d="M272 737l11 -37q-46 -16 -73 -50t-27 -75l85 -63v-10q0 -43 -31 -73t-76 -30q-47 0 -77 34t-30 88t28 99.5t77.5 76.5t112.5 40z" />
    <glyph glyph-name="quoteright" unicode="&#x2019;" horiz-adv-x="323" 
d="M51 368l-12 38q47 16 74 49.5t27 75.5l-86 62v11q0 44 31 73t76 29q48 0 78 -34t30 -88q0 -53 -28 -99t-77 -76.5t-113 -40.5z" />
    <glyph glyph-name="quotesinglbase" unicode="&#x201a;" horiz-adv-x="323" 
d="M51 -162l-12 37q47 16 74 49.5t27 75.5l-86 62v11q0 44 31 73t76 29q48 0 78 -34t30 -87q0 -54 -28 -100t-77 -76.5t-113 -39.5z" />
    <glyph glyph-name="quotedblleft" unicode="&#x201c;" horiz-adv-x="581" 
d="M530 737l11 -37q-46 -16 -73 -50t-27 -75l85 -63v-10q0 -43 -31 -73t-76 -30q-47 0 -77 34t-30 88t28 99.5t77.5 76.5t112.5 40zM272 737l11 -37q-46 -16 -73 -50t-27 -75l85 -63v-10q0 -43 -31 -73t-76 -30q-47 0 -77 34t-30 88t28 99.5t77.5 76.5t112.5 40z" />
    <glyph glyph-name="quotedblright" unicode="&#x201d;" horiz-adv-x="581" 
d="M309 368l-12 38q47 16 74 49.5t27 75.5l-86 62v11q0 44 31 73t76 29q48 0 78 -34t30 -88q0 -53 -28 -99t-77 -76.5t-113 -40.5zM51 368l-12 38q47 16 74 49.5t27 75.5l-86 62v11q0 44 31 73t76 29q48 0 78 -34t30 -88q0 -53 -28 -99t-77 -76.5t-113 -40.5z" />
    <glyph glyph-name="quotedblbase" unicode="&#x201e;" horiz-adv-x="589" 
d="M317 -162l-12 37q47 16 74 49.5t27 75.5l-86 62v11q0 44 31 73t76 29q48 0 78 -34t30 -87q0 -54 -28 -100t-77 -76.5t-113 -39.5zM51 -162l-12 37q47 16 74 49.5t27 75.5l-86 62v11q0 44 31 73t76 29q48 0 78 -34t30 -87q0 -54 -28 -100t-77 -76.5t-113 -39.5z" />
    <glyph glyph-name="dagger" unicode="&#x2020;" horiz-adv-x="423" 
d="M202 -110l-57 421q-3 24 -0.5 42t9.5 37l34 87l-138 -50l-14 7v132l14 7l138 -49l-54 184l7 14h141l7 -14l-54 -184l139 49l13 -7v-132l-13 -7l-139 50l34 -87q8 -19 10.5 -37.5t-1.5 -41.5l-57 -421h-19z" />
    <glyph glyph-name="daggerdbl" unicode="&#x2021;" horiz-adv-x="423" 
d="M141 -110l-7 14l54 184l-138 -49l-14 7v132l14 7l138 -50l-25 87q-11 42 -11 84t11 84l25 87l-138 -50l-14 7v132l14 7l138 -49l-54 184l7 14h141l7 -14l-54 -184l139 49l13 -7v-132l-13 -7l-139 50l25 -87q12 -42 12 -84t-12 -84l-25 -87l139 50l13 -7v-132l-13 -7
l-139 49l54 -184l-7 -14h-141z" />
    <glyph glyph-name="bullet" unicode="&#x2022;" horiz-adv-x="394" 
d="M198 139q-40 0 -72.5 19t-52 51.5t-19.5 72.5t19.5 72.5t51.5 51.5t72 19q41 0 73 -19t51 -51.5t19 -72.5t-19 -72.5t-51 -51.5t-72 -19z" />
    <glyph glyph-name="ellipsis" unicode="&#x2026;" horiz-adv-x="969" 
d="M484 -15q-45 0 -76 27t-31 68t31 68t76 27t76 -27t31 -68t-31 -68t-76 -27zM807 -15q-45 0 -76 27t-31 68t31 68t76 27t76 -27t31 -68t-31 -68t-76 -27zM161 -15q-45 0 -76 27t-31 68t31 68t76 27t76 -27t31 -68t-31 -68t-76 -27z" />
    <glyph glyph-name="uni202F" unicode="&#x202f;" horiz-adv-x="52" 
 />
    <glyph glyph-name="perthousand" unicode="&#x2030;" horiz-adv-x="1318" 
d="M130 0l566 690h78l-566 -690h-78zM227 317q-58 0 -101 23t-66.5 64.5t-23.5 97.5q0 59 24.5 104t68 70.5t98.5 25.5q58 0 101 -22.5t66.5 -64.5t23.5 -98q0 -58 -24 -103.5t-67 -71t-100 -25.5zM227 359q37 0 55.5 36.5t18.5 108.5q0 74 -19 115t-55 41t-55 -36.5
t-19 -108.5q0 -74 19.5 -115t54.5 -41zM677 -12q-58 0 -101 22.5t-66.5 64.5t-23.5 98q0 59 24.5 104t67.5 70.5t99 25.5q58 0 101 -23t66.5 -64.5t23.5 -97.5q0 -58 -24.5 -103.5t-67 -71t-99.5 -25.5zM677 30q37 0 55.5 36.5t18.5 108.5q0 74 -19.5 115t-54.5 41
q-37 0 -55.5 -36.5t-18.5 -108.5q0 -74 19.5 -115t54.5 -41zM1091 -12q-58 0 -101 22.5t-66.5 64.5t-23.5 98q0 59 24.5 104t68 70.5t98.5 25.5q58 0 101 -23t66.5 -64.5t23.5 -97.5q0 -58 -24 -103.5t-67 -71t-100 -25.5zM1091 30q37 0 55.5 36.5t18.5 108.5q0 74 -19 115
t-55 41t-55 -36.5t-19 -108.5q0 -74 19.5 -115t54.5 -41z" />
    <glyph glyph-name="minute" unicode="&#x2032;" horiz-adv-x="254" 
d="M36 490l31 227l6 9h140l5 -9l-141 -227h-41z" />
    <glyph glyph-name="second" unicode="&#x2033;" horiz-adv-x="435" 
d="M217 490l31 227l6 9h140l5 -9l-141 -227h-41zM36 490l31 227l6 9h140l5 -9l-141 -227h-41z" />
    <glyph glyph-name="guilsinglleft" unicode="&#x2039;" horiz-adv-x="297" 
d="M237 128l-225 223v8l225 223l24 -16l-92 -211l92 -211z" />
    <glyph glyph-name="guilsinglright" unicode="&#x203a;" horiz-adv-x="297" 
d="M61 128l-25 16l92 211l-92 211l25 16l224 -223v-8z" />
    <glyph glyph-name="fraction" unicode="&#x2044;" horiz-adv-x="45" 
d="M-299 0l566 690h77l-566 -690h-77z" />
    <glyph glyph-name="uni205F" unicode="&#x205f;" horiz-adv-x="222" 
 />
    <glyph glyph-name="uni2070" unicode="&#x2070;" horiz-adv-x="454" 
d="M227 392q-58 0 -101 22.5t-66.5 64.5t-23.5 98q0 59 24.5 104t68 70.5t98.5 25.5q58 0 101 -23t66.5 -64.5t23.5 -97.5q0 -58 -24 -103.5t-67 -71t-100 -25.5zM227 434q37 0 55.5 36.5t18.5 108.5q0 74 -19 115t-55 41t-55 -36.5t-19 -108.5q0 -74 19.5 -115t54.5 -41z
" />
    <glyph glyph-name="uni2074" unicode="&#x2074;" horiz-adv-x="395" 
d="M36 487l-11 16l140 262h137v-13l-246 -248l-1 -12zM36 487l18 38h326v-38h-344zM141 404v14l58 29v158h101v-158l59 -29v-14h-218z" />
    <glyph glyph-name="uni2075" unicode="&#x2075;" horiz-adv-x="391" 
d="M187 392q-88 0 -151 40l42 82h13l71 -102l-66 5l-1 52q11 -18 31.5 -27.5t47.5 -9.5q32 0 50 21t18 57q0 33 -20.5 51t-55.5 18q-40 0 -81 -25l-17 18l13 193h184l56 39h12l-10 -116h-226l32 36l-10 -136l-13 11q19 17 46.5 25.5t56.5 8.5q67 0 106.5 -32t39.5 -87
q0 -54 -47 -88t-121 -34z" />
    <glyph glyph-name="uni2076" unicode="&#x2076;" horiz-adv-x="410" 
d="M208 392q-80 0 -126 50.5t-46 139.5q0 57 23.5 101t65 69t94.5 25q84 0 144 -36l-42 -80h-14l-77 99l72 -5l3 -63q-37 45 -80 45q-35 0 -54.5 -40t-19.5 -112q0 -79 15 -116.5t47 -37.5q24 0 37.5 18.5t13.5 50.5q0 39 -15 60t-41 21q-23 0 -44 -11.5t-36 -34.5l-7 26
q19 35 49.5 54t67.5 19q60 0 98 -31t38 -82q0 -39 -20.5 -68t-58 -45t-87.5 -16z" />
    <glyph glyph-name="uni2077" unicode="&#x2077;" horiz-adv-x="349" 
d="M79 404l213 318v-34h-189l-57 -64h-13l-3 141h295l14 -21l-140 -340h-120z" />
    <glyph glyph-name="uni2078" unicode="&#x2078;" horiz-adv-x="412" 
d="M206 392q-78 0 -124 27t-46 73q0 38 34.5 62.5t109.5 38.5l1 -20q-21 -13 -32.5 -33.5t-11.5 -43.5q0 -29 19 -47t51 -18q28 0 45 15t17 40q0 20 -16 32.5t-41 21.5t-53 18.5t-53 23t-41 36t-16 57.5q0 45 44 73.5t113 28.5q70 0 111 -24t41 -65q0 -34 -30 -54t-99 -31
l-7 16q37 25 37 67q0 24 -15 38.5t-40 14.5q-21 0 -34.5 -12t-13.5 -32t16 -33t41 -21.5t53 -18t53 -23t41 -36t16 -57.5q0 -50 -47.5 -82t-122.5 -32z" />
    <glyph glyph-name="uni2079" unicode="&#x2079;" horiz-adv-x="410" 
d="M202 777q80 0 126 -50.5t46 -139.5q0 -57 -23.5 -101t-64.5 -69t-95 -25q-84 0 -143 36l41 80h14l78 -99l-73 5l-3 63q37 -45 80 -45q35 0 54.5 40t19.5 112q0 79 -15 116.5t-46 37.5q-24 0 -38 -18t-14 -51q0 -39 15 -60t41 -21q24 0 44.5 12t36.5 34l7 -26
q-19 -34 -50 -53.5t-68 -19.5q-60 0 -98 31.5t-38 81.5q0 39 20.5 68t58 45t87.5 16z" />
    <glyph glyph-name="uni2080" unicode="&#x2080;" horiz-adv-x="454" 
d="M227 -132q-58 0 -101 22.5t-66.5 64.5t-23.5 98q0 59 24.5 104t68 70.5t98.5 25.5q58 0 101 -23t66.5 -64.5t23.5 -97.5q0 -58 -24 -103.5t-67 -71t-100 -25.5zM227 -90q37 0 55.5 36.5t18.5 108.5q0 74 -19 115t-55 41t-55 -36.5t-19 -108.5q0 -74 19.5 -115t54.5 -41z
" />
    <glyph glyph-name="uni2081" unicode="&#x2081;" horiz-adv-x="315" 
d="M39 -120v14l72 34v224h-77l-4 13l165 88h17v-325l73 -34v-14h-246z" />
    <glyph glyph-name="uni2082" unicode="&#x2082;" horiz-adv-x="382" 
d="M53 -120l-11 21l60 61q45 45 71 77.5t37.5 57t11.5 46.5q0 32 -16 51t-43 19q-20 0 -37.5 -11.5t-27.5 -28.5l2 58h64l-69 -100h-13l-46 86q27 17 65 26.5t74 9.5q78 0 120.5 -24.5t42.5 -68.5q0 -26 -18 -54t-60 -63t-115 -84l-29 -25l6 23h152l58 64h14l-2 -141h-291z
" />
    <glyph glyph-name="uni2083" unicode="&#x2083;" horiz-adv-x="385" 
d="M184 -132q-41 0 -79 10t-69 29l43 83h14l69 -104l-65 5l-2 52q27 -35 76 -35q28 0 45.5 19.5t17.5 50.5q0 32 -22 53.5t-55 21.5v33q96 0 144 -26t48 -78q0 -49 -46 -81.5t-119 -32.5zM157 75v16q31 0 52.5 20t21.5 49q0 24 -16 38.5t-42 14.5q-43 0 -75 -30l2 49l68 7
l-70 -102h-13l-43 81q60 35 145 35q69 0 109.5 -23.5t40.5 -64.5q0 -44 -45 -67t-135 -23z" />
    <glyph glyph-name="uni2084" unicode="&#x2084;" horiz-adv-x="395" 
d="M36 -37l-11 16l140 262h137v-13l-246 -248l-1 -12zM36 -37l18 38h326v-38h-344zM141 -120v14l58 29v158h101v-158l59 -29v-14h-218z" />
    <glyph glyph-name="uni2085" unicode="&#x2085;" horiz-adv-x="391" 
d="M187 -132q-88 0 -151 40l42 82h13l71 -102l-66 5l-1 52q11 -18 31.5 -27.5t47.5 -9.5q32 0 50 21t18 57q0 33 -20.5 51t-55.5 18q-40 0 -81 -25l-17 18l13 193h184l56 39h12l-10 -116h-226l32 36l-10 -136l-13 11q19 17 46.5 25.5t56.5 8.5q67 0 106.5 -32t39.5 -87
q0 -54 -47 -88t-121 -34z" />
    <glyph glyph-name="uni2086" unicode="&#x2086;" horiz-adv-x="410" 
d="M208 -132q-80 0 -126 50.5t-46 139.5q0 57 23.5 101t65 69t94.5 25q84 0 144 -36l-42 -80h-14l-77 99l72 -5l3 -63q-37 45 -80 45q-35 0 -54.5 -40t-19.5 -112q0 -79 15 -116.5t47 -37.5q24 0 37.5 18.5t13.5 50.5q0 39 -15 60t-41 21q-23 0 -44 -11.5t-36 -34.5l-7 26
q19 35 49.5 54t67.5 19q60 0 98 -31t38 -82q0 -39 -20.5 -68t-58 -45t-87.5 -16z" />
    <glyph glyph-name="uni2087" unicode="&#x2087;" horiz-adv-x="349" 
d="M79 -120l213 318v-34h-189l-57 -64h-13l-3 141h295l14 -21l-140 -340h-120z" />
    <glyph glyph-name="uni2088" unicode="&#x2088;" horiz-adv-x="412" 
d="M206 -132q-78 0 -124 27t-46 73q0 38 34.5 62.5t109.5 38.5l1 -20q-21 -13 -32.5 -33.5t-11.5 -43.5q0 -29 19 -47t51 -18q28 0 45 15t17 40q0 20 -16 32.5t-41 21.5t-53 18.5t-53 23t-41 36t-16 57.5q0 45 44 73.5t113 28.5q70 0 111 -24t41 -65q0 -34 -30 -54t-99 -31
l-7 16q37 25 37 67q0 24 -15 38.5t-40 14.5q-21 0 -34.5 -12t-13.5 -32t16 -33t41 -21.5t53 -18t53 -23t41 -36t16 -57.5q0 -50 -47.5 -82t-122.5 -32z" />
    <glyph glyph-name="uni2089" unicode="&#x2089;" horiz-adv-x="410" 
d="M202 253q80 0 126 -50.5t46 -139.5q0 -57 -23.5 -101t-64.5 -69t-95 -25q-84 0 -143 36l41 80h14l78 -99l-73 5l-3 63q37 -45 80 -45q35 0 54.5 40t19.5 112q0 79 -15 116.5t-46 37.5q-24 0 -38 -18t-14 -51q0 -39 15 -60t41 -21q24 0 44.5 12t36.5 34l7 -26
q-19 -34 -50 -53.5t-68 -19.5q-60 0 -98 31.5t-38 81.5q0 39 20.5 68t58 45t87.5 16z" />
    <glyph glyph-name="colonmonetary" unicode="&#x20a1;" horiz-adv-x="635" 
d="M355 -16q-98 0 -170 40.5t-111 115.5t-39 177q0 109 43.5 192t120 130t176.5 47q99 0 225 -63l-53 -148h-25l-157 170h146v-98q-20 35 -49 52.5t-67 17.5q-79 0 -124 -71.5t-45 -196.5q0 -82 23 -139t66.5 -87.5t104.5 -30.5q43 0 77 19t60 58l37 -18q-30 -83 -89.5 -125
t-149.5 -42zM208 -107l153 884h53l-153 -884h-53zM321 -107l153 884h53l-153 -884h-53z" />
    <glyph glyph-name="uni20A6" unicode="&#x20a6;" horiz-adv-x="742" 
d="M553 -1l-418 532v139h100l397 -506l-30 -41l-62 458l-71 67v22h246v-22l-71 -67v-582h-91zM27 0v22l71 67l21 466l-80 93v22h115l48 -581l71 -67v-22h-246zM27 328v53h688v-53h-688z" />
    <glyph glyph-name="uni20A8" unicode="&#x20a8;" horiz-adv-x="1217" 
d="M27 0v22l71 67v492l-71 67v22h247v-581l71 -67v-22h-318zM485 0l-164 309l166 48l184 -344l-96 125l123 -116v-22h-213zM163 276v54h151q64 0 103 40.5t39 104.5q0 63 -38.5 100t-103.5 37h-134v58h197q135 0 203 -47t68 -139q0 -93 -74 -143.5t-210 -50.5h-5v-14h-196z
M935 -15q-40 0 -82 7t-80.5 19t-67.5 28l58 140h26l127 -168h-96l-1 94q16 -26 50 -40.5t78 -14.5q42 0 64 14.5t22 41.5q0 26 -22 42t-56.5 27t-73 22.5t-73.5 29t-57 46t-22 73.5q0 79 62.5 122t176.5 43q37 0 75 -6t74 -17t62 -26l-57 -138h-27l-128 163h97l2 -94
q-15 25 -48 39t-69 14q-35 0 -54.5 -11.5t-19.5 -32.5q0 -26 22 -42t57 -28t74 -24t74 -29.5t57 -45.5t22 -71q0 -85 -64 -131t-182 -46z" />
    <glyph glyph-name="uni20A9" unicode="&#x20a9;" horiz-adv-x="1079" 
d="M701 -2l-209 534l2 48l-88 68v22h321v-22l-96 -74l-9 82l211 -540h-40l123 541l6 -86l-100 77v22h255v-22l-76 -87l52 96l-261 -659h-91zM287 -2l-261 658l50 -96l-74 88v22h310v-22l-96 -75l-9 83l211 -540h-39l126 541h133l-261 -659h-90zM51 273v54h972v-54h-972z" />
    <glyph glyph-name="uni20AA" unicode="&#x20aa;" horiz-adv-x="1004" 
d="M540 219v213q0 96 -50 138t-165 42h-187v58h220q185 0 271.5 -58t86.5 -180v-213h-176zM36 0v670h176v-670h-176zM646 0q-184 0 -271 58t-87 180v213h176v-213q0 -95 50.5 -137.5t164.5 -42.5h187v-58h-220zM792 0v670h176v-670h-176z" />
    <glyph glyph-name="dong" unicode="&#x20ab;" horiz-adv-x="595" 
d="M410 96l-42 76h-10v470l43 -71l-113 105v22l201 67h31v-556l-43 74l103 -97v-22l-145 -68h-25zM213 93q-53 0 -93 23.5t-62 65.5t-22 99q0 70 31.5 121.5t89 80t133.5 28.5q66 0 121 -42v-89q-29 39 -52 54.5t-54 15.5q-48 0 -75.5 -36t-27.5 -100q0 -53 25.5 -84.5
t67.5 -31.5q26 0 44 7.5t34 23.5v-57h-11q-26 -38 -65 -58.5t-84 -20.5zM231 543v54h352v-54h-352zM60 0v54h523v-54h-523z" />
    <glyph glyph-name="Euro" unicode="&#x20ac;" horiz-adv-x="698" 
d="M419 -16q-99 0 -171 40.5t-111 115.5t-39 177q0 109 43.5 192t120.5 130t176 47t225 -63l-77 -148h-25l-126 170h139v-98q-20 35 -49 52.5t-67 17.5q-79 0 -124 -71.5t-45 -196.5q0 -82 23 -139t66.5 -87.5t104.5 -30.5q43 0 77 19t60 58l38 -18q-31 -83 -90.5 -125
t-148.5 -42zM35 355v54h517l-18 -54h-499zM35 247v54h478l-18 -54h-460z" />
    <glyph glyph-name="uni20AD" unicode="&#x20ad;" horiz-adv-x="772" 
d="M405 315l-59 31l213 311l-4 -132l-107 123v22h322v-22l-168 -116l141 118zM27 0v22l71 67v492l-71 67v22h318v-22l-71 -67v-492l71 -67v-22h-318zM453 0v22l73 101l18 -109l-222 310l190 23l238 -334l-106 125l126 -116v-22h-317zM27 309v54h665v-54h-665z" />
    <glyph glyph-name="uni20AE" unicode="&#x20ae;" horiz-adv-x="691" 
d="M181 0v22l77 67v527l-58 -5l-141 -132h-24v191h622v-191h-25l-140 132l-58 5v-527l77 -67v-22h-330zM143 134v57l405 170v-56zM143 258v57l405 170v-57z" />
    <glyph glyph-name="uni20B1" unicode="&#x20b1;" horiz-adv-x="689" 
d="M27 0v22l71 67v492l-71 67v22h247v-581l74 -67v-22h-321zM299 217h-136v58h138q63 0 99 45.5t36 127.5q0 76 -36.5 120t-98.5 44h-121v58h185q81 0 140 -25.5t91 -73.5t32 -113q0 -79 -37.5 -133t-110.5 -81t-181 -27zM27 475v54h660v-54h-660zM27 357v54h660v-54h-660z
" />
    <glyph glyph-name="uni20B2" unicode="&#x20b2;" horiz-adv-x="759" 
d="M382 -16q-107 0 -185 41t-120 116.5t-42 179.5q0 82 26 149.5t74.5 115.5t117 74t152.5 26q47 0 92.5 -8.5t88.5 -24.5t78 -40l-77 -145h-24l-152 177h134l1 -95q-19 31 -56 49t-81 18q-53 0 -94.5 -33.5t-65 -93.5t-23.5 -138q0 -128 59.5 -201.5t163.5 -73.5
q29 0 54.5 12.5t46 35t34.5 54.5l38 -19q-14 -51 -49.5 -91t-84.5 -62.5t-106 -22.5zM368 -107v884h55v-884h-55zM660 -16l-153 96v169l-45 68v22h270v-22l-49 -61v-272h-23z" />
    </font>
</defs>
</svg>
